%TF.GenerationSoftware,KiCad,Pcbnew,10.0.1*%
%TF.CreationDate,2026-07-07T23:12:23-04:00*%
%TF.ProjectId,outpost-kits,6f757470-6f73-4742-9d6b-6974732e6b69,rev?*%
%TF.SameCoordinates,Original*%
%TF.FileFunction,Legend,Bot*%
%TF.FilePolarity,Positive*%
%FSLAX46Y46*%
G04 Gerber Fmt 4.6, Leading zero omitted, Abs format (unit mm)*
G04 Created by KiCad (PCBNEW 10.0.1) date 2026-07-07 23:12:23*
%MOMM*%
%LPD*%
G01*
G04 APERTURE LIST*
%ADD10C,0.150000*%
%ADD11C,0.120000*%
%ADD12C,0.000000*%
G04 APERTURE END LIST*
D10*
X124025714Y-68191009D02*
X123882857Y-68238628D01*
X123882857Y-68238628D02*
X123835238Y-68286247D01*
X123835238Y-68286247D02*
X123787619Y-68381485D01*
X123787619Y-68381485D02*
X123787619Y-68524342D01*
X123787619Y-68524342D02*
X123835238Y-68619580D01*
X123835238Y-68619580D02*
X123882857Y-68667200D01*
X123882857Y-68667200D02*
X123978095Y-68714819D01*
X123978095Y-68714819D02*
X124359047Y-68714819D01*
X124359047Y-68714819D02*
X124359047Y-67714819D01*
X124359047Y-67714819D02*
X124025714Y-67714819D01*
X124025714Y-67714819D02*
X123930476Y-67762438D01*
X123930476Y-67762438D02*
X123882857Y-67810057D01*
X123882857Y-67810057D02*
X123835238Y-67905295D01*
X123835238Y-67905295D02*
X123835238Y-68000533D01*
X123835238Y-68000533D02*
X123882857Y-68095771D01*
X123882857Y-68095771D02*
X123930476Y-68143390D01*
X123930476Y-68143390D02*
X124025714Y-68191009D01*
X124025714Y-68191009D02*
X124359047Y-68191009D01*
X123501904Y-67714819D02*
X122930476Y-67714819D01*
X123216190Y-68714819D02*
X123216190Y-67714819D01*
X122644761Y-67810057D02*
X122597142Y-67762438D01*
X122597142Y-67762438D02*
X122501904Y-67714819D01*
X122501904Y-67714819D02*
X122263809Y-67714819D01*
X122263809Y-67714819D02*
X122168571Y-67762438D01*
X122168571Y-67762438D02*
X122120952Y-67810057D01*
X122120952Y-67810057D02*
X122073333Y-67905295D01*
X122073333Y-67905295D02*
X122073333Y-68000533D01*
X122073333Y-68000533D02*
X122120952Y-68143390D01*
X122120952Y-68143390D02*
X122692380Y-68714819D01*
X122692380Y-68714819D02*
X122073333Y-68714819D01*
X121061428Y-72674700D02*
X119918571Y-72674700D01*
X120489999Y-73246128D02*
X120489999Y-72103271D01*
%TO.C,BT2*%
D11*
X118990000Y-76060000D02*
G75*
G02*
X96544329Y-72560000I-10949956J3499989D01*
G01*
X96544329Y-72560000D02*
G75*
G02*
X118990000Y-69060000I11495715J11D01*
G01*
X119740000Y-69560000D02*
G75*
G02*
X118990000Y-69060000I0J812500D01*
G01*
X118990000Y-76060000D02*
G75*
G02*
X119740000Y-75560000I750000J-312500D01*
G01*
X125440000Y-75560000D02*
X119740000Y-75560000D01*
X125440000Y-75560000D02*
X125440000Y-69560000D01*
X125440000Y-69560000D02*
X119740000Y-69560000D01*
D12*
%TO.C,G\u002A\u002A\u002A*%
G36*
X121568602Y-51515825D02*
G01*
X121851537Y-52389768D01*
X122080534Y-53253484D01*
X122260353Y-54120711D01*
X122298878Y-54345122D01*
X122349430Y-54667387D01*
X122396615Y-54997141D01*
X122437835Y-55314145D01*
X122470494Y-55598156D01*
X122491995Y-55828934D01*
X122499738Y-55986238D01*
X122499738Y-56166029D01*
X122150434Y-56166029D01*
X121801130Y-56166029D01*
X121770166Y-55416872D01*
X121768901Y-55387127D01*
X121750712Y-55057597D01*
X121724948Y-54711080D01*
X121693307Y-54361569D01*
X121657486Y-54023053D01*
X121619184Y-53709524D01*
X121580097Y-53434972D01*
X121541923Y-53213389D01*
X121506360Y-53058765D01*
X121475106Y-52985092D01*
X121455058Y-52974033D01*
X121349516Y-52949432D01*
X121175684Y-52926846D01*
X120952182Y-52907998D01*
X120697627Y-52894612D01*
X120430637Y-52888411D01*
X120329383Y-52888364D01*
X119996275Y-52898380D01*
X119644923Y-52925082D01*
X119268194Y-52970006D01*
X118858957Y-53034691D01*
X118410079Y-53120672D01*
X117914428Y-53229488D01*
X117364871Y-53362675D01*
X116754277Y-53521771D01*
X116431578Y-53610457D01*
X116075513Y-53708313D01*
X115321446Y-53923838D01*
X114484944Y-54169884D01*
X114249607Y-54239519D01*
X113492459Y-54457437D01*
X112805575Y-54644243D01*
X112174881Y-54803003D01*
X111586303Y-54936781D01*
X111025765Y-55048641D01*
X110479193Y-55141650D01*
X109932513Y-55218873D01*
X109371649Y-55283373D01*
X109181621Y-55301856D01*
X108740173Y-55337223D01*
X108285152Y-55364510D01*
X107834570Y-55383230D01*
X107406436Y-55392897D01*
X107018762Y-55393024D01*
X106689559Y-55383123D01*
X106436837Y-55362708D01*
X106396393Y-55357565D01*
X105675350Y-55224693D01*
X104915105Y-55009848D01*
X104120830Y-54714935D01*
X103297692Y-54341862D01*
X102450862Y-53892535D01*
X102382362Y-53853235D01*
X101990131Y-53616663D01*
X101701301Y-53431917D01*
X104472398Y-53431917D01*
X104497661Y-53518680D01*
X104602441Y-53614920D01*
X104792897Y-53700417D01*
X105073679Y-53777845D01*
X105259912Y-53819495D01*
X105542847Y-53877145D01*
X105752142Y-53906194D01*
X105899785Y-53903639D01*
X105997765Y-53866476D01*
X106024883Y-53832851D01*
X106565282Y-53832851D01*
X106565348Y-53838216D01*
X106612698Y-53981936D01*
X106734991Y-54113667D01*
X106913228Y-54212674D01*
X107058055Y-54253507D01*
X107320835Y-54258651D01*
X107566229Y-54178411D01*
X107779224Y-54018988D01*
X107944808Y-53786582D01*
X108039492Y-53537402D01*
X108104583Y-53214332D01*
X108131211Y-52862165D01*
X108118902Y-52509711D01*
X108067181Y-52185780D01*
X107975574Y-51919184D01*
X107912585Y-51809411D01*
X107752579Y-51629329D01*
X107565377Y-51513139D01*
X107504534Y-51497881D01*
X109466780Y-51497881D01*
X109467039Y-51505749D01*
X109503852Y-51627124D01*
X109592865Y-51791828D01*
X109719642Y-51978440D01*
X109869748Y-52165541D01*
X110028746Y-52331711D01*
X110175463Y-52469116D01*
X110083521Y-52649337D01*
X110066703Y-52684745D01*
X110005241Y-52837614D01*
X109996621Y-52862165D01*
X109935222Y-53037030D01*
X109868744Y-53249198D01*
X109864377Y-53264206D01*
X109793441Y-53556148D01*
X109771723Y-53780441D01*
X109799343Y-53950327D01*
X109876426Y-54079045D01*
X109878616Y-54081438D01*
X110005336Y-54157262D01*
X110150808Y-54150171D01*
X110289695Y-54061254D01*
X110305820Y-54043123D01*
X110356176Y-53957701D01*
X110403581Y-53823490D01*
X110452701Y-53625258D01*
X110508201Y-53347771D01*
X110546593Y-53145771D01*
X110585252Y-52960410D01*
X110617402Y-52842191D01*
X110648476Y-52776207D01*
X110683902Y-52747550D01*
X110729113Y-52741310D01*
X110800525Y-52759547D01*
X110859425Y-52829950D01*
X110919975Y-52973094D01*
X111015212Y-53188185D01*
X111152045Y-53405027D01*
X111306769Y-53580604D01*
X111466492Y-53702991D01*
X111618323Y-53760259D01*
X111749373Y-53740483D01*
X111810945Y-53690645D01*
X111837278Y-53610457D01*
X111818445Y-53490559D01*
X111752168Y-53317635D01*
X111636171Y-53078365D01*
X111594849Y-52996266D01*
X111428178Y-52622824D01*
X111310623Y-52264910D01*
X111232075Y-51886264D01*
X111182428Y-51450622D01*
X111172140Y-51332404D01*
X111139015Y-51056977D01*
X111096769Y-50861814D01*
X111041182Y-50735966D01*
X110968031Y-50668487D01*
X110947015Y-50664046D01*
X111660712Y-50664046D01*
X111663313Y-50826755D01*
X111729541Y-50954205D01*
X111748481Y-50972132D01*
X111841358Y-51022215D01*
X111944434Y-51000914D01*
X112080085Y-50905094D01*
X112211670Y-50822099D01*
X112345173Y-50811841D01*
X112473772Y-50890544D01*
X112606396Y-51060852D01*
X112619311Y-51081505D01*
X112800625Y-51450186D01*
X112918281Y-51852099D01*
X112961198Y-52250104D01*
X112959048Y-52367371D01*
X112928184Y-52590796D01*
X112853023Y-52745605D01*
X112723616Y-52847031D01*
X112530013Y-52910308D01*
X112473916Y-52923568D01*
X112335236Y-52977114D01*
X112280992Y-53044875D01*
X112274003Y-53128770D01*
X112323546Y-53293437D01*
X112456898Y-53419599D01*
X112476777Y-53430977D01*
X112630965Y-53489089D01*
X112798358Y-53488853D01*
X113010413Y-53430915D01*
X113146928Y-53366765D01*
X113344800Y-53193599D01*
X113488259Y-52946390D01*
X113575389Y-52628960D01*
X113604279Y-52245130D01*
X113594232Y-52021585D01*
X113534789Y-51636139D01*
X113428388Y-51265392D01*
X113282421Y-50925324D01*
X113104280Y-50631917D01*
X112958920Y-50466614D01*
X113986641Y-50466614D01*
X113989551Y-50667101D01*
X114021899Y-51117008D01*
X114092818Y-51596780D01*
X114205835Y-52133224D01*
X114233310Y-52245130D01*
X114258912Y-52349404D01*
X114307714Y-52514971D01*
X114356278Y-52628704D01*
X114414021Y-52712248D01*
X114490360Y-52787250D01*
X114500956Y-52796409D01*
X114665019Y-52901294D01*
X114811841Y-52928262D01*
X114927304Y-52874494D01*
X114940814Y-52859607D01*
X114974623Y-52789102D01*
X114977618Y-52684821D01*
X114948477Y-52528506D01*
X114885880Y-52301901D01*
X114879866Y-52281548D01*
X114836028Y-52121407D01*
X114809735Y-52003480D01*
X114806494Y-51952033D01*
X114846929Y-51940024D01*
X114958967Y-51921573D01*
X115114022Y-51902773D01*
X115272558Y-51888999D01*
X115367505Y-51893739D01*
X115421256Y-51923895D01*
X115460643Y-51985902D01*
X115487583Y-52030532D01*
X115577453Y-52150319D01*
X115689360Y-52277546D01*
X115803753Y-52379113D01*
X115947942Y-52452205D01*
X116065449Y-52448649D01*
X116144549Y-52369903D01*
X116173521Y-52217421D01*
X116170902Y-52203565D01*
X116134537Y-52112160D01*
X116060686Y-51955963D01*
X115956132Y-51748543D01*
X115827660Y-51503474D01*
X115682056Y-51234326D01*
X115658423Y-51191268D01*
X115498814Y-50899556D01*
X115343781Y-50614795D01*
X115203666Y-50356073D01*
X115088812Y-50142476D01*
X115009559Y-49993093D01*
X114864973Y-49745822D01*
X114708427Y-49552156D01*
X114596089Y-49473995D01*
X115997597Y-49473995D01*
X116028576Y-49687458D01*
X116095467Y-49973919D01*
X116115589Y-50050946D01*
X116192167Y-50330806D01*
X116278828Y-50631374D01*
X116370500Y-50936598D01*
X116462110Y-51230421D01*
X116548584Y-51496791D01*
X116624848Y-51719654D01*
X116685830Y-51882955D01*
X116726456Y-51970641D01*
X116731236Y-51977756D01*
X116825668Y-52079300D01*
X116949046Y-52172617D01*
X117027075Y-52215436D01*
X117034270Y-52217421D01*
X117177439Y-52256922D01*
X117288348Y-52215075D01*
X117366717Y-52088505D01*
X117376624Y-52052873D01*
X117381938Y-51933268D01*
X117360512Y-51752572D01*
X117310965Y-51496109D01*
X117281679Y-51354968D01*
X117248435Y-51179985D01*
X117228952Y-51057022D01*
X117226742Y-51006486D01*
X117283449Y-50973632D01*
X117400779Y-50923065D01*
X117552882Y-50864786D01*
X117715160Y-50807464D01*
X117863020Y-50759769D01*
X117971864Y-50730367D01*
X118017098Y-50727929D01*
X118022909Y-50740526D01*
X118066275Y-50822513D01*
X118140613Y-50957332D01*
X118234017Y-51123285D01*
X118325689Y-51273233D01*
X118512635Y-51507859D01*
X118700558Y-51648212D01*
X118890118Y-51694868D01*
X118931386Y-51692569D01*
X119044763Y-51645796D01*
X119105757Y-51535542D01*
X119114779Y-51357561D01*
X119072240Y-51107603D01*
X118978551Y-50781422D01*
X118964131Y-50736907D01*
X118751583Y-50007338D01*
X118575928Y-49245256D01*
X118518789Y-49018444D01*
X118428161Y-48807021D01*
X118316467Y-48685310D01*
X118181481Y-48651132D01*
X118020976Y-48702307D01*
X117971676Y-48738414D01*
X117871708Y-48875401D01*
X117790881Y-49069399D01*
X117736404Y-49294392D01*
X117715484Y-49524363D01*
X117735331Y-49733296D01*
X117743205Y-49770524D01*
X117756098Y-49905890D01*
X117725928Y-49974810D01*
X117725161Y-49975404D01*
X117656890Y-50011823D01*
X117537334Y-50063271D01*
X117394253Y-50119286D01*
X117255411Y-50169406D01*
X117148568Y-50203171D01*
X117101487Y-50210118D01*
X117101473Y-50210100D01*
X117077806Y-50164208D01*
X117021589Y-50049738D01*
X116941218Y-49883912D01*
X116845084Y-49683955D01*
X116746849Y-49483523D01*
X116657388Y-49318142D01*
X116583182Y-49209035D01*
X116512520Y-49139362D01*
X116433694Y-49092282D01*
X116403312Y-49077934D01*
X116302244Y-49040112D01*
X116229040Y-49049920D01*
X116137457Y-49110145D01*
X116127613Y-49117644D01*
X116046367Y-49204483D01*
X116003278Y-49318135D01*
X115997597Y-49473995D01*
X114596089Y-49473995D01*
X114554808Y-49445273D01*
X114399765Y-49421095D01*
X114254085Y-49470574D01*
X114135881Y-49596868D01*
X114052822Y-49802653D01*
X114003534Y-50091408D01*
X113986641Y-50466614D01*
X112958920Y-50466614D01*
X112901355Y-50401151D01*
X112681039Y-50249009D01*
X112575885Y-50210821D01*
X112353619Y-50177028D01*
X112126469Y-50188315D01*
X111938631Y-50244924D01*
X111814203Y-50342032D01*
X111713691Y-50493373D01*
X111660712Y-50664046D01*
X110947015Y-50664046D01*
X110873095Y-50648426D01*
X110871645Y-50648435D01*
X110754358Y-50690521D01*
X110705057Y-50734838D01*
X110630099Y-50802218D01*
X110606970Y-50829974D01*
X110556525Y-50899323D01*
X110527041Y-50971118D01*
X110514708Y-51068487D01*
X110515715Y-51214559D01*
X110526250Y-51432461D01*
X110534315Y-51561464D01*
X110551467Y-51761035D01*
X110570700Y-51917166D01*
X110589172Y-52004044D01*
X110582132Y-52017143D01*
X110521483Y-51982273D01*
X110414191Y-51897537D01*
X110272594Y-51771983D01*
X110122017Y-51637560D01*
X109888194Y-51454163D01*
X109704985Y-51348233D01*
X109573164Y-51320034D01*
X109493505Y-51369829D01*
X109466780Y-51497881D01*
X107504534Y-51497881D01*
X107367512Y-51463519D01*
X107175516Y-51483150D01*
X107005922Y-51574709D01*
X106926632Y-51675547D01*
X106875263Y-51740877D01*
X106823088Y-51865064D01*
X106806390Y-52006534D01*
X106855426Y-52090213D01*
X106963202Y-52107379D01*
X107122722Y-52049316D01*
X107125746Y-52047689D01*
X107240155Y-51994419D01*
X107321033Y-51990000D01*
X107413796Y-52031680D01*
X107496884Y-52090927D01*
X107601052Y-52234906D01*
X107659414Y-52442199D01*
X107676619Y-52725072D01*
X107676554Y-52734675D01*
X107664345Y-52959249D01*
X107625117Y-53139528D01*
X107548672Y-53323180D01*
X107533283Y-53354067D01*
X107417698Y-53541365D01*
X107292670Y-53647188D01*
X107137648Y-53682735D01*
X106932083Y-53659207D01*
X106779096Y-53635345D01*
X106651122Y-53646535D01*
X106584445Y-53710195D01*
X106565282Y-53832851D01*
X106024883Y-53832851D01*
X106058070Y-53791701D01*
X106092688Y-53676312D01*
X106113609Y-53517305D01*
X106114795Y-53505520D01*
X106134929Y-53325816D01*
X106164469Y-53084677D01*
X106199632Y-52812206D01*
X106236635Y-52538503D01*
X106261953Y-52352493D01*
X106298280Y-52058814D01*
X106318320Y-51837788D01*
X106322059Y-51675547D01*
X106309480Y-51558223D01*
X106280567Y-51471947D01*
X106235303Y-51402853D01*
X106203308Y-51366275D01*
X106131980Y-51319812D01*
X106056932Y-51342174D01*
X106030810Y-51361335D01*
X105989886Y-51416802D01*
X105956619Y-51461892D01*
X105890373Y-51629816D01*
X105830873Y-51870656D01*
X105776925Y-52189961D01*
X105727331Y-52593280D01*
X105680896Y-53086161D01*
X105653964Y-53407228D01*
X105458460Y-53407228D01*
X105375757Y-53403911D01*
X105186871Y-53384012D01*
X104996120Y-53352114D01*
X104808095Y-53324936D01*
X104632263Y-53327522D01*
X104515031Y-53363995D01*
X104472398Y-53431917D01*
X101701301Y-53431917D01*
X101547830Y-53333751D01*
X101074046Y-53017525D01*
X100587367Y-52681010D01*
X100106380Y-52337233D01*
X99649672Y-51999219D01*
X99308956Y-51736398D01*
X101111095Y-51736398D01*
X101116408Y-51915411D01*
X101123624Y-51939461D01*
X101213942Y-52093073D01*
X101369151Y-52250680D01*
X101566718Y-52392583D01*
X101784108Y-52499085D01*
X101978795Y-52560922D01*
X102161984Y-52593803D01*
X102292157Y-52586928D01*
X102353149Y-52539157D01*
X102357172Y-52525877D01*
X102390308Y-52413208D01*
X102422704Y-52301359D01*
X103015949Y-52301359D01*
X103031572Y-52626034D01*
X103094125Y-52891041D01*
X103201861Y-53087766D01*
X103353030Y-53207592D01*
X103502997Y-53253539D01*
X103744014Y-53255835D01*
X103982620Y-53186307D01*
X104193411Y-53053639D01*
X104350979Y-52866512D01*
X104381939Y-52806053D01*
X104455084Y-52628166D01*
X104536565Y-52395874D01*
X104618510Y-52134898D01*
X104693050Y-51870958D01*
X104752312Y-51629777D01*
X104788426Y-51437075D01*
X104791006Y-51416802D01*
X104788341Y-51230223D01*
X104729632Y-51115560D01*
X104616642Y-51076516D01*
X104594013Y-51077838D01*
X104518318Y-51108483D01*
X104450261Y-51188175D01*
X104384191Y-51328139D01*
X104314457Y-51539599D01*
X104235409Y-51833781D01*
X104152777Y-52149417D01*
X104073587Y-52419765D01*
X104005066Y-52612416D01*
X103944175Y-52735807D01*
X103887875Y-52798372D01*
X103781477Y-52833928D01*
X103656435Y-52816834D01*
X103570326Y-52744437D01*
X103541079Y-52653550D01*
X103523539Y-52461154D01*
X103531646Y-52205505D01*
X103564687Y-51902819D01*
X103621950Y-51569312D01*
X103667053Y-51314717D01*
X103687300Y-51093931D01*
X103671824Y-50946563D01*
X103619569Y-50864266D01*
X103529479Y-50838689D01*
X103423191Y-50869566D01*
X103319672Y-50976977D01*
X103227487Y-51165745D01*
X103144468Y-51440421D01*
X103068443Y-51805555D01*
X103049005Y-51925630D01*
X103015949Y-52301359D01*
X102422704Y-52301359D01*
X102442004Y-52234724D01*
X102506178Y-52011690D01*
X102576745Y-51765369D01*
X102647625Y-51517025D01*
X102712733Y-51287922D01*
X102765987Y-51099325D01*
X102801305Y-50972496D01*
X102836755Y-50835510D01*
X102851687Y-50734838D01*
X102837420Y-50670008D01*
X102793296Y-50611330D01*
X102734532Y-50557394D01*
X102564254Y-50447620D01*
X102350789Y-50346574D01*
X102128008Y-50269197D01*
X101929778Y-50230428D01*
X101840956Y-50224223D01*
X101724740Y-50228644D01*
X101648990Y-50263697D01*
X101578490Y-50340404D01*
X101526251Y-50433339D01*
X101480243Y-50621408D01*
X101480457Y-50823039D01*
X101530155Y-50994130D01*
X101536690Y-51006612D01*
X101559678Y-51082469D01*
X101518721Y-51117692D01*
X101390941Y-51196005D01*
X101263284Y-51347107D01*
X101165028Y-51537101D01*
X101111095Y-51736398D01*
X99308956Y-51736398D01*
X99235832Y-51679992D01*
X98883446Y-51392580D01*
X98667017Y-51208416D01*
X98335496Y-50922249D01*
X98056649Y-50676021D01*
X97834762Y-50473676D01*
X97674120Y-50319155D01*
X97579011Y-50216403D01*
X97553719Y-50169361D01*
X97571540Y-50162246D01*
X97671529Y-50150118D01*
X97848297Y-50139897D01*
X98089894Y-50132037D01*
X98384370Y-50126989D01*
X98719774Y-50125205D01*
X98940558Y-50124647D01*
X99236326Y-50121988D01*
X99489023Y-50117439D01*
X99685634Y-50111338D01*
X99813144Y-50104019D01*
X99858540Y-50095819D01*
X99850675Y-50075471D01*
X99806047Y-49981339D01*
X99727295Y-49822318D01*
X99620511Y-49610542D01*
X99491786Y-49358143D01*
X99347210Y-49077256D01*
X99257668Y-48902393D01*
X99125344Y-48637221D01*
X99014927Y-48407447D01*
X98932066Y-48225243D01*
X98882408Y-48102780D01*
X98871601Y-48052228D01*
X98905410Y-48048916D01*
X99002788Y-48080846D01*
X99133211Y-48146663D01*
X99193116Y-48179928D01*
X99353748Y-48264698D01*
X99567640Y-48374213D01*
X99814136Y-48497948D01*
X100072585Y-48625378D01*
X100705243Y-48917763D01*
X101749299Y-49330124D01*
X102800422Y-49660501D01*
X103852838Y-49908304D01*
X104900772Y-50072943D01*
X105938448Y-50153826D01*
X106960093Y-50150362D01*
X107959931Y-50061961D01*
X108932187Y-49888031D01*
X109871087Y-49627983D01*
X110037489Y-49570234D01*
X110334673Y-49458465D01*
X110667611Y-49325483D01*
X111006575Y-49183260D01*
X111321836Y-49043770D01*
X112258806Y-48633239D01*
X113147039Y-48282190D01*
X113982274Y-47994070D01*
X114771962Y-47766973D01*
X115523555Y-47598990D01*
X116244503Y-47488215D01*
X116942258Y-47432741D01*
X117624270Y-47430660D01*
X118023929Y-47450429D01*
X118380112Y-47483271D01*
X118691178Y-47532328D01*
X118982695Y-47601692D01*
X119280234Y-47695448D01*
X119318448Y-47708518D01*
X119473512Y-47753419D01*
X119573943Y-47761490D01*
X119646206Y-47735640D01*
X119651003Y-47732723D01*
X119706583Y-47713013D01*
X119764368Y-47725559D01*
X119829696Y-47778112D01*
X119907901Y-47878423D01*
X120004322Y-48034245D01*
X120124293Y-48253328D01*
X120273152Y-48543424D01*
X120456233Y-48912284D01*
X120821882Y-49682301D01*
X121226970Y-50617916D01*
X121508386Y-51357561D01*
X121568602Y-51515825D01*
G37*
G36*
X114539101Y-50292088D02*
G01*
X114615203Y-50381411D01*
X114720084Y-50521145D01*
X114840988Y-50694953D01*
X114865889Y-50731890D01*
X114985981Y-50909765D01*
X115055851Y-51025252D01*
X115074738Y-51094588D01*
X115041882Y-51134009D01*
X114956524Y-51159755D01*
X114817903Y-51188061D01*
X114801656Y-51191473D01*
X114648402Y-51215820D01*
X114561348Y-51197430D01*
X114517030Y-51120566D01*
X114491983Y-50969494D01*
X114477329Y-50828573D01*
X114464144Y-50610472D01*
X114465045Y-50432241D01*
X114479631Y-50312008D01*
X114507500Y-50267902D01*
X114539101Y-50292088D01*
G37*
G36*
X101929150Y-51537542D02*
G01*
X102061454Y-51587621D01*
X102151365Y-51653940D01*
X102172530Y-51729582D01*
X102171249Y-51734193D01*
X102145109Y-51842298D01*
X102115861Y-51980262D01*
X102112267Y-51998042D01*
X102084635Y-52115188D01*
X102062200Y-52181990D01*
X102047520Y-52192241D01*
X101968233Y-52183985D01*
X101848745Y-52138462D01*
X101715366Y-52068734D01*
X101594405Y-51987864D01*
X101512171Y-51908913D01*
X101505781Y-51899098D01*
X101478355Y-51788743D01*
X101488473Y-51657859D01*
X101532847Y-51561685D01*
X101541424Y-51553923D01*
X101642781Y-51513776D01*
X101780808Y-51510622D01*
X101929150Y-51537542D01*
G37*
G36*
X102060137Y-50662085D02*
G01*
X102196424Y-50692204D01*
X102340742Y-50737028D01*
X102468451Y-50786413D01*
X102366976Y-51026596D01*
X102323240Y-51123622D01*
X102268045Y-51226748D01*
X102233494Y-51266778D01*
X102199480Y-51248810D01*
X102111166Y-51182115D01*
X101994482Y-51083078D01*
X101884001Y-50981275D01*
X101826688Y-50908605D01*
X101818540Y-50846207D01*
X101847359Y-50767953D01*
X101882563Y-50702137D01*
X101947319Y-50656036D01*
X102060137Y-50662085D01*
G37*
%TD*%
M02*
