M48
; DRILL file KiCad 10.0.1 date 2026-07-07T23:12:26
; FORMAT={-:-/ absolute / metric / decimal}
; #@! TF.CreationDate,2026-07-07T23:12:26-04:00
; #@! TF.GenerationSoftware,Kicad,Pcbnew,10.0.1
; #@! TF.FileFunction,Plated,1,2,PTH
FMAT,2
METRIC
; #@! TA.AperFunction,Plated,PTH,ViaDrill
T1C0.300
; #@! TA.AperFunction,Plated,PTH,ComponentDrill
T2C0.700
; #@! TA.AperFunction,Plated,PTH,ComponentDrill
T3C0.800
; #@! TA.AperFunction,Plated,PTH,ComponentDrill
T4C1.100
; #@! TA.AperFunction,Plated,PTH,ComponentDrill
T5C1.500
%
G90
G05
T1
X99.2Y-65.8
X106.3Y-58.0
T2
X106.115Y-80.515
X111.195Y-80.515
X113.115Y-80.49
X118.195Y-80.49
T3
X94.65Y-49.27
X94.65Y-51.81
X94.65Y-54.35
X94.65Y-56.89
X94.65Y-59.43
X94.65Y-61.97
X94.65Y-64.51
X94.65Y-67.05
X100.09Y-80.49
X100.09Y-82.49
X102.27Y-49.27
X102.27Y-51.81
X102.27Y-54.35
X102.27Y-56.89
X102.27Y-59.43
X102.27Y-61.97
X102.27Y-64.51
X102.27Y-67.05
X105.07Y-47.95
X105.07Y-63.19
X106.37Y-68.39
X106.37Y-76.01
X107.61Y-47.95
X107.61Y-63.19
X108.91Y-68.39
X108.91Y-76.01
X110.15Y-47.95
X110.15Y-63.19
X111.45Y-68.39
X111.45Y-76.01
X112.69Y-47.95
X112.69Y-63.19
X113.99Y-68.39
X113.99Y-76.01
X115.23Y-47.95
X115.23Y-63.19
T4
X106.9Y-87.27
X106.9Y-91.77
X113.4Y-87.27
X113.4Y-91.77
T5
X102.75Y-72.56
X123.24Y-72.56
M30
