%TF.GenerationSoftware,KiCad,Pcbnew,10.0.1*%
%TF.CreationDate,2026-07-07T22:51:14-04:00*%
%TF.ProjectId,outpost-kits,6f757470-6f73-4742-9d6b-6974732e6b69,rev?*%
%TF.SameCoordinates,Original*%
%TF.FileFunction,Copper,L1,Top*%
%TF.FilePolarity,Positive*%
%FSLAX46Y46*%
G04 Gerber Fmt 4.6, Leading zero omitted, Abs format (unit mm)*
G04 Created by KiCad (PCBNEW 10.0.1) date 2026-07-07 22:51:14*
%MOMM*%
%LPD*%
G01*
G04 APERTURE LIST*
G04 Aperture macros list*
%AMRoundRect*
0 Rectangle with rounded corners*
0 $1 Rounding radius*
0 $2 $3 $4 $5 $6 $7 $8 $9 X,Y pos of 4 corners*
0 Add a 4 corners polygon primitive as box body*
4,1,4,$2,$3,$4,$5,$6,$7,$8,$9,$2,$3,0*
0 Add four circle primitives for the rounded corners*
1,1,$1+$1,$2,$3*
1,1,$1+$1,$4,$5*
1,1,$1+$1,$6,$7*
1,1,$1+$1,$8,$9*
0 Add four rect primitives between the rounded corners*
20,1,$1+$1,$2,$3,$4,$5,0*
20,1,$1+$1,$4,$5,$6,$7,0*
20,1,$1+$1,$6,$7,$8,$9,0*
20,1,$1+$1,$8,$9,$2,$3,0*%
G04 Aperture macros list end*
%TA.AperFunction,ComponentPad*%
%ADD10C,1.400000*%
%TD*%
%TA.AperFunction,ComponentPad*%
%ADD11C,2.000000*%
%TD*%
%TA.AperFunction,ComponentPad*%
%ADD12RoundRect,0.250000X0.550000X0.550000X-0.550000X0.550000X-0.550000X-0.550000X0.550000X-0.550000X0*%
%TD*%
%TA.AperFunction,ComponentPad*%
%ADD13C,1.600000*%
%TD*%
%TA.AperFunction,ComponentPad*%
%ADD14C,3.000000*%
%TD*%
%TA.AperFunction,ComponentPad*%
%ADD15R,3.000000X3.000000*%
%TD*%
%TA.AperFunction,ComponentPad*%
%ADD16RoundRect,0.250000X-0.550000X0.550000X-0.550000X-0.550000X0.550000X-0.550000X0.550000X0.550000X0*%
%TD*%
%TA.AperFunction,ComponentPad*%
%ADD17O,1.524000X2.524000*%
%TD*%
%TA.AperFunction,ComponentPad*%
%ADD18R,1.524000X2.524000*%
%TD*%
%TA.AperFunction,Conductor*%
%ADD19C,0.500000*%
%TD*%
%TA.AperFunction,Conductor*%
%ADD20C,0.200000*%
%TD*%
G04 APERTURE END LIST*
D10*
%TO.P,R2,1*%
%TO.N,Net-(U1-THRES)*%
X106115000Y-80515000D03*
%TO.P,R2,2*%
%TO.N,Net-(U1-DISCH)*%
X111195000Y-80515000D03*
%TD*%
%TO.P,R1,1*%
%TO.N,Net-(U1-DISCH)*%
X113115000Y-80490000D03*
%TO.P,R1,2*%
%TO.N,Net-(U1-VCC)*%
X118195000Y-80490000D03*
%TD*%
D11*
%TO.P,SW1,2,2_2*%
%TO.N,DICE_3V3*%
X113400000Y-91770000D03*
X106900000Y-91770000D03*
%TO.P,SW1,1,1_1*%
%TO.N,Net-(U1-VCC)*%
X113400000Y-87270000D03*
X106900000Y-87270000D03*
%TD*%
D12*
%TO.P,U2,1,CLK_1*%
%TO.N,Net-(U1-OUT)*%
X102270000Y-67050000D03*
D13*
%TO.P,U2,2,CLKN_2*%
%TO.N,Earth*%
X102270000Y-64510000D03*
%TO.P,U2,3,DIS_EI_3*%
%TO.N,DICE_3V3*%
X102270000Y-61970000D03*
%TO.P,U2,4,DIS_EO_4*%
%TO.N,unconnected-(U2-DIS_EO-Pad4)*%
X102270000Y-59430000D03*
%TO.P,U2,5,CARRY_5*%
%TO.N,unconnected-(U2-CARRY-Pad5)*%
X102270000Y-56890000D03*
%TO.P,U2,6,F_6*%
%TO.N,Net-(U2-F)*%
X102270000Y-54350000D03*
%TO.P,U2,7,G_7*%
%TO.N,Net-(U2-G)*%
X102270000Y-51810000D03*
%TO.P,U2,8,VSS_8*%
%TO.N,Earth*%
X102270000Y-49270000D03*
%TO.P,U2,9,D_9*%
%TO.N,Net-(U2-D)*%
X94650000Y-49270000D03*
%TO.P,U2,10,A_10*%
%TO.N,Net-(U2-A)*%
X94650000Y-51810000D03*
%TO.P,U2,11,E_11*%
%TO.N,Net-(U2-E)*%
X94650000Y-54350000D03*
%TO.P,U2,12,B_12*%
%TO.N,Net-(U2-B)*%
X94650000Y-56890000D03*
%TO.P,U2,13,C_13*%
%TO.N,Net-(U2-C)*%
X94650000Y-59430000D03*
%TO.P,U2,14,UCS_14*%
%TO.N,unconnected-(U2-UCS-Pad14)*%
X94650000Y-61970000D03*
%TO.P,U2,15,RST_15*%
%TO.N,unconnected-(U2-RST-Pad15)*%
X94650000Y-64510000D03*
%TO.P,U2,16,VDD_16*%
%TO.N,DICE_3V3*%
X94650000Y-67050000D03*
%TD*%
D14*
%TO.P,BT2,2,-_2*%
%TO.N,Earth*%
X102750000Y-72560000D03*
D15*
%TO.P,BT2,1,+_1*%
%TO.N,DICE_3V3*%
X123240000Y-72560000D03*
%TD*%
D13*
%TO.P,C1,2*%
%TO.N,Earth*%
X100090000Y-82490000D03*
D16*
%TO.P,C1,1*%
%TO.N,Net-(U1-THRES)*%
X100090000Y-80490000D03*
%TD*%
D13*
%TO.P,U1,8,VCC_8*%
%TO.N,Net-(U1-VCC)*%
X113990000Y-76010000D03*
%TO.P,U1,7,DISCH_7*%
%TO.N,Net-(U1-DISCH)*%
X111450000Y-76010000D03*
%TO.P,U1,6,THRES_6*%
%TO.N,Net-(U1-THRES)*%
X108910000Y-76010000D03*
%TO.P,U1,5,CONT_5*%
%TO.N,unconnected-(U1-CONT-Pad5)*%
X106370000Y-76010000D03*
%TO.P,U1,4,~{RST}_4*%
%TO.N,Net-(U1-VCC)*%
X106370000Y-68390000D03*
%TO.P,U1,3,OUT_3*%
%TO.N,Net-(U1-OUT)*%
X108910000Y-68390000D03*
%TO.P,U1,2,TRIG_2*%
%TO.N,Net-(U1-THRES)*%
X111450000Y-68390000D03*
D16*
%TO.P,U1,1,GND_1*%
%TO.N,Earth*%
X113990000Y-68390000D03*
%TD*%
D17*
%TO.P,U3,10,G_10*%
%TO.N,Net-(U2-G)*%
X105070000Y-47950000D03*
%TO.P,U3,9,F_9*%
%TO.N,Net-(U2-F)*%
X107610000Y-47950000D03*
%TO.P,U3,8,CC_8*%
%TO.N,Earth*%
X110150000Y-47950000D03*
%TO.P,U3,7,A_7*%
%TO.N,Net-(U2-A)*%
X112690000Y-47950000D03*
%TO.P,U3,6,B_6*%
%TO.N,Net-(U2-B)*%
X115230000Y-47950000D03*
%TO.P,U3,5,DP_5*%
%TO.N,unconnected-(U3-DP-Pad5)*%
X115230000Y-63190000D03*
%TO.P,U3,4,C_4*%
%TO.N,Net-(U2-C)*%
X112690000Y-63190000D03*
%TO.P,U3,3,CC_3*%
%TO.N,Earth*%
X110150000Y-63190000D03*
%TO.P,U3,2,D_2*%
%TO.N,Net-(U2-D)*%
X107610000Y-63190000D03*
D18*
%TO.P,U3,1,E_1*%
%TO.N,Net-(U2-E)*%
X105070000Y-63190000D03*
%TD*%
%TO.N,Net-(U1-VCC)*%
D19*
X115710000Y-76010000D02*
X118195000Y-78495000D01*
X113990000Y-76010000D02*
X115710000Y-76010000D01*
X118195000Y-78495000D02*
X118195000Y-80490000D01*
X118195000Y-82475000D02*
X118195000Y-80490000D01*
X113400000Y-87270000D02*
X118195000Y-82475000D01*
%TO.N,Net-(U1-DISCH)*%
X111220000Y-80490000D02*
X111195000Y-80515000D01*
X113115000Y-80490000D02*
X111220000Y-80490000D01*
X111195000Y-76265000D02*
X111450000Y-76010000D01*
X111195000Y-80515000D02*
X111195000Y-76265000D01*
%TO.N,Net-(U1-THRES)*%
X106090000Y-80490000D02*
X106115000Y-80515000D01*
X100090000Y-80490000D02*
X106090000Y-80490000D01*
X108910000Y-77770000D02*
X106190000Y-80490000D01*
X106140000Y-80490000D02*
X106115000Y-80515000D01*
X106190000Y-80490000D02*
X106140000Y-80490000D01*
X108910000Y-76010000D02*
X108910000Y-77770000D01*
%TO.N,Net-(U1-VCC)*%
X113990000Y-76010000D02*
X106370000Y-68390000D01*
X106900000Y-87270000D02*
X113400000Y-87270000D01*
%TO.N,DICE_3V3*%
X116560000Y-91770000D02*
X124140000Y-84190000D01*
X124140000Y-84190000D02*
X124140000Y-73460000D01*
X124140000Y-73460000D02*
X123240000Y-72560000D01*
%TO.N,Net-(U1-OUT)*%
X102430000Y-66890000D02*
X102270000Y-67050000D01*
X108910000Y-68310000D02*
X107490000Y-66890000D01*
X107490000Y-66890000D02*
X102430000Y-66890000D01*
X108910000Y-68390000D02*
X108910000Y-68310000D01*
%TO.N,Net-(U2-F)*%
D20*
X107610000Y-47950000D02*
X107610000Y-49950000D01*
%TO.N,Net-(U2-D)*%
X95750000Y-51925635D02*
X95750000Y-50370000D01*
%TO.N,Net-(U2-E)*%
X95750000Y-55450000D02*
X94650000Y-54350000D01*
%TO.N,Net-(U2-D)*%
X107610000Y-62930000D02*
X102670000Y-57990000D01*
X95750000Y-50370000D02*
X94650000Y-49270000D01*
%TO.N,Net-(U2-E)*%
X103510000Y-63190000D02*
X103290000Y-63410000D01*
X105070000Y-63190000D02*
X103510000Y-63190000D01*
%TO.N,Net-(U2-D)*%
X102670000Y-57990000D02*
X101814365Y-57990000D01*
%TO.N,Net-(U2-G)*%
X105070000Y-47950000D02*
X104130000Y-48890000D01*
%TO.N,Net-(U2-E)*%
X103290000Y-63410000D02*
X102154365Y-63410000D01*
%TO.N,Net-(U2-G)*%
X104130000Y-49950000D02*
X102270000Y-51810000D01*
%TO.N,Net-(U2-D)*%
X107610000Y-63190000D02*
X107610000Y-62930000D01*
X101814365Y-57990000D02*
X95750000Y-51925635D01*
%TO.N,Net-(U2-F)*%
X103210000Y-54350000D02*
X102270000Y-54350000D01*
X107610000Y-49950000D02*
X103210000Y-54350000D01*
%TO.N,Net-(U2-E)*%
X102154365Y-63410000D02*
X95750000Y-57005635D01*
%TO.N,Net-(U2-G)*%
X104130000Y-48890000D02*
X104130000Y-49950000D01*
%TO.N,Net-(U2-E)*%
X95750000Y-57005635D02*
X95750000Y-55450000D01*
%TO.N,DICE_3V3*%
D19*
X113400000Y-91770000D02*
X116560000Y-91770000D01*
X106900000Y-91770000D02*
X113400000Y-91770000D01*
%TD*%
%TA.AperFunction,Conductor*%
%TO.N,Earth*%
G36*
X123363184Y-44990503D02*
G01*
X123424440Y-44990500D01*
X123433693Y-44990845D01*
X123643304Y-45006546D01*
X123661613Y-45009305D01*
X123861999Y-45055038D01*
X123879705Y-45060499D01*
X124071029Y-45135586D01*
X124087726Y-45143627D01*
X124265715Y-45246389D01*
X124281029Y-45256830D01*
X124441716Y-45384976D01*
X124455302Y-45397583D01*
X124595088Y-45548243D01*
X124606644Y-45562734D01*
X124725039Y-45736402D01*
X124729963Y-45744238D01*
X124760595Y-45797298D01*
X124760601Y-45797304D01*
X137091844Y-67155643D01*
X137973771Y-68683186D01*
X138004401Y-68736239D01*
X138008734Y-68744438D01*
X138099924Y-68933797D01*
X138106695Y-68951049D01*
X138167276Y-69147449D01*
X138171400Y-69165517D01*
X138202033Y-69368752D01*
X138203418Y-69387233D01*
X138203418Y-69592766D01*
X138202033Y-69611247D01*
X138171400Y-69814482D01*
X138167276Y-69832550D01*
X138106696Y-70028947D01*
X138099925Y-70046200D01*
X138008730Y-70235567D01*
X138004397Y-70243765D01*
X124729986Y-93235721D01*
X124725051Y-93243576D01*
X124606648Y-93417231D01*
X124595093Y-93431719D01*
X124455293Y-93582383D01*
X124441708Y-93594988D01*
X124281010Y-93723138D01*
X124265698Y-93733577D01*
X124087704Y-93836341D01*
X124071008Y-93844382D01*
X123879681Y-93919475D01*
X123861972Y-93924938D01*
X123661588Y-93970678D01*
X123643263Y-93973440D01*
X123433669Y-93989153D01*
X123424399Y-93989500D01*
X96945098Y-93989500D01*
X96936826Y-93989499D01*
X96936816Y-93989497D01*
X96888729Y-93989499D01*
X96875562Y-93989499D01*
X96875561Y-93989498D01*
X96866302Y-93989153D01*
X96656705Y-93973454D01*
X96638377Y-93970692D01*
X96438003Y-93924962D01*
X96420292Y-93919499D01*
X96228972Y-93844414D01*
X96212273Y-93836372D01*
X96034284Y-93733610D01*
X96018970Y-93723169D01*
X95858283Y-93595023D01*
X95844697Y-93582416D01*
X95704911Y-93431756D01*
X95693355Y-93417265D01*
X95574960Y-93243597D01*
X95570029Y-93235749D01*
X95570013Y-93235721D01*
X95539405Y-93182702D01*
X95539398Y-93182695D01*
X95288145Y-92747512D01*
X94688581Y-91709036D01*
X94655595Y-91651902D01*
X105399500Y-91651902D01*
X105399500Y-91888097D01*
X105436446Y-92121368D01*
X105509433Y-92345996D01*
X105583653Y-92491659D01*
X105616657Y-92556433D01*
X105755483Y-92747510D01*
X105922490Y-92914517D01*
X106113567Y-93053343D01*
X106212991Y-93104002D01*
X106324003Y-93160566D01*
X106324005Y-93160566D01*
X106324008Y-93160568D01*
X106444412Y-93199689D01*
X106548631Y-93233553D01*
X106781903Y-93270500D01*
X106781908Y-93270500D01*
X107018097Y-93270500D01*
X107251368Y-93233553D01*
X107475992Y-93160568D01*
X107686433Y-93053343D01*
X107877510Y-92914517D01*
X108044517Y-92747510D01*
X108172313Y-92571613D01*
X108227643Y-92528949D01*
X108272631Y-92520500D01*
X112027369Y-92520500D01*
X112094408Y-92540185D01*
X112127685Y-92571613D01*
X112255483Y-92747510D01*
X112422490Y-92914517D01*
X112613567Y-93053343D01*
X112712991Y-93104002D01*
X112824003Y-93160566D01*
X112824005Y-93160566D01*
X112824008Y-93160568D01*
X112944412Y-93199689D01*
X113048631Y-93233553D01*
X113281903Y-93270500D01*
X113281908Y-93270500D01*
X113518097Y-93270500D01*
X113751368Y-93233553D01*
X113975992Y-93160568D01*
X114186433Y-93053343D01*
X114377510Y-92914517D01*
X114544517Y-92747510D01*
X114672313Y-92571613D01*
X114727643Y-92528949D01*
X114772631Y-92520500D01*
X116633920Y-92520500D01*
X116731462Y-92501096D01*
X116778913Y-92491658D01*
X116915495Y-92435084D01*
X116964729Y-92402186D01*
X117038416Y-92352952D01*
X124722952Y-84668416D01*
X124772186Y-84594729D01*
X124805084Y-84545495D01*
X124861658Y-84408913D01*
X124890500Y-84263918D01*
X124890500Y-74624141D01*
X124910185Y-74557102D01*
X124962989Y-74511347D01*
X124971149Y-74507966D01*
X124982331Y-74503796D01*
X124988650Y-74499066D01*
X125043608Y-74457924D01*
X125097546Y-74417546D01*
X125183796Y-74302331D01*
X125234091Y-74167483D01*
X125240500Y-74107873D01*
X125240499Y-71012128D01*
X125234091Y-70952517D01*
X125183796Y-70817669D01*
X125183795Y-70817668D01*
X125183793Y-70817664D01*
X125097547Y-70702455D01*
X125097544Y-70702452D01*
X124982335Y-70616206D01*
X124982328Y-70616202D01*
X124847482Y-70565908D01*
X124847483Y-70565908D01*
X124787883Y-70559501D01*
X124787881Y-70559500D01*
X124787873Y-70559500D01*
X124787864Y-70559500D01*
X121692129Y-70559500D01*
X121692123Y-70559501D01*
X121632516Y-70565908D01*
X121497671Y-70616202D01*
X121497664Y-70616206D01*
X121382455Y-70702452D01*
X121382452Y-70702455D01*
X121296206Y-70817664D01*
X121296202Y-70817671D01*
X121245908Y-70952517D01*
X121239501Y-71012116D01*
X121239501Y-71012123D01*
X121239500Y-71012135D01*
X121239500Y-74107870D01*
X121239501Y-74107876D01*
X121245908Y-74167483D01*
X121296202Y-74302328D01*
X121296206Y-74302335D01*
X121382452Y-74417544D01*
X121382455Y-74417547D01*
X121497664Y-74503793D01*
X121497671Y-74503797D01*
X121632517Y-74554091D01*
X121632516Y-74554091D01*
X121639444Y-74554835D01*
X121692127Y-74560500D01*
X123265500Y-74560499D01*
X123332539Y-74580184D01*
X123378294Y-74632987D01*
X123389500Y-74684499D01*
X123389500Y-83827770D01*
X123369815Y-83894809D01*
X123353181Y-83915451D01*
X116285451Y-90983181D01*
X116224128Y-91016666D01*
X116197770Y-91019500D01*
X114772631Y-91019500D01*
X114705592Y-90999815D01*
X114672313Y-90968386D01*
X114544517Y-90792490D01*
X114377510Y-90625483D01*
X114186433Y-90486657D01*
X113975996Y-90379433D01*
X113751368Y-90306446D01*
X113518097Y-90269500D01*
X113518092Y-90269500D01*
X113281908Y-90269500D01*
X113281903Y-90269500D01*
X113048631Y-90306446D01*
X112824003Y-90379433D01*
X112613566Y-90486657D01*
X112504550Y-90565862D01*
X112422490Y-90625483D01*
X112422488Y-90625485D01*
X112422487Y-90625485D01*
X112255485Y-90792487D01*
X112255485Y-90792488D01*
X112255483Y-90792490D01*
X112127687Y-90968386D01*
X112072357Y-91011051D01*
X112027369Y-91019500D01*
X108272631Y-91019500D01*
X108205592Y-90999815D01*
X108172313Y-90968386D01*
X108044517Y-90792490D01*
X107877510Y-90625483D01*
X107686433Y-90486657D01*
X107475996Y-90379433D01*
X107251368Y-90306446D01*
X107018097Y-90269500D01*
X107018092Y-90269500D01*
X106781908Y-90269500D01*
X106781903Y-90269500D01*
X106548631Y-90306446D01*
X106324003Y-90379433D01*
X106113566Y-90486657D01*
X106004550Y-90565862D01*
X105922490Y-90625483D01*
X105922488Y-90625485D01*
X105922487Y-90625485D01*
X105755485Y-90792487D01*
X105755485Y-90792488D01*
X105755483Y-90792490D01*
X105695862Y-90874550D01*
X105616657Y-90983566D01*
X105509433Y-91194003D01*
X105436446Y-91418631D01*
X105399500Y-91651902D01*
X94655595Y-91651902D01*
X90623677Y-84668416D01*
X87466486Y-79200001D01*
X84553156Y-74153965D01*
X83590649Y-72486854D01*
X83557192Y-72428905D01*
X100750000Y-72428905D01*
X100750000Y-72691094D01*
X100784220Y-72951009D01*
X100784222Y-72951020D01*
X100852075Y-73204255D01*
X100952404Y-73446471D01*
X100952409Y-73446482D01*
X101083488Y-73673516D01*
X101083494Y-73673524D01*
X101170080Y-73786365D01*
X102072421Y-72884024D01*
X102085359Y-72915258D01*
X102167437Y-73038097D01*
X102271903Y-73142563D01*
X102394742Y-73224641D01*
X102425974Y-73237577D01*
X101523633Y-74139917D01*
X101523633Y-74139918D01*
X101636475Y-74226505D01*
X101636483Y-74226511D01*
X101863517Y-74357590D01*
X101863528Y-74357595D01*
X102105744Y-74457924D01*
X102358979Y-74525777D01*
X102358990Y-74525779D01*
X102618905Y-74559999D01*
X102618920Y-74560000D01*
X102881080Y-74560000D01*
X102881094Y-74559999D01*
X103141009Y-74525779D01*
X103141020Y-74525777D01*
X103394255Y-74457924D01*
X103636471Y-74357595D01*
X103636482Y-74357590D01*
X103863516Y-74226511D01*
X103863534Y-74226499D01*
X103976365Y-74139919D01*
X103976365Y-74139917D01*
X103074025Y-73237578D01*
X103105258Y-73224641D01*
X103228097Y-73142563D01*
X103332563Y-73038097D01*
X103414641Y-72915258D01*
X103427577Y-72884025D01*
X104329917Y-73786365D01*
X104329919Y-73786365D01*
X104416499Y-73673534D01*
X104416511Y-73673516D01*
X104547590Y-73446482D01*
X104547595Y-73446471D01*
X104647924Y-73204255D01*
X104715777Y-72951020D01*
X104715779Y-72951009D01*
X104749999Y-72691094D01*
X104750000Y-72691080D01*
X104750000Y-72428919D01*
X104749999Y-72428905D01*
X104715779Y-72168990D01*
X104715777Y-72168979D01*
X104647924Y-71915744D01*
X104547595Y-71673528D01*
X104547590Y-71673517D01*
X104416511Y-71446483D01*
X104416505Y-71446475D01*
X104329918Y-71333633D01*
X104329917Y-71333633D01*
X103427577Y-72235973D01*
X103414641Y-72204742D01*
X103332563Y-72081903D01*
X103228097Y-71977437D01*
X103105258Y-71895359D01*
X103074023Y-71882421D01*
X103976365Y-70980080D01*
X103863524Y-70893494D01*
X103863516Y-70893488D01*
X103636482Y-70762409D01*
X103636471Y-70762404D01*
X103394255Y-70662075D01*
X103141020Y-70594222D01*
X103141009Y-70594220D01*
X102881094Y-70560000D01*
X102618905Y-70560000D01*
X102358990Y-70594220D01*
X102358979Y-70594222D01*
X102105744Y-70662075D01*
X101863528Y-70762404D01*
X101863517Y-70762409D01*
X101636471Y-70893496D01*
X101523633Y-70980079D01*
X101523633Y-70980080D01*
X102425974Y-71882421D01*
X102394742Y-71895359D01*
X102271903Y-71977437D01*
X102167437Y-72081903D01*
X102085359Y-72204742D01*
X102072421Y-72235974D01*
X101170080Y-71333633D01*
X101170079Y-71333633D01*
X101083496Y-71446471D01*
X100952409Y-71673517D01*
X100952404Y-71673528D01*
X100852075Y-71915744D01*
X100784222Y-72168979D01*
X100784220Y-72168990D01*
X100750000Y-72428905D01*
X83557192Y-72428905D01*
X82784194Y-71090033D01*
X82295598Y-70243760D01*
X82291265Y-70235561D01*
X82200075Y-70046202D01*
X82193304Y-70028950D01*
X82132723Y-69832550D01*
X82128599Y-69814482D01*
X82097967Y-69611247D01*
X82096582Y-69592766D01*
X82096582Y-69387233D01*
X82097967Y-69368752D01*
X82128599Y-69165513D01*
X82132723Y-69147449D01*
X82134080Y-69143051D01*
X82193306Y-68951042D01*
X82200071Y-68933804D01*
X82291272Y-68744423D01*
X82295599Y-68736238D01*
X82326230Y-68683185D01*
X85844420Y-62589500D01*
X93237503Y-49784302D01*
X93288068Y-49736089D01*
X93356675Y-49722866D01*
X93421540Y-49748834D01*
X93455373Y-49790010D01*
X93496611Y-49870943D01*
X93537585Y-49951359D01*
X93537715Y-49951613D01*
X93658028Y-50117213D01*
X93802786Y-50261971D01*
X93923226Y-50349474D01*
X93968390Y-50382287D01*
X94059840Y-50428883D01*
X94061080Y-50429515D01*
X94111876Y-50477490D01*
X94128671Y-50545311D01*
X94106134Y-50611446D01*
X94061080Y-50650485D01*
X93968386Y-50697715D01*
X93802786Y-50818028D01*
X93658028Y-50962786D01*
X93537715Y-51128386D01*
X93444781Y-51310776D01*
X93381522Y-51505465D01*
X93349500Y-51707648D01*
X93349500Y-51912351D01*
X93381522Y-52114534D01*
X93444781Y-52309223D01*
X93537715Y-52491613D01*
X93658028Y-52657213D01*
X93802786Y-52801971D01*
X93957749Y-52914556D01*
X93968390Y-52922287D01*
X94059840Y-52968883D01*
X94061080Y-52969515D01*
X94111876Y-53017490D01*
X94128671Y-53085311D01*
X94106134Y-53151446D01*
X94061080Y-53190485D01*
X93968386Y-53237715D01*
X93802786Y-53358028D01*
X93658028Y-53502786D01*
X93537715Y-53668386D01*
X93444781Y-53850776D01*
X93381522Y-54045465D01*
X93349500Y-54247648D01*
X93349500Y-54452351D01*
X93381522Y-54654534D01*
X93444781Y-54849223D01*
X93537715Y-55031613D01*
X93658028Y-55197213D01*
X93802786Y-55341971D01*
X93957749Y-55454556D01*
X93968390Y-55462287D01*
X94059840Y-55508883D01*
X94061080Y-55509515D01*
X94111876Y-55557490D01*
X94128671Y-55625311D01*
X94106134Y-55691446D01*
X94061080Y-55730485D01*
X93968386Y-55777715D01*
X93802786Y-55898028D01*
X93658028Y-56042786D01*
X93537715Y-56208386D01*
X93444781Y-56390776D01*
X93381522Y-56585465D01*
X93349500Y-56787648D01*
X93349500Y-56992351D01*
X93381522Y-57194534D01*
X93444781Y-57389223D01*
X93537715Y-57571613D01*
X93658028Y-57737213D01*
X93802786Y-57881971D01*
X93957749Y-57994556D01*
X93968390Y-58002287D01*
X94059840Y-58048883D01*
X94061080Y-58049515D01*
X94111876Y-58097490D01*
X94128671Y-58165311D01*
X94106134Y-58231446D01*
X94061080Y-58270485D01*
X93968386Y-58317715D01*
X93802786Y-58438028D01*
X93658028Y-58582786D01*
X93537715Y-58748386D01*
X93444781Y-58930776D01*
X93381522Y-59125465D01*
X93349500Y-59327648D01*
X93349500Y-59532351D01*
X93381522Y-59734534D01*
X93444781Y-59929223D01*
X93537715Y-60111613D01*
X93658028Y-60277213D01*
X93802786Y-60421971D01*
X93957749Y-60534556D01*
X93968390Y-60542287D01*
X94059840Y-60588883D01*
X94061080Y-60589515D01*
X94111876Y-60637490D01*
X94128671Y-60705311D01*
X94106134Y-60771446D01*
X94061080Y-60810485D01*
X93968386Y-60857715D01*
X93802786Y-60978028D01*
X93658028Y-61122786D01*
X93537715Y-61288386D01*
X93444781Y-61470776D01*
X93381522Y-61665465D01*
X93349500Y-61867648D01*
X93349500Y-62072351D01*
X93381522Y-62274534D01*
X93444781Y-62469223D01*
X93537715Y-62651613D01*
X93658028Y-62817213D01*
X93802786Y-62961971D01*
X93957749Y-63074556D01*
X93968390Y-63082287D01*
X94059840Y-63128883D01*
X94061080Y-63129515D01*
X94111876Y-63177490D01*
X94128671Y-63245311D01*
X94106134Y-63311446D01*
X94061080Y-63350485D01*
X93968386Y-63397715D01*
X93802786Y-63518028D01*
X93658028Y-63662786D01*
X93537715Y-63828386D01*
X93444781Y-64010776D01*
X93381522Y-64205465D01*
X93349500Y-64407648D01*
X93349500Y-64612351D01*
X93381522Y-64814534D01*
X93444781Y-65009223D01*
X93508691Y-65134653D01*
X93537585Y-65191359D01*
X93537715Y-65191613D01*
X93658028Y-65357213D01*
X93802786Y-65501971D01*
X93923226Y-65589474D01*
X93968390Y-65622287D01*
X94059840Y-65668883D01*
X94061080Y-65669515D01*
X94111876Y-65717490D01*
X94128671Y-65785311D01*
X94106134Y-65851446D01*
X94061080Y-65890485D01*
X93968386Y-65937715D01*
X93802786Y-66058028D01*
X93658028Y-66202786D01*
X93537715Y-66368386D01*
X93444781Y-66550776D01*
X93381522Y-66745465D01*
X93349500Y-66947648D01*
X93349500Y-67152351D01*
X93381522Y-67354534D01*
X93444781Y-67549223D01*
X93496135Y-67650009D01*
X93515087Y-67687205D01*
X93537715Y-67731613D01*
X93658028Y-67897213D01*
X93802786Y-68041971D01*
X93937714Y-68140000D01*
X93968390Y-68162287D01*
X94084607Y-68221503D01*
X94150776Y-68255218D01*
X94150778Y-68255218D01*
X94150781Y-68255220D01*
X94241856Y-68284812D01*
X94345465Y-68318477D01*
X94446557Y-68334488D01*
X94547648Y-68350500D01*
X94547649Y-68350500D01*
X94752351Y-68350500D01*
X94752352Y-68350500D01*
X94954534Y-68318477D01*
X95149219Y-68255220D01*
X95331610Y-68162287D01*
X95437347Y-68085465D01*
X95497213Y-68041971D01*
X95497215Y-68041968D01*
X95497219Y-68041966D01*
X95641966Y-67897219D01*
X95641968Y-67897215D01*
X95641971Y-67897213D01*
X95697491Y-67820795D01*
X95762287Y-67731610D01*
X95855220Y-67549219D01*
X95918477Y-67354534D01*
X95950500Y-67152352D01*
X95950500Y-66947648D01*
X95918477Y-66745466D01*
X95855220Y-66550781D01*
X95855218Y-66550778D01*
X95855218Y-66550776D01*
X95803865Y-66449991D01*
X95762287Y-66368390D01*
X95717720Y-66307048D01*
X95641971Y-66202786D01*
X95497213Y-66058028D01*
X95331614Y-65937715D01*
X95325006Y-65934348D01*
X95238917Y-65890483D01*
X95188123Y-65842511D01*
X95171328Y-65774690D01*
X95193865Y-65708555D01*
X95238917Y-65669516D01*
X95331610Y-65622287D01*
X95376774Y-65589474D01*
X95497213Y-65501971D01*
X95497215Y-65501968D01*
X95497219Y-65501966D01*
X95641966Y-65357219D01*
X95641968Y-65357215D01*
X95641971Y-65357213D01*
X95694732Y-65284590D01*
X95762287Y-65191610D01*
X95855220Y-65009219D01*
X95918477Y-64814534D01*
X95950500Y-64612352D01*
X95950500Y-64407648D01*
X95938461Y-64331638D01*
X95918477Y-64205465D01*
X95882415Y-64094478D01*
X95855220Y-64010781D01*
X95855218Y-64010778D01*
X95855218Y-64010776D01*
X95808142Y-63918385D01*
X95762287Y-63828390D01*
X95733931Y-63789361D01*
X95641971Y-63662786D01*
X95497213Y-63518028D01*
X95331614Y-63397715D01*
X95325006Y-63394348D01*
X95238917Y-63350483D01*
X95188123Y-63302511D01*
X95171328Y-63234690D01*
X95193865Y-63168555D01*
X95238917Y-63129516D01*
X95331610Y-63082287D01*
X95352770Y-63066913D01*
X95497213Y-62961971D01*
X95497215Y-62961968D01*
X95497219Y-62961966D01*
X95641966Y-62817219D01*
X95641968Y-62817215D01*
X95641971Y-62817213D01*
X95694732Y-62744590D01*
X95762287Y-62651610D01*
X95855220Y-62469219D01*
X95918477Y-62274534D01*
X95950500Y-62072352D01*
X95950500Y-61867648D01*
X95918477Y-61665466D01*
X95855220Y-61470781D01*
X95855218Y-61470778D01*
X95855218Y-61470776D01*
X95812311Y-61386567D01*
X95762287Y-61288390D01*
X95709562Y-61215819D01*
X95641971Y-61122786D01*
X95497213Y-60978028D01*
X95331614Y-60857715D01*
X95325006Y-60854348D01*
X95238917Y-60810483D01*
X95188123Y-60762511D01*
X95171328Y-60694690D01*
X95193865Y-60628555D01*
X95238917Y-60589516D01*
X95331610Y-60542287D01*
X95352770Y-60526913D01*
X95497213Y-60421971D01*
X95497215Y-60421968D01*
X95497219Y-60421966D01*
X95641966Y-60277219D01*
X95641968Y-60277215D01*
X95641971Y-60277213D01*
X95694732Y-60204590D01*
X95762287Y-60111610D01*
X95855220Y-59929219D01*
X95918477Y-59734534D01*
X95950500Y-59532352D01*
X95950500Y-59327648D01*
X95918477Y-59125466D01*
X95855220Y-58930781D01*
X95855218Y-58930778D01*
X95855218Y-58930776D01*
X95821503Y-58864607D01*
X95762287Y-58748390D01*
X95754556Y-58737749D01*
X95641971Y-58582786D01*
X95497213Y-58438028D01*
X95331614Y-58317715D01*
X95325006Y-58314348D01*
X95238917Y-58270483D01*
X95188123Y-58222511D01*
X95171328Y-58154690D01*
X95193865Y-58088555D01*
X95238917Y-58049516D01*
X95331610Y-58002287D01*
X95352770Y-57986913D01*
X95497213Y-57881971D01*
X95497215Y-57881968D01*
X95497219Y-57881966D01*
X95549476Y-57829708D01*
X95610798Y-57796223D01*
X95680490Y-57801207D01*
X95724838Y-57829708D01*
X101669504Y-63774374D01*
X101669514Y-63774385D01*
X101673844Y-63778715D01*
X101673845Y-63778716D01*
X101785649Y-63890520D01*
X101864363Y-63935965D01*
X101922580Y-63969577D01*
X102075308Y-64010501D01*
X102075310Y-64010501D01*
X102083368Y-64011562D01*
X102083105Y-64013558D01*
X102139732Y-64030186D01*
X102160374Y-64046820D01*
X102223554Y-64110000D01*
X102217339Y-64110000D01*
X102115606Y-64137259D01*
X102024394Y-64189920D01*
X101949920Y-64264394D01*
X101897259Y-64355606D01*
X101870000Y-64457339D01*
X101870000Y-64463553D01*
X101190524Y-63784077D01*
X101190523Y-63784077D01*
X101158143Y-63828644D01*
X101065244Y-64010968D01*
X101002009Y-64205582D01*
X100970000Y-64407682D01*
X100970000Y-64612317D01*
X101002009Y-64814417D01*
X101065244Y-65009031D01*
X101158141Y-65191350D01*
X101158147Y-65191359D01*
X101190523Y-65235921D01*
X101190524Y-65235922D01*
X101870000Y-64556446D01*
X101870000Y-64562661D01*
X101897259Y-64664394D01*
X101949920Y-64755606D01*
X102024394Y-64830080D01*
X102115606Y-64882741D01*
X102217339Y-64910000D01*
X102223553Y-64910000D01*
X101544076Y-65589474D01*
X101545428Y-65606649D01*
X101559701Y-65625158D01*
X101565680Y-65694771D01*
X101533074Y-65756566D01*
X101483155Y-65787851D01*
X101400666Y-65815186D01*
X101400663Y-65815187D01*
X101251342Y-65907289D01*
X101127289Y-66031342D01*
X101035187Y-66180663D01*
X101035185Y-66180668D01*
X101007349Y-66264670D01*
X100980001Y-66347203D01*
X100980001Y-66347204D01*
X100980000Y-66347204D01*
X100969500Y-66449983D01*
X100969500Y-67650001D01*
X100969501Y-67650018D01*
X100980000Y-67752796D01*
X100980001Y-67752799D01*
X101018398Y-67868671D01*
X101035186Y-67919334D01*
X101127288Y-68068656D01*
X101251344Y-68192712D01*
X101400666Y-68284814D01*
X101567203Y-68339999D01*
X101669991Y-68350500D01*
X102870008Y-68350499D01*
X102972797Y-68339999D01*
X103139334Y-68284814D01*
X103288656Y-68192712D01*
X103412712Y-68068656D01*
X103504814Y-67919334D01*
X103559999Y-67752797D01*
X103560091Y-67751895D01*
X103560302Y-67751376D01*
X103561417Y-67746173D01*
X103562345Y-67746371D01*
X103586488Y-67687205D01*
X103643669Y-67647054D01*
X103683449Y-67640500D01*
X105089955Y-67640500D01*
X105156994Y-67660185D01*
X105202749Y-67712989D01*
X105212693Y-67782147D01*
X105200440Y-67820795D01*
X105164781Y-67890776D01*
X105101522Y-68085465D01*
X105069500Y-68287648D01*
X105069500Y-68492351D01*
X105101522Y-68694534D01*
X105164781Y-68889223D01*
X105257715Y-69071613D01*
X105378028Y-69237213D01*
X105522786Y-69381971D01*
X105671478Y-69490000D01*
X105688390Y-69502287D01*
X105804607Y-69561503D01*
X105870776Y-69595218D01*
X105870778Y-69595218D01*
X105870781Y-69595220D01*
X105960459Y-69624358D01*
X106065465Y-69658477D01*
X106149564Y-69671797D01*
X106267648Y-69690500D01*
X106267649Y-69690500D01*
X106472350Y-69690500D01*
X106472352Y-69690500D01*
X106528027Y-69681681D01*
X106597319Y-69690635D01*
X106635106Y-69716473D01*
X111417699Y-74499066D01*
X111451184Y-74560389D01*
X111446200Y-74630081D01*
X111404328Y-74686014D01*
X111349416Y-74709220D01*
X111145465Y-74741522D01*
X110950776Y-74804781D01*
X110768386Y-74897715D01*
X110602786Y-75018028D01*
X110458028Y-75162786D01*
X110337715Y-75328386D01*
X110290485Y-75421080D01*
X110242510Y-75471876D01*
X110174689Y-75488671D01*
X110108554Y-75466134D01*
X110069515Y-75421080D01*
X110047469Y-75377813D01*
X110022287Y-75328390D01*
X110014556Y-75317749D01*
X109901971Y-75162786D01*
X109757213Y-75018028D01*
X109591613Y-74897715D01*
X109591612Y-74897714D01*
X109591610Y-74897713D01*
X109534653Y-74868691D01*
X109409223Y-74804781D01*
X109214534Y-74741522D01*
X109039995Y-74713878D01*
X109012352Y-74709500D01*
X108807648Y-74709500D01*
X108783329Y-74713351D01*
X108605465Y-74741522D01*
X108410776Y-74804781D01*
X108228386Y-74897715D01*
X108062786Y-75018028D01*
X107918028Y-75162786D01*
X107797715Y-75328386D01*
X107750485Y-75421080D01*
X107702510Y-75471876D01*
X107634689Y-75488671D01*
X107568554Y-75466134D01*
X107529515Y-75421080D01*
X107507469Y-75377813D01*
X107482287Y-75328390D01*
X107474556Y-75317749D01*
X107361971Y-75162786D01*
X107217213Y-75018028D01*
X107051613Y-74897715D01*
X107051612Y-74897714D01*
X107051610Y-74897713D01*
X106994653Y-74868691D01*
X106869223Y-74804781D01*
X106674534Y-74741522D01*
X106499995Y-74713878D01*
X106472352Y-74709500D01*
X106267648Y-74709500D01*
X106243329Y-74713351D01*
X106065465Y-74741522D01*
X105870776Y-74804781D01*
X105688386Y-74897715D01*
X105522786Y-75018028D01*
X105378028Y-75162786D01*
X105257715Y-75328386D01*
X105164781Y-75510776D01*
X105101522Y-75705465D01*
X105069500Y-75907648D01*
X105069500Y-76112351D01*
X105101522Y-76314534D01*
X105164781Y-76509223D01*
X105257715Y-76691613D01*
X105378028Y-76857213D01*
X105522786Y-77001971D01*
X105644535Y-77090425D01*
X105688390Y-77122287D01*
X105804607Y-77181503D01*
X105870776Y-77215218D01*
X105870778Y-77215218D01*
X105870781Y-77215220D01*
X105975137Y-77249127D01*
X106065465Y-77278477D01*
X106157803Y-77293102D01*
X106267648Y-77310500D01*
X106267649Y-77310500D01*
X106472351Y-77310500D01*
X106472352Y-77310500D01*
X106674534Y-77278477D01*
X106869219Y-77215220D01*
X107051610Y-77122287D01*
X107171619Y-77035096D01*
X107217213Y-77001971D01*
X107217215Y-77001968D01*
X107217219Y-77001966D01*
X107361966Y-76857219D01*
X107361968Y-76857215D01*
X107361971Y-76857213D01*
X107482284Y-76691614D01*
X107482285Y-76691613D01*
X107482287Y-76691610D01*
X107529516Y-76598917D01*
X107577489Y-76548123D01*
X107645310Y-76531328D01*
X107711445Y-76553865D01*
X107750485Y-76598919D01*
X107797715Y-76691614D01*
X107918028Y-76857213D01*
X107918034Y-76857219D01*
X108062781Y-77001966D01*
X108108384Y-77035098D01*
X108151050Y-77090425D01*
X108159500Y-77135416D01*
X108159500Y-77407769D01*
X108139815Y-77474808D01*
X108123181Y-77495450D01*
X106335865Y-79282765D01*
X106274542Y-79316250D01*
X106228786Y-79317557D01*
X106209485Y-79314500D01*
X106209481Y-79314500D01*
X106020519Y-79314500D01*
X106020514Y-79314500D01*
X105833881Y-79344059D01*
X105654163Y-79402454D01*
X105485800Y-79488240D01*
X105398910Y-79551370D01*
X105332927Y-79599310D01*
X105332925Y-79599312D01*
X105332924Y-79599312D01*
X105229056Y-79703181D01*
X105167733Y-79736666D01*
X105141375Y-79739500D01*
X101453733Y-79739500D01*
X101386694Y-79719815D01*
X101340939Y-79667011D01*
X101336028Y-79654506D01*
X101331495Y-79640829D01*
X101324814Y-79620666D01*
X101232712Y-79471344D01*
X101108656Y-79347288D01*
X100959334Y-79255186D01*
X100792797Y-79200001D01*
X100792795Y-79200000D01*
X100690010Y-79189500D01*
X99489998Y-79189500D01*
X99489981Y-79189501D01*
X99387203Y-79200000D01*
X99387200Y-79200001D01*
X99220668Y-79255185D01*
X99220663Y-79255187D01*
X99071342Y-79347289D01*
X98947289Y-79471342D01*
X98855187Y-79620663D01*
X98855185Y-79620668D01*
X98836500Y-79677056D01*
X98800001Y-79787203D01*
X98800001Y-79787204D01*
X98800000Y-79787204D01*
X98789500Y-79889983D01*
X98789500Y-81090001D01*
X98789501Y-81090018D01*
X98800000Y-81192796D01*
X98800001Y-81192799D01*
X98844784Y-81327944D01*
X98855186Y-81359334D01*
X98899198Y-81430690D01*
X98947289Y-81508657D01*
X99016510Y-81577878D01*
X99049995Y-81639201D01*
X99045011Y-81708893D01*
X99029148Y-81738444D01*
X98978139Y-81808651D01*
X98885244Y-81990968D01*
X98822009Y-82185582D01*
X98790000Y-82387682D01*
X98790000Y-82592317D01*
X98822009Y-82794417D01*
X98885244Y-82989031D01*
X98978141Y-83171350D01*
X98978147Y-83171359D01*
X99010523Y-83215921D01*
X99010524Y-83215922D01*
X99690000Y-82536446D01*
X99690000Y-82542661D01*
X99717259Y-82644394D01*
X99769920Y-82735606D01*
X99844394Y-82810080D01*
X99935606Y-82862741D01*
X100037339Y-82890000D01*
X100043553Y-82890000D01*
X99364076Y-83569474D01*
X99408650Y-83601859D01*
X99590968Y-83694755D01*
X99785582Y-83757990D01*
X99987683Y-83790000D01*
X100192317Y-83790000D01*
X100394417Y-83757990D01*
X100589031Y-83694755D01*
X100771349Y-83601859D01*
X100815921Y-83569474D01*
X100136447Y-82890000D01*
X100142661Y-82890000D01*
X100244394Y-82862741D01*
X100335606Y-82810080D01*
X100410080Y-82735606D01*
X100462741Y-82644394D01*
X100490000Y-82542661D01*
X100490000Y-82536447D01*
X101169474Y-83215921D01*
X101201859Y-83171349D01*
X101294755Y-82989031D01*
X101357990Y-82794417D01*
X101390000Y-82592317D01*
X101390000Y-82387682D01*
X101357990Y-82185582D01*
X101294755Y-81990968D01*
X101201857Y-81808646D01*
X101150853Y-81738446D01*
X101127372Y-81672640D01*
X101143197Y-81604586D01*
X101163489Y-81577879D01*
X101163490Y-81577878D01*
X101232712Y-81508656D01*
X101324814Y-81359334D01*
X101336028Y-81325494D01*
X101375801Y-81268050D01*
X101440317Y-81241228D01*
X101453733Y-81240500D01*
X105095026Y-81240500D01*
X105162065Y-81260185D01*
X105195340Y-81291609D01*
X105199310Y-81297073D01*
X105332927Y-81430690D01*
X105485801Y-81541760D01*
X105556687Y-81577878D01*
X105654163Y-81627545D01*
X105654165Y-81627545D01*
X105654168Y-81627547D01*
X105750497Y-81658846D01*
X105833881Y-81685940D01*
X106020514Y-81715500D01*
X106020519Y-81715500D01*
X106209486Y-81715500D01*
X106396118Y-81685940D01*
X106575832Y-81627547D01*
X106744199Y-81541760D01*
X106897073Y-81430690D01*
X107030690Y-81297073D01*
X107141760Y-81144199D01*
X107227547Y-80975832D01*
X107285940Y-80796118D01*
X107289900Y-80771118D01*
X107315500Y-80609486D01*
X107315500Y-80477230D01*
X107335185Y-80410191D01*
X107351819Y-80389549D01*
X109492948Y-78248420D01*
X109492952Y-78248416D01*
X109565722Y-78139506D01*
X109575084Y-78125495D01*
X109631658Y-77988913D01*
X109660500Y-77843918D01*
X109660500Y-77135416D01*
X109680185Y-77068377D01*
X109711613Y-77035099D01*
X109757219Y-77001966D01*
X109901966Y-76857219D01*
X109901968Y-76857215D01*
X109901971Y-76857213D01*
X110022284Y-76691614D01*
X110022285Y-76691613D01*
X110022287Y-76691610D01*
X110069516Y-76598917D01*
X110117489Y-76548123D01*
X110185310Y-76531328D01*
X110251445Y-76553865D01*
X110290483Y-76598917D01*
X110337713Y-76691610D01*
X110420819Y-76805995D01*
X110444298Y-76871799D01*
X110444500Y-76878879D01*
X110444500Y-79516374D01*
X110424815Y-79583413D01*
X110408182Y-79604055D01*
X110279309Y-79732928D01*
X110168240Y-79885800D01*
X110082454Y-80054163D01*
X110024059Y-80233881D01*
X109994500Y-80420513D01*
X109994500Y-80609486D01*
X110024059Y-80796118D01*
X110082454Y-80975836D01*
X110140628Y-81090008D01*
X110168240Y-81144199D01*
X110279310Y-81297073D01*
X110412927Y-81430690D01*
X110565801Y-81541760D01*
X110636687Y-81577878D01*
X110734163Y-81627545D01*
X110734165Y-81627545D01*
X110734168Y-81627547D01*
X110830497Y-81658846D01*
X110913881Y-81685940D01*
X111100514Y-81715500D01*
X111100519Y-81715500D01*
X111289486Y-81715500D01*
X111476118Y-81685940D01*
X111655832Y-81627547D01*
X111824199Y-81541760D01*
X111977073Y-81430690D01*
X112079819Y-81327944D01*
X112141142Y-81294459D01*
X112210834Y-81299443D01*
X112255181Y-81327944D01*
X112332927Y-81405690D01*
X112485801Y-81516760D01*
X112565347Y-81557290D01*
X112654163Y-81602545D01*
X112654165Y-81602545D01*
X112654168Y-81602547D01*
X112731110Y-81627547D01*
X112833881Y-81660940D01*
X113020514Y-81690500D01*
X113020519Y-81690500D01*
X113209486Y-81690500D01*
X113396118Y-81660940D01*
X113463023Y-81639201D01*
X113575832Y-81602547D01*
X113744199Y-81516760D01*
X113897073Y-81405690D01*
X114030690Y-81272073D01*
X114141760Y-81119199D01*
X114227547Y-80950832D01*
X114285940Y-80771118D01*
X114311540Y-80609486D01*
X114315500Y-80584486D01*
X114315500Y-80395513D01*
X114285940Y-80208881D01*
X114227545Y-80029163D01*
X114154498Y-79885801D01*
X114141760Y-79860801D01*
X114030690Y-79707927D01*
X113897073Y-79574310D01*
X113744199Y-79463240D01*
X113575836Y-79377454D01*
X113396118Y-79319059D01*
X113209486Y-79289500D01*
X113209481Y-79289500D01*
X113020519Y-79289500D01*
X113020514Y-79289500D01*
X112833881Y-79319059D01*
X112654163Y-79377454D01*
X112485800Y-79463240D01*
X112332928Y-79574309D01*
X112230181Y-79677056D01*
X112222234Y-79681395D01*
X112216810Y-79688641D01*
X112192052Y-79697875D01*
X112168858Y-79710540D01*
X112159828Y-79709894D01*
X112151346Y-79713058D01*
X112125525Y-79707441D01*
X112099166Y-79705556D01*
X112090112Y-79699737D01*
X112083073Y-79698206D01*
X112054819Y-79677055D01*
X111981819Y-79604055D01*
X111948334Y-79542732D01*
X111945500Y-79516374D01*
X111945500Y-77293102D01*
X111965185Y-77226063D01*
X112013203Y-77182618D01*
X112131610Y-77122287D01*
X112175465Y-77090425D01*
X112297213Y-77001971D01*
X112297215Y-77001968D01*
X112297219Y-77001966D01*
X112441966Y-76857219D01*
X112441968Y-76857215D01*
X112441971Y-76857213D01*
X112562284Y-76691614D01*
X112562285Y-76691613D01*
X112562287Y-76691610D01*
X112609516Y-76598917D01*
X112657489Y-76548123D01*
X112725310Y-76531328D01*
X112791445Y-76553865D01*
X112830485Y-76598919D01*
X112877715Y-76691614D01*
X112998028Y-76857213D01*
X113142786Y-77001971D01*
X113264535Y-77090425D01*
X113308390Y-77122287D01*
X113424607Y-77181503D01*
X113490776Y-77215218D01*
X113490778Y-77215218D01*
X113490781Y-77215220D01*
X113595137Y-77249127D01*
X113685465Y-77278477D01*
X113777803Y-77293102D01*
X113887648Y-77310500D01*
X113887649Y-77310500D01*
X114092351Y-77310500D01*
X114092352Y-77310500D01*
X114294534Y-77278477D01*
X114489219Y-77215220D01*
X114671610Y-77122287D01*
X114791619Y-77035096D01*
X114837213Y-77001971D01*
X114837215Y-77001968D01*
X114837219Y-77001966D01*
X114981966Y-76857219D01*
X114995501Y-76838590D01*
X115015100Y-76811615D01*
X115019431Y-76808274D01*
X115021705Y-76803297D01*
X115046804Y-76787166D01*
X115070429Y-76768949D01*
X115077102Y-76767695D01*
X115080483Y-76765523D01*
X115115418Y-76760500D01*
X115347770Y-76760500D01*
X115414809Y-76780185D01*
X115435451Y-76796819D01*
X117408181Y-78769549D01*
X117441666Y-78830872D01*
X117444500Y-78857230D01*
X117444500Y-79491374D01*
X117424815Y-79558413D01*
X117408182Y-79579055D01*
X117279309Y-79707928D01*
X117168240Y-79860800D01*
X117082454Y-80029163D01*
X117024059Y-80208881D01*
X116994500Y-80395513D01*
X116994500Y-80584486D01*
X117024059Y-80771118D01*
X117082454Y-80950836D01*
X117168240Y-81119199D01*
X117279310Y-81272073D01*
X117279312Y-81272075D01*
X117408181Y-81400944D01*
X117441666Y-81462267D01*
X117444500Y-81488625D01*
X117444500Y-82112769D01*
X117424815Y-82179808D01*
X117408181Y-82200450D01*
X113839911Y-85768719D01*
X113778588Y-85802204D01*
X113732832Y-85803511D01*
X113518097Y-85769500D01*
X113518092Y-85769500D01*
X113281908Y-85769500D01*
X113281903Y-85769500D01*
X113048631Y-85806446D01*
X112824003Y-85879433D01*
X112613566Y-85986657D01*
X112504550Y-86065862D01*
X112422490Y-86125483D01*
X112422488Y-86125485D01*
X112422487Y-86125485D01*
X112255485Y-86292487D01*
X112255485Y-86292488D01*
X112255483Y-86292490D01*
X112127687Y-86468386D01*
X112072357Y-86511051D01*
X112027369Y-86519500D01*
X108272631Y-86519500D01*
X108205592Y-86499815D01*
X108172313Y-86468386D01*
X108044517Y-86292490D01*
X107877510Y-86125483D01*
X107686433Y-85986657D01*
X107475996Y-85879433D01*
X107251368Y-85806446D01*
X107018097Y-85769500D01*
X107018092Y-85769500D01*
X106781908Y-85769500D01*
X106781903Y-85769500D01*
X106548631Y-85806446D01*
X106324003Y-85879433D01*
X106113566Y-85986657D01*
X106004550Y-86065862D01*
X105922490Y-86125483D01*
X105922488Y-86125485D01*
X105922487Y-86125485D01*
X105755485Y-86292487D01*
X105755485Y-86292488D01*
X105755483Y-86292490D01*
X105695862Y-86374550D01*
X105616657Y-86483566D01*
X105509433Y-86694003D01*
X105436446Y-86918631D01*
X105399500Y-87151902D01*
X105399500Y-87388097D01*
X105436446Y-87621368D01*
X105509433Y-87845996D01*
X105598348Y-88020500D01*
X105616657Y-88056433D01*
X105755483Y-88247510D01*
X105922490Y-88414517D01*
X106113567Y-88553343D01*
X106212991Y-88604002D01*
X106324003Y-88660566D01*
X106324005Y-88660566D01*
X106324008Y-88660568D01*
X106444412Y-88699689D01*
X106548631Y-88733553D01*
X106781903Y-88770500D01*
X106781908Y-88770500D01*
X107018097Y-88770500D01*
X107251368Y-88733553D01*
X107475992Y-88660568D01*
X107686433Y-88553343D01*
X107877510Y-88414517D01*
X108044517Y-88247510D01*
X108172313Y-88071613D01*
X108227643Y-88028949D01*
X108272631Y-88020500D01*
X112027369Y-88020500D01*
X112094408Y-88040185D01*
X112127685Y-88071613D01*
X112255483Y-88247510D01*
X112422490Y-88414517D01*
X112613567Y-88553343D01*
X112712991Y-88604002D01*
X112824003Y-88660566D01*
X112824005Y-88660566D01*
X112824008Y-88660568D01*
X112944412Y-88699689D01*
X113048631Y-88733553D01*
X113281903Y-88770500D01*
X113281908Y-88770500D01*
X113518097Y-88770500D01*
X113751368Y-88733553D01*
X113975992Y-88660568D01*
X114186433Y-88553343D01*
X114377510Y-88414517D01*
X114544517Y-88247510D01*
X114683343Y-88056433D01*
X114790568Y-87845992D01*
X114863553Y-87621368D01*
X114900500Y-87388097D01*
X114900500Y-87151902D01*
X114866488Y-86937165D01*
X114875442Y-86867872D01*
X114901277Y-86830089D01*
X118777952Y-82953416D01*
X118827186Y-82879729D01*
X118860084Y-82830495D01*
X118916658Y-82693913D01*
X118945500Y-82548918D01*
X118945500Y-81488625D01*
X118965185Y-81421586D01*
X118981819Y-81400944D01*
X119023435Y-81359328D01*
X119110690Y-81272073D01*
X119221760Y-81119199D01*
X119307547Y-80950832D01*
X119365940Y-80771118D01*
X119391540Y-80609486D01*
X119395500Y-80584486D01*
X119395500Y-80395513D01*
X119365940Y-80208881D01*
X119307545Y-80029163D01*
X119234498Y-79885801D01*
X119221760Y-79860801D01*
X119110690Y-79707927D01*
X118981818Y-79579055D01*
X118948334Y-79517732D01*
X118945500Y-79491374D01*
X118945500Y-78421081D01*
X118945499Y-78421080D01*
X118931948Y-78352951D01*
X118916659Y-78276088D01*
X118860687Y-78140963D01*
X118860323Y-78139863D01*
X118860080Y-78139500D01*
X118827186Y-78090270D01*
X118827185Y-78090268D01*
X118777956Y-78016589D01*
X118777952Y-78016584D01*
X116188421Y-75427052D01*
X116188414Y-75427046D01*
X116114729Y-75377812D01*
X116114729Y-75377813D01*
X116065491Y-75344913D01*
X115928917Y-75288343D01*
X115928907Y-75288340D01*
X115783920Y-75259500D01*
X115783918Y-75259500D01*
X115115418Y-75259500D01*
X115048379Y-75239815D01*
X115015100Y-75208385D01*
X114981971Y-75162787D01*
X114981967Y-75162782D01*
X114837213Y-75018028D01*
X114671613Y-74897715D01*
X114671612Y-74897714D01*
X114671610Y-74897713D01*
X114614653Y-74868691D01*
X114489223Y-74804781D01*
X114294534Y-74741522D01*
X114119995Y-74713878D01*
X114092352Y-74709500D01*
X113887648Y-74709500D01*
X113831971Y-74718318D01*
X113762678Y-74709363D01*
X113724893Y-74683526D01*
X108942301Y-69900933D01*
X108908816Y-69839610D01*
X108913800Y-69769918D01*
X108955672Y-69713985D01*
X109010584Y-69690779D01*
X109012346Y-69690500D01*
X109012352Y-69690500D01*
X109214534Y-69658477D01*
X109409219Y-69595220D01*
X109591610Y-69502287D01*
X109684590Y-69434732D01*
X109757213Y-69381971D01*
X109757215Y-69381968D01*
X109757219Y-69381966D01*
X109901966Y-69237219D01*
X109901968Y-69237215D01*
X109901971Y-69237213D01*
X110022284Y-69071614D01*
X110022285Y-69071613D01*
X110022287Y-69071610D01*
X110069516Y-68978917D01*
X110117489Y-68928123D01*
X110185310Y-68911328D01*
X110251445Y-68933865D01*
X110290483Y-68978917D01*
X110334348Y-69065006D01*
X110337715Y-69071614D01*
X110458028Y-69237213D01*
X110602786Y-69381971D01*
X110751478Y-69490000D01*
X110768390Y-69502287D01*
X110884607Y-69561503D01*
X110950776Y-69595218D01*
X110950778Y-69595218D01*
X110950781Y-69595220D01*
X111040459Y-69624358D01*
X111145465Y-69658477D01*
X111229564Y-69671797D01*
X111347648Y-69690500D01*
X111347649Y-69690500D01*
X111552351Y-69690500D01*
X111552352Y-69690500D01*
X111754534Y-69658477D01*
X111949219Y-69595220D01*
X112131610Y-69502287D01*
X112224590Y-69434732D01*
X112297213Y-69381971D01*
X112297215Y-69381968D01*
X112297219Y-69381966D01*
X112441966Y-69237219D01*
X112510383Y-69143050D01*
X112565712Y-69100385D01*
X112635325Y-69094406D01*
X112697121Y-69127011D01*
X112728407Y-69176932D01*
X112755641Y-69259119D01*
X112755643Y-69259124D01*
X112847684Y-69408345D01*
X112971654Y-69532315D01*
X113120875Y-69624356D01*
X113120880Y-69624358D01*
X113287302Y-69679505D01*
X113287309Y-69679506D01*
X113390019Y-69689999D01*
X113739999Y-69689999D01*
X113740000Y-69689998D01*
X113740000Y-68705686D01*
X113744394Y-68710080D01*
X113835606Y-68762741D01*
X113937339Y-68790000D01*
X114042661Y-68790000D01*
X114144394Y-68762741D01*
X114235606Y-68710080D01*
X114240000Y-68705686D01*
X114240000Y-69689999D01*
X114589972Y-69689999D01*
X114589986Y-69689998D01*
X114692697Y-69679505D01*
X114859119Y-69624358D01*
X114859124Y-69624356D01*
X115008345Y-69532315D01*
X115132315Y-69408345D01*
X115224356Y-69259124D01*
X115224358Y-69259119D01*
X115279505Y-69092697D01*
X115279506Y-69092690D01*
X115289999Y-68989986D01*
X115290000Y-68989973D01*
X115290000Y-68640000D01*
X114305686Y-68640000D01*
X114310080Y-68635606D01*
X114362741Y-68544394D01*
X114390000Y-68442661D01*
X114390000Y-68337339D01*
X114362741Y-68235606D01*
X114310080Y-68144394D01*
X114305686Y-68140000D01*
X115289999Y-68140000D01*
X115289999Y-67790028D01*
X115289998Y-67790013D01*
X115279505Y-67687302D01*
X115224358Y-67520880D01*
X115224356Y-67520875D01*
X115132315Y-67371654D01*
X115008345Y-67247684D01*
X114859124Y-67155643D01*
X114859119Y-67155641D01*
X114692697Y-67100494D01*
X114692690Y-67100493D01*
X114589986Y-67090000D01*
X114240000Y-67090000D01*
X114240000Y-68074314D01*
X114235606Y-68069920D01*
X114144394Y-68017259D01*
X114042661Y-67990000D01*
X113937339Y-67990000D01*
X113835606Y-68017259D01*
X113744394Y-68069920D01*
X113740000Y-68074314D01*
X113740000Y-67090000D01*
X113390028Y-67090000D01*
X113390012Y-67090001D01*
X113287302Y-67100494D01*
X113120880Y-67155641D01*
X113120875Y-67155643D01*
X112971654Y-67247684D01*
X112847684Y-67371654D01*
X112755643Y-67520875D01*
X112755641Y-67520880D01*
X112728407Y-67603068D01*
X112688634Y-67660513D01*
X112624118Y-67687336D01*
X112555342Y-67675021D01*
X112510382Y-67636949D01*
X112485766Y-67603068D01*
X112441966Y-67542781D01*
X112297219Y-67398034D01*
X112297213Y-67398028D01*
X112131613Y-67277715D01*
X112131612Y-67277714D01*
X112131610Y-67277713D01*
X112072675Y-67247684D01*
X111949223Y-67184781D01*
X111754534Y-67121522D01*
X111579995Y-67093878D01*
X111552352Y-67089500D01*
X111347648Y-67089500D01*
X111323329Y-67093351D01*
X111145465Y-67121522D01*
X110950776Y-67184781D01*
X110768386Y-67277715D01*
X110602786Y-67398028D01*
X110458028Y-67542786D01*
X110337715Y-67708386D01*
X110290485Y-67801080D01*
X110242510Y-67851876D01*
X110174689Y-67868671D01*
X110108554Y-67846134D01*
X110069515Y-67801080D01*
X110059868Y-67782147D01*
X110022287Y-67708390D01*
X110014556Y-67697749D01*
X109901971Y-67542786D01*
X109757213Y-67398028D01*
X109591613Y-67277715D01*
X109591612Y-67277714D01*
X109591610Y-67277713D01*
X109532675Y-67247684D01*
X109409223Y-67184781D01*
X109214534Y-67121522D01*
X109039995Y-67093878D01*
X109012352Y-67089500D01*
X108807648Y-67089500D01*
X108802776Y-67089500D01*
X108802776Y-67087266D01*
X108743428Y-67074689D01*
X108714588Y-67053220D01*
X107968421Y-66307052D01*
X107968418Y-66307049D01*
X107886010Y-66251987D01*
X107845495Y-66224916D01*
X107845492Y-66224914D01*
X107845491Y-66224914D01*
X107708917Y-66168343D01*
X107708907Y-66168340D01*
X107563920Y-66139500D01*
X107563918Y-66139500D01*
X103548630Y-66139500D01*
X103481591Y-66119815D01*
X103443091Y-66080597D01*
X103429174Y-66058034D01*
X103412712Y-66031344D01*
X103288656Y-65907288D01*
X103139334Y-65815186D01*
X103056843Y-65787851D01*
X102999398Y-65748077D01*
X102972576Y-65683561D01*
X102984891Y-65614786D01*
X102994856Y-65603018D01*
X102995921Y-65589474D01*
X102316447Y-64910000D01*
X102322661Y-64910000D01*
X102424394Y-64882741D01*
X102515606Y-64830080D01*
X102590080Y-64755606D01*
X102642741Y-64664394D01*
X102670000Y-64562661D01*
X102670000Y-64556446D01*
X103349474Y-65235921D01*
X103381859Y-65191349D01*
X103474755Y-65009031D01*
X103537990Y-64814417D01*
X103570000Y-64612317D01*
X103570000Y-64591248D01*
X103589685Y-64524209D01*
X103642489Y-64478454D01*
X103711647Y-64468510D01*
X103775203Y-64497535D01*
X103810508Y-64552472D01*
X103811198Y-64552215D01*
X103812379Y-64555383D01*
X103812977Y-64556313D01*
X103813589Y-64558627D01*
X103864202Y-64694328D01*
X103864206Y-64694335D01*
X103950452Y-64809544D01*
X103950455Y-64809547D01*
X104065664Y-64895793D01*
X104065671Y-64895797D01*
X104200517Y-64946091D01*
X104200516Y-64946091D01*
X104207444Y-64946835D01*
X104260127Y-64952500D01*
X105879872Y-64952499D01*
X105939483Y-64946091D01*
X106074331Y-64895796D01*
X106189546Y-64809546D01*
X106275796Y-64694331D01*
X106326091Y-64559483D01*
X106332500Y-64499873D01*
X106332499Y-64461197D01*
X106352182Y-64394161D01*
X106404985Y-64348405D01*
X106474143Y-64338460D01*
X106537699Y-64367483D01*
X106556817Y-64388312D01*
X106581476Y-64422252D01*
X106647019Y-64512464D01*
X106787536Y-64652981D01*
X106948306Y-64769787D01*
X107026333Y-64809544D01*
X107125367Y-64860005D01*
X107125370Y-64860006D01*
X107195343Y-64882741D01*
X107314364Y-64921413D01*
X107510639Y-64952500D01*
X107510640Y-64952500D01*
X107709360Y-64952500D01*
X107709361Y-64952500D01*
X107905636Y-64921413D01*
X108094632Y-64860005D01*
X108271694Y-64769787D01*
X108432464Y-64652981D01*
X108572981Y-64512464D01*
X108689787Y-64351694D01*
X108769796Y-64194667D01*
X108817769Y-64143872D01*
X108885590Y-64127077D01*
X108951725Y-64149614D01*
X108990765Y-64194668D01*
X109070641Y-64351432D01*
X109187403Y-64512139D01*
X109187403Y-64512140D01*
X109327859Y-64652596D01*
X109488567Y-64769358D01*
X109665562Y-64859542D01*
X109854473Y-64920922D01*
X109900000Y-64928133D01*
X109900000Y-63505686D01*
X109904394Y-63510080D01*
X109995606Y-63562741D01*
X110097339Y-63590000D01*
X110202661Y-63590000D01*
X110304394Y-63562741D01*
X110395606Y-63510080D01*
X110400000Y-63505686D01*
X110400000Y-64928132D01*
X110445526Y-64920922D01*
X110634437Y-64859542D01*
X110811432Y-64769358D01*
X110972139Y-64652596D01*
X110972140Y-64652596D01*
X111112596Y-64512140D01*
X111112596Y-64512139D01*
X111229358Y-64351432D01*
X111309234Y-64194668D01*
X111357208Y-64143872D01*
X111425029Y-64127077D01*
X111491164Y-64149614D01*
X111530203Y-64194667D01*
X111610213Y-64351694D01*
X111727019Y-64512464D01*
X111867536Y-64652981D01*
X112028306Y-64769787D01*
X112106333Y-64809544D01*
X112205367Y-64860005D01*
X112205370Y-64860006D01*
X112275343Y-64882741D01*
X112394364Y-64921413D01*
X112590639Y-64952500D01*
X112590640Y-64952500D01*
X112789360Y-64952500D01*
X112789361Y-64952500D01*
X112985636Y-64921413D01*
X113174632Y-64860005D01*
X113351694Y-64769787D01*
X113512464Y-64652981D01*
X113652981Y-64512464D01*
X113769787Y-64351694D01*
X113849515Y-64195218D01*
X113897490Y-64144423D01*
X113965311Y-64127628D01*
X114031446Y-64150165D01*
X114070484Y-64195218D01*
X114150213Y-64351694D01*
X114267019Y-64512464D01*
X114407536Y-64652981D01*
X114568306Y-64769787D01*
X114646333Y-64809544D01*
X114745367Y-64860005D01*
X114745370Y-64860006D01*
X114815343Y-64882741D01*
X114934364Y-64921413D01*
X115130639Y-64952500D01*
X115130640Y-64952500D01*
X115329360Y-64952500D01*
X115329361Y-64952500D01*
X115525636Y-64921413D01*
X115714632Y-64860005D01*
X115891694Y-64769787D01*
X116052464Y-64652981D01*
X116192981Y-64512464D01*
X116309787Y-64351694D01*
X116400005Y-64174632D01*
X116461413Y-63985636D01*
X116492500Y-63789361D01*
X116492500Y-62590639D01*
X116461413Y-62394364D01*
X116400005Y-62205368D01*
X116400005Y-62205367D01*
X116354035Y-62115149D01*
X116309787Y-62028306D01*
X116192981Y-61867536D01*
X116052464Y-61727019D01*
X115891694Y-61610213D01*
X115714632Y-61519994D01*
X115714629Y-61519993D01*
X115525637Y-61458587D01*
X115427498Y-61443043D01*
X115329361Y-61427500D01*
X115130639Y-61427500D01*
X115065214Y-61437862D01*
X114934362Y-61458587D01*
X114745370Y-61519993D01*
X114745367Y-61519994D01*
X114568305Y-61610213D01*
X114407533Y-61727021D01*
X114267021Y-61867533D01*
X114150213Y-62028305D01*
X114070485Y-62184780D01*
X114022510Y-62235576D01*
X113954689Y-62252371D01*
X113888554Y-62229833D01*
X113849515Y-62184780D01*
X113822703Y-62132160D01*
X113769787Y-62028306D01*
X113652981Y-61867536D01*
X113512464Y-61727019D01*
X113351694Y-61610213D01*
X113174632Y-61519994D01*
X113174629Y-61519993D01*
X112985637Y-61458587D01*
X112887498Y-61443043D01*
X112789361Y-61427500D01*
X112590639Y-61427500D01*
X112525214Y-61437862D01*
X112394362Y-61458587D01*
X112205370Y-61519993D01*
X112205367Y-61519994D01*
X112028305Y-61610213D01*
X111867533Y-61727021D01*
X111727021Y-61867533D01*
X111610213Y-62028305D01*
X111530204Y-62185331D01*
X111482229Y-62236127D01*
X111414408Y-62252922D01*
X111348273Y-62230384D01*
X111309234Y-62185331D01*
X111229358Y-62028567D01*
X111112596Y-61867860D01*
X111112596Y-61867859D01*
X110972140Y-61727403D01*
X110811432Y-61610641D01*
X110634434Y-61520456D01*
X110634436Y-61520456D01*
X110445517Y-61459074D01*
X110400000Y-61451865D01*
X110400000Y-62874314D01*
X110395606Y-62869920D01*
X110304394Y-62817259D01*
X110202661Y-62790000D01*
X110097339Y-62790000D01*
X109995606Y-62817259D01*
X109904394Y-62869920D01*
X109900000Y-62874314D01*
X109900000Y-61451865D01*
X109899999Y-61451865D01*
X109854482Y-61459074D01*
X109665564Y-61520456D01*
X109488567Y-61610641D01*
X109327860Y-61727403D01*
X109327859Y-61727403D01*
X109187403Y-61867859D01*
X109187403Y-61867860D01*
X109070639Y-62028569D01*
X108990764Y-62185332D01*
X108942790Y-62236127D01*
X108874969Y-62252922D01*
X108808834Y-62230384D01*
X108769796Y-62185332D01*
X108689787Y-62028306D01*
X108572981Y-61867536D01*
X108432464Y-61727019D01*
X108271694Y-61610213D01*
X108094632Y-61519994D01*
X108094629Y-61519993D01*
X107905637Y-61458587D01*
X107807498Y-61443043D01*
X107709361Y-61427500D01*
X107510639Y-61427500D01*
X107471384Y-61433717D01*
X107314360Y-61458587D01*
X107140168Y-61515185D01*
X107070327Y-61517180D01*
X107014170Y-61484935D01*
X103338740Y-57809505D01*
X103305255Y-57748182D01*
X103310239Y-57678490D01*
X103326099Y-57648945D01*
X103382287Y-57571610D01*
X103475220Y-57389219D01*
X103538477Y-57194534D01*
X103570500Y-56992352D01*
X103570500Y-56787648D01*
X103538477Y-56585466D01*
X103475220Y-56390781D01*
X103475218Y-56390778D01*
X103475218Y-56390776D01*
X103432311Y-56306567D01*
X103382287Y-56208390D01*
X103374556Y-56197749D01*
X103261971Y-56042786D01*
X103117213Y-55898028D01*
X102951614Y-55777715D01*
X102945006Y-55774348D01*
X102858917Y-55730483D01*
X102808123Y-55682511D01*
X102791328Y-55614690D01*
X102813865Y-55548555D01*
X102858917Y-55509516D01*
X102951610Y-55462287D01*
X103077333Y-55370945D01*
X103117213Y-55341971D01*
X103117215Y-55341968D01*
X103117219Y-55341966D01*
X103261966Y-55197219D01*
X103382287Y-55031610D01*
X103428908Y-54940109D01*
X103441342Y-54926944D01*
X103449642Y-54910842D01*
X103476495Y-54889722D01*
X103476881Y-54889315D01*
X103477384Y-54889023D01*
X103477390Y-54889019D01*
X103477392Y-54889018D01*
X103478767Y-54888223D01*
X103491904Y-54880639D01*
X103578716Y-54830520D01*
X103690520Y-54718716D01*
X103690520Y-54718714D01*
X103700728Y-54708507D01*
X103700729Y-54708504D01*
X108090520Y-50318716D01*
X108169577Y-50181784D01*
X108210501Y-50029057D01*
X108210501Y-49870942D01*
X108210501Y-49863347D01*
X108210500Y-49863329D01*
X108210500Y-49636730D01*
X108230185Y-49569691D01*
X108230187Y-49569689D01*
X108267866Y-49532808D01*
X108267752Y-49532651D01*
X108268823Y-49531872D01*
X108269715Y-49531000D01*
X108271690Y-49529789D01*
X108271689Y-49529789D01*
X108271694Y-49529787D01*
X108432464Y-49412981D01*
X108572981Y-49272464D01*
X108689787Y-49111694D01*
X108769796Y-48954667D01*
X108817769Y-48903872D01*
X108885590Y-48887077D01*
X108951725Y-48909614D01*
X108990765Y-48954668D01*
X109070641Y-49111432D01*
X109187403Y-49272139D01*
X109187403Y-49272140D01*
X109327859Y-49412596D01*
X109488567Y-49529358D01*
X109665562Y-49619542D01*
X109854473Y-49680922D01*
X109900000Y-49688133D01*
X109900000Y-48265686D01*
X109904394Y-48270080D01*
X109995606Y-48322741D01*
X110097339Y-48350000D01*
X110202661Y-48350000D01*
X110304394Y-48322741D01*
X110395606Y-48270080D01*
X110400000Y-48265686D01*
X110400000Y-49688132D01*
X110445526Y-49680922D01*
X110634437Y-49619542D01*
X110811432Y-49529358D01*
X110972139Y-49412596D01*
X110972140Y-49412596D01*
X111112596Y-49272140D01*
X111112596Y-49272139D01*
X111229358Y-49111432D01*
X111309234Y-48954668D01*
X111357208Y-48903872D01*
X111425029Y-48887077D01*
X111491164Y-48909614D01*
X111530203Y-48954667D01*
X111610213Y-49111694D01*
X111727019Y-49272464D01*
X111867536Y-49412981D01*
X112028306Y-49529787D01*
X112089500Y-49560967D01*
X112205367Y-49620005D01*
X112205370Y-49620006D01*
X112275343Y-49642741D01*
X112394364Y-49681413D01*
X112590639Y-49712500D01*
X112590640Y-49712500D01*
X112789360Y-49712500D01*
X112789361Y-49712500D01*
X112985636Y-49681413D01*
X113174632Y-49620005D01*
X113351694Y-49529787D01*
X113512464Y-49412981D01*
X113652981Y-49272464D01*
X113769787Y-49111694D01*
X113849515Y-48955218D01*
X113897490Y-48904423D01*
X113965311Y-48887628D01*
X114031446Y-48910165D01*
X114070484Y-48955218D01*
X114150213Y-49111694D01*
X114267019Y-49272464D01*
X114407536Y-49412981D01*
X114568306Y-49529787D01*
X114629500Y-49560967D01*
X114745367Y-49620005D01*
X114745370Y-49620006D01*
X114815343Y-49642741D01*
X114934364Y-49681413D01*
X115130639Y-49712500D01*
X115130640Y-49712500D01*
X115329360Y-49712500D01*
X115329361Y-49712500D01*
X115525636Y-49681413D01*
X115714632Y-49620005D01*
X115891694Y-49529787D01*
X116052464Y-49412981D01*
X116192981Y-49272464D01*
X116309787Y-49111694D01*
X116400005Y-48934632D01*
X116461413Y-48745636D01*
X116492500Y-48549361D01*
X116492500Y-47350639D01*
X116461413Y-47154364D01*
X116400005Y-46965368D01*
X116400005Y-46965367D01*
X116309921Y-46788569D01*
X116309787Y-46788306D01*
X116192981Y-46627536D01*
X116052464Y-46487019D01*
X115891694Y-46370213D01*
X115714632Y-46279994D01*
X115714629Y-46279993D01*
X115525637Y-46218587D01*
X115427498Y-46203043D01*
X115329361Y-46187500D01*
X115130639Y-46187500D01*
X115065214Y-46197862D01*
X114934362Y-46218587D01*
X114745370Y-46279993D01*
X114745367Y-46279994D01*
X114568305Y-46370213D01*
X114407533Y-46487021D01*
X114267021Y-46627533D01*
X114150213Y-46788305D01*
X114070485Y-46944780D01*
X114022510Y-46995576D01*
X113954689Y-47012371D01*
X113888554Y-46989833D01*
X113849515Y-46944780D01*
X113769921Y-46788569D01*
X113769787Y-46788306D01*
X113652981Y-46627536D01*
X113512464Y-46487019D01*
X113351694Y-46370213D01*
X113174632Y-46279994D01*
X113174629Y-46279993D01*
X112985637Y-46218587D01*
X112887498Y-46203043D01*
X112789361Y-46187500D01*
X112590639Y-46187500D01*
X112525214Y-46197862D01*
X112394362Y-46218587D01*
X112205370Y-46279993D01*
X112205367Y-46279994D01*
X112028305Y-46370213D01*
X111867533Y-46487021D01*
X111727021Y-46627533D01*
X111610213Y-46788305D01*
X111530204Y-46945331D01*
X111482229Y-46996127D01*
X111414408Y-47012922D01*
X111348273Y-46990384D01*
X111309234Y-46945331D01*
X111229358Y-46788567D01*
X111112596Y-46627860D01*
X111112596Y-46627859D01*
X110972140Y-46487403D01*
X110811432Y-46370641D01*
X110634434Y-46280456D01*
X110634436Y-46280456D01*
X110445517Y-46219074D01*
X110400000Y-46211865D01*
X110400000Y-47634314D01*
X110395606Y-47629920D01*
X110304394Y-47577259D01*
X110202661Y-47550000D01*
X110097339Y-47550000D01*
X109995606Y-47577259D01*
X109904394Y-47629920D01*
X109900000Y-47634314D01*
X109900000Y-46211865D01*
X109899999Y-46211865D01*
X109854482Y-46219074D01*
X109665564Y-46280456D01*
X109488567Y-46370641D01*
X109327860Y-46487403D01*
X109327859Y-46487403D01*
X109187403Y-46627859D01*
X109187403Y-46627860D01*
X109070639Y-46788569D01*
X108990764Y-46945332D01*
X108942790Y-46996127D01*
X108874969Y-47012922D01*
X108808834Y-46990384D01*
X108769796Y-46945332D01*
X108689787Y-46788306D01*
X108572981Y-46627536D01*
X108432464Y-46487019D01*
X108271694Y-46370213D01*
X108094632Y-46279994D01*
X108094629Y-46279993D01*
X107905637Y-46218587D01*
X107807498Y-46203043D01*
X107709361Y-46187500D01*
X107510639Y-46187500D01*
X107445214Y-46197862D01*
X107314362Y-46218587D01*
X107125370Y-46279993D01*
X107125367Y-46279994D01*
X106948305Y-46370213D01*
X106787533Y-46487021D01*
X106647021Y-46627533D01*
X106530213Y-46788305D01*
X106450485Y-46944780D01*
X106402510Y-46995576D01*
X106334689Y-47012371D01*
X106268554Y-46989833D01*
X106229515Y-46944780D01*
X106149921Y-46788569D01*
X106149787Y-46788306D01*
X106032981Y-46627536D01*
X105892464Y-46487019D01*
X105731694Y-46370213D01*
X105554632Y-46279994D01*
X105554629Y-46279993D01*
X105365637Y-46218587D01*
X105267498Y-46203043D01*
X105169361Y-46187500D01*
X104970639Y-46187500D01*
X104905214Y-46197862D01*
X104774362Y-46218587D01*
X104585370Y-46279993D01*
X104585367Y-46279994D01*
X104408305Y-46370213D01*
X104247533Y-46487021D01*
X104107021Y-46627533D01*
X103990213Y-46788305D01*
X103899994Y-46965367D01*
X103899993Y-46965370D01*
X103838587Y-47154362D01*
X103807500Y-47350639D01*
X103807500Y-48311902D01*
X103787815Y-48378941D01*
X103771181Y-48399583D01*
X103649481Y-48521282D01*
X103649479Y-48521284D01*
X103621046Y-48570535D01*
X103621044Y-48570537D01*
X103603275Y-48601313D01*
X103552708Y-48649528D01*
X103484101Y-48662750D01*
X103419236Y-48636782D01*
X103385404Y-48595606D01*
X103381861Y-48588652D01*
X103349474Y-48544077D01*
X103349474Y-48544076D01*
X102670000Y-49223553D01*
X102670000Y-49217339D01*
X102642741Y-49115606D01*
X102590080Y-49024394D01*
X102515606Y-48949920D01*
X102424394Y-48897259D01*
X102322661Y-48870000D01*
X102316446Y-48870000D01*
X102995922Y-48190524D01*
X102995921Y-48190523D01*
X102951359Y-48158147D01*
X102951350Y-48158141D01*
X102769031Y-48065244D01*
X102574417Y-48002009D01*
X102372317Y-47970000D01*
X102167683Y-47970000D01*
X101965582Y-48002009D01*
X101770968Y-48065244D01*
X101588644Y-48158143D01*
X101544077Y-48190523D01*
X101544077Y-48190524D01*
X102223554Y-48870000D01*
X102217339Y-48870000D01*
X102115606Y-48897259D01*
X102024394Y-48949920D01*
X101949920Y-49024394D01*
X101897259Y-49115606D01*
X101870000Y-49217339D01*
X101870000Y-49223553D01*
X101190524Y-48544077D01*
X101190523Y-48544077D01*
X101158143Y-48588644D01*
X101065244Y-48770968D01*
X101002009Y-48965582D01*
X100970000Y-49167682D01*
X100970000Y-49372317D01*
X101002009Y-49574417D01*
X101065244Y-49769031D01*
X101158141Y-49951350D01*
X101158147Y-49951359D01*
X101190523Y-49995921D01*
X101190524Y-49995922D01*
X101870000Y-49316446D01*
X101870000Y-49322661D01*
X101897259Y-49424394D01*
X101949920Y-49515606D01*
X102024394Y-49590080D01*
X102115606Y-49642741D01*
X102217339Y-49670000D01*
X102223553Y-49670000D01*
X101544076Y-50349474D01*
X101588652Y-50381861D01*
X101681628Y-50429234D01*
X101732425Y-50477208D01*
X101749220Y-50545029D01*
X101726683Y-50611164D01*
X101681630Y-50650203D01*
X101588388Y-50697713D01*
X101422786Y-50818028D01*
X101278028Y-50962786D01*
X101157715Y-51128386D01*
X101064781Y-51310776D01*
X101001522Y-51505465D01*
X100969500Y-51707648D01*
X100969500Y-51912351D01*
X101001522Y-52114534D01*
X101064781Y-52309223D01*
X101157715Y-52491613D01*
X101278028Y-52657213D01*
X101422786Y-52801971D01*
X101577749Y-52914556D01*
X101588390Y-52922287D01*
X101679840Y-52968883D01*
X101681080Y-52969515D01*
X101731876Y-53017490D01*
X101748671Y-53085311D01*
X101726134Y-53151446D01*
X101681080Y-53190485D01*
X101588386Y-53237715D01*
X101422786Y-53358028D01*
X101278028Y-53502786D01*
X101157715Y-53668386D01*
X101064781Y-53850776D01*
X101001522Y-54045465D01*
X100969500Y-54247648D01*
X100969500Y-54452351D01*
X101001522Y-54654534D01*
X101064781Y-54849223D01*
X101157715Y-55031613D01*
X101278028Y-55197213D01*
X101422786Y-55341971D01*
X101577749Y-55454556D01*
X101588390Y-55462287D01*
X101679840Y-55508883D01*
X101681080Y-55509515D01*
X101731876Y-55557490D01*
X101748671Y-55625311D01*
X101726134Y-55691446D01*
X101681080Y-55730485D01*
X101588386Y-55777715D01*
X101422786Y-55898028D01*
X101278028Y-56042786D01*
X101157714Y-56208386D01*
X101142127Y-56238978D01*
X101094151Y-56289773D01*
X101026330Y-56306567D01*
X100960196Y-56284028D01*
X100943962Y-56270362D01*
X96386819Y-51713219D01*
X96353334Y-51651896D01*
X96350500Y-51625538D01*
X96350500Y-50459059D01*
X96350501Y-50459046D01*
X96350501Y-50290945D01*
X96350501Y-50290943D01*
X96309577Y-50138215D01*
X96280639Y-50088095D01*
X96230520Y-50001284D01*
X96118716Y-49889480D01*
X96118715Y-49889479D01*
X96114385Y-49885149D01*
X96114374Y-49885139D01*
X95944077Y-49714842D01*
X95910592Y-49653519D01*
X95913828Y-49588841D01*
X95918477Y-49574534D01*
X95950500Y-49372352D01*
X95950500Y-49167648D01*
X95941596Y-49111432D01*
X95918477Y-48965465D01*
X95868269Y-48810943D01*
X95855220Y-48770781D01*
X95855218Y-48770778D01*
X95855218Y-48770776D01*
X95800175Y-48662750D01*
X95762287Y-48588390D01*
X95733931Y-48549361D01*
X95641971Y-48422786D01*
X95497213Y-48278028D01*
X95331613Y-48157715D01*
X95331612Y-48157714D01*
X95331610Y-48157713D01*
X95274653Y-48128691D01*
X95149223Y-48064781D01*
X94954534Y-48001522D01*
X94779995Y-47973878D01*
X94752352Y-47969500D01*
X94547648Y-47969500D01*
X94515644Y-47974569D01*
X94446350Y-47965614D01*
X94392898Y-47920618D01*
X94372259Y-47853866D01*
X94388858Y-47790098D01*
X95570023Y-45744258D01*
X95574939Y-45736435D01*
X95693355Y-45562762D01*
X95704898Y-45548289D01*
X95844714Y-45397608D01*
X95858282Y-45385018D01*
X96018997Y-45256855D01*
X96034292Y-45246428D01*
X96212301Y-45143654D01*
X96228984Y-45135620D01*
X96420327Y-45060521D01*
X96438019Y-45055063D01*
X96638415Y-45009320D01*
X96656734Y-45006559D01*
X96804693Y-44995467D01*
X96866332Y-44990847D01*
X96875601Y-44990500D01*
X123363173Y-44990500D01*
X123363184Y-44990503D01*
G37*
%TD.AperFunction*%
%TD*%
M02*
