%TF.GenerationSoftware,KiCad,Pcbnew,10.0.1*%
%TF.CreationDate,2026-07-07T22:51:46-04:00*%
%TF.ProjectId,outpost-kits,6f757470-6f73-4742-9d6b-6974732e6b69,rev?*%
%TF.SameCoordinates,Original*%
%TF.FileFunction,Legend,Bot*%
%TF.FilePolarity,Positive*%
%FSLAX46Y46*%
G04 Gerber Fmt 4.6, Leading zero omitted, Abs format (unit mm)*
G04 Created by KiCad (PCBNEW 10.0.1) date 2026-07-07 22:51:46*
%MOMM*%
%LPD*%
G01*
G04 APERTURE LIST*
%ADD10C,0.150000*%
%ADD11C,0.120000*%
%ADD12C,0.000000*%
G04 APERTURE END LIST*
D10*
X108804614Y-113355013D02*
X108852233Y-113497870D01*
X108852233Y-113497870D02*
X108899852Y-113545489D01*
X108899852Y-113545489D02*
X108995090Y-113593108D01*
X108995090Y-113593108D02*
X109137947Y-113593108D01*
X109137947Y-113593108D02*
X109233185Y-113545489D01*
X109233185Y-113545489D02*
X109280805Y-113497870D01*
X109280805Y-113497870D02*
X109328424Y-113402632D01*
X109328424Y-113402632D02*
X109328424Y-113021680D01*
X109328424Y-113021680D02*
X108328424Y-113021680D01*
X108328424Y-113021680D02*
X108328424Y-113355013D01*
X108328424Y-113355013D02*
X108376043Y-113450251D01*
X108376043Y-113450251D02*
X108423662Y-113497870D01*
X108423662Y-113497870D02*
X108518900Y-113545489D01*
X108518900Y-113545489D02*
X108614138Y-113545489D01*
X108614138Y-113545489D02*
X108709376Y-113497870D01*
X108709376Y-113497870D02*
X108756995Y-113450251D01*
X108756995Y-113450251D02*
X108804614Y-113355013D01*
X108804614Y-113355013D02*
X108804614Y-113021680D01*
X108328424Y-113878823D02*
X108328424Y-114450251D01*
X109328424Y-114164537D02*
X108328424Y-114164537D01*
X108328424Y-114688347D02*
X108328424Y-115307394D01*
X108328424Y-115307394D02*
X108709376Y-114974061D01*
X108709376Y-114974061D02*
X108709376Y-115116918D01*
X108709376Y-115116918D02*
X108756995Y-115212156D01*
X108756995Y-115212156D02*
X108804614Y-115259775D01*
X108804614Y-115259775D02*
X108899852Y-115307394D01*
X108899852Y-115307394D02*
X109137947Y-115307394D01*
X109137947Y-115307394D02*
X109233185Y-115259775D01*
X109233185Y-115259775D02*
X109280805Y-115212156D01*
X109280805Y-115212156D02*
X109328424Y-115116918D01*
X109328424Y-115116918D02*
X109328424Y-114831204D01*
X109328424Y-114831204D02*
X109280805Y-114735966D01*
X109280805Y-114735966D02*
X109233185Y-114688347D01*
X113288305Y-116319299D02*
X113288305Y-117462157D01*
X113859733Y-116890728D02*
X112716876Y-116890728D01*
%TO.C,BT3*%
D11*
X116673605Y-118390728D02*
G75*
G02*
X113173605Y-140836399I-3499989J-10949956D01*
G01*
X113173605Y-140836399D02*
G75*
G02*
X109673605Y-118390728I-11J11495715D01*
G01*
X110173605Y-117640728D02*
G75*
G02*
X109673605Y-118390728I-812500J0D01*
G01*
X116673605Y-118390728D02*
G75*
G02*
X116173605Y-117640728I312500J750000D01*
G01*
X116173605Y-111940728D02*
X116173605Y-117640728D01*
X116173605Y-111940728D02*
X110173605Y-111940728D01*
X110173605Y-111940728D02*
X110173605Y-117640728D01*
D12*
%TO.C,G\u002A\u002A\u002A*%
G36*
X127600098Y-122732700D02*
G01*
X127610496Y-122807261D01*
X127618985Y-122911026D01*
X127623160Y-123013138D01*
X127615772Y-123075662D01*
X127589678Y-123109594D01*
X127538174Y-123133374D01*
X127489582Y-123148098D01*
X127436259Y-123139125D01*
X127384902Y-123081948D01*
X127333835Y-123001905D01*
X127285976Y-122910925D01*
X127248302Y-122825741D01*
X127412642Y-122759020D01*
X127480352Y-122733387D01*
X127556506Y-122710333D01*
X127592380Y-122707696D01*
X127600098Y-122732700D01*
G37*
G36*
X128126996Y-122351993D02*
G01*
X128161162Y-122394103D01*
X128196740Y-122473474D01*
X128227357Y-122571170D01*
X128246642Y-122668255D01*
X128248221Y-122745787D01*
X128246573Y-122753582D01*
X128206683Y-122819856D01*
X128138858Y-122877946D01*
X128071255Y-122902863D01*
X128063395Y-122902470D01*
X127995330Y-122873027D01*
X127927420Y-122808152D01*
X127869015Y-122723849D01*
X127829463Y-122636120D01*
X127818115Y-122560973D01*
X127844319Y-122514406D01*
X127847153Y-122512806D01*
X127911726Y-122473378D01*
X127992159Y-122421086D01*
X128002439Y-122414261D01*
X128072079Y-122371203D01*
X128115003Y-122349862D01*
X128126996Y-122351993D01*
G37*
G36*
X121420961Y-116639236D02*
G01*
X121501255Y-116692299D01*
X121510711Y-116698474D01*
X121596140Y-116760479D01*
X121629167Y-116811198D01*
X121613513Y-116869488D01*
X121552893Y-116954204D01*
X121492157Y-117029038D01*
X121393590Y-117140291D01*
X121307425Y-117225588D01*
X121242575Y-117276405D01*
X121207955Y-117284215D01*
X121204387Y-117257381D01*
X121210747Y-117177810D01*
X121227512Y-117060148D01*
X121252958Y-116918387D01*
X121258748Y-116888642D01*
X121286543Y-116745316D01*
X121308486Y-116656156D01*
X121332753Y-116613720D01*
X121367518Y-116610562D01*
X121420961Y-116639236D01*
G37*
G36*
X120368679Y-110770792D02*
G01*
X120536699Y-110938812D01*
X120191239Y-111314059D01*
X120177540Y-111328976D01*
X120027782Y-111496234D01*
X119873495Y-111675305D01*
X119720595Y-111858644D01*
X119574995Y-112038705D01*
X119442608Y-112207941D01*
X119329346Y-112358805D01*
X119241123Y-112483751D01*
X119183854Y-112575233D01*
X119163450Y-112625705D01*
X119167774Y-112640670D01*
X119206707Y-112703268D01*
X119279458Y-112797748D01*
X119377900Y-112914321D01*
X119493905Y-113043204D01*
X119619347Y-113174612D01*
X119668029Y-113223340D01*
X119833077Y-113378751D01*
X120014926Y-113534912D01*
X120217747Y-113694515D01*
X120445708Y-113860248D01*
X120702982Y-114034806D01*
X120993739Y-114220878D01*
X121322148Y-114421157D01*
X121692379Y-114638334D01*
X121890260Y-114750897D01*
X122108602Y-114875099D01*
X122574988Y-115134144D01*
X123095706Y-115418162D01*
X123242402Y-115497867D01*
X123711422Y-115757244D01*
X124131678Y-115997787D01*
X124511415Y-116224793D01*
X124858878Y-116443558D01*
X125182310Y-116659377D01*
X125489957Y-116877547D01*
X125790061Y-117103363D01*
X126090870Y-117342119D01*
X126191167Y-117424635D01*
X126420520Y-117619966D01*
X126652517Y-117825710D01*
X126878258Y-118033441D01*
X127088845Y-118234730D01*
X127275382Y-118421145D01*
X127428970Y-118584258D01*
X127540713Y-118715640D01*
X127557693Y-118737568D01*
X127840611Y-119148312D01*
X128102953Y-119617343D01*
X128343155Y-120141257D01*
X128559642Y-120716649D01*
X128750845Y-121340117D01*
X128764892Y-121391970D01*
X128839765Y-121694433D01*
X128916434Y-122043270D01*
X128992221Y-122423274D01*
X129064452Y-122819241D01*
X129130452Y-123215964D01*
X129187545Y-123598235D01*
X129233055Y-123950849D01*
X129264308Y-124258600D01*
X129279828Y-124451290D01*
X129301643Y-124748407D01*
X129317334Y-125000973D01*
X129326734Y-125205036D01*
X129329678Y-125356632D01*
X129326003Y-125451807D01*
X129315539Y-125486600D01*
X129303545Y-125481451D01*
X129249616Y-125439188D01*
X129159672Y-125359076D01*
X129039680Y-125246646D01*
X128895605Y-125107428D01*
X128733413Y-124946952D01*
X128626945Y-124841021D01*
X128483397Y-124700031D01*
X128359659Y-124580669D01*
X128262152Y-124489031D01*
X128197297Y-124431218D01*
X128171516Y-124413326D01*
X128165513Y-124426897D01*
X128141700Y-124493642D01*
X128103090Y-124608016D01*
X128052587Y-124761246D01*
X127993099Y-124944571D01*
X127927531Y-125149224D01*
X127886491Y-125276406D01*
X127822589Y-125467607D01*
X127765177Y-125631244D01*
X127717391Y-125758743D01*
X127682372Y-125841534D01*
X127663255Y-125871049D01*
X127645398Y-125856380D01*
X127613916Y-125794182D01*
X127582840Y-125699787D01*
X127570027Y-125654971D01*
X127533536Y-125536930D01*
X127483329Y-125381367D01*
X127424279Y-125203281D01*
X127361259Y-125017668D01*
X127197582Y-124572711D01*
X126893729Y-123872157D01*
X126547040Y-123207637D01*
X126266134Y-122753704D01*
X127007829Y-122753704D01*
X127010151Y-122807913D01*
X127039254Y-122942623D01*
X127093330Y-123093906D01*
X127163271Y-123238286D01*
X127239973Y-123352285D01*
X127279713Y-123397995D01*
X127337740Y-123451769D01*
X127391038Y-123471345D01*
X127461848Y-123468360D01*
X127531678Y-123448784D01*
X127644273Y-123380451D01*
X127741157Y-123283362D01*
X127799548Y-123177159D01*
X127802409Y-123168012D01*
X127827840Y-123120467D01*
X127864482Y-123123225D01*
X127963616Y-123147018D01*
X128097703Y-123135741D01*
X128236353Y-123091613D01*
X128358160Y-123021691D01*
X128441714Y-122933029D01*
X128449811Y-122917989D01*
X128480255Y-122800655D01*
X128481409Y-122650187D01*
X128454634Y-122486897D01*
X128401295Y-122331102D01*
X128337392Y-122207710D01*
X128265093Y-122103776D01*
X128199172Y-122044470D01*
X128146855Y-122038110D01*
X128138532Y-122042564D01*
X128068398Y-122080820D01*
X127957678Y-122141806D01*
X127819528Y-122218220D01*
X127667101Y-122302760D01*
X127513550Y-122388122D01*
X127372031Y-122467007D01*
X127255697Y-122532108D01*
X127177702Y-122576126D01*
X127094759Y-122624965D01*
X127039151Y-122666208D01*
X127014829Y-122704255D01*
X127007829Y-122753704D01*
X126266134Y-122753704D01*
X126160012Y-122582215D01*
X125735136Y-121998952D01*
X125376568Y-121579761D01*
X126318968Y-121579761D01*
X126354537Y-121652890D01*
X126366057Y-121663140D01*
X126417209Y-121684810D01*
X126488278Y-121679213D01*
X126587382Y-121643668D01*
X126722641Y-121575496D01*
X126902169Y-121472014D01*
X127093741Y-121359937D01*
X127261874Y-121267987D01*
X127387501Y-121208279D01*
X127476143Y-121178215D01*
X127533317Y-121175203D01*
X127601599Y-121209278D01*
X127653523Y-121277648D01*
X127660120Y-121353890D01*
X127630469Y-121411676D01*
X127546363Y-121512658D01*
X127419492Y-121631730D01*
X127258004Y-121761431D01*
X127070038Y-121894309D01*
X126925879Y-121995077D01*
X126809940Y-122091538D01*
X126746497Y-122169869D01*
X126732046Y-122234590D01*
X126763077Y-122290227D01*
X126829056Y-122326502D01*
X126930517Y-122324630D01*
X127065658Y-122278171D01*
X127237715Y-122185983D01*
X127449917Y-122046917D01*
X127517025Y-121998509D01*
X127713656Y-121833679D01*
X127862314Y-121669991D01*
X127959696Y-121512430D01*
X128002501Y-121365982D01*
X127987425Y-121235629D01*
X127937391Y-121141391D01*
X127822563Y-121024357D01*
X127674347Y-120943027D01*
X127509137Y-120905449D01*
X127343336Y-120919666D01*
X127299362Y-120933855D01*
X127178612Y-120984238D01*
X127027683Y-121056780D01*
X126862733Y-121142896D01*
X126699921Y-121234000D01*
X126555404Y-121321505D01*
X126445340Y-121396827D01*
X126434347Y-121405337D01*
X126345882Y-121496366D01*
X126318968Y-121579761D01*
X125376568Y-121579761D01*
X125274905Y-121460910D01*
X124781815Y-120971153D01*
X124518127Y-120750305D01*
X125730707Y-120750305D01*
X125742668Y-120806965D01*
X125789524Y-120832308D01*
X125811306Y-120835655D01*
X125857670Y-120828661D01*
X125895360Y-120822974D01*
X126008001Y-120774066D01*
X126152468Y-120686838D01*
X126332008Y-120559199D01*
X126549865Y-120389053D01*
X126809282Y-120174305D01*
X126976674Y-120032824D01*
X127070714Y-120126864D01*
X127108899Y-120168239D01*
X127190184Y-120268668D01*
X127266594Y-120375764D01*
X127343965Y-120479281D01*
X127429786Y-120562614D01*
X127503720Y-120601462D01*
X127556898Y-120589296D01*
X127586481Y-120535410D01*
X127582372Y-120438717D01*
X127531886Y-120305980D01*
X127434069Y-120133676D01*
X127364524Y-120024062D01*
X127256159Y-119860235D01*
X127169458Y-119745589D01*
X127097211Y-119675800D01*
X127032206Y-119646547D01*
X126967230Y-119653507D01*
X126895075Y-119692358D01*
X126808527Y-119758781D01*
X126802288Y-119763877D01*
X126706163Y-119840634D01*
X126575964Y-119942415D01*
X126427988Y-120056563D01*
X126278534Y-120170418D01*
X126176883Y-120247714D01*
X126018146Y-120371503D01*
X125902189Y-120468180D01*
X125822351Y-120544421D01*
X125771965Y-120606907D01*
X125744375Y-120662314D01*
X125732913Y-120717322D01*
X125730707Y-120750305D01*
X124518127Y-120750305D01*
X124258358Y-120532740D01*
X123707029Y-120148734D01*
X123229852Y-119878554D01*
X125112021Y-119878554D01*
X125146179Y-120024490D01*
X125217487Y-120143534D01*
X125319282Y-120226443D01*
X125444899Y-120263978D01*
X125531543Y-120253614D01*
X125587678Y-120246899D01*
X125672510Y-120212260D01*
X125748593Y-120152243D01*
X125765254Y-120088406D01*
X125721670Y-120028307D01*
X125617010Y-119979505D01*
X125614772Y-119978833D01*
X125534117Y-119949424D01*
X125493087Y-119912646D01*
X125468516Y-119847978D01*
X125457048Y-119779513D01*
X125476199Y-119660150D01*
X125547834Y-119532367D01*
X125675626Y-119388027D01*
X125680276Y-119383438D01*
X125794172Y-119281288D01*
X125899758Y-119213441D01*
X126024867Y-119161873D01*
X126047127Y-119154418D01*
X126192817Y-119119924D01*
X126303859Y-119129161D01*
X126395525Y-119186630D01*
X126483088Y-119296826D01*
X126545199Y-119381894D01*
X126612138Y-119438068D01*
X126674832Y-119439519D01*
X126743049Y-119389738D01*
X126745598Y-119387125D01*
X126791952Y-119295218D01*
X126796493Y-119173030D01*
X126758382Y-119039671D01*
X126708360Y-118950367D01*
X126584432Y-118821492D01*
X126427799Y-118742051D01*
X126248661Y-118716281D01*
X126057222Y-118748422D01*
X125891820Y-118822738D01*
X125705109Y-118946830D01*
X125522903Y-119103419D01*
X125359290Y-119278873D01*
X125228354Y-119459566D01*
X125144183Y-119631867D01*
X125121677Y-119714968D01*
X125112021Y-119878554D01*
X123229852Y-119878554D01*
X123130319Y-119822198D01*
X123022499Y-119769934D01*
X122825788Y-119680748D01*
X122601675Y-119584566D01*
X122370218Y-119489931D01*
X122151476Y-119405383D01*
X121503312Y-119152159D01*
X120907200Y-118893768D01*
X120563583Y-118726413D01*
X123100442Y-118726413D01*
X123103170Y-118794059D01*
X123139185Y-118849374D01*
X123139888Y-118850067D01*
X123216549Y-118886239D01*
X123261580Y-118888637D01*
X123330046Y-118892281D01*
X123354523Y-118890056D01*
X123412145Y-118880964D01*
X123460863Y-118860610D01*
X123513630Y-118819708D01*
X123583408Y-118748960D01*
X123683154Y-118639080D01*
X123741326Y-118573148D01*
X123829073Y-118468901D01*
X123894922Y-118384550D01*
X123927827Y-118333875D01*
X123937513Y-118330961D01*
X123949913Y-118376906D01*
X123960764Y-118469274D01*
X123968480Y-118597777D01*
X123976251Y-118734866D01*
X124000506Y-118935554D01*
X124037678Y-119074634D01*
X124087522Y-119151604D01*
X124149791Y-119165970D01*
X124224240Y-119117230D01*
X124227900Y-119113321D01*
X124268576Y-119037231D01*
X124304984Y-118915191D01*
X124333765Y-118764445D01*
X124351561Y-118602244D01*
X124355010Y-118445834D01*
X124350532Y-118309168D01*
X124481445Y-118266705D01*
X124506568Y-118257763D01*
X124609664Y-118213794D01*
X124625619Y-118206132D01*
X124739265Y-118151553D01*
X124873297Y-118081474D01*
X124882616Y-118076356D01*
X125057165Y-117970049D01*
X125175500Y-117872608D01*
X125243931Y-117777605D01*
X125268768Y-117678613D01*
X125268866Y-117676408D01*
X125244385Y-117578982D01*
X125170999Y-117512420D01*
X125061423Y-117488382D01*
X125044945Y-117489347D01*
X124979635Y-117506215D01*
X124892274Y-117547969D01*
X124773295Y-117619694D01*
X124613124Y-117726473D01*
X124497493Y-117805170D01*
X124389736Y-117875736D01*
X124317407Y-117917136D01*
X124270721Y-117933929D01*
X124239897Y-117930673D01*
X124215149Y-117911926D01*
X124189570Y-117868805D01*
X124195103Y-117806609D01*
X124234832Y-117708628D01*
X124292484Y-117559356D01*
X124330967Y-117389235D01*
X124340998Y-117230356D01*
X124323039Y-117094657D01*
X124277554Y-116994079D01*
X124205004Y-116940556D01*
X124151415Y-116934909D01*
X124100177Y-116960814D01*
X124051563Y-117027545D01*
X124000264Y-117142604D01*
X123940969Y-117313492D01*
X123921355Y-117372859D01*
X123821896Y-117632660D01*
X123706279Y-117861368D01*
X123561928Y-118081284D01*
X123376259Y-118314714D01*
X123324344Y-118376527D01*
X123207794Y-118524944D01*
X123134238Y-118639142D01*
X123100442Y-118726413D01*
X120563583Y-118726413D01*
X120366853Y-118630598D01*
X119877766Y-118359984D01*
X119435438Y-118079263D01*
X119317440Y-117992696D01*
X122044626Y-117992696D01*
X122077417Y-118171855D01*
X122109629Y-118240803D01*
X122200287Y-118363971D01*
X122314979Y-118467804D01*
X122432560Y-118530926D01*
X122539122Y-118544068D01*
X122660266Y-118519619D01*
X122767845Y-118463006D01*
X122844860Y-118383490D01*
X122874310Y-118290329D01*
X122873820Y-118272595D01*
X122853237Y-118203831D01*
X122793410Y-118164495D01*
X122682069Y-118145337D01*
X122578853Y-118121963D01*
X122509703Y-118062681D01*
X122485702Y-117962965D01*
X122503828Y-117817252D01*
X122507551Y-117801105D01*
X122597677Y-117536550D01*
X122734408Y-117286631D01*
X122905210Y-117074542D01*
X122962651Y-117019169D01*
X123084968Y-116926543D01*
X123195585Y-116888232D01*
X123306620Y-116901692D01*
X123430182Y-116964381D01*
X123463543Y-116984986D01*
X123556006Y-117025937D01*
X123614692Y-117019433D01*
X123658408Y-116982441D01*
X123713786Y-116879404D01*
X123710325Y-116754575D01*
X123706238Y-116739539D01*
X123660023Y-116637421D01*
X123579392Y-116557016D01*
X123449522Y-116482886D01*
X123353000Y-116448075D01*
X123174525Y-116436192D01*
X122986610Y-116486097D01*
X122792011Y-116596873D01*
X122593487Y-116767604D01*
X122490792Y-116879965D01*
X122333980Y-117093961D01*
X122206826Y-117323477D01*
X122113461Y-117557265D01*
X122058016Y-117784087D01*
X122044626Y-117992696D01*
X119317440Y-117992696D01*
X119035368Y-117785760D01*
X118737598Y-117531849D01*
X120767023Y-117531849D01*
X120789504Y-117657154D01*
X120852451Y-117743362D01*
X120946325Y-117789635D01*
X121063933Y-117785744D01*
X121202870Y-117726712D01*
X121365472Y-117611525D01*
X121554077Y-117439173D01*
X121649115Y-117341334D01*
X121849965Y-117109365D01*
X122046629Y-116844475D01*
X122250303Y-116532076D01*
X122290915Y-116465032D01*
X122328757Y-116402560D01*
X122384923Y-116299447D01*
X122416270Y-116221378D01*
X122428680Y-116153418D01*
X122428037Y-116080621D01*
X122427346Y-116071118D01*
X122398881Y-115941752D01*
X122341229Y-115858156D01*
X122259827Y-115828481D01*
X122246167Y-115829142D01*
X122195991Y-115846794D01*
X122144390Y-115895514D01*
X122083218Y-115984720D01*
X122004328Y-116123830D01*
X121997431Y-116136513D01*
X121941487Y-116234629D01*
X121897411Y-116304001D01*
X121874223Y-116330307D01*
X121848996Y-116316634D01*
X121786230Y-116271618D01*
X121702603Y-116206077D01*
X121619720Y-116136445D01*
X121576329Y-116088493D01*
X121564980Y-116048133D01*
X121575860Y-115999362D01*
X121584369Y-115964936D01*
X121598759Y-115864087D01*
X121606128Y-115749060D01*
X121599960Y-115645182D01*
X121565760Y-115540667D01*
X121507529Y-115485854D01*
X121431602Y-115485684D01*
X121344320Y-115545094D01*
X121338915Y-115553020D01*
X121312440Y-115614478D01*
X121272832Y-115725135D01*
X121223351Y-115875197D01*
X121167268Y-116054876D01*
X121107842Y-116254377D01*
X121098496Y-116286455D01*
X121034955Y-116503546D01*
X120972553Y-116715093D01*
X120915502Y-116906939D01*
X120868005Y-117064928D01*
X120834271Y-117174906D01*
X120784878Y-117363394D01*
X120767023Y-117531849D01*
X118737598Y-117531849D01*
X118673056Y-117476814D01*
X118343999Y-117149758D01*
X118161265Y-116948009D01*
X118005735Y-116760882D01*
X117879706Y-116587658D01*
X117772847Y-116414071D01*
X117674826Y-116225852D01*
X117668672Y-116213301D01*
X118614546Y-116213301D01*
X118663035Y-116294670D01*
X118764856Y-116347260D01*
X118805938Y-116353606D01*
X118919916Y-116335799D01*
X119052110Y-116281362D01*
X119186540Y-116199342D01*
X119307221Y-116098785D01*
X119398176Y-115988739D01*
X119412294Y-115967045D01*
X119471204Y-115895730D01*
X119518869Y-115877090D01*
X119519522Y-115877174D01*
X119569880Y-115892495D01*
X119652136Y-115925256D01*
X119747903Y-115967136D01*
X119838796Y-116009813D01*
X119906430Y-116044964D01*
X119932419Y-116064269D01*
X119932418Y-116064285D01*
X119921726Y-116097742D01*
X119893706Y-116179846D01*
X119852601Y-116298269D01*
X119802660Y-116440693D01*
X119753502Y-116584356D01*
X119716984Y-116706938D01*
X119700195Y-116795115D01*
X119700672Y-116862617D01*
X119715941Y-116923180D01*
X119723654Y-116944696D01*
X119754077Y-117011503D01*
X119794007Y-117041997D01*
X119867028Y-117057081D01*
X119875370Y-117058209D01*
X119956222Y-117055518D01*
X120031616Y-117021579D01*
X120109318Y-116949339D01*
X120197096Y-116831759D01*
X120302713Y-116661792D01*
X120330084Y-116615063D01*
X120427865Y-116443611D01*
X120530758Y-116257349D01*
X120633478Y-116066437D01*
X120730747Y-115881038D01*
X120817278Y-115711315D01*
X120887794Y-115567433D01*
X120937011Y-115459550D01*
X120959647Y-115397830D01*
X120960770Y-115392108D01*
X120964191Y-115297841D01*
X120949732Y-115193609D01*
X120932795Y-115135478D01*
X120930291Y-115131065D01*
X120880423Y-115043197D01*
X120806946Y-115009977D01*
X120708368Y-115033162D01*
X120686463Y-115045537D01*
X120626375Y-115100512D01*
X120549764Y-115197734D01*
X120450235Y-115344929D01*
X120396431Y-115426906D01*
X120328253Y-115527067D01*
X120278477Y-115595585D01*
X120255231Y-115620957D01*
X120212152Y-115609483D01*
X120131391Y-115577369D01*
X120030196Y-115532239D01*
X119924566Y-115481754D01*
X119830501Y-115433574D01*
X119764003Y-115395360D01*
X119741071Y-115374775D01*
X119744335Y-115365921D01*
X119762913Y-115305624D01*
X119792005Y-115205016D01*
X119826902Y-115080263D01*
X119854935Y-114964041D01*
X119877868Y-114761260D01*
X119854987Y-114603353D01*
X119786248Y-114489731D01*
X119765291Y-114470987D01*
X119688258Y-114438949D01*
X119605885Y-114462644D01*
X119515935Y-114543915D01*
X119416162Y-114684611D01*
X119304331Y-114886573D01*
X119289856Y-114914922D01*
X119041161Y-115368092D01*
X118759083Y-115819155D01*
X118677468Y-115955739D01*
X118619364Y-116101030D01*
X118614546Y-116213301D01*
X117668672Y-116213301D01*
X117662731Y-116201184D01*
X117609740Y-116104999D01*
X117565315Y-116052808D01*
X117518120Y-116030482D01*
X117514410Y-116029578D01*
X117478195Y-116012324D01*
X117456435Y-115978493D01*
X117450290Y-115921791D01*
X117460923Y-115835922D01*
X117489496Y-115714592D01*
X117537170Y-115551502D01*
X117605106Y-115340359D01*
X117694469Y-115074868D01*
X117888975Y-114528599D01*
X118144164Y-113883705D01*
X118364577Y-113392560D01*
X118411740Y-113287468D01*
X118696023Y-112730995D01*
X119001331Y-112205386D01*
X119331983Y-111701744D01*
X119421397Y-111575268D01*
X119552094Y-111395939D01*
X119688014Y-111214626D01*
X119820669Y-111042315D01*
X119941574Y-110889992D01*
X120042237Y-110768644D01*
X120114179Y-110689255D01*
X120200660Y-110602772D01*
X120368679Y-110770792D01*
G37*
%TD*%
M02*
