%TF.GenerationSoftware,KiCad,Pcbnew,10.0.1*%
%TF.CreationDate,2026-07-07T22:52:25-04:00*%
%TF.ProjectId,outpost-kits,6f757470-6f73-4742-9d6b-6974732e6b69,rev?*%
%TF.SameCoordinates,Original*%
%TF.FileFunction,Copper,L1,Top*%
%TF.FilePolarity,Positive*%
%FSLAX46Y46*%
G04 Gerber Fmt 4.6, Leading zero omitted, Abs format (unit mm)*
G04 Created by KiCad (PCBNEW 10.0.1) date 2026-07-07 22:52:25*
%MOMM*%
%LPD*%
G01*
G04 APERTURE LIST*
%TA.AperFunction,Conductor*%
%ADD10C,0.200000*%
%TD*%
%TA.AperFunction,ComponentPad*%
%ADD11C,1.400000*%
%TD*%
%TA.AperFunction,ComponentPad*%
%ADD12O,1.050000X1.500000*%
%TD*%
%TA.AperFunction,ComponentPad*%
%ADD13R,1.050000X1.500000*%
%TD*%
%TA.AperFunction,ComponentPad*%
%ADD14R,1.800000X1.800000*%
%TD*%
%TA.AperFunction,ComponentPad*%
%ADD15C,1.800000*%
%TD*%
%TA.AperFunction,ComponentPad*%
%ADD16C,3.000000*%
%TD*%
%TA.AperFunction,ComponentPad*%
%ADD17R,3.000000X3.000000*%
%TD*%
%TA.AperFunction,Conductor*%
%ADD18C,0.500000*%
%TD*%
G04 APERTURE END LIST*
D10*
%TO.N,Net-(R7-Pad2)*%
X84165000Y-85220000D02*
X77265000Y-85220000D01*
X67265000Y-45220000D01*
X74165000Y-45220000D01*
X84165000Y-85220000D01*
%TA.AperFunction,Conductor*%
G36*
X84165000Y-85220000D02*
G01*
X77265000Y-85220000D01*
X67265000Y-45220000D01*
X74165000Y-45220000D01*
X84165000Y-85220000D01*
G37*
%TD.AperFunction*%
%TO.N,COND_3V*%
X41065000Y-85220000D02*
X34165000Y-85220000D01*
X44165000Y-45220000D01*
X51065000Y-45220000D01*
X41065000Y-85220000D01*
%TA.AperFunction,Conductor*%
G36*
X41065000Y-85220000D02*
G01*
X34165000Y-85220000D01*
X44165000Y-45220000D01*
X51065000Y-45220000D01*
X41065000Y-85220000D01*
G37*
%TD.AperFunction*%
%TD*%
D11*
%TO.P,R7,1*%
%TO.N,Net-(Q1-B)*%
X60065000Y-60920000D03*
%TO.P,R7,2*%
%TO.N,Net-(R7-Pad2)*%
X60065000Y-66000000D03*
%TD*%
%TO.P,R6,1*%
%TO.N,Earth*%
X57965000Y-66000000D03*
%TO.P,R6,2*%
%TO.N,Net-(Q1-B)*%
X57965000Y-60920000D03*
%TD*%
D12*
%TO.P,Q1,3,C_3*%
%TO.N,Net-(D1-K)*%
X60265000Y-57882500D03*
%TO.P,Q1,2,B_2*%
%TO.N,Net-(Q1-B)*%
X58995000Y-57882500D03*
D13*
%TO.P,Q1,1,E_1*%
%TO.N,Earth*%
X57725000Y-57882500D03*
%TD*%
D14*
%TO.P,D1,1,K_1*%
%TO.N,Net-(D1-K)*%
X60430000Y-48720000D03*
D15*
%TO.P,D1,2,A_2*%
%TO.N,COND_3V*%
X57890000Y-48720000D03*
%TD*%
D16*
%TO.P,BT5,2,-_2*%
%TO.N,Earth*%
X67605000Y-72220001D03*
D17*
%TO.P,BT5,1,+_1*%
%TO.N,COND_3V*%
X47115000Y-72220001D03*
%TD*%
%TO.N,COND_3V*%
D18*
X42615000Y-71570000D02*
X42615000Y-65220000D01*
X43265001Y-72220001D02*
X42615000Y-71570000D01*
X47115000Y-72220001D02*
X43265001Y-72220001D01*
X53065000Y-53545000D02*
X53065000Y-66220000D01*
X53065000Y-66220000D02*
X47115000Y-72170000D01*
X57890000Y-48720000D02*
X53065000Y-53545000D01*
X47115000Y-72170000D02*
X47115000Y-72220001D01*
%TO.N,Net-(D1-K)*%
X60435000Y-48725000D02*
X60430000Y-48720000D01*
X60435000Y-57712500D02*
X60435000Y-48725000D01*
X60265000Y-57882500D02*
X60435000Y-57712500D01*
%TO.N,Net-(Q1-B)*%
X60065000Y-60920000D02*
X58995000Y-59850000D01*
X58995000Y-59850000D02*
X58995000Y-57882500D01*
%TO.N,Net-(R7-Pad2)*%
X60065000Y-66000000D02*
X74935000Y-66000000D01*
X74935000Y-66000000D02*
X75715000Y-65220000D01*
%TO.N,Net-(Q1-B)*%
X58995000Y-59890000D02*
X58995000Y-57882500D01*
X57965000Y-60920000D02*
X58995000Y-59890000D01*
%TD*%
%TA.AperFunction,Conductor*%
%TO.N,Earth*%
G36*
X66736213Y-45740185D02*
G01*
X66781968Y-45792989D01*
X66789470Y-45814421D01*
X71606944Y-65084312D01*
X71609722Y-65095426D01*
X71606884Y-65165238D01*
X71566754Y-65222433D01*
X71502072Y-65248853D01*
X71489424Y-65249500D01*
X61063625Y-65249500D01*
X60996586Y-65229815D01*
X60975944Y-65213181D01*
X60847075Y-65084312D01*
X60847073Y-65084310D01*
X60694199Y-64973240D01*
X60525836Y-64887454D01*
X60346118Y-64829059D01*
X60159486Y-64799500D01*
X60159481Y-64799500D01*
X59970519Y-64799500D01*
X59970514Y-64799500D01*
X59783881Y-64829059D01*
X59604163Y-64887454D01*
X59435800Y-64973240D01*
X59348579Y-65036610D01*
X59282927Y-65084310D01*
X59282925Y-65084312D01*
X59282924Y-65084312D01*
X59149312Y-65217924D01*
X59149305Y-65217933D01*
X59092793Y-65295714D01*
X59037463Y-65338380D01*
X58982748Y-65346446D01*
X58972882Y-65345669D01*
X58318554Y-65999999D01*
X58318554Y-66000000D01*
X58972882Y-66654328D01*
X58982747Y-66653552D01*
X59051124Y-66667917D01*
X59092792Y-66704283D01*
X59149310Y-66782073D01*
X59282927Y-66915690D01*
X59435801Y-67026760D01*
X59515347Y-67067290D01*
X59604163Y-67112545D01*
X59604165Y-67112545D01*
X59604168Y-67112547D01*
X59700497Y-67143846D01*
X59783881Y-67170940D01*
X59970514Y-67200500D01*
X59970519Y-67200500D01*
X60159486Y-67200500D01*
X60346118Y-67170940D01*
X60347623Y-67170451D01*
X60525832Y-67112547D01*
X60694199Y-67026760D01*
X60847073Y-66915690D01*
X60975944Y-66786819D01*
X61037267Y-66753334D01*
X61063625Y-66750500D01*
X71926674Y-66750500D01*
X71993713Y-66770185D01*
X72039468Y-66822989D01*
X72046970Y-66844421D01*
X73890991Y-74220501D01*
X76477222Y-84565426D01*
X76474384Y-84635238D01*
X76434254Y-84692433D01*
X76369572Y-84718853D01*
X76356924Y-84719500D01*
X41973076Y-84719500D01*
X41906037Y-84699815D01*
X41860282Y-84647011D01*
X41850338Y-84577853D01*
X41852778Y-84565426D01*
X44728028Y-73064427D01*
X44742626Y-73039544D01*
X44754613Y-73013298D01*
X44760090Y-73009777D01*
X44763385Y-73004163D01*
X44789118Y-72991122D01*
X44813391Y-72975524D01*
X44822480Y-72974217D01*
X44825709Y-72972581D01*
X44848326Y-72970501D01*
X44990501Y-72970501D01*
X45057540Y-72990186D01*
X45103295Y-73042990D01*
X45114501Y-73094501D01*
X45114501Y-73767877D01*
X45120908Y-73827484D01*
X45171202Y-73962329D01*
X45171206Y-73962336D01*
X45257452Y-74077545D01*
X45257455Y-74077548D01*
X45372664Y-74163794D01*
X45372671Y-74163798D01*
X45507517Y-74214092D01*
X45507516Y-74214092D01*
X45514444Y-74214836D01*
X45567127Y-74220501D01*
X48662872Y-74220500D01*
X48722483Y-74214092D01*
X48857331Y-74163797D01*
X48972546Y-74077547D01*
X49058796Y-73962332D01*
X49109091Y-73827484D01*
X49115500Y-73767874D01*
X49115499Y-72088906D01*
X65605000Y-72088906D01*
X65605000Y-72351095D01*
X65639220Y-72611010D01*
X65639222Y-72611021D01*
X65707075Y-72864256D01*
X65807404Y-73106472D01*
X65807409Y-73106483D01*
X65938488Y-73333517D01*
X65938494Y-73333525D01*
X66025080Y-73446366D01*
X66927421Y-72544025D01*
X66940359Y-72575259D01*
X67022437Y-72698098D01*
X67126903Y-72802564D01*
X67249742Y-72884642D01*
X67280974Y-72897578D01*
X66378633Y-73799918D01*
X66378633Y-73799919D01*
X66491475Y-73886506D01*
X66491483Y-73886512D01*
X66718517Y-74017591D01*
X66718528Y-74017596D01*
X66960744Y-74117925D01*
X67213979Y-74185778D01*
X67213990Y-74185780D01*
X67473905Y-74220000D01*
X67473920Y-74220001D01*
X67736080Y-74220001D01*
X67736094Y-74220000D01*
X67996009Y-74185780D01*
X67996020Y-74185778D01*
X68249255Y-74117925D01*
X68491471Y-74017596D01*
X68491482Y-74017591D01*
X68718516Y-73886512D01*
X68718534Y-73886500D01*
X68831365Y-73799920D01*
X68831365Y-73799918D01*
X67929025Y-72897579D01*
X67960258Y-72884642D01*
X68083097Y-72802564D01*
X68187563Y-72698098D01*
X68269641Y-72575259D01*
X68282578Y-72544026D01*
X69184917Y-73446366D01*
X69184919Y-73446366D01*
X69271499Y-73333535D01*
X69271511Y-73333517D01*
X69402590Y-73106483D01*
X69402595Y-73106472D01*
X69502924Y-72864256D01*
X69570777Y-72611021D01*
X69570779Y-72611010D01*
X69604999Y-72351095D01*
X69605000Y-72351081D01*
X69605000Y-72088920D01*
X69604999Y-72088906D01*
X69570779Y-71828991D01*
X69570777Y-71828980D01*
X69502924Y-71575745D01*
X69402595Y-71333529D01*
X69402590Y-71333518D01*
X69271511Y-71106484D01*
X69271505Y-71106476D01*
X69184918Y-70993634D01*
X69184917Y-70993634D01*
X68282577Y-71895974D01*
X68269641Y-71864743D01*
X68187563Y-71741904D01*
X68083097Y-71637438D01*
X67960258Y-71555360D01*
X67929023Y-71542422D01*
X68831365Y-70640081D01*
X68718524Y-70553495D01*
X68718516Y-70553489D01*
X68491482Y-70422410D01*
X68491471Y-70422405D01*
X68249255Y-70322076D01*
X67996020Y-70254223D01*
X67996009Y-70254221D01*
X67736094Y-70220001D01*
X67473905Y-70220001D01*
X67213990Y-70254221D01*
X67213979Y-70254223D01*
X66960744Y-70322076D01*
X66718528Y-70422405D01*
X66718517Y-70422410D01*
X66491471Y-70553497D01*
X66378633Y-70640080D01*
X66378633Y-70640081D01*
X67280974Y-71542422D01*
X67249742Y-71555360D01*
X67126903Y-71637438D01*
X67022437Y-71741904D01*
X66940359Y-71864743D01*
X66927421Y-71895975D01*
X66025080Y-70993634D01*
X66025079Y-70993634D01*
X65938496Y-71106472D01*
X65807409Y-71333518D01*
X65807404Y-71333529D01*
X65707075Y-71575745D01*
X65639222Y-71828980D01*
X65639220Y-71828991D01*
X65605000Y-72088906D01*
X49115499Y-72088906D01*
X49115499Y-71282228D01*
X49135184Y-71215190D01*
X49151813Y-71194553D01*
X51695822Y-68650544D01*
X53338487Y-67007882D01*
X57310669Y-67007882D01*
X57310670Y-67007883D01*
X57336059Y-67026329D01*
X57504362Y-67112085D01*
X57683997Y-67170451D01*
X57870553Y-67200000D01*
X58059447Y-67200000D01*
X58246002Y-67170451D01*
X58425637Y-67112085D01*
X58593937Y-67026331D01*
X58619328Y-67007883D01*
X58619328Y-67007882D01*
X57965001Y-66353554D01*
X57965000Y-66353554D01*
X57310669Y-67007882D01*
X53338487Y-67007882D01*
X53473427Y-66872942D01*
X53647947Y-66698421D01*
X53647947Y-66698420D01*
X53647952Y-66698416D01*
X53725102Y-66582951D01*
X53730084Y-66575495D01*
X53753518Y-66518920D01*
X53786659Y-66438912D01*
X53815500Y-66293917D01*
X53815500Y-66146082D01*
X53815500Y-65905552D01*
X56765000Y-65905552D01*
X56765000Y-66094447D01*
X56794548Y-66281002D01*
X56852914Y-66460637D01*
X56938666Y-66628933D01*
X56957116Y-66654328D01*
X57611446Y-66000000D01*
X57611446Y-65999999D01*
X57565369Y-65953922D01*
X57615000Y-65953922D01*
X57615000Y-66046078D01*
X57638852Y-66135095D01*
X57684930Y-66214905D01*
X57750095Y-66280070D01*
X57829905Y-66326148D01*
X57918922Y-66350000D01*
X58011078Y-66350000D01*
X58100095Y-66326148D01*
X58179905Y-66280070D01*
X58245070Y-66214905D01*
X58291148Y-66135095D01*
X58315000Y-66046078D01*
X58315000Y-65953922D01*
X58291148Y-65864905D01*
X58245070Y-65785095D01*
X58179905Y-65719930D01*
X58100095Y-65673852D01*
X58011078Y-65650000D01*
X57918922Y-65650000D01*
X57829905Y-65673852D01*
X57750095Y-65719930D01*
X57684930Y-65785095D01*
X57638852Y-65864905D01*
X57615000Y-65953922D01*
X57565369Y-65953922D01*
X56957116Y-65345669D01*
X56957116Y-65345670D01*
X56938669Y-65371060D01*
X56852914Y-65539362D01*
X56794548Y-65718997D01*
X56765000Y-65905552D01*
X53815500Y-65905552D01*
X53815500Y-64992116D01*
X57310669Y-64992116D01*
X57965000Y-65646446D01*
X57965001Y-65646446D01*
X58619328Y-64992116D01*
X58593933Y-64973666D01*
X58425637Y-64887914D01*
X58246002Y-64829548D01*
X58059447Y-64800000D01*
X57870553Y-64800000D01*
X57683997Y-64829548D01*
X57504362Y-64887914D01*
X57336060Y-64973669D01*
X57310670Y-64992116D01*
X57310669Y-64992116D01*
X53815500Y-64992116D01*
X53815500Y-53907228D01*
X53835185Y-53840189D01*
X53851814Y-53819552D01*
X57537491Y-50133874D01*
X57598812Y-50100391D01*
X57644564Y-50099084D01*
X57779778Y-50120500D01*
X57779779Y-50120500D01*
X58000221Y-50120500D01*
X58000222Y-50120500D01*
X58217951Y-50086015D01*
X58427606Y-50017895D01*
X58624022Y-49917815D01*
X58802365Y-49788242D01*
X58852536Y-49738070D01*
X58913857Y-49704586D01*
X58983548Y-49709570D01*
X59039482Y-49751441D01*
X59056398Y-49782419D01*
X59086202Y-49862328D01*
X59086206Y-49862335D01*
X59172452Y-49977544D01*
X59172455Y-49977547D01*
X59287664Y-50063793D01*
X59287671Y-50063797D01*
X59332618Y-50080561D01*
X59422517Y-50114091D01*
X59482127Y-50120500D01*
X59560500Y-50120499D01*
X59627538Y-50140183D01*
X59673294Y-50192986D01*
X59684500Y-50244499D01*
X59684500Y-56652863D01*
X59664815Y-56719902D01*
X59612011Y-56765657D01*
X59542853Y-56775601D01*
X59491613Y-56755967D01*
X59480759Y-56748715D01*
X59480757Y-56748714D01*
X59294127Y-56671409D01*
X59294119Y-56671407D01*
X59096007Y-56632000D01*
X59096003Y-56632000D01*
X58893997Y-56632000D01*
X58893992Y-56632000D01*
X58695880Y-56671407D01*
X58695868Y-56671410D01*
X58614661Y-56705047D01*
X58545191Y-56712516D01*
X58500140Y-56692905D01*
X58499872Y-56693397D01*
X58494374Y-56690394D01*
X58492895Y-56689751D01*
X58492086Y-56689145D01*
X58357379Y-56638903D01*
X58357372Y-56638901D01*
X58297844Y-56632500D01*
X57975000Y-56632500D01*
X57975000Y-57516634D01*
X57972617Y-57540826D01*
X57969500Y-57556495D01*
X57969500Y-57596670D01*
X57955255Y-57582425D01*
X57869745Y-57533056D01*
X57774370Y-57507500D01*
X57675630Y-57507500D01*
X57580255Y-57533056D01*
X57494745Y-57582425D01*
X57475000Y-57602170D01*
X57475000Y-56632500D01*
X57152155Y-56632500D01*
X57092627Y-56638901D01*
X57092620Y-56638903D01*
X56957913Y-56689145D01*
X56957906Y-56689149D01*
X56842812Y-56775309D01*
X56842809Y-56775312D01*
X56756649Y-56890406D01*
X56756645Y-56890413D01*
X56706403Y-57025120D01*
X56706401Y-57025127D01*
X56700000Y-57084655D01*
X56700000Y-57632500D01*
X57444670Y-57632500D01*
X57424925Y-57652245D01*
X57375556Y-57737755D01*
X57350000Y-57833130D01*
X57350000Y-57931870D01*
X57375556Y-58027245D01*
X57424925Y-58112755D01*
X57444670Y-58132500D01*
X56700000Y-58132500D01*
X56700000Y-58680344D01*
X56706401Y-58739872D01*
X56706403Y-58739879D01*
X56756645Y-58874586D01*
X56756649Y-58874593D01*
X56842809Y-58989687D01*
X56842812Y-58989690D01*
X56957906Y-59075850D01*
X56957913Y-59075854D01*
X57092620Y-59126096D01*
X57092627Y-59126098D01*
X57152155Y-59132499D01*
X57152172Y-59132500D01*
X57475000Y-59132500D01*
X57475000Y-58162830D01*
X57494745Y-58182575D01*
X57580255Y-58231944D01*
X57675630Y-58257500D01*
X57774370Y-58257500D01*
X57869745Y-58231944D01*
X57955255Y-58182575D01*
X57969500Y-58168330D01*
X57969500Y-58208502D01*
X57972617Y-58224171D01*
X57975000Y-58248365D01*
X57975000Y-59132500D01*
X58120500Y-59132500D01*
X58187539Y-59152185D01*
X58233294Y-59204989D01*
X58244500Y-59256500D01*
X58244500Y-59527768D01*
X58235855Y-59557208D01*
X58229332Y-59587195D01*
X58225577Y-59592210D01*
X58224815Y-59594807D01*
X58208181Y-59615449D01*
X58140449Y-59683181D01*
X58079126Y-59716666D01*
X58052768Y-59719500D01*
X57870514Y-59719500D01*
X57683881Y-59749059D01*
X57504163Y-59807454D01*
X57335800Y-59893240D01*
X57248579Y-59956610D01*
X57182927Y-60004310D01*
X57182925Y-60004312D01*
X57182924Y-60004312D01*
X57049312Y-60137924D01*
X57049312Y-60137925D01*
X57049310Y-60137927D01*
X57001610Y-60203579D01*
X56938240Y-60290800D01*
X56852454Y-60459163D01*
X56794059Y-60638881D01*
X56764500Y-60825513D01*
X56764500Y-61014486D01*
X56794059Y-61201118D01*
X56852454Y-61380836D01*
X56938240Y-61549199D01*
X57049310Y-61702073D01*
X57182927Y-61835690D01*
X57335801Y-61946760D01*
X57415347Y-61987290D01*
X57504163Y-62032545D01*
X57504165Y-62032545D01*
X57504168Y-62032547D01*
X57600497Y-62063846D01*
X57683881Y-62090940D01*
X57870514Y-62120500D01*
X57870519Y-62120500D01*
X58059486Y-62120500D01*
X58246118Y-62090940D01*
X58425832Y-62032547D01*
X58594199Y-61946760D01*
X58747073Y-61835690D01*
X58880690Y-61702073D01*
X58914682Y-61655286D01*
X58970012Y-61612621D01*
X59039625Y-61606642D01*
X59101420Y-61639248D01*
X59115316Y-61655285D01*
X59149310Y-61702073D01*
X59282927Y-61835690D01*
X59435801Y-61946760D01*
X59515347Y-61987290D01*
X59604163Y-62032545D01*
X59604165Y-62032545D01*
X59604168Y-62032547D01*
X59700497Y-62063846D01*
X59783881Y-62090940D01*
X59970514Y-62120500D01*
X59970519Y-62120500D01*
X60159486Y-62120500D01*
X60346118Y-62090940D01*
X60525832Y-62032547D01*
X60694199Y-61946760D01*
X60847073Y-61835690D01*
X60980690Y-61702073D01*
X61091760Y-61549199D01*
X61177547Y-61380832D01*
X61235940Y-61201118D01*
X61265500Y-61014486D01*
X61265500Y-60825513D01*
X61235940Y-60638881D01*
X61177545Y-60459163D01*
X61091759Y-60290800D01*
X60980690Y-60137927D01*
X60847073Y-60004310D01*
X60694199Y-59893240D01*
X60525836Y-59807454D01*
X60346118Y-59749059D01*
X60159486Y-59719500D01*
X60159481Y-59719500D01*
X59977229Y-59719500D01*
X59947789Y-59710855D01*
X59917802Y-59704332D01*
X59912786Y-59700577D01*
X59910190Y-59699815D01*
X59889553Y-59683186D01*
X59781817Y-59575449D01*
X59748334Y-59514128D01*
X59745500Y-59487770D01*
X59745500Y-59187888D01*
X59765185Y-59120849D01*
X59817989Y-59075094D01*
X59887147Y-59065150D01*
X59916947Y-59073325D01*
X59965873Y-59093591D01*
X60129288Y-59126096D01*
X60163992Y-59132999D01*
X60163996Y-59133000D01*
X60163997Y-59133000D01*
X60366004Y-59133000D01*
X60366005Y-59132999D01*
X60564127Y-59093591D01*
X60750756Y-59016286D01*
X60918718Y-58904058D01*
X61061558Y-58761218D01*
X61173786Y-58593256D01*
X61251091Y-58406627D01*
X61290500Y-58208503D01*
X61290500Y-57556497D01*
X61251091Y-57358373D01*
X61194939Y-57222810D01*
X61185500Y-57175357D01*
X61185500Y-50244499D01*
X61205185Y-50177460D01*
X61257989Y-50131705D01*
X61309500Y-50120499D01*
X61377871Y-50120499D01*
X61377872Y-50120499D01*
X61437483Y-50114091D01*
X61572331Y-50063796D01*
X61687546Y-49977546D01*
X61773796Y-49862331D01*
X61824091Y-49727483D01*
X61830500Y-49667873D01*
X61830499Y-47772128D01*
X61824091Y-47712517D01*
X61803601Y-47657581D01*
X61773797Y-47577671D01*
X61773793Y-47577664D01*
X61687547Y-47462455D01*
X61687544Y-47462452D01*
X61572335Y-47376206D01*
X61572328Y-47376202D01*
X61437482Y-47325908D01*
X61437483Y-47325908D01*
X61377883Y-47319501D01*
X61377881Y-47319500D01*
X61377873Y-47319500D01*
X61377864Y-47319500D01*
X59482129Y-47319500D01*
X59482123Y-47319501D01*
X59422516Y-47325908D01*
X59287671Y-47376202D01*
X59287664Y-47376206D01*
X59172455Y-47462452D01*
X59172452Y-47462455D01*
X59086206Y-47577664D01*
X59086203Y-47577669D01*
X59056398Y-47657581D01*
X59014526Y-47713514D01*
X58949062Y-47737931D01*
X58880789Y-47723079D01*
X58852535Y-47701928D01*
X58802363Y-47651756D01*
X58802358Y-47651752D01*
X58624025Y-47522187D01*
X58624024Y-47522186D01*
X58624022Y-47522185D01*
X58506791Y-47462452D01*
X58427606Y-47422104D01*
X58427603Y-47422103D01*
X58217952Y-47353985D01*
X58109086Y-47336742D01*
X58000222Y-47319500D01*
X57779778Y-47319500D01*
X57707201Y-47330995D01*
X57562047Y-47353985D01*
X57352396Y-47422103D01*
X57352393Y-47422104D01*
X57155974Y-47522187D01*
X56977641Y-47651752D01*
X56977636Y-47651756D01*
X56821756Y-47807636D01*
X56821752Y-47807641D01*
X56692187Y-47985974D01*
X56592104Y-48182393D01*
X56592103Y-48182396D01*
X56523985Y-48392047D01*
X56489500Y-48609778D01*
X56489500Y-48830227D01*
X56510914Y-48965430D01*
X56501959Y-49034724D01*
X56476122Y-49072509D01*
X52482050Y-53066580D01*
X52482044Y-53066588D01*
X52432812Y-53140268D01*
X52432813Y-53140269D01*
X52399921Y-53189496D01*
X52399914Y-53189508D01*
X52343342Y-53326086D01*
X52343340Y-53326092D01*
X52314500Y-53471079D01*
X52314500Y-65857769D01*
X52294815Y-65924808D01*
X52278181Y-65945450D01*
X48040448Y-70183182D01*
X47979125Y-70216667D01*
X47952767Y-70219501D01*
X45598075Y-70219501D01*
X45531036Y-70199816D01*
X45485281Y-70147012D01*
X45475337Y-70077854D01*
X45477775Y-70065436D01*
X51540528Y-45814424D01*
X51575885Y-45754162D01*
X51638209Y-45722580D01*
X51660826Y-45720500D01*
X66669174Y-45720500D01*
X66736213Y-45740185D01*
G37*
%TD.AperFunction*%
%TD*%
M02*
