%TF.GenerationSoftware,KiCad,Pcbnew,10.0.1*%
%TF.CreationDate,2026-07-07T22:52:25-04:00*%
%TF.ProjectId,outpost-kits,6f757470-6f73-4742-9d6b-6974732e6b69,rev?*%
%TF.SameCoordinates,Original*%
%TF.FileFunction,Legend,Top*%
%TF.FilePolarity,Positive*%
%FSLAX46Y46*%
G04 Gerber Fmt 4.6, Leading zero omitted, Abs format (unit mm)*
G04 Created by KiCad (PCBNEW 10.0.1) date 2026-07-07 22:52:25*
%MOMM*%
%LPD*%
G01*
G04 APERTURE LIST*
%ADD10C,0.500000*%
%ADD11C,0.150000*%
%ADD12C,0.120000*%
G04 APERTURE END LIST*
D10*
G36*
X56238377Y-52341662D02*
G01*
X56857289Y-52341662D01*
X56857289Y-53850106D01*
X57823269Y-53850106D01*
X57823269Y-54342500D01*
X56238377Y-54342500D01*
X56238377Y-52341662D01*
G37*
G36*
X58103049Y-52341662D02*
G01*
X59761702Y-52341662D01*
X59761702Y-52771530D01*
X58723304Y-52771530D01*
X58723304Y-53091976D01*
X59686476Y-53091976D01*
X59686476Y-53498396D01*
X58723304Y-53498396D01*
X58723304Y-53889185D01*
X59791744Y-53889185D01*
X59791744Y-54342500D01*
X58103049Y-54342500D01*
X58103049Y-52341662D01*
G37*
G36*
X61233329Y-52351072D02*
G01*
X61377618Y-52376711D01*
X61491675Y-52415423D01*
X61597592Y-52472184D01*
X61689321Y-52542478D01*
X61768280Y-52626938D01*
X61833842Y-52722789D01*
X61886682Y-52829286D01*
X61926793Y-52947751D01*
X61963470Y-53134192D01*
X61976008Y-53335242D01*
X61966299Y-53549810D01*
X61940511Y-53712223D01*
X61902857Y-53832765D01*
X61846949Y-53945769D01*
X61779401Y-54043978D01*
X61700014Y-54128909D01*
X61609119Y-54201175D01*
X61516533Y-54253550D01*
X61421333Y-54287911D01*
X61221475Y-54329704D01*
X61052404Y-54342500D01*
X60132952Y-54342500D01*
X60132952Y-53889185D01*
X60751863Y-53889185D01*
X60903538Y-53889185D01*
X61034115Y-53883054D01*
X61122462Y-53867546D01*
X61179532Y-53846198D01*
X61228550Y-53811850D01*
X61271272Y-53762739D01*
X61307882Y-53695867D01*
X61331068Y-53621971D01*
X61347832Y-53510171D01*
X61354410Y-53348187D01*
X61345801Y-53181623D01*
X61323219Y-53059743D01*
X61290621Y-52972752D01*
X61250485Y-52912458D01*
X61195087Y-52864351D01*
X61122323Y-52827829D01*
X61027892Y-52803822D01*
X60906224Y-52794977D01*
X60751863Y-52794977D01*
X60751863Y-53889185D01*
X60132952Y-53889185D01*
X60132952Y-52341662D01*
X61052404Y-52341662D01*
X61233329Y-52351072D01*
G37*
G36*
X64065636Y-81753377D02*
G01*
X64202221Y-81785646D01*
X64311844Y-81835397D01*
X64399368Y-81901397D01*
X64470286Y-81986094D01*
X64522228Y-82087599D01*
X64555083Y-82209320D01*
X64566796Y-82355811D01*
X64554263Y-82505539D01*
X64518846Y-82631670D01*
X64462317Y-82738561D01*
X64384347Y-82829398D01*
X64289271Y-82899458D01*
X64168850Y-82952641D01*
X64017366Y-82987346D01*
X63827718Y-83000001D01*
X63488831Y-83000001D01*
X63488831Y-83742500D01*
X62867233Y-83742500D01*
X62867233Y-82593581D01*
X63488831Y-82593581D01*
X63640505Y-82593581D01*
X63759051Y-82584984D01*
X63839349Y-82563012D01*
X63891831Y-82531666D01*
X63932209Y-82486231D01*
X63956050Y-82434072D01*
X63964249Y-82372908D01*
X63957098Y-82312752D01*
X63936277Y-82260248D01*
X63901357Y-82213539D01*
X63854420Y-82180489D01*
X63779512Y-82157266D01*
X63665052Y-82148082D01*
X63488831Y-82148082D01*
X63488831Y-82593581D01*
X62867233Y-82593581D01*
X62867233Y-81741662D01*
X63895983Y-81741662D01*
X64065636Y-81753377D01*
G37*
G36*
X64890296Y-81741662D02*
G01*
X65509207Y-81741662D01*
X65509207Y-83250106D01*
X66475188Y-83250106D01*
X66475188Y-83742500D01*
X64890296Y-83742500D01*
X64890296Y-81741662D01*
G37*
G36*
X68734678Y-83742500D02*
G01*
X68087069Y-83742500D01*
X67988639Y-83414237D01*
X67283754Y-83414237D01*
X67186667Y-83742500D01*
X66554078Y-83742500D01*
X66839349Y-82984370D01*
X67417599Y-82984370D01*
X67858824Y-82984370D01*
X67637540Y-82262266D01*
X67417599Y-82984370D01*
X66839349Y-82984370D01*
X67306957Y-81741662D01*
X67981800Y-81741662D01*
X68734678Y-83742500D01*
G37*
G36*
X68598879Y-81741662D02*
G01*
X70480160Y-81741662D01*
X70480160Y-82234056D01*
X69848914Y-82234056D01*
X69848914Y-83742500D01*
X69230003Y-83742500D01*
X69230003Y-82234056D01*
X68598879Y-82234056D01*
X68598879Y-81741662D01*
G37*
G36*
X70758597Y-81741662D02*
G01*
X72417250Y-81741662D01*
X72417250Y-82171530D01*
X71378852Y-82171530D01*
X71378852Y-82491976D01*
X72342023Y-82491976D01*
X72342023Y-82898396D01*
X71378852Y-82898396D01*
X71378852Y-83289185D01*
X72447292Y-83289185D01*
X72447292Y-83742500D01*
X70758597Y-83742500D01*
X70758597Y-81741662D01*
G37*
G36*
X75250711Y-83742500D02*
G01*
X73581189Y-83742500D01*
X73613004Y-83582315D01*
X73670599Y-83428199D01*
X73755334Y-83278438D01*
X73863964Y-83142751D01*
X74039178Y-82974254D01*
X74301217Y-82766017D01*
X74519985Y-82590759D01*
X74614092Y-82491488D01*
X74666686Y-82396403D01*
X74682358Y-82313557D01*
X74674815Y-82255685D01*
X74652605Y-82204434D01*
X74614703Y-82157974D01*
X74566269Y-82122376D01*
X74510297Y-82100854D01*
X74444588Y-82093372D01*
X74376378Y-82101221D01*
X74319156Y-82123672D01*
X74270443Y-82160661D01*
X74233873Y-82210258D01*
X74202817Y-82286381D01*
X74179584Y-82398187D01*
X73622222Y-82352880D01*
X73652653Y-82197134D01*
X73693412Y-82076422D01*
X73742390Y-81984317D01*
X73807730Y-81903773D01*
X73889188Y-81836228D01*
X73988953Y-81781107D01*
X74097718Y-81744487D01*
X74241773Y-81719674D01*
X74429567Y-81710399D01*
X74626145Y-81719249D01*
X74775388Y-81742785D01*
X74886545Y-81777199D01*
X74988779Y-81830432D01*
X75073708Y-81898572D01*
X75143367Y-81982486D01*
X75195345Y-82078305D01*
X75226462Y-82181001D01*
X75237034Y-82292674D01*
X75225365Y-82411442D01*
X75190154Y-82527177D01*
X75129811Y-82641819D01*
X75049351Y-82744850D01*
X74923551Y-82865341D01*
X74739755Y-83006474D01*
X74514930Y-83168285D01*
X74381817Y-83289185D01*
X75250711Y-83289185D01*
X75250711Y-83742500D01*
G37*
G36*
X44565636Y-81753377D02*
G01*
X44702221Y-81785646D01*
X44811844Y-81835397D01*
X44899368Y-81901397D01*
X44970286Y-81986094D01*
X45022228Y-82087599D01*
X45055083Y-82209320D01*
X45066796Y-82355811D01*
X45054263Y-82505539D01*
X45018846Y-82631670D01*
X44962317Y-82738561D01*
X44884347Y-82829398D01*
X44789271Y-82899458D01*
X44668850Y-82952641D01*
X44517366Y-82987346D01*
X44327718Y-83000001D01*
X43988831Y-83000001D01*
X43988831Y-83742500D01*
X43367233Y-83742500D01*
X43367233Y-82593581D01*
X43988831Y-82593581D01*
X44140505Y-82593581D01*
X44259051Y-82584984D01*
X44339349Y-82563012D01*
X44391831Y-82531666D01*
X44432209Y-82486231D01*
X44456050Y-82434072D01*
X44464249Y-82372908D01*
X44457098Y-82312752D01*
X44436277Y-82260248D01*
X44401357Y-82213539D01*
X44354420Y-82180489D01*
X44279512Y-82157266D01*
X44165052Y-82148082D01*
X43988831Y-82148082D01*
X43988831Y-82593581D01*
X43367233Y-82593581D01*
X43367233Y-81741662D01*
X44395983Y-81741662D01*
X44565636Y-81753377D01*
G37*
G36*
X45390296Y-81741662D02*
G01*
X46009207Y-81741662D01*
X46009207Y-83250106D01*
X46975188Y-83250106D01*
X46975188Y-83742500D01*
X45390296Y-83742500D01*
X45390296Y-81741662D01*
G37*
G36*
X49234678Y-83742500D02*
G01*
X48587069Y-83742500D01*
X48488639Y-83414237D01*
X47783754Y-83414237D01*
X47686667Y-83742500D01*
X47054078Y-83742500D01*
X47339349Y-82984370D01*
X47917599Y-82984370D01*
X48358824Y-82984370D01*
X48137540Y-82262266D01*
X47917599Y-82984370D01*
X47339349Y-82984370D01*
X47806957Y-81741662D01*
X48481800Y-81741662D01*
X49234678Y-83742500D01*
G37*
G36*
X49098879Y-81741662D02*
G01*
X50980160Y-81741662D01*
X50980160Y-82234056D01*
X50348914Y-82234056D01*
X50348914Y-83742500D01*
X49730003Y-83742500D01*
X49730003Y-82234056D01*
X49098879Y-82234056D01*
X49098879Y-81741662D01*
G37*
G36*
X51258597Y-81741662D02*
G01*
X52917250Y-81741662D01*
X52917250Y-82171530D01*
X51878852Y-82171530D01*
X51878852Y-82491976D01*
X52842023Y-82491976D01*
X52842023Y-82898396D01*
X51878852Y-82898396D01*
X51878852Y-83289185D01*
X52947292Y-83289185D01*
X52947292Y-83742500D01*
X51258597Y-83742500D01*
X51258597Y-81741662D01*
G37*
G36*
X55383248Y-81710399D02*
G01*
X55383248Y-83742500D01*
X54820390Y-83742500D01*
X54820390Y-82413941D01*
X54682821Y-82509252D01*
X54555997Y-82580881D01*
X54419192Y-82640535D01*
X54235551Y-82703002D01*
X54235551Y-82249687D01*
X54421965Y-82179446D01*
X54566752Y-82105464D01*
X54676898Y-82028770D01*
X54773823Y-81936363D01*
X54855586Y-81830679D01*
X54922850Y-81710399D01*
X55383248Y-81710399D01*
G37*
D11*
X62439819Y-63626666D02*
X61963628Y-63959999D01*
X62439819Y-64198094D02*
X61439819Y-64198094D01*
X61439819Y-64198094D02*
X61439819Y-63817142D01*
X61439819Y-63817142D02*
X61487438Y-63721904D01*
X61487438Y-63721904D02*
X61535057Y-63674285D01*
X61535057Y-63674285D02*
X61630295Y-63626666D01*
X61630295Y-63626666D02*
X61773152Y-63626666D01*
X61773152Y-63626666D02*
X61868390Y-63674285D01*
X61868390Y-63674285D02*
X61916009Y-63721904D01*
X61916009Y-63721904D02*
X61963628Y-63817142D01*
X61963628Y-63817142D02*
X61963628Y-64198094D01*
X61439819Y-63293332D02*
X61439819Y-62626666D01*
X61439819Y-62626666D02*
X62439819Y-63055237D01*
X56499819Y-63626666D02*
X56023628Y-63959999D01*
X56499819Y-64198094D02*
X55499819Y-64198094D01*
X55499819Y-64198094D02*
X55499819Y-63817142D01*
X55499819Y-63817142D02*
X55547438Y-63721904D01*
X55547438Y-63721904D02*
X55595057Y-63674285D01*
X55595057Y-63674285D02*
X55690295Y-63626666D01*
X55690295Y-63626666D02*
X55833152Y-63626666D01*
X55833152Y-63626666D02*
X55928390Y-63674285D01*
X55928390Y-63674285D02*
X55976009Y-63721904D01*
X55976009Y-63721904D02*
X56023628Y-63817142D01*
X56023628Y-63817142D02*
X56023628Y-64198094D01*
X55499819Y-62769523D02*
X55499819Y-62959999D01*
X55499819Y-62959999D02*
X55547438Y-63055237D01*
X55547438Y-63055237D02*
X55595057Y-63102856D01*
X55595057Y-63102856D02*
X55737914Y-63198094D01*
X55737914Y-63198094D02*
X55928390Y-63245713D01*
X55928390Y-63245713D02*
X56309342Y-63245713D01*
X56309342Y-63245713D02*
X56404580Y-63198094D01*
X56404580Y-63198094D02*
X56452200Y-63150475D01*
X56452200Y-63150475D02*
X56499819Y-63055237D01*
X56499819Y-63055237D02*
X56499819Y-62864761D01*
X56499819Y-62864761D02*
X56452200Y-62769523D01*
X56452200Y-62769523D02*
X56404580Y-62721904D01*
X56404580Y-62721904D02*
X56309342Y-62674285D01*
X56309342Y-62674285D02*
X56071247Y-62674285D01*
X56071247Y-62674285D02*
X55976009Y-62721904D01*
X55976009Y-62721904D02*
X55928390Y-62769523D01*
X55928390Y-62769523D02*
X55880771Y-62864761D01*
X55880771Y-62864761D02*
X55880771Y-63055237D01*
X55880771Y-63055237D02*
X55928390Y-63150475D01*
X55928390Y-63150475D02*
X55976009Y-63198094D01*
X55976009Y-63198094D02*
X56071247Y-63245713D01*
X62699761Y-58435057D02*
X62604523Y-58387438D01*
X62604523Y-58387438D02*
X62509285Y-58292200D01*
X62509285Y-58292200D02*
X62366428Y-58149342D01*
X62366428Y-58149342D02*
X62271190Y-58101723D01*
X62271190Y-58101723D02*
X62175952Y-58101723D01*
X62223571Y-58339819D02*
X62128333Y-58292200D01*
X62128333Y-58292200D02*
X62033095Y-58196961D01*
X62033095Y-58196961D02*
X61985476Y-58006485D01*
X61985476Y-58006485D02*
X61985476Y-57673152D01*
X61985476Y-57673152D02*
X62033095Y-57482676D01*
X62033095Y-57482676D02*
X62128333Y-57387438D01*
X62128333Y-57387438D02*
X62223571Y-57339819D01*
X62223571Y-57339819D02*
X62414047Y-57339819D01*
X62414047Y-57339819D02*
X62509285Y-57387438D01*
X62509285Y-57387438D02*
X62604523Y-57482676D01*
X62604523Y-57482676D02*
X62652142Y-57673152D01*
X62652142Y-57673152D02*
X62652142Y-58006485D01*
X62652142Y-58006485D02*
X62604523Y-58196961D01*
X62604523Y-58196961D02*
X62509285Y-58292200D01*
X62509285Y-58292200D02*
X62414047Y-58339819D01*
X62414047Y-58339819D02*
X62223571Y-58339819D01*
X63604523Y-58339819D02*
X63033095Y-58339819D01*
X63318809Y-58339819D02*
X63318809Y-57339819D01*
X63318809Y-57339819D02*
X63223571Y-57482676D01*
X63223571Y-57482676D02*
X63128333Y-57577914D01*
X63128333Y-57577914D02*
X63033095Y-57625533D01*
X62226905Y-49137319D02*
X62226905Y-48137319D01*
X62226905Y-48137319D02*
X62465000Y-48137319D01*
X62465000Y-48137319D02*
X62607857Y-48184938D01*
X62607857Y-48184938D02*
X62703095Y-48280176D01*
X62703095Y-48280176D02*
X62750714Y-48375414D01*
X62750714Y-48375414D02*
X62798333Y-48565890D01*
X62798333Y-48565890D02*
X62798333Y-48708747D01*
X62798333Y-48708747D02*
X62750714Y-48899223D01*
X62750714Y-48899223D02*
X62703095Y-48994461D01*
X62703095Y-48994461D02*
X62607857Y-49089700D01*
X62607857Y-49089700D02*
X62465000Y-49137319D01*
X62465000Y-49137319D02*
X62226905Y-49137319D01*
X63750714Y-49137319D02*
X63179286Y-49137319D01*
X63465000Y-49137319D02*
X63465000Y-48137319D01*
X63465000Y-48137319D02*
X63369762Y-48280176D01*
X63369762Y-48280176D02*
X63274524Y-48375414D01*
X63274524Y-48375414D02*
X63179286Y-48423033D01*
%TO.C,R7*%
D12*
X60985000Y-61540000D02*
X60985000Y-65380000D01*
X59145000Y-61540000D02*
X59145000Y-65380000D01*
%TO.C,R6*%
X57045000Y-65380000D02*
X57045000Y-61540000D01*
X58885000Y-65380000D02*
X58885000Y-61540000D01*
%TO.C,Q1*%
X58995000Y-55282500D02*
G75*
G02*
X60833478Y-59720978I0J-2600000D01*
G01*
X57156522Y-59720978D02*
G75*
G02*
X58995000Y-55282499I1838478J1838478D01*
G01*
X57195000Y-59732500D02*
X60795000Y-59732500D01*
%TO.C,D1*%
X61720000Y-50360000D02*
X61720000Y-47080000D01*
X61720000Y-50359512D02*
G75*
G02*
X56120000Y-48720000I-2560000J1639512D01*
G01*
X56120000Y-48720000D02*
G75*
G02*
X61720000Y-47080488I3040000J0D01*
G01*
X61660000Y-48720000D02*
G75*
G02*
X56660000Y-48720000I-2500000J0D01*
G01*
X56660000Y-48720000D02*
G75*
G02*
X61660000Y-48720000I2500000J0D01*
G01*
%TD*%
M02*
