%TF.GenerationSoftware,KiCad,Pcbnew,10.0.1*%
%TF.CreationDate,2026-07-07T22:52:25-04:00*%
%TF.ProjectId,outpost-kits,6f757470-6f73-4742-9d6b-6974732e6b69,rev?*%
%TF.SameCoordinates,Original*%
%TF.FileFunction,Copper,L2,Bot*%
%TF.FilePolarity,Positive*%
%FSLAX46Y46*%
G04 Gerber Fmt 4.6, Leading zero omitted, Abs format (unit mm)*
G04 Created by KiCad (PCBNEW 10.0.1) date 2026-07-07 22:52:25*
%MOMM*%
%LPD*%
G01*
G04 APERTURE LIST*
%TA.AperFunction,ComponentPad*%
%ADD10C,1.400000*%
%TD*%
%TA.AperFunction,ComponentPad*%
%ADD11O,1.050000X1.500000*%
%TD*%
%TA.AperFunction,ComponentPad*%
%ADD12R,1.050000X1.500000*%
%TD*%
%TA.AperFunction,ComponentPad*%
%ADD13R,1.800000X1.800000*%
%TD*%
%TA.AperFunction,ComponentPad*%
%ADD14C,1.800000*%
%TD*%
%TA.AperFunction,ComponentPad*%
%ADD15C,3.000000*%
%TD*%
%TA.AperFunction,ComponentPad*%
%ADD16R,3.000000X3.000000*%
%TD*%
G04 APERTURE END LIST*
D10*
%TO.P,R7,1*%
%TO.N,Net-(Q1-B)*%
X60065000Y-60920000D03*
%TO.P,R7,2*%
%TO.N,Net-(R7-Pad2)*%
X60065000Y-66000000D03*
%TD*%
%TO.P,R6,1*%
%TO.N,Earth*%
X57965000Y-66000000D03*
%TO.P,R6,2*%
%TO.N,Net-(Q1-B)*%
X57965000Y-60920000D03*
%TD*%
D11*
%TO.P,Q1,3,C_3*%
%TO.N,Net-(D1-K)*%
X60265000Y-57882500D03*
%TO.P,Q1,2,B_2*%
%TO.N,Net-(Q1-B)*%
X58995000Y-57882500D03*
D12*
%TO.P,Q1,1,E_1*%
%TO.N,Earth*%
X57725000Y-57882500D03*
%TD*%
D13*
%TO.P,D1,1,K_1*%
%TO.N,Net-(D1-K)*%
X60430000Y-48720000D03*
D14*
%TO.P,D1,2,A_2*%
%TO.N,COND_3V*%
X57890000Y-48720000D03*
%TD*%
D15*
%TO.P,BT5,2,-_2*%
%TO.N,Earth*%
X67605000Y-72220001D03*
D16*
%TO.P,BT5,1,+_1*%
%TO.N,COND_3V*%
X47115000Y-72220001D03*
%TD*%
%TA.AperFunction,Conductor*%
%TO.N,Earth*%
G36*
X72607990Y-45720837D02*
G01*
X72656476Y-45724416D01*
X72814400Y-45736075D01*
X72832447Y-45738753D01*
X73029927Y-45783121D01*
X73047384Y-45788418D01*
X73236141Y-45861261D01*
X73236221Y-45861292D01*
X73252716Y-45869098D01*
X73428797Y-45968890D01*
X73443963Y-45979027D01*
X73603462Y-46103559D01*
X73603504Y-46103592D01*
X73617023Y-46115851D01*
X73756548Y-46262478D01*
X73768121Y-46276589D01*
X73884607Y-46442097D01*
X73893984Y-46457752D01*
X73984925Y-46638580D01*
X73991902Y-46655443D01*
X74056748Y-46851995D01*
X74059289Y-46860771D01*
X83042195Y-82792395D01*
X83042195Y-82792398D01*
X83057036Y-82851761D01*
X83057036Y-82851763D01*
X83058966Y-82860939D01*
X83094793Y-83070496D01*
X83096546Y-83089160D01*
X83100290Y-83297007D01*
X83099210Y-83315720D01*
X83071582Y-83521758D01*
X83067693Y-83540096D01*
X83009323Y-83739609D01*
X83002715Y-83757151D01*
X82914936Y-83945589D01*
X82905759Y-83961934D01*
X82790573Y-84134994D01*
X82779037Y-84149769D01*
X82639089Y-84303480D01*
X82625457Y-84316348D01*
X82463932Y-84447211D01*
X82448517Y-84457876D01*
X82269115Y-84562893D01*
X82252268Y-84571113D01*
X82059088Y-84647887D01*
X82041194Y-84653474D01*
X81838637Y-84700253D01*
X81820107Y-84703078D01*
X81608136Y-84719144D01*
X81598766Y-84719499D01*
X81567499Y-84719499D01*
X81537560Y-84719499D01*
X81537556Y-84719499D01*
X81529952Y-84719500D01*
X81529951Y-84719499D01*
X81529950Y-84719500D01*
X36731268Y-84719500D01*
X36721891Y-84719145D01*
X36509914Y-84703069D01*
X36491384Y-84700243D01*
X36288834Y-84653457D01*
X36270942Y-84647870D01*
X36077761Y-84571090D01*
X36060915Y-84562870D01*
X35918244Y-84479351D01*
X35881515Y-84457849D01*
X35866101Y-84447185D01*
X35704571Y-84316314D01*
X35690947Y-84303453D01*
X35550995Y-84149737D01*
X35539462Y-84134966D01*
X35424274Y-83961903D01*
X35415098Y-83945559D01*
X35327322Y-83757132D01*
X35320713Y-83739592D01*
X35298972Y-83665284D01*
X35262332Y-83540055D01*
X35258447Y-83521735D01*
X35230811Y-83315688D01*
X35229731Y-83296997D01*
X35233469Y-83089131D01*
X35235219Y-83070484D01*
X35271046Y-82860876D01*
X35272977Y-82851703D01*
X35273420Y-82849932D01*
X35348498Y-82549623D01*
X38317869Y-70672136D01*
X45114500Y-70672136D01*
X45114500Y-73767871D01*
X45114501Y-73767877D01*
X45120908Y-73827484D01*
X45171202Y-73962329D01*
X45171206Y-73962336D01*
X45257452Y-74077545D01*
X45257455Y-74077548D01*
X45372664Y-74163794D01*
X45372671Y-74163798D01*
X45507517Y-74214092D01*
X45507516Y-74214092D01*
X45514444Y-74214836D01*
X45567127Y-74220501D01*
X48662872Y-74220500D01*
X48722483Y-74214092D01*
X48857331Y-74163797D01*
X48972546Y-74077547D01*
X49058796Y-73962332D01*
X49109091Y-73827484D01*
X49115500Y-73767874D01*
X49115499Y-72088906D01*
X65605000Y-72088906D01*
X65605000Y-72351095D01*
X65639220Y-72611010D01*
X65639222Y-72611021D01*
X65707075Y-72864256D01*
X65807404Y-73106472D01*
X65807409Y-73106483D01*
X65938488Y-73333517D01*
X65938494Y-73333525D01*
X66025080Y-73446366D01*
X66927421Y-72544025D01*
X66940359Y-72575259D01*
X67022437Y-72698098D01*
X67126903Y-72802564D01*
X67249742Y-72884642D01*
X67280974Y-72897578D01*
X66378633Y-73799918D01*
X66378633Y-73799919D01*
X66491475Y-73886506D01*
X66491483Y-73886512D01*
X66718517Y-74017591D01*
X66718528Y-74017596D01*
X66960744Y-74117925D01*
X67213979Y-74185778D01*
X67213990Y-74185780D01*
X67473905Y-74220000D01*
X67473920Y-74220001D01*
X67736080Y-74220001D01*
X67736094Y-74220000D01*
X67996009Y-74185780D01*
X67996020Y-74185778D01*
X68249255Y-74117925D01*
X68491471Y-74017596D01*
X68491482Y-74017591D01*
X68718516Y-73886512D01*
X68718534Y-73886500D01*
X68831365Y-73799920D01*
X68831365Y-73799918D01*
X67929025Y-72897579D01*
X67960258Y-72884642D01*
X68083097Y-72802564D01*
X68187563Y-72698098D01*
X68269641Y-72575259D01*
X68282578Y-72544026D01*
X69184917Y-73446366D01*
X69184919Y-73446366D01*
X69271499Y-73333535D01*
X69271511Y-73333517D01*
X69402590Y-73106483D01*
X69402595Y-73106472D01*
X69502924Y-72864256D01*
X69570777Y-72611021D01*
X69570779Y-72611010D01*
X69604999Y-72351095D01*
X69605000Y-72351081D01*
X69605000Y-72088920D01*
X69604999Y-72088906D01*
X69570779Y-71828991D01*
X69570777Y-71828980D01*
X69502924Y-71575745D01*
X69402595Y-71333529D01*
X69402590Y-71333518D01*
X69271511Y-71106484D01*
X69271505Y-71106476D01*
X69184918Y-70993634D01*
X69184917Y-70993634D01*
X68282577Y-71895974D01*
X68269641Y-71864743D01*
X68187563Y-71741904D01*
X68083097Y-71637438D01*
X67960258Y-71555360D01*
X67929023Y-71542422D01*
X68831365Y-70640081D01*
X68718524Y-70553495D01*
X68718516Y-70553489D01*
X68491482Y-70422410D01*
X68491471Y-70422405D01*
X68249255Y-70322076D01*
X67996020Y-70254223D01*
X67996009Y-70254221D01*
X67736094Y-70220001D01*
X67473905Y-70220001D01*
X67213990Y-70254221D01*
X67213979Y-70254223D01*
X66960744Y-70322076D01*
X66718528Y-70422405D01*
X66718517Y-70422410D01*
X66491471Y-70553497D01*
X66378633Y-70640080D01*
X66378633Y-70640081D01*
X67280974Y-71542422D01*
X67249742Y-71555360D01*
X67126903Y-71637438D01*
X67022437Y-71741904D01*
X66940359Y-71864743D01*
X66927421Y-71895975D01*
X66025080Y-70993634D01*
X66025079Y-70993634D01*
X65938496Y-71106472D01*
X65807409Y-71333518D01*
X65807404Y-71333529D01*
X65707075Y-71575745D01*
X65639222Y-71828980D01*
X65639220Y-71828991D01*
X65605000Y-72088906D01*
X49115499Y-72088906D01*
X49115499Y-70672129D01*
X49109091Y-70612518D01*
X49058796Y-70477670D01*
X49058795Y-70477669D01*
X49058793Y-70477665D01*
X48972547Y-70362456D01*
X48972544Y-70362453D01*
X48857335Y-70276207D01*
X48857328Y-70276203D01*
X48722482Y-70225909D01*
X48722483Y-70225909D01*
X48662883Y-70219502D01*
X48662881Y-70219501D01*
X48662873Y-70219501D01*
X48662864Y-70219501D01*
X45567129Y-70219501D01*
X45567123Y-70219502D01*
X45507516Y-70225909D01*
X45372671Y-70276203D01*
X45372664Y-70276207D01*
X45257455Y-70362453D01*
X45257452Y-70362456D01*
X45171206Y-70477665D01*
X45171202Y-70477672D01*
X45120908Y-70612518D01*
X45114501Y-70672117D01*
X45114501Y-70672124D01*
X45114500Y-70672136D01*
X38317869Y-70672136D01*
X38416852Y-70276205D01*
X39233933Y-67007882D01*
X57310669Y-67007882D01*
X57310670Y-67007883D01*
X57336059Y-67026329D01*
X57504362Y-67112085D01*
X57683997Y-67170451D01*
X57870553Y-67200000D01*
X58059447Y-67200000D01*
X58246002Y-67170451D01*
X58425637Y-67112085D01*
X58593937Y-67026331D01*
X58619328Y-67007883D01*
X58619328Y-67007882D01*
X57965001Y-66353554D01*
X57965000Y-66353554D01*
X57310669Y-67007882D01*
X39233933Y-67007882D01*
X39509515Y-65905552D01*
X56765000Y-65905552D01*
X56765000Y-66094447D01*
X56794548Y-66281002D01*
X56852914Y-66460637D01*
X56938666Y-66628933D01*
X56957116Y-66654328D01*
X57611446Y-66000000D01*
X57611446Y-65999999D01*
X57565369Y-65953922D01*
X57615000Y-65953922D01*
X57615000Y-66046078D01*
X57638852Y-66135095D01*
X57684930Y-66214905D01*
X57750095Y-66280070D01*
X57829905Y-66326148D01*
X57918922Y-66350000D01*
X58011078Y-66350000D01*
X58100095Y-66326148D01*
X58179905Y-66280070D01*
X58245070Y-66214905D01*
X58291148Y-66135095D01*
X58315000Y-66046078D01*
X58315000Y-65999999D01*
X58318554Y-65999999D01*
X58318554Y-66000000D01*
X58972882Y-66654328D01*
X58982747Y-66653552D01*
X59051124Y-66667917D01*
X59092792Y-66704283D01*
X59149310Y-66782073D01*
X59282927Y-66915690D01*
X59435801Y-67026760D01*
X59515347Y-67067290D01*
X59604163Y-67112545D01*
X59604165Y-67112545D01*
X59604168Y-67112547D01*
X59700497Y-67143846D01*
X59783881Y-67170940D01*
X59970514Y-67200500D01*
X59970519Y-67200500D01*
X60159486Y-67200500D01*
X60346118Y-67170940D01*
X60347623Y-67170451D01*
X60525832Y-67112547D01*
X60694199Y-67026760D01*
X60847073Y-66915690D01*
X60980690Y-66782073D01*
X61091760Y-66629199D01*
X61177547Y-66460832D01*
X61235940Y-66281118D01*
X61246427Y-66214905D01*
X61265500Y-66094486D01*
X61265500Y-65905513D01*
X61235940Y-65718881D01*
X61177545Y-65539163D01*
X61132290Y-65450347D01*
X61091760Y-65370801D01*
X60980690Y-65217927D01*
X60847073Y-65084310D01*
X60694199Y-64973240D01*
X60525836Y-64887454D01*
X60346118Y-64829059D01*
X60159486Y-64799500D01*
X60159481Y-64799500D01*
X59970519Y-64799500D01*
X59970514Y-64799500D01*
X59783881Y-64829059D01*
X59604163Y-64887454D01*
X59435800Y-64973240D01*
X59348579Y-65036610D01*
X59282927Y-65084310D01*
X59282925Y-65084312D01*
X59282924Y-65084312D01*
X59149312Y-65217924D01*
X59149305Y-65217933D01*
X59092793Y-65295714D01*
X59037463Y-65338380D01*
X58982748Y-65346446D01*
X58972882Y-65345669D01*
X58318554Y-65999999D01*
X58315000Y-65999999D01*
X58315000Y-65953922D01*
X58291148Y-65864905D01*
X58245070Y-65785095D01*
X58179905Y-65719930D01*
X58100095Y-65673852D01*
X58011078Y-65650000D01*
X57918922Y-65650000D01*
X57829905Y-65673852D01*
X57750095Y-65719930D01*
X57684930Y-65785095D01*
X57638852Y-65864905D01*
X57615000Y-65953922D01*
X57565369Y-65953922D01*
X56957116Y-65345669D01*
X56957116Y-65345670D01*
X56938669Y-65371060D01*
X56852914Y-65539362D01*
X56794548Y-65718997D01*
X56765000Y-65905552D01*
X39509515Y-65905552D01*
X39737874Y-64992116D01*
X57310669Y-64992116D01*
X57965000Y-65646446D01*
X57965001Y-65646446D01*
X58619328Y-64992116D01*
X58593933Y-64973666D01*
X58425637Y-64887914D01*
X58246002Y-64829548D01*
X58059447Y-64800000D01*
X57870553Y-64800000D01*
X57683997Y-64829548D01*
X57504362Y-64887914D01*
X57336060Y-64973669D01*
X57310670Y-64992116D01*
X57310669Y-64992116D01*
X39737874Y-64992116D01*
X40779525Y-60825513D01*
X56764500Y-60825513D01*
X56764500Y-61014486D01*
X56794059Y-61201118D01*
X56852454Y-61380836D01*
X56938240Y-61549199D01*
X57049310Y-61702073D01*
X57182927Y-61835690D01*
X57335801Y-61946760D01*
X57415347Y-61987290D01*
X57504163Y-62032545D01*
X57504165Y-62032545D01*
X57504168Y-62032547D01*
X57600497Y-62063846D01*
X57683881Y-62090940D01*
X57870514Y-62120500D01*
X57870519Y-62120500D01*
X58059486Y-62120500D01*
X58246118Y-62090940D01*
X58425832Y-62032547D01*
X58594199Y-61946760D01*
X58747073Y-61835690D01*
X58880690Y-61702073D01*
X58914682Y-61655286D01*
X58970012Y-61612621D01*
X59039625Y-61606642D01*
X59101420Y-61639248D01*
X59115316Y-61655285D01*
X59149310Y-61702073D01*
X59282927Y-61835690D01*
X59435801Y-61946760D01*
X59515347Y-61987290D01*
X59604163Y-62032545D01*
X59604165Y-62032545D01*
X59604168Y-62032547D01*
X59700497Y-62063846D01*
X59783881Y-62090940D01*
X59970514Y-62120500D01*
X59970519Y-62120500D01*
X60159486Y-62120500D01*
X60346118Y-62090940D01*
X60525832Y-62032547D01*
X60694199Y-61946760D01*
X60847073Y-61835690D01*
X60980690Y-61702073D01*
X61091760Y-61549199D01*
X61177547Y-61380832D01*
X61235940Y-61201118D01*
X61265500Y-61014486D01*
X61265500Y-60825513D01*
X61235940Y-60638881D01*
X61177545Y-60459163D01*
X61091759Y-60290800D01*
X61050024Y-60233357D01*
X60980690Y-60137927D01*
X60847073Y-60004310D01*
X60694199Y-59893240D01*
X60525836Y-59807454D01*
X60346118Y-59749059D01*
X60159486Y-59719500D01*
X60159481Y-59719500D01*
X59970519Y-59719500D01*
X59970514Y-59719500D01*
X59783881Y-59749059D01*
X59604163Y-59807454D01*
X59435800Y-59893240D01*
X59348579Y-59956610D01*
X59282927Y-60004310D01*
X59282925Y-60004312D01*
X59282924Y-60004312D01*
X59149312Y-60137924D01*
X59149305Y-60137933D01*
X59115317Y-60184713D01*
X59059987Y-60227379D01*
X58990374Y-60233357D01*
X58928579Y-60200751D01*
X58914683Y-60184713D01*
X58880694Y-60137933D01*
X58880690Y-60137927D01*
X58747073Y-60004310D01*
X58594199Y-59893240D01*
X58425836Y-59807454D01*
X58246118Y-59749059D01*
X58059486Y-59719500D01*
X58059481Y-59719500D01*
X57870519Y-59719500D01*
X57870514Y-59719500D01*
X57683881Y-59749059D01*
X57504163Y-59807454D01*
X57335800Y-59893240D01*
X57248579Y-59956610D01*
X57182927Y-60004310D01*
X57182925Y-60004312D01*
X57182924Y-60004312D01*
X57049312Y-60137924D01*
X57049312Y-60137925D01*
X57049310Y-60137927D01*
X57049306Y-60137933D01*
X56938240Y-60290800D01*
X56852454Y-60459163D01*
X56794059Y-60638881D01*
X56764500Y-60825513D01*
X40779525Y-60825513D01*
X41714740Y-57084655D01*
X56700000Y-57084655D01*
X56700000Y-57632500D01*
X57444670Y-57632500D01*
X57424925Y-57652245D01*
X57375556Y-57737755D01*
X57350000Y-57833130D01*
X57350000Y-57931870D01*
X57375556Y-58027245D01*
X57424925Y-58112755D01*
X57444670Y-58132500D01*
X56700000Y-58132500D01*
X56700000Y-58680344D01*
X56706401Y-58739872D01*
X56706403Y-58739879D01*
X56756645Y-58874586D01*
X56756649Y-58874593D01*
X56842809Y-58989687D01*
X56842812Y-58989690D01*
X56957906Y-59075850D01*
X56957913Y-59075854D01*
X57092620Y-59126096D01*
X57092627Y-59126098D01*
X57152155Y-59132499D01*
X57152172Y-59132500D01*
X57475000Y-59132500D01*
X57475000Y-58162830D01*
X57494745Y-58182575D01*
X57580255Y-58231944D01*
X57675630Y-58257500D01*
X57774370Y-58257500D01*
X57869745Y-58231944D01*
X57955255Y-58182575D01*
X57969500Y-58168330D01*
X57969500Y-58208502D01*
X57972617Y-58224171D01*
X57975000Y-58248365D01*
X57975000Y-59132500D01*
X58297828Y-59132500D01*
X58297844Y-59132499D01*
X58357372Y-59126098D01*
X58357376Y-59126097D01*
X58492089Y-59075852D01*
X58492896Y-59075248D01*
X58493845Y-59074893D01*
X58499876Y-59071601D01*
X58500349Y-59072467D01*
X58558360Y-59050829D01*
X58614661Y-59059951D01*
X58695873Y-59093591D01*
X58859288Y-59126096D01*
X58893992Y-59132999D01*
X58893996Y-59133000D01*
X58893997Y-59133000D01*
X59096004Y-59133000D01*
X59096005Y-59132999D01*
X59294127Y-59093591D01*
X59480756Y-59016286D01*
X59561110Y-58962594D01*
X59627786Y-58941717D01*
X59695166Y-58960201D01*
X59698865Y-58962578D01*
X59779244Y-59016286D01*
X59965873Y-59093591D01*
X60129288Y-59126096D01*
X60163992Y-59132999D01*
X60163996Y-59133000D01*
X60163997Y-59133000D01*
X60366004Y-59133000D01*
X60366005Y-59132999D01*
X60564127Y-59093591D01*
X60750756Y-59016286D01*
X60918718Y-58904058D01*
X61061558Y-58761218D01*
X61173786Y-58593256D01*
X61251091Y-58406627D01*
X61290500Y-58208503D01*
X61290500Y-57556497D01*
X61251091Y-57358373D01*
X61173786Y-57171744D01*
X61173784Y-57171741D01*
X61173782Y-57171737D01*
X61061558Y-57003781D01*
X60918718Y-56860941D01*
X60750762Y-56748717D01*
X60750752Y-56748712D01*
X60564127Y-56671409D01*
X60564119Y-56671407D01*
X60366007Y-56632000D01*
X60366003Y-56632000D01*
X60163997Y-56632000D01*
X60163992Y-56632000D01*
X59965880Y-56671407D01*
X59965872Y-56671409D01*
X59779244Y-56748713D01*
X59698891Y-56802404D01*
X59632213Y-56823282D01*
X59564833Y-56804797D01*
X59561109Y-56802404D01*
X59480755Y-56748713D01*
X59294127Y-56671409D01*
X59294119Y-56671407D01*
X59096007Y-56632000D01*
X59096003Y-56632000D01*
X58893997Y-56632000D01*
X58893992Y-56632000D01*
X58695880Y-56671407D01*
X58695868Y-56671410D01*
X58614661Y-56705047D01*
X58545191Y-56712516D01*
X58500140Y-56692905D01*
X58499872Y-56693397D01*
X58494374Y-56690394D01*
X58492895Y-56689751D01*
X58492086Y-56689145D01*
X58357379Y-56638903D01*
X58357372Y-56638901D01*
X58297844Y-56632500D01*
X57975000Y-56632500D01*
X57975000Y-57516634D01*
X57972617Y-57540826D01*
X57969500Y-57556495D01*
X57969500Y-57596670D01*
X57955255Y-57582425D01*
X57869745Y-57533056D01*
X57774370Y-57507500D01*
X57675630Y-57507500D01*
X57580255Y-57533056D01*
X57494745Y-57582425D01*
X57475000Y-57602170D01*
X57475000Y-56632500D01*
X57152155Y-56632500D01*
X57092627Y-56638901D01*
X57092620Y-56638903D01*
X56957913Y-56689145D01*
X56957906Y-56689149D01*
X56842812Y-56775309D01*
X56842809Y-56775312D01*
X56756649Y-56890406D01*
X56756645Y-56890413D01*
X56706403Y-57025120D01*
X56706401Y-57025127D01*
X56700000Y-57084655D01*
X41714740Y-57084655D01*
X43833459Y-48609778D01*
X56489500Y-48609778D01*
X56489500Y-48830221D01*
X56523985Y-49047952D01*
X56592103Y-49257603D01*
X56592104Y-49257606D01*
X56692187Y-49454025D01*
X56821752Y-49632358D01*
X56821756Y-49632363D01*
X56977636Y-49788243D01*
X56977641Y-49788247D01*
X57079606Y-49862328D01*
X57155978Y-49917815D01*
X57284375Y-49983237D01*
X57352393Y-50017895D01*
X57352396Y-50017896D01*
X57457221Y-50051955D01*
X57562049Y-50086015D01*
X57779778Y-50120500D01*
X57779779Y-50120500D01*
X58000221Y-50120500D01*
X58000222Y-50120500D01*
X58217951Y-50086015D01*
X58427606Y-50017895D01*
X58624022Y-49917815D01*
X58802365Y-49788242D01*
X58852536Y-49738070D01*
X58913857Y-49704586D01*
X58983548Y-49709570D01*
X59039482Y-49751441D01*
X59056398Y-49782419D01*
X59086202Y-49862328D01*
X59086206Y-49862335D01*
X59172452Y-49977544D01*
X59172455Y-49977547D01*
X59287664Y-50063793D01*
X59287671Y-50063797D01*
X59422517Y-50114091D01*
X59422516Y-50114091D01*
X59429444Y-50114835D01*
X59482127Y-50120500D01*
X61377872Y-50120499D01*
X61437483Y-50114091D01*
X61572331Y-50063796D01*
X61687546Y-49977546D01*
X61773796Y-49862331D01*
X61824091Y-49727483D01*
X61830500Y-49667873D01*
X61830499Y-47772128D01*
X61824091Y-47712517D01*
X61803601Y-47657581D01*
X61773797Y-47577671D01*
X61773793Y-47577664D01*
X61687547Y-47462455D01*
X61687544Y-47462452D01*
X61572335Y-47376206D01*
X61572328Y-47376202D01*
X61437482Y-47325908D01*
X61437483Y-47325908D01*
X61377883Y-47319501D01*
X61377881Y-47319500D01*
X61377873Y-47319500D01*
X61377864Y-47319500D01*
X59482129Y-47319500D01*
X59482123Y-47319501D01*
X59422516Y-47325908D01*
X59287671Y-47376202D01*
X59287664Y-47376206D01*
X59172455Y-47462452D01*
X59172452Y-47462455D01*
X59086206Y-47577664D01*
X59086203Y-47577669D01*
X59056398Y-47657581D01*
X59014526Y-47713514D01*
X58949062Y-47737931D01*
X58880789Y-47723079D01*
X58852535Y-47701928D01*
X58802363Y-47651756D01*
X58802358Y-47651752D01*
X58624025Y-47522187D01*
X58624024Y-47522186D01*
X58624022Y-47522185D01*
X58506791Y-47462452D01*
X58427606Y-47422104D01*
X58427603Y-47422103D01*
X58217952Y-47353985D01*
X58109086Y-47336742D01*
X58000222Y-47319500D01*
X57779778Y-47319500D01*
X57707201Y-47330995D01*
X57562047Y-47353985D01*
X57352396Y-47422103D01*
X57352393Y-47422104D01*
X57155974Y-47522187D01*
X56977641Y-47651752D01*
X56977636Y-47651756D01*
X56821756Y-47807636D01*
X56821752Y-47807641D01*
X56692187Y-47985974D01*
X56592104Y-48182393D01*
X56592103Y-48182396D01*
X56523985Y-48392047D01*
X56489500Y-48609778D01*
X43833459Y-48609778D01*
X44255845Y-46920235D01*
X44255848Y-46920231D01*
X44266509Y-46877580D01*
X44270727Y-46860706D01*
X44273258Y-46851966D01*
X44338098Y-46655394D01*
X44345062Y-46638559D01*
X44436003Y-46457711D01*
X44445366Y-46442077D01*
X44561864Y-46276542D01*
X44573431Y-46262440D01*
X44712949Y-46115816D01*
X44726466Y-46103559D01*
X44823717Y-46027626D01*
X44886004Y-45978994D01*
X44901158Y-45968863D01*
X45077261Y-45869062D01*
X45093744Y-45861263D01*
X45282588Y-45788393D01*
X45300034Y-45783100D01*
X45497528Y-45738738D01*
X45515552Y-45736064D01*
X45721988Y-45720835D01*
X45731106Y-45720500D01*
X45792433Y-45720502D01*
X45792436Y-45720500D01*
X45801056Y-45720501D01*
X45801085Y-45720500D01*
X72598861Y-45720500D01*
X72607990Y-45720837D01*
G37*
%TD.AperFunction*%
%TD*%
M02*
