%TF.GenerationSoftware,KiCad,Pcbnew,10.0.1*%
%TF.CreationDate,2026-07-07T22:52:25-04:00*%
%TF.ProjectId,outpost-kits,6f757470-6f73-4742-9d6b-6974732e6b69,rev?*%
%TF.SameCoordinates,Original*%
%TF.FileFunction,Legend,Bot*%
%TF.FilePolarity,Positive*%
%FSLAX46Y46*%
G04 Gerber Fmt 4.6, Leading zero omitted, Abs format (unit mm)*
G04 Created by KiCad (PCBNEW 10.0.1) date 2026-07-07 22:52:25*
%MOMM*%
%LPD*%
G01*
G04 APERTURE LIST*
%ADD10C,0.150000*%
%ADD11C,0.000000*%
%ADD12C,0.120000*%
G04 APERTURE END LIST*
D10*
X47900714Y-76451010D02*
X47757857Y-76498629D01*
X47757857Y-76498629D02*
X47710238Y-76546248D01*
X47710238Y-76546248D02*
X47662619Y-76641486D01*
X47662619Y-76641486D02*
X47662619Y-76784343D01*
X47662619Y-76784343D02*
X47710238Y-76879581D01*
X47710238Y-76879581D02*
X47757857Y-76927201D01*
X47757857Y-76927201D02*
X47853095Y-76974820D01*
X47853095Y-76974820D02*
X48234047Y-76974820D01*
X48234047Y-76974820D02*
X48234047Y-75974820D01*
X48234047Y-75974820D02*
X47900714Y-75974820D01*
X47900714Y-75974820D02*
X47805476Y-76022439D01*
X47805476Y-76022439D02*
X47757857Y-76070058D01*
X47757857Y-76070058D02*
X47710238Y-76165296D01*
X47710238Y-76165296D02*
X47710238Y-76260534D01*
X47710238Y-76260534D02*
X47757857Y-76355772D01*
X47757857Y-76355772D02*
X47805476Y-76403391D01*
X47805476Y-76403391D02*
X47900714Y-76451010D01*
X47900714Y-76451010D02*
X48234047Y-76451010D01*
X47376904Y-75974820D02*
X46805476Y-75974820D01*
X47091190Y-76974820D02*
X47091190Y-75974820D01*
X45995952Y-75974820D02*
X46472142Y-75974820D01*
X46472142Y-75974820D02*
X46519761Y-76451010D01*
X46519761Y-76451010D02*
X46472142Y-76403391D01*
X46472142Y-76403391D02*
X46376904Y-76355772D01*
X46376904Y-76355772D02*
X46138809Y-76355772D01*
X46138809Y-76355772D02*
X46043571Y-76403391D01*
X46043571Y-76403391D02*
X45995952Y-76451010D01*
X45995952Y-76451010D02*
X45948333Y-76546248D01*
X45948333Y-76546248D02*
X45948333Y-76784343D01*
X45948333Y-76784343D02*
X45995952Y-76879581D01*
X45995952Y-76879581D02*
X46043571Y-76927201D01*
X46043571Y-76927201D02*
X46138809Y-76974820D01*
X46138809Y-76974820D02*
X46376904Y-76974820D01*
X46376904Y-76974820D02*
X46472142Y-76927201D01*
X46472142Y-76927201D02*
X46519761Y-76879581D01*
X50436428Y-72334701D02*
X49293571Y-72334701D01*
X49864999Y-72906129D02*
X49864999Y-71763272D01*
D11*
%TO.C,G\u002A\u002A\u002A*%
G36*
X51735137Y-51754585D02*
G01*
X51871424Y-51784704D01*
X52015742Y-51829528D01*
X52143451Y-51878913D01*
X52041976Y-52119096D01*
X51998240Y-52216122D01*
X51943045Y-52319248D01*
X51908494Y-52359278D01*
X51874480Y-52341310D01*
X51786166Y-52274615D01*
X51669482Y-52175578D01*
X51559001Y-52073775D01*
X51501688Y-52001105D01*
X51493540Y-51938707D01*
X51522359Y-51860453D01*
X51557563Y-51794637D01*
X51622319Y-51748536D01*
X51735137Y-51754585D01*
G37*
G36*
X64214101Y-51384588D02*
G01*
X64290203Y-51473911D01*
X64395084Y-51613645D01*
X64515988Y-51787453D01*
X64540889Y-51824390D01*
X64660981Y-52002265D01*
X64730851Y-52117752D01*
X64749738Y-52187088D01*
X64716882Y-52226509D01*
X64631524Y-52252255D01*
X64492903Y-52280561D01*
X64476656Y-52283973D01*
X64323402Y-52308320D01*
X64236348Y-52289930D01*
X64192030Y-52213066D01*
X64166983Y-52061994D01*
X64152329Y-51921073D01*
X64139144Y-51702972D01*
X64140045Y-51524741D01*
X64154631Y-51404508D01*
X64182500Y-51360402D01*
X64214101Y-51384588D01*
G37*
G36*
X51604150Y-52630042D02*
G01*
X51736454Y-52680121D01*
X51826365Y-52746440D01*
X51847530Y-52822082D01*
X51846249Y-52826693D01*
X51820109Y-52934798D01*
X51790861Y-53072762D01*
X51787267Y-53090542D01*
X51759635Y-53207688D01*
X51737200Y-53274490D01*
X51722520Y-53284741D01*
X51643233Y-53276485D01*
X51523745Y-53230962D01*
X51390366Y-53161234D01*
X51269405Y-53080364D01*
X51187171Y-53001413D01*
X51180781Y-52991598D01*
X51153355Y-52881243D01*
X51163473Y-52750359D01*
X51207847Y-52654185D01*
X51216424Y-52646423D01*
X51317781Y-52606276D01*
X51455808Y-52603122D01*
X51604150Y-52630042D01*
G37*
G36*
X71243602Y-52608325D02*
G01*
X71526537Y-53482268D01*
X71755534Y-54345984D01*
X71935353Y-55213211D01*
X71973878Y-55437622D01*
X72024430Y-55759887D01*
X72071615Y-56089641D01*
X72112835Y-56406645D01*
X72145494Y-56690656D01*
X72166995Y-56921434D01*
X72174738Y-57078738D01*
X72174738Y-57258529D01*
X71825434Y-57258529D01*
X71476130Y-57258529D01*
X71445166Y-56509372D01*
X71443901Y-56479627D01*
X71425712Y-56150097D01*
X71399948Y-55803580D01*
X71368307Y-55454069D01*
X71332486Y-55115553D01*
X71294184Y-54802024D01*
X71255097Y-54527472D01*
X71216923Y-54305889D01*
X71181360Y-54151265D01*
X71150106Y-54077592D01*
X71130058Y-54066533D01*
X71024516Y-54041932D01*
X70850684Y-54019346D01*
X70627182Y-54000498D01*
X70372627Y-53987112D01*
X70105637Y-53980911D01*
X70004383Y-53980864D01*
X69671275Y-53990880D01*
X69319923Y-54017582D01*
X68943194Y-54062506D01*
X68533957Y-54127191D01*
X68085079Y-54213172D01*
X67589428Y-54321988D01*
X67039871Y-54455175D01*
X66429277Y-54614271D01*
X66106578Y-54702957D01*
X65750513Y-54800813D01*
X64996446Y-55016338D01*
X64159944Y-55262384D01*
X63924607Y-55332019D01*
X63167459Y-55549937D01*
X62480575Y-55736743D01*
X61849881Y-55895503D01*
X61261303Y-56029281D01*
X60700765Y-56141141D01*
X60154193Y-56234150D01*
X59607513Y-56311373D01*
X59046649Y-56375873D01*
X58856621Y-56394356D01*
X58415173Y-56429723D01*
X57960152Y-56457010D01*
X57509570Y-56475730D01*
X57081436Y-56485397D01*
X56693762Y-56485524D01*
X56364559Y-56475623D01*
X56111837Y-56455208D01*
X56071393Y-56450065D01*
X55350350Y-56317193D01*
X54590105Y-56102348D01*
X53795830Y-55807435D01*
X52972692Y-55434362D01*
X52125862Y-54985035D01*
X52057362Y-54945735D01*
X51665131Y-54709163D01*
X51376301Y-54524417D01*
X54147398Y-54524417D01*
X54172661Y-54611180D01*
X54277441Y-54707420D01*
X54467897Y-54792917D01*
X54748679Y-54870345D01*
X54934912Y-54911995D01*
X55217847Y-54969645D01*
X55427142Y-54998694D01*
X55574785Y-54996139D01*
X55672765Y-54958976D01*
X55699883Y-54925351D01*
X56240282Y-54925351D01*
X56240348Y-54930716D01*
X56287698Y-55074436D01*
X56409991Y-55206167D01*
X56588228Y-55305174D01*
X56733055Y-55346007D01*
X56995835Y-55351151D01*
X57241229Y-55270911D01*
X57454224Y-55111488D01*
X57619808Y-54879082D01*
X57714492Y-54629902D01*
X57779583Y-54306832D01*
X57806211Y-53954665D01*
X57793902Y-53602211D01*
X57742181Y-53278280D01*
X57650574Y-53011684D01*
X57587585Y-52901911D01*
X57427579Y-52721829D01*
X57240377Y-52605639D01*
X57179534Y-52590381D01*
X59141780Y-52590381D01*
X59142039Y-52598249D01*
X59178852Y-52719624D01*
X59267865Y-52884328D01*
X59394642Y-53070940D01*
X59544748Y-53258041D01*
X59703746Y-53424211D01*
X59850463Y-53561616D01*
X59758521Y-53741837D01*
X59741703Y-53777245D01*
X59680241Y-53930114D01*
X59671621Y-53954665D01*
X59610222Y-54129530D01*
X59543744Y-54341698D01*
X59539377Y-54356706D01*
X59468441Y-54648648D01*
X59446723Y-54872941D01*
X59474343Y-55042827D01*
X59551426Y-55171545D01*
X59553616Y-55173938D01*
X59680336Y-55249762D01*
X59825808Y-55242671D01*
X59964695Y-55153754D01*
X59980820Y-55135623D01*
X60031176Y-55050201D01*
X60078581Y-54915990D01*
X60127701Y-54717758D01*
X60183201Y-54440271D01*
X60221593Y-54238271D01*
X60260252Y-54052910D01*
X60292402Y-53934691D01*
X60323476Y-53868707D01*
X60358902Y-53840050D01*
X60404113Y-53833810D01*
X60475525Y-53852047D01*
X60534425Y-53922450D01*
X60594975Y-54065594D01*
X60690212Y-54280685D01*
X60827045Y-54497527D01*
X60981769Y-54673104D01*
X61141492Y-54795491D01*
X61293323Y-54852759D01*
X61424373Y-54832983D01*
X61485945Y-54783145D01*
X61512278Y-54702957D01*
X61493445Y-54583059D01*
X61427168Y-54410135D01*
X61311171Y-54170865D01*
X61269849Y-54088766D01*
X61103178Y-53715324D01*
X60985623Y-53357410D01*
X60907075Y-52978764D01*
X60857428Y-52543122D01*
X60847140Y-52424904D01*
X60814015Y-52149477D01*
X60771769Y-51954314D01*
X60716182Y-51828466D01*
X60643031Y-51760987D01*
X60622015Y-51756546D01*
X61335712Y-51756546D01*
X61338313Y-51919255D01*
X61404541Y-52046705D01*
X61423481Y-52064632D01*
X61516358Y-52114715D01*
X61619434Y-52093414D01*
X61755085Y-51997594D01*
X61886670Y-51914599D01*
X62020173Y-51904341D01*
X62148772Y-51983044D01*
X62281396Y-52153352D01*
X62294311Y-52174005D01*
X62475625Y-52542686D01*
X62593281Y-52944599D01*
X62636198Y-53342604D01*
X62634048Y-53459871D01*
X62603184Y-53683296D01*
X62528023Y-53838105D01*
X62398616Y-53939531D01*
X62205013Y-54002808D01*
X62148916Y-54016068D01*
X62010236Y-54069614D01*
X61955992Y-54137375D01*
X61949003Y-54221270D01*
X61998546Y-54385937D01*
X62131898Y-54512099D01*
X62151777Y-54523477D01*
X62305965Y-54581589D01*
X62473358Y-54581353D01*
X62685413Y-54523415D01*
X62821928Y-54459265D01*
X63019800Y-54286099D01*
X63163259Y-54038890D01*
X63250389Y-53721460D01*
X63279279Y-53337630D01*
X63269232Y-53114085D01*
X63209789Y-52728639D01*
X63103388Y-52357892D01*
X62957421Y-52017824D01*
X62779280Y-51724417D01*
X62633920Y-51559114D01*
X63661641Y-51559114D01*
X63664551Y-51759601D01*
X63696899Y-52209508D01*
X63767818Y-52689280D01*
X63880835Y-53225724D01*
X63908310Y-53337630D01*
X63933912Y-53441904D01*
X63982714Y-53607471D01*
X64031278Y-53721204D01*
X64089021Y-53804748D01*
X64165360Y-53879750D01*
X64175956Y-53888909D01*
X64340019Y-53993794D01*
X64486841Y-54020762D01*
X64602304Y-53966994D01*
X64615814Y-53952107D01*
X64649623Y-53881602D01*
X64652618Y-53777321D01*
X64623477Y-53621006D01*
X64560880Y-53394401D01*
X64554866Y-53374048D01*
X64511028Y-53213907D01*
X64484735Y-53095980D01*
X64481494Y-53044533D01*
X64521929Y-53032524D01*
X64633967Y-53014073D01*
X64789022Y-52995273D01*
X64947558Y-52981499D01*
X65042505Y-52986239D01*
X65096256Y-53016395D01*
X65135643Y-53078402D01*
X65162583Y-53123032D01*
X65252453Y-53242819D01*
X65364360Y-53370046D01*
X65478753Y-53471613D01*
X65622942Y-53544705D01*
X65740449Y-53541149D01*
X65819549Y-53462403D01*
X65848521Y-53309921D01*
X65845902Y-53296065D01*
X65809537Y-53204660D01*
X65735686Y-53048463D01*
X65631132Y-52841043D01*
X65502660Y-52595974D01*
X65357056Y-52326826D01*
X65333423Y-52283768D01*
X65173814Y-51992056D01*
X65018781Y-51707295D01*
X64878666Y-51448573D01*
X64763812Y-51234976D01*
X64684559Y-51085593D01*
X64539973Y-50838322D01*
X64383427Y-50644656D01*
X64271089Y-50566495D01*
X65672597Y-50566495D01*
X65703576Y-50779958D01*
X65770467Y-51066419D01*
X65790589Y-51143446D01*
X65867167Y-51423306D01*
X65953828Y-51723874D01*
X66045500Y-52029098D01*
X66137110Y-52322921D01*
X66223584Y-52589291D01*
X66299848Y-52812154D01*
X66360830Y-52975455D01*
X66401456Y-53063141D01*
X66406236Y-53070256D01*
X66500668Y-53171800D01*
X66624046Y-53265117D01*
X66702075Y-53307936D01*
X66709270Y-53309921D01*
X66852439Y-53349422D01*
X66963348Y-53307575D01*
X67041717Y-53181005D01*
X67051624Y-53145373D01*
X67056938Y-53025768D01*
X67035512Y-52845072D01*
X66985965Y-52588609D01*
X66956679Y-52447468D01*
X66923435Y-52272485D01*
X66903952Y-52149522D01*
X66901742Y-52098986D01*
X66958449Y-52066132D01*
X67075779Y-52015565D01*
X67227882Y-51957286D01*
X67390160Y-51899964D01*
X67538020Y-51852269D01*
X67646864Y-51822867D01*
X67692098Y-51820429D01*
X67697909Y-51833026D01*
X67741275Y-51915013D01*
X67815613Y-52049832D01*
X67909017Y-52215785D01*
X68000689Y-52365733D01*
X68187635Y-52600359D01*
X68375558Y-52740712D01*
X68565118Y-52787368D01*
X68606386Y-52785069D01*
X68719763Y-52738296D01*
X68780757Y-52628042D01*
X68789779Y-52450061D01*
X68747240Y-52200103D01*
X68653551Y-51873922D01*
X68639131Y-51829407D01*
X68426583Y-51099838D01*
X68250928Y-50337756D01*
X68193789Y-50110944D01*
X68103161Y-49899521D01*
X67991467Y-49777810D01*
X67856481Y-49743632D01*
X67695976Y-49794807D01*
X67646676Y-49830914D01*
X67546708Y-49967901D01*
X67465881Y-50161899D01*
X67411404Y-50386892D01*
X67390484Y-50616863D01*
X67410331Y-50825796D01*
X67418205Y-50863024D01*
X67431098Y-50998390D01*
X67400928Y-51067310D01*
X67400161Y-51067904D01*
X67331890Y-51104323D01*
X67212334Y-51155771D01*
X67069253Y-51211786D01*
X66930411Y-51261906D01*
X66823568Y-51295671D01*
X66776487Y-51302618D01*
X66776473Y-51302600D01*
X66752806Y-51256708D01*
X66696589Y-51142238D01*
X66616218Y-50976412D01*
X66520084Y-50776455D01*
X66421849Y-50576023D01*
X66332388Y-50410642D01*
X66258182Y-50301535D01*
X66187520Y-50231862D01*
X66108694Y-50184782D01*
X66078312Y-50170434D01*
X65977244Y-50132612D01*
X65904040Y-50142420D01*
X65812457Y-50202645D01*
X65802613Y-50210144D01*
X65721367Y-50296983D01*
X65678278Y-50410635D01*
X65672597Y-50566495D01*
X64271089Y-50566495D01*
X64229808Y-50537773D01*
X64074765Y-50513595D01*
X63929085Y-50563074D01*
X63810881Y-50689368D01*
X63727822Y-50895153D01*
X63678534Y-51183908D01*
X63661641Y-51559114D01*
X62633920Y-51559114D01*
X62576355Y-51493651D01*
X62356039Y-51341509D01*
X62250885Y-51303321D01*
X62028619Y-51269528D01*
X61801469Y-51280815D01*
X61613631Y-51337424D01*
X61489203Y-51434532D01*
X61388691Y-51585873D01*
X61335712Y-51756546D01*
X60622015Y-51756546D01*
X60548095Y-51740926D01*
X60546645Y-51740935D01*
X60429358Y-51783021D01*
X60380057Y-51827338D01*
X60305099Y-51894718D01*
X60281970Y-51922474D01*
X60231525Y-51991823D01*
X60202041Y-52063618D01*
X60189708Y-52160987D01*
X60190715Y-52307059D01*
X60201250Y-52524961D01*
X60209315Y-52653964D01*
X60226467Y-52853535D01*
X60245700Y-53009666D01*
X60264172Y-53096544D01*
X60257132Y-53109643D01*
X60196483Y-53074773D01*
X60089191Y-52990037D01*
X59947594Y-52864483D01*
X59797017Y-52730060D01*
X59563194Y-52546663D01*
X59379985Y-52440733D01*
X59248164Y-52412534D01*
X59168505Y-52462329D01*
X59141780Y-52590381D01*
X57179534Y-52590381D01*
X57042512Y-52556019D01*
X56850516Y-52575650D01*
X56680922Y-52667209D01*
X56601632Y-52768047D01*
X56550263Y-52833377D01*
X56498088Y-52957564D01*
X56481390Y-53099034D01*
X56530426Y-53182713D01*
X56638202Y-53199879D01*
X56797722Y-53141816D01*
X56800746Y-53140189D01*
X56915155Y-53086919D01*
X56996033Y-53082500D01*
X57088796Y-53124180D01*
X57171884Y-53183427D01*
X57276052Y-53327406D01*
X57334414Y-53534699D01*
X57351619Y-53817572D01*
X57351554Y-53827175D01*
X57339345Y-54051749D01*
X57300117Y-54232028D01*
X57223672Y-54415680D01*
X57208283Y-54446567D01*
X57092698Y-54633865D01*
X56967670Y-54739688D01*
X56812648Y-54775235D01*
X56607083Y-54751707D01*
X56454096Y-54727845D01*
X56326122Y-54739035D01*
X56259445Y-54802695D01*
X56240282Y-54925351D01*
X55699883Y-54925351D01*
X55733070Y-54884201D01*
X55767688Y-54768812D01*
X55788609Y-54609805D01*
X55789795Y-54598020D01*
X55809929Y-54418316D01*
X55839469Y-54177177D01*
X55874632Y-53904706D01*
X55911635Y-53631003D01*
X55936953Y-53444993D01*
X55973280Y-53151314D01*
X55993320Y-52930288D01*
X55997059Y-52768047D01*
X55984480Y-52650723D01*
X55955567Y-52564447D01*
X55910303Y-52495353D01*
X55878308Y-52458775D01*
X55806980Y-52412312D01*
X55731932Y-52434674D01*
X55705810Y-52453835D01*
X55664886Y-52509302D01*
X55631619Y-52554392D01*
X55565373Y-52722316D01*
X55505873Y-52963156D01*
X55451925Y-53282461D01*
X55402331Y-53685780D01*
X55355896Y-54178661D01*
X55328964Y-54499728D01*
X55133460Y-54499728D01*
X55050757Y-54496411D01*
X54861871Y-54476512D01*
X54671120Y-54444614D01*
X54483095Y-54417436D01*
X54307263Y-54420022D01*
X54190031Y-54456495D01*
X54147398Y-54524417D01*
X51376301Y-54524417D01*
X51222830Y-54426251D01*
X50749046Y-54110025D01*
X50262367Y-53773510D01*
X49781380Y-53429733D01*
X49324672Y-53091719D01*
X48983956Y-52828898D01*
X50786095Y-52828898D01*
X50791408Y-53007911D01*
X50798624Y-53031961D01*
X50888942Y-53185573D01*
X51044151Y-53343180D01*
X51241718Y-53485083D01*
X51459108Y-53591585D01*
X51653795Y-53653422D01*
X51836984Y-53686303D01*
X51967157Y-53679428D01*
X52028149Y-53631657D01*
X52032172Y-53618377D01*
X52065308Y-53505708D01*
X52097704Y-53393859D01*
X52690949Y-53393859D01*
X52706572Y-53718534D01*
X52769125Y-53983541D01*
X52876861Y-54180266D01*
X53028030Y-54300092D01*
X53177997Y-54346039D01*
X53419014Y-54348335D01*
X53657620Y-54278807D01*
X53868411Y-54146139D01*
X54025979Y-53959012D01*
X54056939Y-53898553D01*
X54130084Y-53720666D01*
X54211565Y-53488374D01*
X54293510Y-53227398D01*
X54368050Y-52963458D01*
X54427312Y-52722277D01*
X54463426Y-52529575D01*
X54466006Y-52509302D01*
X54463341Y-52322723D01*
X54404632Y-52208060D01*
X54291642Y-52169016D01*
X54269013Y-52170338D01*
X54193318Y-52200983D01*
X54125261Y-52280675D01*
X54059191Y-52420639D01*
X53989457Y-52632099D01*
X53910409Y-52926281D01*
X53827777Y-53241917D01*
X53748587Y-53512265D01*
X53680066Y-53704916D01*
X53619175Y-53828307D01*
X53562875Y-53890872D01*
X53456477Y-53926428D01*
X53331435Y-53909334D01*
X53245326Y-53836937D01*
X53216079Y-53746050D01*
X53198539Y-53553654D01*
X53206646Y-53298005D01*
X53239687Y-52995319D01*
X53296950Y-52661812D01*
X53342053Y-52407217D01*
X53362300Y-52186431D01*
X53346824Y-52039063D01*
X53294569Y-51956766D01*
X53204479Y-51931189D01*
X53098191Y-51962066D01*
X52994672Y-52069477D01*
X52902487Y-52258245D01*
X52819468Y-52532921D01*
X52743443Y-52898055D01*
X52724005Y-53018130D01*
X52690949Y-53393859D01*
X52097704Y-53393859D01*
X52117004Y-53327224D01*
X52181178Y-53104190D01*
X52251745Y-52857869D01*
X52322625Y-52609525D01*
X52387733Y-52380422D01*
X52440987Y-52191825D01*
X52476305Y-52064996D01*
X52511755Y-51928010D01*
X52526687Y-51827338D01*
X52512420Y-51762508D01*
X52468296Y-51703830D01*
X52409532Y-51649894D01*
X52239254Y-51540120D01*
X52025789Y-51439074D01*
X51803008Y-51361697D01*
X51604778Y-51322928D01*
X51515956Y-51316723D01*
X51399740Y-51321144D01*
X51323990Y-51356197D01*
X51253490Y-51432904D01*
X51201251Y-51525839D01*
X51155243Y-51713908D01*
X51155457Y-51915539D01*
X51205155Y-52086630D01*
X51211690Y-52099112D01*
X51234678Y-52174969D01*
X51193721Y-52210192D01*
X51065941Y-52288505D01*
X50938284Y-52439607D01*
X50840028Y-52629601D01*
X50786095Y-52828898D01*
X48983956Y-52828898D01*
X48910832Y-52772492D01*
X48558446Y-52485080D01*
X48342017Y-52300916D01*
X48010496Y-52014749D01*
X47731649Y-51768521D01*
X47509762Y-51566176D01*
X47349120Y-51411655D01*
X47254011Y-51308903D01*
X47228719Y-51261861D01*
X47246540Y-51254746D01*
X47346529Y-51242618D01*
X47523297Y-51232397D01*
X47764894Y-51224537D01*
X48059370Y-51219489D01*
X48394774Y-51217705D01*
X48615558Y-51217147D01*
X48911326Y-51214488D01*
X49164023Y-51209939D01*
X49360634Y-51203838D01*
X49488144Y-51196519D01*
X49533540Y-51188319D01*
X49525675Y-51167971D01*
X49481047Y-51073839D01*
X49402295Y-50914818D01*
X49295511Y-50703042D01*
X49166786Y-50450643D01*
X49022210Y-50169756D01*
X48932668Y-49994893D01*
X48800344Y-49729721D01*
X48689927Y-49499947D01*
X48607066Y-49317743D01*
X48557408Y-49195280D01*
X48546601Y-49144728D01*
X48580410Y-49141416D01*
X48677788Y-49173346D01*
X48808211Y-49239163D01*
X48868116Y-49272428D01*
X49028748Y-49357198D01*
X49242640Y-49466713D01*
X49489136Y-49590448D01*
X49747585Y-49717878D01*
X50380243Y-50010263D01*
X51424299Y-50422624D01*
X52475422Y-50753001D01*
X53527838Y-51000804D01*
X54575772Y-51165443D01*
X55613448Y-51246326D01*
X56635093Y-51242862D01*
X57634931Y-51154461D01*
X58607187Y-50980531D01*
X59546087Y-50720483D01*
X59712489Y-50662734D01*
X60009673Y-50550965D01*
X60342611Y-50417983D01*
X60681575Y-50275760D01*
X60996836Y-50136270D01*
X61933806Y-49725739D01*
X62822039Y-49374690D01*
X63657274Y-49086570D01*
X64446962Y-48859473D01*
X65198555Y-48691490D01*
X65919503Y-48580715D01*
X66617258Y-48525241D01*
X67299270Y-48523160D01*
X67698929Y-48542929D01*
X68055112Y-48575771D01*
X68366178Y-48624828D01*
X68657695Y-48694192D01*
X68955234Y-48787948D01*
X68993448Y-48801018D01*
X69148512Y-48845919D01*
X69248943Y-48853990D01*
X69321206Y-48828140D01*
X69326003Y-48825223D01*
X69381583Y-48805513D01*
X69439368Y-48818059D01*
X69504696Y-48870612D01*
X69582901Y-48970923D01*
X69679322Y-49126745D01*
X69799293Y-49345828D01*
X69948152Y-49635924D01*
X70131233Y-50004784D01*
X70496882Y-50774801D01*
X70901970Y-51710416D01*
X71183386Y-52450061D01*
X71243602Y-52608325D01*
G37*
%TO.C,BT5*%
D12*
X51365000Y-68720001D02*
G75*
G02*
X73810671Y-72220001I10949956J-3499989D01*
G01*
X73810671Y-72220001D02*
G75*
G02*
X51365000Y-75720001I-11495715J-11D01*
G01*
X50615000Y-75220001D02*
G75*
G02*
X51365000Y-75720001I0J-812500D01*
G01*
X51365000Y-68720001D02*
G75*
G02*
X50615000Y-69220001I-750000J312500D01*
G01*
X44915000Y-69220001D02*
X50615000Y-69220001D01*
X44915000Y-69220001D02*
X44915000Y-75220001D01*
X44915000Y-75220001D02*
X50615000Y-75220001D01*
%TD*%
M02*
