%TF.GenerationSoftware,KiCad,Pcbnew,10.0.1*%
%TF.CreationDate,2026-07-07T22:52:56-04:00*%
%TF.ProjectId,outpost-kits,6f757470-6f73-4742-9d6b-6974732e6b69,rev?*%
%TF.SameCoordinates,Original*%
%TF.FileFunction,Copper,L1,Top*%
%TF.FilePolarity,Positive*%
%FSLAX46Y46*%
G04 Gerber Fmt 4.6, Leading zero omitted, Abs format (unit mm)*
G04 Created by KiCad (PCBNEW 10.0.1) date 2026-07-07 22:52:56*
%MOMM*%
%LPD*%
G01*
G04 APERTURE LIST*
G04 Aperture macros list*
%AMRoundRect*
0 Rectangle with rounded corners*
0 $1 Rounding radius*
0 $2 $3 $4 $5 $6 $7 $8 $9 X,Y pos of 4 corners*
0 Add a 4 corners polygon primitive as box body*
4,1,4,$2,$3,$4,$5,$6,$7,$8,$9,$2,$3,0*
0 Add four circle primitives for the rounded corners*
1,1,$1+$1,$2,$3*
1,1,$1+$1,$4,$5*
1,1,$1+$1,$6,$7*
1,1,$1+$1,$8,$9*
0 Add four rect primitives between the rounded corners*
20,1,$1+$1,$2,$3,$4,$5,0*
20,1,$1+$1,$4,$5,$6,$7,0*
20,1,$1+$1,$6,$7,$8,$9,0*
20,1,$1+$1,$8,$9,$2,$3,0*%
G04 Aperture macros list end*
%TA.AperFunction,ComponentPad*%
%ADD10C,2.032000*%
%TD*%
%TA.AperFunction,ComponentPad*%
%ADD11R,2.032000X2.032000*%
%TD*%
%TA.AperFunction,ComponentPad*%
%ADD12R,3.000000X3.000000*%
%TD*%
%TA.AperFunction,ComponentPad*%
%ADD13C,3.000000*%
%TD*%
%TA.AperFunction,ComponentPad*%
%ADD14C,1.500000*%
%TD*%
%TA.AperFunction,ComponentPad*%
%ADD15C,2.340000*%
%TD*%
%TA.AperFunction,ComponentPad*%
%ADD16RoundRect,0.250000X-0.550000X0.550000X-0.550000X-0.550000X0.550000X-0.550000X0.550000X0.550000X0*%
%TD*%
%TA.AperFunction,ComponentPad*%
%ADD17C,1.600000*%
%TD*%
%TA.AperFunction,ComponentPad*%
%ADD18C,1.400000*%
%TD*%
%TA.AperFunction,Conductor*%
%ADD19C,0.500000*%
%TD*%
%TA.AperFunction,Conductor*%
%ADD20C,0.200000*%
%TD*%
G04 APERTURE END LIST*
D10*
%TO.P,BAR1,20,K_20*%
%TO.N,Net-(U4-LED1)*%
X73242500Y-138722500D03*
%TO.P,BAR1,19,K_19*%
%TO.N,Net-(U4-LED2)*%
X70702500Y-138722500D03*
%TO.P,BAR1,18,K_18*%
%TO.N,Net-(U4-LED3)*%
X68162500Y-138722500D03*
%TO.P,BAR1,17,K_17*%
%TO.N,Net-(U4-LED4)*%
X65622500Y-138722500D03*
%TO.P,BAR1,16,K_16*%
%TO.N,Net-(U4-LED5)*%
X63082500Y-138722500D03*
%TO.P,BAR1,15,K_15*%
%TO.N,Net-(U4-LED6)*%
X60542500Y-138722500D03*
%TO.P,BAR1,14,K_14*%
%TO.N,Net-(U4-LED7)*%
X58002500Y-138722500D03*
%TO.P,BAR1,13,K_13*%
%TO.N,Net-(U4-LED8)*%
X55462500Y-138722500D03*
%TO.P,BAR1,12,K_12*%
%TO.N,Net-(U4-LED9)*%
X52922500Y-138722500D03*
%TO.P,BAR1,11,K_11*%
%TO.N,Net-(U4-LED10)*%
X50382500Y-138722500D03*
%TO.P,BAR1,10,A_10*%
%TO.N,VU_6V*%
X50382500Y-131102500D03*
%TO.P,BAR1,9,A_9*%
X52922500Y-131102500D03*
%TO.P,BAR1,8,A_8*%
X55462500Y-131102500D03*
%TO.P,BAR1,7,A_7*%
X58002500Y-131102500D03*
%TO.P,BAR1,6,A_6*%
X60542500Y-131102500D03*
%TO.P,BAR1,5,A_5*%
X63082500Y-131102500D03*
%TO.P,BAR1,4,A_4*%
X65622500Y-131102500D03*
%TO.P,BAR1,3,A_3*%
X68162500Y-131102500D03*
%TO.P,BAR1,2,A_2*%
X70702500Y-131102500D03*
D11*
%TO.P,BAR1,1,A_1*%
X73242500Y-131102500D03*
%TD*%
D12*
%TO.P,BT4,1,+_1*%
%TO.N,VU_6V*%
X49520000Y-124955001D03*
D13*
%TO.P,BT4,2,-_2*%
%TO.N,Net-(BT1-+)*%
X49520000Y-104465001D03*
%TD*%
D14*
%TO.P,R3,1*%
%TO.N,VU_6V*%
X63620000Y-90405000D03*
%TO.P,R3,2*%
%TO.N,Net-(U4-SIG)*%
X60220000Y-90405000D03*
%TD*%
D15*
%TO.P,RV1,1,1_1*%
%TO.N,Net-(U4-SIG)*%
X60215000Y-99205000D03*
%TO.P,RV1,2,2_2*%
%TO.N,Earth*%
X57715000Y-104205000D03*
%TO.P,RV1,3,3_3*%
%TO.N,unconnected-(RV1-Pad3)*%
X55215000Y-99205000D03*
%TD*%
D16*
%TO.P,U4,1,LED1_1*%
%TO.N,Net-(U4-LED1)*%
X72040000Y-113800000D03*
D17*
%TO.P,U4,2,V-_2*%
%TO.N,Earth*%
X69500000Y-113800000D03*
%TO.P,U4,3,V+_3*%
%TO.N,VU_6V*%
X66960000Y-113800000D03*
%TO.P,U4,4,RLO_4*%
%TO.N,Earth*%
X64420000Y-113800000D03*
%TO.P,U4,5,SIG_5*%
%TO.N,Net-(U4-SIG)*%
X61880000Y-113800000D03*
%TO.P,U4,6,RHI_6*%
%TO.N,Net-(U4-REFOUT)*%
X59340000Y-113800000D03*
%TO.P,U4,7,REFOUT_7*%
X56800000Y-113800000D03*
%TO.P,U4,8,REFADJ_8*%
%TO.N,Net-(U4-REFADJ)*%
X54260000Y-113800000D03*
%TO.P,U4,9,MODE_9*%
%TO.N,unconnected-(U4-MODE-Pad9)*%
X51720000Y-113800000D03*
%TO.P,U4,10,LED10_10*%
%TO.N,Net-(U4-LED10)*%
X51720000Y-121420000D03*
%TO.P,U4,11,LED9_11*%
%TO.N,Net-(U4-LED9)*%
X54260000Y-121420000D03*
%TO.P,U4,12,LED8_12*%
%TO.N,Net-(U4-LED8)*%
X56800000Y-121420000D03*
%TO.P,U4,13,LED7_13*%
%TO.N,Net-(U4-LED7)*%
X59340000Y-121420000D03*
%TO.P,U4,14,LED6_14*%
%TO.N,Net-(U4-LED6)*%
X61880000Y-121420000D03*
%TO.P,U4,15,LED5_15*%
%TO.N,Net-(U4-LED5)*%
X64420000Y-121420000D03*
%TO.P,U4,16,LED4_16*%
%TO.N,Net-(U4-LED4)*%
X66960000Y-121420000D03*
%TO.P,U4,17,LED3_17*%
%TO.N,Net-(U4-LED3)*%
X69500000Y-121420000D03*
%TO.P,U4,18,LED2_18*%
%TO.N,Net-(U4-LED2)*%
X72040000Y-121420000D03*
%TD*%
D12*
%TO.P,BT1,1,+_1*%
%TO.N,Net-(BT1-+)*%
X73919999Y-106855000D03*
D13*
%TO.P,BT1,2,-_2*%
%TO.N,Earth*%
X73919999Y-127345000D03*
%TD*%
D18*
%TO.P,R5,1*%
%TO.N,Earth*%
X49760000Y-108200000D03*
%TO.P,R5,2*%
%TO.N,Net-(U4-REFADJ)*%
X54840000Y-108200000D03*
%TD*%
%TO.P,R4,1*%
%TO.N,Net-(U4-REFADJ)*%
X56860000Y-108200000D03*
%TO.P,R4,2*%
%TO.N,Net-(U4-REFOUT)*%
X61940000Y-108200000D03*
%TD*%
%TO.N,VU_6V*%
D19*
X66960000Y-113800000D02*
X62060000Y-118700000D01*
X62060000Y-118700000D02*
X51440000Y-118700000D01*
X51440000Y-118700000D02*
X49520000Y-120620000D01*
X49520000Y-120620000D02*
X49520000Y-124955001D01*
X67000000Y-113760000D02*
X66960000Y-113800000D01*
X67000000Y-97685000D02*
X67000000Y-113760000D01*
%TO.N,Net-(U4-LED1)*%
D20*
X73242500Y-138722500D02*
X73242500Y-138682500D01*
X73242500Y-138682500D02*
X77020000Y-134905000D01*
%TO.N,VU_6V*%
D19*
X63620000Y-90405000D02*
X63620000Y-94305000D01*
%TO.N,Net-(U4-SIG)*%
X60215000Y-99205000D02*
X60215000Y-109395000D01*
X60215000Y-109395000D02*
X61880000Y-111060000D01*
%TO.N,Net-(U4-LED10)*%
D20*
X51720000Y-121420000D02*
X51706500Y-121433500D01*
%TO.N,Net-(U4-SIG)*%
D19*
X61880000Y-111060000D02*
X61880000Y-113800000D01*
%TO.N,VU_6V*%
X63620000Y-94305000D02*
X67000000Y-97685000D01*
%TO.N,Net-(U4-LED1)*%
D20*
X74780000Y-113800000D02*
X72040000Y-113800000D01*
X77020000Y-116040000D02*
X74780000Y-113800000D01*
X77020000Y-134905000D02*
X77020000Y-116040000D01*
%TO.N,Net-(U4-LED6)*%
X61880000Y-121420000D02*
X61866500Y-121433500D01*
%TO.N,Net-(U4-LED5)*%
X64420000Y-121420000D02*
X64406500Y-121433500D01*
%TO.N,Net-(U4-LED4)*%
X66960000Y-121420000D02*
X66946500Y-121433500D01*
%TO.N,Net-(U4-LED6)*%
X61866500Y-137398500D02*
X60542500Y-138722500D01*
%TO.N,Net-(U4-LED10)*%
X51706500Y-137398500D02*
X50382500Y-138722500D01*
%TO.N,Net-(U4-LED7)*%
X59326500Y-121433500D02*
X59326500Y-137398500D01*
%TO.N,Net-(U4-LED10)*%
X51706500Y-121433500D02*
X51706500Y-137398500D01*
%TO.N,Net-(U4-LED3)*%
X69486500Y-137398500D02*
X68162500Y-138722500D01*
X69500000Y-121420000D02*
X69486500Y-121433500D01*
%TO.N,Net-(U4-LED8)*%
X56800000Y-121420000D02*
X56786500Y-121433500D01*
%TO.N,Net-(U4-LED3)*%
X69486500Y-121433500D02*
X69486500Y-137398500D01*
%TO.N,Net-(U4-LED2)*%
X71918500Y-137506500D02*
X70702500Y-138722500D01*
%TO.N,Net-(U4-LED6)*%
X61866500Y-121433500D02*
X61866500Y-137398500D01*
%TO.N,Net-(U4-LED4)*%
X66946500Y-137398500D02*
X65622500Y-138722500D01*
%TO.N,Net-(U4-LED9)*%
X54260000Y-121420000D02*
X54246500Y-121433500D01*
%TO.N,Net-(U4-LED8)*%
X56786500Y-121433500D02*
X56786500Y-137398500D01*
%TO.N,Net-(U4-LED5)*%
X64406500Y-137398500D02*
X63082500Y-138722500D01*
%TO.N,Net-(U4-LED2)*%
X71918500Y-121541500D02*
X71918500Y-137506500D01*
%TO.N,Net-(U4-LED9)*%
X54246500Y-137398500D02*
X52922500Y-138722500D01*
X54246500Y-121433500D02*
X54246500Y-137398500D01*
%TO.N,Net-(U4-LED7)*%
X59340000Y-121420000D02*
X59326500Y-121433500D01*
%TO.N,Net-(U4-LED5)*%
X64406500Y-121433500D02*
X64406500Y-137398500D01*
%TO.N,Net-(U4-LED2)*%
X72040000Y-121420000D02*
X71918500Y-121541500D01*
%TO.N,Net-(U4-LED7)*%
X59326500Y-137398500D02*
X58002500Y-138722500D01*
%TO.N,Net-(U4-LED8)*%
X56786500Y-137398500D02*
X55462500Y-138722500D01*
%TO.N,Net-(U4-LED4)*%
X66946500Y-121433500D02*
X66946500Y-137398500D01*
%TO.N,Net-(U4-SIG)*%
D19*
X60220000Y-99200000D02*
X60215000Y-99205000D01*
X60220000Y-90405000D02*
X60220000Y-99200000D01*
%TD*%
%TA.AperFunction,Conductor*%
%TO.N,Earth*%
G36*
X69100000Y-113852661D02*
G01*
X69127259Y-113954394D01*
X69179920Y-114045606D01*
X69254394Y-114120080D01*
X69345606Y-114172741D01*
X69447339Y-114200000D01*
X69453553Y-114200000D01*
X68774076Y-114879474D01*
X68818650Y-114911859D01*
X69000968Y-115004755D01*
X69195582Y-115067990D01*
X69397683Y-115100000D01*
X69602317Y-115100000D01*
X69804417Y-115067990D01*
X69999031Y-115004755D01*
X70181349Y-114911859D01*
X70225921Y-114879474D01*
X69546447Y-114200000D01*
X69552661Y-114200000D01*
X69654394Y-114172741D01*
X69745606Y-114120080D01*
X69820080Y-114045606D01*
X69872741Y-113954394D01*
X69900000Y-113852661D01*
X69900000Y-113846447D01*
X70579474Y-114525921D01*
X70596645Y-114524570D01*
X70615154Y-114510298D01*
X70684767Y-114504317D01*
X70746563Y-114536922D01*
X70777851Y-114586843D01*
X70805186Y-114669334D01*
X70897288Y-114818656D01*
X71021344Y-114942712D01*
X71170666Y-115034814D01*
X71337203Y-115089999D01*
X71439991Y-115100500D01*
X72640008Y-115100499D01*
X72742797Y-115089999D01*
X72909334Y-115034814D01*
X73058656Y-114942712D01*
X73182712Y-114818656D01*
X73274814Y-114669334D01*
X73329999Y-114502797D01*
X73329999Y-114502793D01*
X73330912Y-114498533D01*
X73364199Y-114437102D01*
X73425414Y-114403419D01*
X73452163Y-114400500D01*
X74479903Y-114400500D01*
X74546942Y-114420185D01*
X74567584Y-114436819D01*
X76383181Y-116252416D01*
X76416666Y-116313739D01*
X76419500Y-116340097D01*
X76419500Y-134604902D01*
X76399815Y-134671941D01*
X76383181Y-134692583D01*
X73495380Y-137580383D01*
X73434057Y-137613868D01*
X73388300Y-137615175D01*
X73330374Y-137606000D01*
X73330370Y-137606000D01*
X73154630Y-137606000D01*
X73154625Y-137606000D01*
X72981051Y-137633491D01*
X72813908Y-137687800D01*
X72688796Y-137751549D01*
X72620127Y-137764445D01*
X72555386Y-137738169D01*
X72515129Y-137681062D01*
X72508640Y-137635186D01*
X72509272Y-137621864D01*
X72519001Y-137585557D01*
X72519001Y-137427442D01*
X72519000Y-137427438D01*
X72519000Y-132342999D01*
X72538685Y-132275960D01*
X72591489Y-132230205D01*
X72643000Y-132218999D01*
X74268395Y-132218999D01*
X74268398Y-132218999D01*
X74297713Y-132213169D01*
X74330957Y-132190957D01*
X74353169Y-132157713D01*
X74359000Y-132128399D01*
X74358999Y-130076602D01*
X74353169Y-130047287D01*
X74340098Y-130027724D01*
X74330957Y-130014042D01*
X74297714Y-129991832D01*
X74297715Y-129991832D01*
X74297713Y-129991831D01*
X74297711Y-129991830D01*
X74297708Y-129991829D01*
X74268401Y-129986000D01*
X74268399Y-129986000D01*
X72643000Y-129986000D01*
X72575961Y-129966315D01*
X72530206Y-129913511D01*
X72519000Y-129862000D01*
X72519000Y-129042367D01*
X72538685Y-128975328D01*
X72591489Y-128929573D01*
X72660647Y-128919629D01*
X72718486Y-128943991D01*
X72806470Y-129011503D01*
X73033516Y-129142590D01*
X73033527Y-129142595D01*
X73275743Y-129242924D01*
X73528978Y-129310777D01*
X73528989Y-129310779D01*
X73788904Y-129344999D01*
X73788919Y-129345000D01*
X74051079Y-129345000D01*
X74051093Y-129344999D01*
X74311008Y-129310779D01*
X74311019Y-129310777D01*
X74564254Y-129242924D01*
X74806470Y-129142595D01*
X74806481Y-129142590D01*
X75033515Y-129011511D01*
X75033533Y-129011499D01*
X75146364Y-128924919D01*
X75146364Y-128924917D01*
X74244024Y-128022578D01*
X74275257Y-128009641D01*
X74398096Y-127927563D01*
X74502562Y-127823097D01*
X74584640Y-127700258D01*
X74597576Y-127669025D01*
X75499916Y-128571365D01*
X75499918Y-128571365D01*
X75586498Y-128458534D01*
X75586510Y-128458516D01*
X75717589Y-128231482D01*
X75717594Y-128231471D01*
X75817923Y-127989255D01*
X75885776Y-127736020D01*
X75885778Y-127736009D01*
X75919998Y-127476094D01*
X75919999Y-127476080D01*
X75919999Y-127213919D01*
X75919998Y-127213905D01*
X75885778Y-126953990D01*
X75885776Y-126953979D01*
X75817923Y-126700744D01*
X75717594Y-126458528D01*
X75717589Y-126458517D01*
X75586510Y-126231483D01*
X75586504Y-126231475D01*
X75499917Y-126118633D01*
X75499916Y-126118633D01*
X74597576Y-127020973D01*
X74584640Y-126989742D01*
X74502562Y-126866903D01*
X74398096Y-126762437D01*
X74275257Y-126680359D01*
X74244023Y-126667421D01*
X75146364Y-125765080D01*
X75033523Y-125678494D01*
X75033515Y-125678488D01*
X74806481Y-125547409D01*
X74806470Y-125547404D01*
X74564254Y-125447075D01*
X74311019Y-125379222D01*
X74311008Y-125379220D01*
X74051093Y-125345000D01*
X73788904Y-125345000D01*
X73528989Y-125379220D01*
X73528978Y-125379222D01*
X73275743Y-125447075D01*
X73033527Y-125547404D01*
X73033516Y-125547409D01*
X72806470Y-125678496D01*
X72718486Y-125746008D01*
X72653316Y-125771202D01*
X72584872Y-125757163D01*
X72534882Y-125708349D01*
X72519000Y-125647632D01*
X72519000Y-122711509D01*
X72538685Y-122644470D01*
X72586703Y-122601025D01*
X72721610Y-122532287D01*
X72813117Y-122465804D01*
X72887213Y-122411971D01*
X72887215Y-122411968D01*
X72887219Y-122411966D01*
X73031966Y-122267219D01*
X73031968Y-122267215D01*
X73031971Y-122267213D01*
X73084732Y-122194590D01*
X73152287Y-122101610D01*
X73245220Y-121919219D01*
X73308477Y-121724534D01*
X73340500Y-121522352D01*
X73340500Y-121317648D01*
X73308477Y-121115466D01*
X73245220Y-120920781D01*
X73245218Y-120920778D01*
X73245218Y-120920776D01*
X73199515Y-120831080D01*
X73152287Y-120738390D01*
X73144556Y-120727749D01*
X73031971Y-120572786D01*
X72887213Y-120428028D01*
X72721613Y-120307715D01*
X72721612Y-120307714D01*
X72721610Y-120307713D01*
X72636810Y-120264505D01*
X72539223Y-120214781D01*
X72344534Y-120151522D01*
X72169995Y-120123878D01*
X72142352Y-120119500D01*
X71937648Y-120119500D01*
X71913329Y-120123351D01*
X71735465Y-120151522D01*
X71540776Y-120214781D01*
X71358386Y-120307715D01*
X71192786Y-120428028D01*
X71048028Y-120572786D01*
X70927715Y-120738386D01*
X70880485Y-120831080D01*
X70832510Y-120881876D01*
X70764689Y-120898671D01*
X70698554Y-120876134D01*
X70659515Y-120831080D01*
X70658883Y-120829840D01*
X70612287Y-120738390D01*
X70604556Y-120727749D01*
X70491971Y-120572786D01*
X70347213Y-120428028D01*
X70181613Y-120307715D01*
X70181612Y-120307714D01*
X70181610Y-120307713D01*
X70096810Y-120264505D01*
X69999223Y-120214781D01*
X69804534Y-120151522D01*
X69629995Y-120123878D01*
X69602352Y-120119500D01*
X69397648Y-120119500D01*
X69373329Y-120123351D01*
X69195465Y-120151522D01*
X69000776Y-120214781D01*
X68818386Y-120307715D01*
X68652786Y-120428028D01*
X68508028Y-120572786D01*
X68387715Y-120738386D01*
X68340485Y-120831080D01*
X68292510Y-120881876D01*
X68224689Y-120898671D01*
X68158554Y-120876134D01*
X68119515Y-120831080D01*
X68118883Y-120829840D01*
X68072287Y-120738390D01*
X68064556Y-120727749D01*
X67951971Y-120572786D01*
X67807213Y-120428028D01*
X67641613Y-120307715D01*
X67641612Y-120307714D01*
X67641610Y-120307713D01*
X67556810Y-120264505D01*
X67459223Y-120214781D01*
X67264534Y-120151522D01*
X67089995Y-120123878D01*
X67062352Y-120119500D01*
X66857648Y-120119500D01*
X66833329Y-120123351D01*
X66655465Y-120151522D01*
X66460776Y-120214781D01*
X66278386Y-120307715D01*
X66112786Y-120428028D01*
X65968028Y-120572786D01*
X65847715Y-120738386D01*
X65800485Y-120831080D01*
X65752510Y-120881876D01*
X65684689Y-120898671D01*
X65618554Y-120876134D01*
X65579515Y-120831080D01*
X65578883Y-120829840D01*
X65532287Y-120738390D01*
X65524556Y-120727749D01*
X65411971Y-120572786D01*
X65267213Y-120428028D01*
X65101613Y-120307715D01*
X65101612Y-120307714D01*
X65101610Y-120307713D01*
X65016810Y-120264505D01*
X64919223Y-120214781D01*
X64724534Y-120151522D01*
X64549995Y-120123878D01*
X64522352Y-120119500D01*
X64317648Y-120119500D01*
X64293329Y-120123351D01*
X64115465Y-120151522D01*
X63920776Y-120214781D01*
X63738386Y-120307715D01*
X63572786Y-120428028D01*
X63428028Y-120572786D01*
X63307715Y-120738386D01*
X63260485Y-120831080D01*
X63212510Y-120881876D01*
X63144689Y-120898671D01*
X63078554Y-120876134D01*
X63039515Y-120831080D01*
X63038883Y-120829840D01*
X62992287Y-120738390D01*
X62984556Y-120727749D01*
X62871971Y-120572786D01*
X62727213Y-120428028D01*
X62561613Y-120307715D01*
X62561612Y-120307714D01*
X62561610Y-120307713D01*
X62476810Y-120264505D01*
X62379223Y-120214781D01*
X62184534Y-120151522D01*
X62009995Y-120123878D01*
X61982352Y-120119500D01*
X61777648Y-120119500D01*
X61753329Y-120123351D01*
X61575465Y-120151522D01*
X61380776Y-120214781D01*
X61198386Y-120307715D01*
X61032786Y-120428028D01*
X60888028Y-120572786D01*
X60767715Y-120738386D01*
X60720485Y-120831080D01*
X60672510Y-120881876D01*
X60604689Y-120898671D01*
X60538554Y-120876134D01*
X60499515Y-120831080D01*
X60498883Y-120829840D01*
X60452287Y-120738390D01*
X60444556Y-120727749D01*
X60331971Y-120572786D01*
X60187213Y-120428028D01*
X60021613Y-120307715D01*
X60021612Y-120307714D01*
X60021610Y-120307713D01*
X59936810Y-120264505D01*
X59839223Y-120214781D01*
X59644534Y-120151522D01*
X59469995Y-120123878D01*
X59442352Y-120119500D01*
X59237648Y-120119500D01*
X59213329Y-120123351D01*
X59035465Y-120151522D01*
X58840776Y-120214781D01*
X58658386Y-120307715D01*
X58492786Y-120428028D01*
X58348028Y-120572786D01*
X58227715Y-120738386D01*
X58180485Y-120831080D01*
X58132510Y-120881876D01*
X58064689Y-120898671D01*
X57998554Y-120876134D01*
X57959515Y-120831080D01*
X57958883Y-120829840D01*
X57912287Y-120738390D01*
X57904556Y-120727749D01*
X57791971Y-120572786D01*
X57647213Y-120428028D01*
X57481613Y-120307715D01*
X57481612Y-120307714D01*
X57481610Y-120307713D01*
X57396810Y-120264505D01*
X57299223Y-120214781D01*
X57104534Y-120151522D01*
X56929995Y-120123878D01*
X56902352Y-120119500D01*
X56697648Y-120119500D01*
X56673329Y-120123351D01*
X56495465Y-120151522D01*
X56300776Y-120214781D01*
X56118386Y-120307715D01*
X55952786Y-120428028D01*
X55808028Y-120572786D01*
X55687715Y-120738386D01*
X55640485Y-120831080D01*
X55592510Y-120881876D01*
X55524689Y-120898671D01*
X55458554Y-120876134D01*
X55419515Y-120831080D01*
X55418883Y-120829840D01*
X55372287Y-120738390D01*
X55364556Y-120727749D01*
X55251971Y-120572786D01*
X55107213Y-120428028D01*
X54941613Y-120307715D01*
X54941612Y-120307714D01*
X54941610Y-120307713D01*
X54856810Y-120264505D01*
X54759223Y-120214781D01*
X54564534Y-120151522D01*
X54389995Y-120123878D01*
X54362352Y-120119500D01*
X54157648Y-120119500D01*
X54133329Y-120123351D01*
X53955465Y-120151522D01*
X53760776Y-120214781D01*
X53578386Y-120307715D01*
X53412786Y-120428028D01*
X53268028Y-120572786D01*
X53147715Y-120738386D01*
X53100485Y-120831080D01*
X53052510Y-120881876D01*
X52984689Y-120898671D01*
X52918554Y-120876134D01*
X52879515Y-120831080D01*
X52878883Y-120829840D01*
X52832287Y-120738390D01*
X52824556Y-120727749D01*
X52711971Y-120572786D01*
X52567213Y-120428028D01*
X52401613Y-120307715D01*
X52401612Y-120307714D01*
X52401610Y-120307713D01*
X52316810Y-120264505D01*
X52219223Y-120214781D01*
X52024534Y-120151522D01*
X51849995Y-120123878D01*
X51822352Y-120119500D01*
X51617648Y-120119500D01*
X51550254Y-120130174D01*
X51415464Y-120151523D01*
X51415457Y-120151524D01*
X51365086Y-120167891D01*
X51295245Y-120169886D01*
X51235412Y-120133805D01*
X51204585Y-120071104D01*
X51212550Y-120001690D01*
X51239085Y-119962282D01*
X51714549Y-119486819D01*
X51775872Y-119453334D01*
X51802230Y-119450500D01*
X62133920Y-119450500D01*
X62231462Y-119431096D01*
X62278913Y-119421658D01*
X62415495Y-119365084D01*
X62464729Y-119332186D01*
X62538416Y-119282952D01*
X66694894Y-115126471D01*
X66756215Y-115092988D01*
X66801970Y-115091681D01*
X66857648Y-115100500D01*
X66857649Y-115100500D01*
X67062351Y-115100500D01*
X67062352Y-115100500D01*
X67264534Y-115068477D01*
X67459219Y-115005220D01*
X67641610Y-114912287D01*
X67770482Y-114818657D01*
X67807213Y-114791971D01*
X67807215Y-114791968D01*
X67807219Y-114791966D01*
X67951966Y-114647219D01*
X67951968Y-114647215D01*
X67951971Y-114647213D01*
X68051444Y-114510298D01*
X68072287Y-114481610D01*
X68119795Y-114388369D01*
X68167769Y-114337573D01*
X68235590Y-114320778D01*
X68301725Y-114343315D01*
X68340765Y-114388369D01*
X68388141Y-114481350D01*
X68388147Y-114481359D01*
X68420523Y-114525921D01*
X68420524Y-114525922D01*
X69100000Y-113846446D01*
X69100000Y-113852661D01*
G37*
%TD.AperFunction*%
%TA.AperFunction,Conductor*%
G36*
X62033188Y-86729947D02*
G01*
X62223175Y-86756647D01*
X62240089Y-86760242D01*
X62424534Y-86813130D01*
X62440776Y-86819042D01*
X62616055Y-86897082D01*
X62631327Y-86905202D01*
X62797701Y-87009164D01*
X62804875Y-87014003D01*
X62825047Y-87028658D01*
X62825049Y-87028659D01*
X62854692Y-87050197D01*
X62854693Y-87050197D01*
X62870578Y-87061739D01*
X62870581Y-87061740D01*
X89835996Y-106653262D01*
X89842814Y-106658588D01*
X89993103Y-106784705D01*
X90005546Y-106796722D01*
X90133918Y-106939301D01*
X90144567Y-106952932D01*
X90251857Y-107112000D01*
X90260507Y-107126982D01*
X90344610Y-107299423D01*
X90351090Y-107315462D01*
X90410378Y-107497932D01*
X90414563Y-107514717D01*
X90447881Y-107703665D01*
X90449689Y-107720868D01*
X90456389Y-107912606D01*
X90455786Y-107929895D01*
X90435735Y-108120707D01*
X90432732Y-108137742D01*
X90385274Y-108328112D01*
X90382887Y-108336436D01*
X80057934Y-140113373D01*
X80054972Y-140121511D01*
X79981466Y-140303422D01*
X79973882Y-140318970D01*
X79877945Y-140485124D01*
X79868272Y-140499464D01*
X79750147Y-140650651D01*
X79738571Y-140663506D01*
X79600553Y-140796785D01*
X79587302Y-140807904D01*
X79432088Y-140920673D01*
X79417419Y-140929840D01*
X79248011Y-141019919D01*
X79232208Y-141026955D01*
X79051924Y-141092578D01*
X79035296Y-141097347D01*
X78847624Y-141137244D01*
X78830495Y-141139652D01*
X78634768Y-141153348D01*
X78626112Y-141153650D01*
X45284047Y-141153650D01*
X45275403Y-141153649D01*
X45275397Y-141153648D01*
X45233309Y-141153649D01*
X45213826Y-141153649D01*
X45213825Y-141153648D01*
X45205182Y-141153347D01*
X45009467Y-141139668D01*
X44992335Y-141137261D01*
X44804667Y-141097376D01*
X44788036Y-141092607D01*
X44607755Y-141026992D01*
X44591951Y-141019956D01*
X44422554Y-140929889D01*
X44407881Y-140920721D01*
X44252664Y-140807948D01*
X44239412Y-140796828D01*
X44101403Y-140663553D01*
X44089826Y-140650695D01*
X43971714Y-140499513D01*
X43962040Y-140485171D01*
X43866112Y-140319010D01*
X43858529Y-140303460D01*
X43785042Y-140121559D01*
X43782084Y-140113431D01*
X43780928Y-140109876D01*
X43763059Y-140054870D01*
X43763052Y-140054859D01*
X38353879Y-123407136D01*
X47519500Y-123407136D01*
X47519500Y-126502871D01*
X47519501Y-126502877D01*
X47525908Y-126562484D01*
X47576202Y-126697329D01*
X47576206Y-126697336D01*
X47662452Y-126812545D01*
X47662455Y-126812548D01*
X47777664Y-126898794D01*
X47777671Y-126898798D01*
X47912517Y-126949092D01*
X47912516Y-126949092D01*
X47919444Y-126949836D01*
X47972127Y-126955501D01*
X50982000Y-126955500D01*
X51049039Y-126975185D01*
X51094794Y-127027989D01*
X51106000Y-127079500D01*
X51106000Y-130015715D01*
X51086315Y-130082754D01*
X51033511Y-130128509D01*
X50964353Y-130138453D01*
X50925705Y-130126200D01*
X50811091Y-130067800D01*
X50643948Y-130013491D01*
X50470375Y-129986000D01*
X50470370Y-129986000D01*
X50294630Y-129986000D01*
X50294625Y-129986000D01*
X50121051Y-130013491D01*
X49953908Y-130067800D01*
X49797323Y-130147586D01*
X49655155Y-130250876D01*
X49655150Y-130250880D01*
X49530880Y-130375150D01*
X49530876Y-130375155D01*
X49427586Y-130517323D01*
X49347800Y-130673908D01*
X49293491Y-130841051D01*
X49266000Y-131014624D01*
X49266000Y-131190375D01*
X49293491Y-131363948D01*
X49347800Y-131531091D01*
X49427586Y-131687676D01*
X49530876Y-131829844D01*
X49530880Y-131829849D01*
X49655150Y-131954119D01*
X49655155Y-131954123D01*
X49767000Y-132035382D01*
X49797327Y-132057416D01*
X49865553Y-132092179D01*
X49953908Y-132137199D01*
X49953910Y-132137199D01*
X49953913Y-132137201D01*
X50043502Y-132166310D01*
X50121051Y-132191508D01*
X50294625Y-132219000D01*
X50294630Y-132219000D01*
X50470375Y-132219000D01*
X50643948Y-132191508D01*
X50687752Y-132177275D01*
X50811087Y-132137201D01*
X50925705Y-132078799D01*
X50994373Y-132065903D01*
X51059114Y-132092179D01*
X51099371Y-132149285D01*
X51106000Y-132189284D01*
X51106000Y-137098402D01*
X51086315Y-137165441D01*
X51069681Y-137186083D01*
X50669911Y-137585852D01*
X50608588Y-137619337D01*
X50562832Y-137620644D01*
X50470375Y-137606000D01*
X50470370Y-137606000D01*
X50294630Y-137606000D01*
X50294625Y-137606000D01*
X50121051Y-137633491D01*
X49953908Y-137687800D01*
X49797323Y-137767586D01*
X49655155Y-137870876D01*
X49655150Y-137870880D01*
X49530880Y-137995150D01*
X49530876Y-137995155D01*
X49427586Y-138137323D01*
X49347800Y-138293908D01*
X49293491Y-138461051D01*
X49266000Y-138634624D01*
X49266000Y-138810375D01*
X49293491Y-138983948D01*
X49347800Y-139151091D01*
X49427586Y-139307676D01*
X49530876Y-139449844D01*
X49530880Y-139449849D01*
X49655150Y-139574119D01*
X49655155Y-139574123D01*
X49779162Y-139664218D01*
X49797327Y-139677416D01*
X49897100Y-139728253D01*
X49953908Y-139757199D01*
X49953910Y-139757199D01*
X49953913Y-139757201D01*
X50043502Y-139786310D01*
X50121051Y-139811508D01*
X50294625Y-139839000D01*
X50294630Y-139839000D01*
X50470375Y-139839000D01*
X50643948Y-139811508D01*
X50811087Y-139757201D01*
X50967673Y-139677416D01*
X51109851Y-139574118D01*
X51234118Y-139449851D01*
X51337416Y-139307673D01*
X51417201Y-139151087D01*
X51471508Y-138983948D01*
X51499000Y-138810375D01*
X51499000Y-138634632D01*
X51498999Y-138634624D01*
X51484354Y-138542163D01*
X51485055Y-138536740D01*
X51483143Y-138531614D01*
X51489484Y-138502462D01*
X51493308Y-138472874D01*
X51497140Y-138467269D01*
X51497995Y-138463341D01*
X51519142Y-138435091D01*
X51632068Y-138322166D01*
X51693388Y-138288683D01*
X51763080Y-138293667D01*
X51819013Y-138335539D01*
X51843430Y-138401003D01*
X51837679Y-138448161D01*
X51833493Y-138461045D01*
X51833492Y-138461050D01*
X51806000Y-138634624D01*
X51806000Y-138810375D01*
X51833491Y-138983948D01*
X51887800Y-139151091D01*
X51967586Y-139307676D01*
X52070876Y-139449844D01*
X52070880Y-139449849D01*
X52195150Y-139574119D01*
X52195155Y-139574123D01*
X52319162Y-139664218D01*
X52337327Y-139677416D01*
X52437100Y-139728253D01*
X52493908Y-139757199D01*
X52493910Y-139757199D01*
X52493913Y-139757201D01*
X52583502Y-139786310D01*
X52661051Y-139811508D01*
X52834625Y-139839000D01*
X52834630Y-139839000D01*
X53010375Y-139839000D01*
X53183948Y-139811508D01*
X53351087Y-139757201D01*
X53507673Y-139677416D01*
X53649851Y-139574118D01*
X53774118Y-139449851D01*
X53877416Y-139307673D01*
X53957201Y-139151087D01*
X54011508Y-138983948D01*
X54039000Y-138810375D01*
X54039000Y-138634632D01*
X54038999Y-138634624D01*
X54024354Y-138542163D01*
X54025055Y-138536740D01*
X54023143Y-138531614D01*
X54029484Y-138502462D01*
X54033308Y-138472874D01*
X54037140Y-138467269D01*
X54037995Y-138463341D01*
X54059142Y-138435091D01*
X54172068Y-138322166D01*
X54233388Y-138288683D01*
X54303080Y-138293667D01*
X54359013Y-138335539D01*
X54383430Y-138401003D01*
X54377679Y-138448161D01*
X54373493Y-138461045D01*
X54373492Y-138461050D01*
X54346000Y-138634624D01*
X54346000Y-138810375D01*
X54373491Y-138983948D01*
X54427800Y-139151091D01*
X54507586Y-139307676D01*
X54610876Y-139449844D01*
X54610880Y-139449849D01*
X54735150Y-139574119D01*
X54735155Y-139574123D01*
X54859162Y-139664218D01*
X54877327Y-139677416D01*
X54977100Y-139728253D01*
X55033908Y-139757199D01*
X55033910Y-139757199D01*
X55033913Y-139757201D01*
X55123502Y-139786310D01*
X55201051Y-139811508D01*
X55374625Y-139839000D01*
X55374630Y-139839000D01*
X55550375Y-139839000D01*
X55723948Y-139811508D01*
X55891087Y-139757201D01*
X56047673Y-139677416D01*
X56189851Y-139574118D01*
X56314118Y-139449851D01*
X56417416Y-139307673D01*
X56497201Y-139151087D01*
X56551508Y-138983948D01*
X56579000Y-138810375D01*
X56579000Y-138634632D01*
X56578999Y-138634624D01*
X56564354Y-138542163D01*
X56565055Y-138536740D01*
X56563143Y-138531614D01*
X56569484Y-138502462D01*
X56573308Y-138472874D01*
X56577140Y-138467269D01*
X56577995Y-138463341D01*
X56599142Y-138435091D01*
X56712068Y-138322166D01*
X56773388Y-138288683D01*
X56843080Y-138293667D01*
X56899013Y-138335539D01*
X56923430Y-138401003D01*
X56917679Y-138448161D01*
X56913493Y-138461045D01*
X56913492Y-138461050D01*
X56886000Y-138634624D01*
X56886000Y-138810375D01*
X56913491Y-138983948D01*
X56967800Y-139151091D01*
X57047586Y-139307676D01*
X57150876Y-139449844D01*
X57150880Y-139449849D01*
X57275150Y-139574119D01*
X57275155Y-139574123D01*
X57399162Y-139664218D01*
X57417327Y-139677416D01*
X57517100Y-139728253D01*
X57573908Y-139757199D01*
X57573910Y-139757199D01*
X57573913Y-139757201D01*
X57663502Y-139786310D01*
X57741051Y-139811508D01*
X57914625Y-139839000D01*
X57914630Y-139839000D01*
X58090375Y-139839000D01*
X58263948Y-139811508D01*
X58431087Y-139757201D01*
X58587673Y-139677416D01*
X58729851Y-139574118D01*
X58854118Y-139449851D01*
X58957416Y-139307673D01*
X59037201Y-139151087D01*
X59091508Y-138983948D01*
X59119000Y-138810375D01*
X59119000Y-138634632D01*
X59118999Y-138634624D01*
X59104354Y-138542163D01*
X59105055Y-138536740D01*
X59103143Y-138531614D01*
X59109484Y-138502462D01*
X59113308Y-138472874D01*
X59117140Y-138467269D01*
X59117995Y-138463341D01*
X59139142Y-138435091D01*
X59252068Y-138322166D01*
X59313388Y-138288683D01*
X59383080Y-138293667D01*
X59439013Y-138335539D01*
X59463430Y-138401003D01*
X59457679Y-138448161D01*
X59453493Y-138461045D01*
X59453492Y-138461050D01*
X59426000Y-138634624D01*
X59426000Y-138810375D01*
X59453491Y-138983948D01*
X59507800Y-139151091D01*
X59587586Y-139307676D01*
X59690876Y-139449844D01*
X59690880Y-139449849D01*
X59815150Y-139574119D01*
X59815155Y-139574123D01*
X59939162Y-139664218D01*
X59957327Y-139677416D01*
X60057100Y-139728253D01*
X60113908Y-139757199D01*
X60113910Y-139757199D01*
X60113913Y-139757201D01*
X60203502Y-139786310D01*
X60281051Y-139811508D01*
X60454625Y-139839000D01*
X60454630Y-139839000D01*
X60630375Y-139839000D01*
X60803948Y-139811508D01*
X60971087Y-139757201D01*
X61127673Y-139677416D01*
X61269851Y-139574118D01*
X61394118Y-139449851D01*
X61497416Y-139307673D01*
X61577201Y-139151087D01*
X61631508Y-138983948D01*
X61659000Y-138810375D01*
X61659000Y-138634632D01*
X61658999Y-138634624D01*
X61644354Y-138542163D01*
X61645055Y-138536740D01*
X61643143Y-138531614D01*
X61649484Y-138502462D01*
X61653308Y-138472874D01*
X61657140Y-138467269D01*
X61657995Y-138463341D01*
X61679142Y-138435091D01*
X61792068Y-138322166D01*
X61853388Y-138288683D01*
X61923080Y-138293667D01*
X61979013Y-138335539D01*
X62003430Y-138401003D01*
X61997679Y-138448161D01*
X61993493Y-138461045D01*
X61993492Y-138461050D01*
X61966000Y-138634624D01*
X61966000Y-138810375D01*
X61993491Y-138983948D01*
X62047800Y-139151091D01*
X62127586Y-139307676D01*
X62230876Y-139449844D01*
X62230880Y-139449849D01*
X62355150Y-139574119D01*
X62355155Y-139574123D01*
X62479162Y-139664218D01*
X62497327Y-139677416D01*
X62597100Y-139728253D01*
X62653908Y-139757199D01*
X62653910Y-139757199D01*
X62653913Y-139757201D01*
X62743502Y-139786310D01*
X62821051Y-139811508D01*
X62994625Y-139839000D01*
X62994630Y-139839000D01*
X63170375Y-139839000D01*
X63343948Y-139811508D01*
X63511087Y-139757201D01*
X63667673Y-139677416D01*
X63809851Y-139574118D01*
X63934118Y-139449851D01*
X64037416Y-139307673D01*
X64117201Y-139151087D01*
X64171508Y-138983948D01*
X64199000Y-138810375D01*
X64199000Y-138634632D01*
X64198999Y-138634624D01*
X64184354Y-138542163D01*
X64185055Y-138536740D01*
X64183143Y-138531614D01*
X64189484Y-138502462D01*
X64193308Y-138472874D01*
X64197140Y-138467269D01*
X64197995Y-138463341D01*
X64219142Y-138435091D01*
X64332068Y-138322166D01*
X64393388Y-138288683D01*
X64463080Y-138293667D01*
X64519013Y-138335539D01*
X64543430Y-138401003D01*
X64537679Y-138448161D01*
X64533493Y-138461045D01*
X64533492Y-138461050D01*
X64506000Y-138634624D01*
X64506000Y-138810375D01*
X64533491Y-138983948D01*
X64587800Y-139151091D01*
X64667586Y-139307676D01*
X64770876Y-139449844D01*
X64770880Y-139449849D01*
X64895150Y-139574119D01*
X64895155Y-139574123D01*
X65019162Y-139664218D01*
X65037327Y-139677416D01*
X65137100Y-139728253D01*
X65193908Y-139757199D01*
X65193910Y-139757199D01*
X65193913Y-139757201D01*
X65283502Y-139786310D01*
X65361051Y-139811508D01*
X65534625Y-139839000D01*
X65534630Y-139839000D01*
X65710375Y-139839000D01*
X65883948Y-139811508D01*
X66051087Y-139757201D01*
X66207673Y-139677416D01*
X66349851Y-139574118D01*
X66474118Y-139449851D01*
X66577416Y-139307673D01*
X66657201Y-139151087D01*
X66711508Y-138983948D01*
X66739000Y-138810375D01*
X66739000Y-138634632D01*
X66738999Y-138634624D01*
X66724354Y-138542163D01*
X66725055Y-138536740D01*
X66723143Y-138531614D01*
X66729484Y-138502462D01*
X66733308Y-138472874D01*
X66737140Y-138467269D01*
X66737995Y-138463341D01*
X66759142Y-138435091D01*
X66872068Y-138322166D01*
X66933388Y-138288683D01*
X67003080Y-138293667D01*
X67059013Y-138335539D01*
X67083430Y-138401003D01*
X67077679Y-138448161D01*
X67073493Y-138461045D01*
X67073492Y-138461050D01*
X67046000Y-138634624D01*
X67046000Y-138810375D01*
X67073491Y-138983948D01*
X67127800Y-139151091D01*
X67207586Y-139307676D01*
X67310876Y-139449844D01*
X67310880Y-139449849D01*
X67435150Y-139574119D01*
X67435155Y-139574123D01*
X67559162Y-139664218D01*
X67577327Y-139677416D01*
X67677100Y-139728253D01*
X67733908Y-139757199D01*
X67733910Y-139757199D01*
X67733913Y-139757201D01*
X67823502Y-139786310D01*
X67901051Y-139811508D01*
X68074625Y-139839000D01*
X68074630Y-139839000D01*
X68250375Y-139839000D01*
X68423948Y-139811508D01*
X68591087Y-139757201D01*
X68747673Y-139677416D01*
X68889851Y-139574118D01*
X69014118Y-139449851D01*
X69117416Y-139307673D01*
X69197201Y-139151087D01*
X69251508Y-138983948D01*
X69279000Y-138810375D01*
X69279000Y-138634632D01*
X69278999Y-138634624D01*
X69264354Y-138542163D01*
X69265055Y-138536740D01*
X69263143Y-138531614D01*
X69269484Y-138502462D01*
X69273308Y-138472874D01*
X69277140Y-138467269D01*
X69277995Y-138463341D01*
X69299142Y-138435091D01*
X69412068Y-138322166D01*
X69473388Y-138288683D01*
X69543080Y-138293667D01*
X69599013Y-138335539D01*
X69623430Y-138401003D01*
X69617679Y-138448161D01*
X69613493Y-138461045D01*
X69613492Y-138461050D01*
X69586000Y-138634624D01*
X69586000Y-138810375D01*
X69613491Y-138983948D01*
X69667800Y-139151091D01*
X69747586Y-139307676D01*
X69850876Y-139449844D01*
X69850880Y-139449849D01*
X69975150Y-139574119D01*
X69975155Y-139574123D01*
X70099162Y-139664218D01*
X70117327Y-139677416D01*
X70217100Y-139728253D01*
X70273908Y-139757199D01*
X70273910Y-139757199D01*
X70273913Y-139757201D01*
X70363502Y-139786310D01*
X70441051Y-139811508D01*
X70614625Y-139839000D01*
X70614630Y-139839000D01*
X70790375Y-139839000D01*
X70963948Y-139811508D01*
X71131087Y-139757201D01*
X71287673Y-139677416D01*
X71429851Y-139574118D01*
X71554118Y-139449851D01*
X71657416Y-139307673D01*
X71737201Y-139151087D01*
X71791508Y-138983948D01*
X71819000Y-138810375D01*
X71819000Y-138634632D01*
X71818999Y-138634624D01*
X71804354Y-138542163D01*
X71805055Y-138536740D01*
X71803143Y-138531614D01*
X71809484Y-138502462D01*
X71813308Y-138472874D01*
X71817140Y-138467269D01*
X71817995Y-138463341D01*
X71839142Y-138435091D01*
X71952068Y-138322166D01*
X72013388Y-138288683D01*
X72083080Y-138293667D01*
X72139013Y-138335539D01*
X72163430Y-138401003D01*
X72157679Y-138448161D01*
X72153493Y-138461045D01*
X72153492Y-138461050D01*
X72126000Y-138634624D01*
X72126000Y-138810375D01*
X72153491Y-138983948D01*
X72207800Y-139151091D01*
X72287586Y-139307676D01*
X72390876Y-139449844D01*
X72390880Y-139449849D01*
X72515150Y-139574119D01*
X72515155Y-139574123D01*
X72639162Y-139664218D01*
X72657327Y-139677416D01*
X72757100Y-139728253D01*
X72813908Y-139757199D01*
X72813910Y-139757199D01*
X72813913Y-139757201D01*
X72903502Y-139786310D01*
X72981051Y-139811508D01*
X73154625Y-139839000D01*
X73154630Y-139839000D01*
X73330375Y-139839000D01*
X73503948Y-139811508D01*
X73671087Y-139757201D01*
X73827673Y-139677416D01*
X73969851Y-139574118D01*
X74094118Y-139449851D01*
X74197416Y-139307673D01*
X74277201Y-139151087D01*
X74331508Y-138983948D01*
X74359000Y-138810375D01*
X74359000Y-138634625D01*
X74338886Y-138507636D01*
X74347840Y-138438342D01*
X74373675Y-138400559D01*
X77500520Y-135273716D01*
X77579577Y-135136784D01*
X77620501Y-134984057D01*
X77620501Y-134825942D01*
X77620501Y-134818347D01*
X77620500Y-134818329D01*
X77620500Y-115960945D01*
X77620500Y-115960943D01*
X77579577Y-115808216D01*
X77579573Y-115808209D01*
X77500524Y-115671290D01*
X77500521Y-115671286D01*
X77500520Y-115671284D01*
X77388716Y-115559480D01*
X77388715Y-115559479D01*
X77384385Y-115555149D01*
X77384374Y-115555139D01*
X75267590Y-113438355D01*
X75267588Y-113438352D01*
X75148717Y-113319481D01*
X75148716Y-113319480D01*
X75061904Y-113269360D01*
X75061904Y-113269359D01*
X75061900Y-113269358D01*
X75011785Y-113240423D01*
X74859057Y-113199499D01*
X74700943Y-113199499D01*
X74693347Y-113199499D01*
X74693331Y-113199500D01*
X73452163Y-113199500D01*
X73385124Y-113179815D01*
X73339369Y-113127011D01*
X73330911Y-113101459D01*
X73330000Y-113097207D01*
X73329999Y-113097203D01*
X73274814Y-112930666D01*
X73182712Y-112781344D01*
X73058656Y-112657288D01*
X72909334Y-112565186D01*
X72742797Y-112510001D01*
X72742795Y-112510000D01*
X72640010Y-112499500D01*
X71439998Y-112499500D01*
X71439981Y-112499501D01*
X71337203Y-112510000D01*
X71337200Y-112510001D01*
X71170668Y-112565185D01*
X71170663Y-112565187D01*
X71021342Y-112657289D01*
X70897289Y-112781342D01*
X70805187Y-112930663D01*
X70805186Y-112930666D01*
X70777852Y-113013155D01*
X70738079Y-113070599D01*
X70673563Y-113097422D01*
X70604787Y-113085107D01*
X70593020Y-113075143D01*
X70579474Y-113074076D01*
X69900000Y-113753551D01*
X69900000Y-113747339D01*
X69872741Y-113645606D01*
X69820080Y-113554394D01*
X69745606Y-113479920D01*
X69654394Y-113427259D01*
X69552661Y-113400000D01*
X69546446Y-113400000D01*
X70225922Y-112720524D01*
X70225921Y-112720523D01*
X70181359Y-112688147D01*
X70181350Y-112688141D01*
X69999031Y-112595244D01*
X69804417Y-112532009D01*
X69602317Y-112500000D01*
X69397683Y-112500000D01*
X69195582Y-112532009D01*
X69000968Y-112595244D01*
X68818644Y-112688143D01*
X68774077Y-112720523D01*
X68774077Y-112720524D01*
X69453554Y-113400000D01*
X69447339Y-113400000D01*
X69345606Y-113427259D01*
X69254394Y-113479920D01*
X69179920Y-113554394D01*
X69127259Y-113645606D01*
X69100000Y-113747339D01*
X69100000Y-113753553D01*
X68420524Y-113074077D01*
X68420523Y-113074077D01*
X68388143Y-113118644D01*
X68340765Y-113211630D01*
X68292790Y-113262426D01*
X68224969Y-113279221D01*
X68158834Y-113256683D01*
X68119795Y-113211630D01*
X68113865Y-113199991D01*
X68072287Y-113118390D01*
X68072285Y-113118387D01*
X68072284Y-113118385D01*
X67951971Y-112952786D01*
X67855884Y-112856699D01*
X67807219Y-112808034D01*
X67795129Y-112799250D01*
X67789304Y-112793742D01*
X67775582Y-112770202D01*
X67758948Y-112748629D01*
X67757018Y-112738355D01*
X67754118Y-112733379D01*
X67754487Y-112724877D01*
X67750500Y-112703644D01*
X67750500Y-105307135D01*
X71919499Y-105307135D01*
X71919499Y-108402870D01*
X71919500Y-108402876D01*
X71925907Y-108462483D01*
X71976201Y-108597328D01*
X71976205Y-108597335D01*
X72062451Y-108712544D01*
X72062454Y-108712547D01*
X72177663Y-108798793D01*
X72177670Y-108798797D01*
X72312516Y-108849091D01*
X72312515Y-108849091D01*
X72319443Y-108849835D01*
X72372126Y-108855500D01*
X75467871Y-108855499D01*
X75527482Y-108849091D01*
X75662330Y-108798796D01*
X75777545Y-108712546D01*
X75863795Y-108597331D01*
X75914090Y-108462483D01*
X75920499Y-108402873D01*
X75920498Y-105307128D01*
X75914090Y-105247517D01*
X75863795Y-105112669D01*
X75863794Y-105112668D01*
X75863792Y-105112664D01*
X75777546Y-104997455D01*
X75777543Y-104997452D01*
X75662334Y-104911206D01*
X75662327Y-104911202D01*
X75527481Y-104860908D01*
X75527482Y-104860908D01*
X75467882Y-104854501D01*
X75467880Y-104854500D01*
X75467872Y-104854500D01*
X75467863Y-104854500D01*
X72372128Y-104854500D01*
X72372122Y-104854501D01*
X72312515Y-104860908D01*
X72177670Y-104911202D01*
X72177663Y-104911206D01*
X72062454Y-104997452D01*
X72062451Y-104997455D01*
X71976205Y-105112664D01*
X71976201Y-105112671D01*
X71925907Y-105247517D01*
X71919500Y-105307116D01*
X71919500Y-105307123D01*
X71919499Y-105307135D01*
X67750500Y-105307135D01*
X67750500Y-97611079D01*
X67721659Y-97466092D01*
X67721658Y-97466091D01*
X67721658Y-97466087D01*
X67665084Y-97329505D01*
X67632186Y-97280270D01*
X67632185Y-97280268D01*
X67582956Y-97206589D01*
X67582952Y-97206584D01*
X64406819Y-94030451D01*
X64373334Y-93969128D01*
X64370500Y-93942770D01*
X64370500Y-91468613D01*
X64390185Y-91401574D01*
X64421613Y-91368296D01*
X64434646Y-91358828D01*
X64573828Y-91219646D01*
X64689524Y-91060405D01*
X64778884Y-90885025D01*
X64839709Y-90697826D01*
X64870500Y-90503422D01*
X64870500Y-90306577D01*
X64839709Y-90112173D01*
X64778882Y-89924970D01*
X64689523Y-89749594D01*
X64573828Y-89590354D01*
X64434646Y-89451172D01*
X64275405Y-89335476D01*
X64100029Y-89246117D01*
X63912826Y-89185290D01*
X63718422Y-89154500D01*
X63718417Y-89154500D01*
X63521583Y-89154500D01*
X63521578Y-89154500D01*
X63327173Y-89185290D01*
X63139970Y-89246117D01*
X62964594Y-89335476D01*
X62873741Y-89401485D01*
X62805354Y-89451172D01*
X62805352Y-89451174D01*
X62805351Y-89451174D01*
X62666174Y-89590351D01*
X62666174Y-89590352D01*
X62666172Y-89590354D01*
X62616485Y-89658741D01*
X62550476Y-89749594D01*
X62461117Y-89924970D01*
X62400290Y-90112173D01*
X62369500Y-90306577D01*
X62369500Y-90503422D01*
X62400290Y-90697826D01*
X62461117Y-90885029D01*
X62550476Y-91060405D01*
X62666172Y-91219646D01*
X62805354Y-91358828D01*
X62818385Y-91368295D01*
X62861050Y-91423622D01*
X62869500Y-91468613D01*
X62869500Y-94378918D01*
X62869500Y-94378920D01*
X62869499Y-94378920D01*
X62898340Y-94523907D01*
X62898343Y-94523917D01*
X62954914Y-94660492D01*
X62987812Y-94709727D01*
X62987813Y-94709730D01*
X63037046Y-94783414D01*
X63037052Y-94783421D01*
X66213181Y-97959549D01*
X66246666Y-98020872D01*
X66249500Y-98047230D01*
X66249500Y-112645521D01*
X66229815Y-112712560D01*
X66198385Y-112745839D01*
X66112784Y-112808031D01*
X66112778Y-112808036D01*
X65968028Y-112952786D01*
X65847713Y-113118388D01*
X65800203Y-113211630D01*
X65752228Y-113262426D01*
X65684407Y-113279220D01*
X65618272Y-113256682D01*
X65579234Y-113211628D01*
X65531861Y-113118652D01*
X65499474Y-113074077D01*
X65499474Y-113074076D01*
X64820000Y-113753553D01*
X64820000Y-113747339D01*
X64792741Y-113645606D01*
X64740080Y-113554394D01*
X64665606Y-113479920D01*
X64574394Y-113427259D01*
X64472661Y-113400000D01*
X64466446Y-113400000D01*
X65145922Y-112720524D01*
X65145921Y-112720523D01*
X65101359Y-112688147D01*
X65101350Y-112688141D01*
X64919031Y-112595244D01*
X64724417Y-112532009D01*
X64522317Y-112500000D01*
X64317683Y-112500000D01*
X64115582Y-112532009D01*
X63920968Y-112595244D01*
X63738644Y-112688143D01*
X63694077Y-112720523D01*
X63694077Y-112720524D01*
X64373554Y-113400000D01*
X64367339Y-113400000D01*
X64265606Y-113427259D01*
X64174394Y-113479920D01*
X64099920Y-113554394D01*
X64047259Y-113645606D01*
X64020000Y-113747339D01*
X64020000Y-113753553D01*
X63340524Y-113074077D01*
X63340523Y-113074077D01*
X63308143Y-113118644D01*
X63260765Y-113211630D01*
X63212790Y-113262426D01*
X63144969Y-113279221D01*
X63078834Y-113256683D01*
X63039795Y-113211630D01*
X63033865Y-113199991D01*
X62992287Y-113118390D01*
X62992285Y-113118387D01*
X62992284Y-113118385D01*
X62871971Y-112952786D01*
X62777838Y-112858653D01*
X62727219Y-112808034D01*
X62677381Y-112771824D01*
X62673414Y-112768396D01*
X62657211Y-112743254D01*
X62638949Y-112719571D01*
X62637714Y-112712999D01*
X62635566Y-112709665D01*
X62635555Y-112701503D01*
X62630500Y-112674582D01*
X62630500Y-110986081D01*
X62624763Y-110957242D01*
X62624763Y-110957240D01*
X62601660Y-110841095D01*
X62601659Y-110841088D01*
X62547408Y-110710117D01*
X62545764Y-110705522D01*
X62462954Y-110581588D01*
X62462953Y-110581587D01*
X62462951Y-110581584D01*
X62358416Y-110477049D01*
X61421839Y-109540471D01*
X61388354Y-109479148D01*
X61393338Y-109409456D01*
X61435210Y-109353523D01*
X61500674Y-109329106D01*
X61547835Y-109334858D01*
X61623893Y-109359571D01*
X61658881Y-109370940D01*
X61845514Y-109400500D01*
X61845519Y-109400500D01*
X62034486Y-109400500D01*
X62221118Y-109370940D01*
X62222623Y-109370451D01*
X62400832Y-109312547D01*
X62569199Y-109226760D01*
X62722073Y-109115690D01*
X62855690Y-108982073D01*
X62966760Y-108829199D01*
X63052547Y-108660832D01*
X63110940Y-108481118D01*
X63111106Y-108480070D01*
X63140500Y-108294486D01*
X63140500Y-108105513D01*
X63110940Y-107918881D01*
X63052545Y-107739163D01*
X63007290Y-107650347D01*
X62966760Y-107570801D01*
X62855690Y-107417927D01*
X62722073Y-107284310D01*
X62569199Y-107173240D01*
X62400836Y-107087454D01*
X62221118Y-107029059D01*
X62034486Y-106999500D01*
X62034481Y-106999500D01*
X61845519Y-106999500D01*
X61845514Y-106999500D01*
X61658881Y-107029059D01*
X61479163Y-107087454D01*
X61310797Y-107173242D01*
X61162385Y-107281070D01*
X61096579Y-107304550D01*
X61028525Y-107288725D01*
X60979830Y-107238619D01*
X60965500Y-107180752D01*
X60965500Y-100772216D01*
X60985185Y-100705177D01*
X61027501Y-100664828D01*
X61145071Y-100596950D01*
X61318800Y-100463643D01*
X61473643Y-100308800D01*
X61606950Y-100135071D01*
X61716440Y-99945428D01*
X61800241Y-99743117D01*
X61856917Y-99531598D01*
X61885500Y-99314490D01*
X61885500Y-99095510D01*
X61856917Y-98878402D01*
X61800241Y-98666883D01*
X61716440Y-98464572D01*
X61606950Y-98274929D01*
X61473643Y-98101200D01*
X61473638Y-98101194D01*
X61318805Y-97946361D01*
X61318798Y-97946355D01*
X61145079Y-97813056D01*
X61145077Y-97813055D01*
X61145071Y-97813050D01*
X61032499Y-97748056D01*
X60984284Y-97697488D01*
X60970500Y-97640669D01*
X60970500Y-91468613D01*
X60990185Y-91401574D01*
X61021613Y-91368296D01*
X61034646Y-91358828D01*
X61173828Y-91219646D01*
X61289524Y-91060405D01*
X61378884Y-90885025D01*
X61439709Y-90697826D01*
X61470500Y-90503422D01*
X61470500Y-90306577D01*
X61439709Y-90112173D01*
X61378882Y-89924970D01*
X61289523Y-89749594D01*
X61173828Y-89590354D01*
X61034646Y-89451172D01*
X60875405Y-89335476D01*
X60700029Y-89246117D01*
X60512826Y-89185290D01*
X60318422Y-89154500D01*
X60318417Y-89154500D01*
X60121583Y-89154500D01*
X60121578Y-89154500D01*
X59927173Y-89185290D01*
X59739970Y-89246117D01*
X59564594Y-89335476D01*
X59473741Y-89401485D01*
X59405354Y-89451172D01*
X59405352Y-89451174D01*
X59405351Y-89451174D01*
X59266174Y-89590351D01*
X59266174Y-89590352D01*
X59266172Y-89590354D01*
X59216485Y-89658741D01*
X59150476Y-89749594D01*
X59061117Y-89924970D01*
X59000290Y-90112173D01*
X58969500Y-90306577D01*
X58969500Y-90503422D01*
X59000290Y-90697826D01*
X59061117Y-90885029D01*
X59150476Y-91060405D01*
X59266172Y-91219646D01*
X59405354Y-91358828D01*
X59418385Y-91368295D01*
X59461050Y-91423622D01*
X59469500Y-91468613D01*
X59469500Y-97634896D01*
X59449815Y-97701935D01*
X59407500Y-97742283D01*
X59284929Y-97813049D01*
X59111201Y-97946355D01*
X59111194Y-97946361D01*
X58956361Y-98101194D01*
X58956355Y-98101201D01*
X58823049Y-98274929D01*
X58713565Y-98464561D01*
X58713560Y-98464573D01*
X58629758Y-98666884D01*
X58573084Y-98878399D01*
X58573082Y-98878410D01*
X58544500Y-99095502D01*
X58544500Y-99314497D01*
X58568306Y-99495314D01*
X58573083Y-99531598D01*
X58629759Y-99743117D01*
X58713560Y-99945428D01*
X58713562Y-99945433D01*
X58713565Y-99945438D01*
X58823049Y-100135070D01*
X58956355Y-100308798D01*
X58956361Y-100308805D01*
X59111194Y-100463638D01*
X59111201Y-100463644D01*
X59284927Y-100596949D01*
X59402499Y-100664828D01*
X59450715Y-100715395D01*
X59464500Y-100772216D01*
X59464500Y-103441356D01*
X59444815Y-103508395D01*
X59392011Y-103554150D01*
X59322853Y-103564094D01*
X59259297Y-103535069D01*
X59225939Y-103488809D01*
X59215992Y-103464796D01*
X59215990Y-103464792D01*
X59106532Y-103275208D01*
X59106527Y-103275200D01*
X59059560Y-103213991D01*
X58316041Y-103957510D01*
X58291022Y-103897110D01*
X58219888Y-103790649D01*
X58129351Y-103700112D01*
X58022890Y-103628978D01*
X57962487Y-103603957D01*
X58706007Y-102860438D01*
X58706007Y-102860437D01*
X58644790Y-102813466D01*
X58644782Y-102813460D01*
X58455214Y-102704012D01*
X58455198Y-102704004D01*
X58252956Y-102620234D01*
X58041496Y-102563573D01*
X57824467Y-102535001D01*
X57824451Y-102535000D01*
X57605549Y-102535000D01*
X57605532Y-102535001D01*
X57388503Y-102563573D01*
X57177043Y-102620234D01*
X56974801Y-102704004D01*
X56974785Y-102704012D01*
X56785215Y-102813461D01*
X56785200Y-102813471D01*
X56723990Y-102860438D01*
X57467511Y-103603958D01*
X57407110Y-103628978D01*
X57300649Y-103700112D01*
X57210112Y-103790649D01*
X57138978Y-103897110D01*
X57113958Y-103957511D01*
X56370438Y-103213990D01*
X56323471Y-103275200D01*
X56323461Y-103275215D01*
X56214012Y-103464785D01*
X56214004Y-103464801D01*
X56130234Y-103667043D01*
X56073573Y-103878503D01*
X56045001Y-104095532D01*
X56045000Y-104095548D01*
X56045000Y-104314451D01*
X56045001Y-104314467D01*
X56073573Y-104531496D01*
X56130234Y-104742956D01*
X56214004Y-104945198D01*
X56214012Y-104945214D01*
X56323460Y-105134782D01*
X56323466Y-105134790D01*
X56370438Y-105196007D01*
X57113958Y-104452487D01*
X57138978Y-104512890D01*
X57210112Y-104619351D01*
X57300649Y-104709888D01*
X57407110Y-104781022D01*
X57467511Y-104806041D01*
X56723991Y-105549560D01*
X56723991Y-105549561D01*
X56785200Y-105596527D01*
X56785208Y-105596532D01*
X56974792Y-105705990D01*
X56974801Y-105705995D01*
X57177043Y-105789765D01*
X57388503Y-105846426D01*
X57605532Y-105874998D01*
X57605549Y-105875000D01*
X57824451Y-105875000D01*
X57824467Y-105874998D01*
X58041496Y-105846426D01*
X58252956Y-105789765D01*
X58455198Y-105705995D01*
X58455214Y-105705987D01*
X58644785Y-105596537D01*
X58644793Y-105596531D01*
X58706007Y-105549560D01*
X57962488Y-104806041D01*
X58022890Y-104781022D01*
X58129351Y-104709888D01*
X58219888Y-104619351D01*
X58291022Y-104512890D01*
X58316041Y-104452488D01*
X59059560Y-105196007D01*
X59106531Y-105134793D01*
X59106537Y-105134785D01*
X59215987Y-104945214D01*
X59215991Y-104945206D01*
X59225938Y-104921192D01*
X59269779Y-104866788D01*
X59336072Y-104844722D01*
X59403772Y-104862000D01*
X59451383Y-104913137D01*
X59464500Y-104968643D01*
X59464500Y-109468918D01*
X59464500Y-109468920D01*
X59464499Y-109468920D01*
X59493340Y-109613907D01*
X59493343Y-109613917D01*
X59549914Y-109750492D01*
X59582812Y-109799727D01*
X59582813Y-109799730D01*
X59632046Y-109873414D01*
X59632052Y-109873421D01*
X61093181Y-111334548D01*
X61126666Y-111395871D01*
X61129500Y-111422229D01*
X61129500Y-112674582D01*
X61109815Y-112741621D01*
X61078385Y-112774900D01*
X61032787Y-112808028D01*
X61032782Y-112808032D01*
X60888028Y-112952786D01*
X60767715Y-113118386D01*
X60720485Y-113211080D01*
X60672510Y-113261876D01*
X60604689Y-113278671D01*
X60538554Y-113256134D01*
X60499515Y-113211080D01*
X60493614Y-113199499D01*
X60452287Y-113118390D01*
X60428106Y-113085107D01*
X60331971Y-112952786D01*
X60187213Y-112808028D01*
X60021613Y-112687715D01*
X60021612Y-112687714D01*
X60021610Y-112687713D01*
X59938804Y-112645521D01*
X59839223Y-112594781D01*
X59644534Y-112531522D01*
X59469995Y-112503878D01*
X59442352Y-112499500D01*
X59237648Y-112499500D01*
X59213329Y-112503351D01*
X59035465Y-112531522D01*
X58840776Y-112594781D01*
X58658386Y-112687715D01*
X58492786Y-112808028D01*
X58348028Y-112952786D01*
X58227715Y-113118386D01*
X58180485Y-113211080D01*
X58132510Y-113261876D01*
X58064689Y-113278671D01*
X57998554Y-113256134D01*
X57959515Y-113211080D01*
X57953614Y-113199499D01*
X57912287Y-113118390D01*
X57888106Y-113085107D01*
X57791971Y-112952786D01*
X57647213Y-112808028D01*
X57481613Y-112687715D01*
X57481612Y-112687714D01*
X57481610Y-112687713D01*
X57398804Y-112645521D01*
X57299223Y-112594781D01*
X57104534Y-112531522D01*
X56929995Y-112503878D01*
X56902352Y-112499500D01*
X56697648Y-112499500D01*
X56673329Y-112503351D01*
X56495465Y-112531522D01*
X56300776Y-112594781D01*
X56118386Y-112687715D01*
X55952786Y-112808028D01*
X55808028Y-112952786D01*
X55687715Y-113118386D01*
X55640485Y-113211080D01*
X55592510Y-113261876D01*
X55524689Y-113278671D01*
X55458554Y-113256134D01*
X55419515Y-113211080D01*
X55413614Y-113199499D01*
X55372287Y-113118390D01*
X55348106Y-113085107D01*
X55251971Y-112952786D01*
X55107213Y-112808028D01*
X54941613Y-112687715D01*
X54941612Y-112687714D01*
X54941610Y-112687713D01*
X54858804Y-112645521D01*
X54759223Y-112594781D01*
X54564534Y-112531522D01*
X54389995Y-112503878D01*
X54362352Y-112499500D01*
X54157648Y-112499500D01*
X54133329Y-112503351D01*
X53955465Y-112531522D01*
X53760776Y-112594781D01*
X53578386Y-112687715D01*
X53412786Y-112808028D01*
X53268028Y-112952786D01*
X53147715Y-113118386D01*
X53100485Y-113211080D01*
X53052510Y-113261876D01*
X52984689Y-113278671D01*
X52918554Y-113256134D01*
X52879515Y-113211080D01*
X52873614Y-113199499D01*
X52832287Y-113118390D01*
X52808106Y-113085107D01*
X52711971Y-112952786D01*
X52567213Y-112808028D01*
X52401613Y-112687715D01*
X52401612Y-112687714D01*
X52401610Y-112687713D01*
X52318804Y-112645521D01*
X52219223Y-112594781D01*
X52024534Y-112531522D01*
X51849995Y-112503878D01*
X51822352Y-112499500D01*
X51617648Y-112499500D01*
X51593329Y-112503351D01*
X51415465Y-112531522D01*
X51220776Y-112594781D01*
X51038386Y-112687715D01*
X50872786Y-112808028D01*
X50728028Y-112952786D01*
X50607715Y-113118386D01*
X50514781Y-113300776D01*
X50451522Y-113495465D01*
X50419500Y-113697648D01*
X50419500Y-113902351D01*
X50451522Y-114104534D01*
X50514781Y-114299223D01*
X50576415Y-114420185D01*
X50607585Y-114481359D01*
X50607715Y-114481613D01*
X50728028Y-114647213D01*
X50872786Y-114791971D01*
X50993226Y-114879474D01*
X51038390Y-114912287D01*
X51154607Y-114971503D01*
X51220776Y-115005218D01*
X51220778Y-115005218D01*
X51220781Y-115005220D01*
X51311856Y-115034812D01*
X51415465Y-115068477D01*
X51499564Y-115081797D01*
X51617648Y-115100500D01*
X51617649Y-115100500D01*
X51822351Y-115100500D01*
X51822352Y-115100500D01*
X52024534Y-115068477D01*
X52219219Y-115005220D01*
X52401610Y-114912287D01*
X52530482Y-114818657D01*
X52567213Y-114791971D01*
X52567215Y-114791968D01*
X52567219Y-114791966D01*
X52711966Y-114647219D01*
X52711968Y-114647215D01*
X52711971Y-114647213D01*
X52832284Y-114481614D01*
X52832286Y-114481611D01*
X52832287Y-114481610D01*
X52879516Y-114388917D01*
X52927489Y-114338123D01*
X52995310Y-114321328D01*
X53061445Y-114343865D01*
X53100483Y-114388917D01*
X53124891Y-114436819D01*
X53147715Y-114481614D01*
X53268028Y-114647213D01*
X53412786Y-114791971D01*
X53533226Y-114879474D01*
X53578390Y-114912287D01*
X53694607Y-114971503D01*
X53760776Y-115005218D01*
X53760778Y-115005218D01*
X53760781Y-115005220D01*
X53851856Y-115034812D01*
X53955465Y-115068477D01*
X54039564Y-115081797D01*
X54157648Y-115100500D01*
X54157649Y-115100500D01*
X54362351Y-115100500D01*
X54362352Y-115100500D01*
X54564534Y-115068477D01*
X54759219Y-115005220D01*
X54941610Y-114912287D01*
X55070482Y-114818657D01*
X55107213Y-114791971D01*
X55107215Y-114791968D01*
X55107219Y-114791966D01*
X55251966Y-114647219D01*
X55251968Y-114647215D01*
X55251971Y-114647213D01*
X55372284Y-114481614D01*
X55372286Y-114481611D01*
X55372287Y-114481610D01*
X55419516Y-114388917D01*
X55467489Y-114338123D01*
X55535310Y-114321328D01*
X55601445Y-114343865D01*
X55640483Y-114388917D01*
X55664891Y-114436819D01*
X55687715Y-114481614D01*
X55808028Y-114647213D01*
X55952786Y-114791971D01*
X56073226Y-114879474D01*
X56118390Y-114912287D01*
X56234607Y-114971503D01*
X56300776Y-115005218D01*
X56300778Y-115005218D01*
X56300781Y-115005220D01*
X56391856Y-115034812D01*
X56495465Y-115068477D01*
X56579564Y-115081797D01*
X56697648Y-115100500D01*
X56697649Y-115100500D01*
X56902351Y-115100500D01*
X56902352Y-115100500D01*
X57104534Y-115068477D01*
X57299219Y-115005220D01*
X57481610Y-114912287D01*
X57610482Y-114818657D01*
X57647213Y-114791971D01*
X57647215Y-114791968D01*
X57647219Y-114791966D01*
X57791966Y-114647219D01*
X57791968Y-114647215D01*
X57791971Y-114647213D01*
X57912284Y-114481614D01*
X57912286Y-114481611D01*
X57912287Y-114481610D01*
X57959516Y-114388917D01*
X58007489Y-114338123D01*
X58075310Y-114321328D01*
X58141445Y-114343865D01*
X58180483Y-114388917D01*
X58204891Y-114436819D01*
X58227715Y-114481614D01*
X58348028Y-114647213D01*
X58492786Y-114791971D01*
X58613226Y-114879474D01*
X58658390Y-114912287D01*
X58774607Y-114971503D01*
X58840776Y-115005218D01*
X58840778Y-115005218D01*
X58840781Y-115005220D01*
X58931856Y-115034812D01*
X59035465Y-115068477D01*
X59119564Y-115081797D01*
X59237648Y-115100500D01*
X59237649Y-115100500D01*
X59442351Y-115100500D01*
X59442352Y-115100500D01*
X59644534Y-115068477D01*
X59839219Y-115005220D01*
X60021610Y-114912287D01*
X60150482Y-114818657D01*
X60187213Y-114791971D01*
X60187215Y-114791968D01*
X60187219Y-114791966D01*
X60331966Y-114647219D01*
X60331968Y-114647215D01*
X60331971Y-114647213D01*
X60452284Y-114481614D01*
X60452286Y-114481611D01*
X60452287Y-114481610D01*
X60499516Y-114388917D01*
X60547489Y-114338123D01*
X60615310Y-114321328D01*
X60681445Y-114343865D01*
X60720483Y-114388917D01*
X60744891Y-114436819D01*
X60767715Y-114481614D01*
X60888028Y-114647213D01*
X61032786Y-114791971D01*
X61153226Y-114879474D01*
X61198390Y-114912287D01*
X61314607Y-114971503D01*
X61380776Y-115005218D01*
X61380778Y-115005218D01*
X61380781Y-115005220D01*
X61471856Y-115034812D01*
X61575465Y-115068477D01*
X61659564Y-115081797D01*
X61777648Y-115100500D01*
X61777649Y-115100500D01*
X61982351Y-115100500D01*
X61982352Y-115100500D01*
X62184534Y-115068477D01*
X62379219Y-115005220D01*
X62561610Y-114912287D01*
X62690482Y-114818657D01*
X62727213Y-114791971D01*
X62727215Y-114791968D01*
X62727219Y-114791966D01*
X62871966Y-114647219D01*
X62871968Y-114647215D01*
X62871971Y-114647213D01*
X62971444Y-114510298D01*
X62992287Y-114481610D01*
X63039795Y-114388369D01*
X63087769Y-114337573D01*
X63155590Y-114320778D01*
X63221725Y-114343315D01*
X63260765Y-114388369D01*
X63308141Y-114481350D01*
X63308147Y-114481359D01*
X63340523Y-114525921D01*
X63340524Y-114525922D01*
X64020000Y-113846446D01*
X64020000Y-113852661D01*
X64047259Y-113954394D01*
X64099920Y-114045606D01*
X64174394Y-114120080D01*
X64265606Y-114172741D01*
X64367339Y-114200000D01*
X64373553Y-114200000D01*
X63694076Y-114879474D01*
X63738650Y-114911859D01*
X63920968Y-115004755D01*
X64115582Y-115067990D01*
X64319850Y-115100343D01*
X64382985Y-115130272D01*
X64419916Y-115189584D01*
X64418918Y-115259446D01*
X64388133Y-115310497D01*
X61785451Y-117913181D01*
X61724128Y-117946666D01*
X61697770Y-117949500D01*
X51366080Y-117949500D01*
X51221092Y-117978340D01*
X51221086Y-117978342D01*
X51084508Y-118034914D01*
X51084496Y-118034921D01*
X51035269Y-118067813D01*
X50961588Y-118117044D01*
X50961580Y-118117050D01*
X48937052Y-120141578D01*
X48937046Y-120141585D01*
X48888140Y-120214779D01*
X48888141Y-120214780D01*
X48854913Y-120264508D01*
X48798343Y-120401082D01*
X48798340Y-120401092D01*
X48769500Y-120546079D01*
X48769500Y-122830501D01*
X48749815Y-122897540D01*
X48697011Y-122943295D01*
X48645500Y-122954501D01*
X47972129Y-122954501D01*
X47972123Y-122954502D01*
X47912516Y-122960909D01*
X47777671Y-123011203D01*
X47777664Y-123011207D01*
X47662455Y-123097453D01*
X47662452Y-123097456D01*
X47576206Y-123212665D01*
X47576202Y-123212672D01*
X47525908Y-123347518D01*
X47519501Y-123407117D01*
X47519500Y-123407136D01*
X38353879Y-123407136D01*
X33740261Y-109207882D01*
X49105669Y-109207882D01*
X49105670Y-109207883D01*
X49131059Y-109226329D01*
X49299362Y-109312085D01*
X49478997Y-109370451D01*
X49665553Y-109400000D01*
X49854447Y-109400000D01*
X50041002Y-109370451D01*
X50220637Y-109312085D01*
X50388937Y-109226331D01*
X50414328Y-109207883D01*
X50414328Y-109207882D01*
X49760001Y-108553554D01*
X49760000Y-108553554D01*
X49105669Y-109207882D01*
X33740261Y-109207882D01*
X33476128Y-108394963D01*
X33476128Y-108394955D01*
X33457094Y-108336383D01*
X33454716Y-108328086D01*
X33407242Y-108137703D01*
X33404244Y-108120701D01*
X33402651Y-108105552D01*
X48560000Y-108105552D01*
X48560000Y-108294447D01*
X48589548Y-108481002D01*
X48647914Y-108660637D01*
X48733666Y-108828933D01*
X48752116Y-108854328D01*
X49406446Y-108200000D01*
X49406446Y-108199999D01*
X49360369Y-108153922D01*
X49410000Y-108153922D01*
X49410000Y-108246078D01*
X49433852Y-108335095D01*
X49479930Y-108414905D01*
X49545095Y-108480070D01*
X49624905Y-108526148D01*
X49713922Y-108550000D01*
X49806078Y-108550000D01*
X49895095Y-108526148D01*
X49974905Y-108480070D01*
X50040070Y-108414905D01*
X50086148Y-108335095D01*
X50110000Y-108246078D01*
X50110000Y-108199999D01*
X50113554Y-108199999D01*
X50113554Y-108200000D01*
X50767882Y-108854328D01*
X50767883Y-108854328D01*
X50786331Y-108828937D01*
X50872085Y-108660637D01*
X50930451Y-108481002D01*
X50960000Y-108294447D01*
X50960000Y-108105552D01*
X50959994Y-108105513D01*
X53639500Y-108105513D01*
X53639500Y-108294486D01*
X53669059Y-108481118D01*
X53727454Y-108660836D01*
X53797747Y-108798793D01*
X53813240Y-108829199D01*
X53924310Y-108982073D01*
X54057927Y-109115690D01*
X54210801Y-109226760D01*
X54290347Y-109267290D01*
X54379163Y-109312545D01*
X54379165Y-109312545D01*
X54379168Y-109312547D01*
X54447837Y-109334859D01*
X54558881Y-109370940D01*
X54745514Y-109400500D01*
X54745519Y-109400500D01*
X54934486Y-109400500D01*
X55121118Y-109370940D01*
X55122623Y-109370451D01*
X55300832Y-109312547D01*
X55469199Y-109226760D01*
X55622073Y-109115690D01*
X55755690Y-108982073D01*
X55755692Y-108982068D01*
X55755710Y-108982050D01*
X55755718Y-108982044D01*
X55759135Y-108978628D01*
X55759852Y-108979345D01*
X55814216Y-108943856D01*
X55884084Y-108943357D01*
X55940467Y-108979025D01*
X55940865Y-108978628D01*
X55942632Y-108980395D01*
X55943131Y-108980711D01*
X55944290Y-108982050D01*
X55944307Y-108982070D01*
X55944310Y-108982073D01*
X56077927Y-109115690D01*
X56230801Y-109226760D01*
X56310347Y-109267290D01*
X56399163Y-109312545D01*
X56399165Y-109312545D01*
X56399168Y-109312547D01*
X56467837Y-109334859D01*
X56578881Y-109370940D01*
X56765514Y-109400500D01*
X56765519Y-109400500D01*
X56954486Y-109400500D01*
X57141118Y-109370940D01*
X57142623Y-109370451D01*
X57320832Y-109312547D01*
X57489199Y-109226760D01*
X57642073Y-109115690D01*
X57775690Y-108982073D01*
X57886760Y-108829199D01*
X57972547Y-108660832D01*
X58030940Y-108481118D01*
X58031106Y-108480070D01*
X58060500Y-108294486D01*
X58060500Y-108105513D01*
X58030940Y-107918881D01*
X57972545Y-107739163D01*
X57927290Y-107650347D01*
X57886760Y-107570801D01*
X57775690Y-107417927D01*
X57642073Y-107284310D01*
X57489199Y-107173240D01*
X57320836Y-107087454D01*
X57141118Y-107029059D01*
X56954486Y-106999500D01*
X56954481Y-106999500D01*
X56765519Y-106999500D01*
X56765514Y-106999500D01*
X56578881Y-107029059D01*
X56399163Y-107087454D01*
X56230800Y-107173240D01*
X56143579Y-107236610D01*
X56077927Y-107284310D01*
X56077925Y-107284312D01*
X56077924Y-107284312D01*
X55944309Y-107417927D01*
X55944280Y-107417962D01*
X55944265Y-107417971D01*
X55940865Y-107421372D01*
X55940150Y-107420657D01*
X55885768Y-107456147D01*
X55815900Y-107456637D01*
X55759536Y-107420970D01*
X55759135Y-107421372D01*
X55757349Y-107419586D01*
X55756859Y-107419276D01*
X55755720Y-107417962D01*
X55755690Y-107417927D01*
X55622075Y-107284312D01*
X55622073Y-107284310D01*
X55469199Y-107173240D01*
X55300836Y-107087454D01*
X55121118Y-107029059D01*
X54934486Y-106999500D01*
X54934481Y-106999500D01*
X54745519Y-106999500D01*
X54745514Y-106999500D01*
X54558881Y-107029059D01*
X54379163Y-107087454D01*
X54210800Y-107173240D01*
X54123579Y-107236610D01*
X54057927Y-107284310D01*
X54057925Y-107284312D01*
X54057924Y-107284312D01*
X53924312Y-107417924D01*
X53924312Y-107417925D01*
X53924310Y-107417927D01*
X53876610Y-107483579D01*
X53813240Y-107570800D01*
X53727454Y-107739163D01*
X53669059Y-107918881D01*
X53639500Y-108105513D01*
X50959994Y-108105513D01*
X50930451Y-107918997D01*
X50872085Y-107739362D01*
X50786329Y-107571059D01*
X50767883Y-107545670D01*
X50767882Y-107545669D01*
X50113554Y-108199999D01*
X50110000Y-108199999D01*
X50110000Y-108153922D01*
X50086148Y-108064905D01*
X50040070Y-107985095D01*
X49974905Y-107919930D01*
X49895095Y-107873852D01*
X49806078Y-107850000D01*
X49713922Y-107850000D01*
X49624905Y-107873852D01*
X49545095Y-107919930D01*
X49479930Y-107985095D01*
X49433852Y-108064905D01*
X49410000Y-108153922D01*
X49360369Y-108153922D01*
X48752116Y-107545669D01*
X48752116Y-107545670D01*
X48733669Y-107571060D01*
X48647914Y-107739362D01*
X48589548Y-107918997D01*
X48560000Y-108105552D01*
X33402651Y-108105552D01*
X33384183Y-107929880D01*
X33383579Y-107912594D01*
X33390273Y-107720834D01*
X33392079Y-107703647D01*
X33425395Y-107514700D01*
X33429580Y-107497917D01*
X33454582Y-107420970D01*
X33488868Y-107315446D01*
X33495348Y-107299411D01*
X33504433Y-107280783D01*
X33547679Y-107192116D01*
X49105669Y-107192116D01*
X49760000Y-107846446D01*
X49760001Y-107846446D01*
X50414328Y-107192116D01*
X50388933Y-107173666D01*
X50220637Y-107087914D01*
X50041002Y-107029548D01*
X49854447Y-107000000D01*
X49665553Y-107000000D01*
X49478997Y-107029548D01*
X49299362Y-107087914D01*
X49131060Y-107173669D01*
X49105670Y-107192116D01*
X49105669Y-107192116D01*
X33547679Y-107192116D01*
X33579455Y-107126966D01*
X33588096Y-107112000D01*
X33695398Y-106952923D01*
X33706033Y-106939311D01*
X33834428Y-106796722D01*
X33846863Y-106784715D01*
X33897756Y-106742011D01*
X33997183Y-106658588D01*
X34003950Y-106653300D01*
X34053791Y-106617092D01*
X34053797Y-106617083D01*
X37196366Y-104333873D01*
X47519500Y-104333873D01*
X47519500Y-104596128D01*
X47543843Y-104781022D01*
X47553730Y-104856117D01*
X47621602Y-105109419D01*
X47621605Y-105109429D01*
X47721953Y-105351691D01*
X47721958Y-105351701D01*
X47853075Y-105578804D01*
X48012718Y-105786852D01*
X48012726Y-105786861D01*
X48198140Y-105972275D01*
X48198148Y-105972282D01*
X48406196Y-106131925D01*
X48633299Y-106263042D01*
X48633309Y-106263047D01*
X48875571Y-106363395D01*
X48875581Y-106363399D01*
X49128884Y-106431271D01*
X49388880Y-106465501D01*
X49388887Y-106465501D01*
X49651113Y-106465501D01*
X49651120Y-106465501D01*
X49911116Y-106431271D01*
X50164419Y-106363399D01*
X50406697Y-106263044D01*
X50633803Y-106131925D01*
X50841851Y-105972283D01*
X50841855Y-105972278D01*
X50841860Y-105972275D01*
X51027274Y-105786861D01*
X51027277Y-105786856D01*
X51027282Y-105786852D01*
X51186924Y-105578804D01*
X51203808Y-105549560D01*
X51267289Y-105439608D01*
X51284399Y-105409971D01*
X51318043Y-105351698D01*
X51336510Y-105307116D01*
X51407891Y-105134785D01*
X51418398Y-105109420D01*
X51486270Y-104856117D01*
X51520500Y-104596121D01*
X51520500Y-104333881D01*
X51486270Y-104073885D01*
X51418398Y-103820582D01*
X51418394Y-103820572D01*
X51318046Y-103578310D01*
X51318041Y-103578300D01*
X51186924Y-103351197D01*
X51027281Y-103143149D01*
X51027274Y-103143141D01*
X50841860Y-102957727D01*
X50841851Y-102957719D01*
X50633803Y-102798076D01*
X50406700Y-102666959D01*
X50406690Y-102666954D01*
X50164428Y-102566606D01*
X50164421Y-102566604D01*
X50164419Y-102566603D01*
X49911116Y-102498731D01*
X49853339Y-102491124D01*
X49651127Y-102464501D01*
X49651120Y-102464501D01*
X49388880Y-102464501D01*
X49388872Y-102464501D01*
X49157772Y-102494927D01*
X49128884Y-102498731D01*
X48993526Y-102535000D01*
X48875581Y-102566603D01*
X48875571Y-102566606D01*
X48633309Y-102666954D01*
X48633299Y-102666959D01*
X48406196Y-102798076D01*
X48198148Y-102957719D01*
X48012718Y-103143149D01*
X47853075Y-103351197D01*
X47721958Y-103578300D01*
X47721953Y-103578310D01*
X47621605Y-103820572D01*
X47621602Y-103820582D01*
X47569401Y-104015402D01*
X47553730Y-104073886D01*
X47519500Y-104333873D01*
X37196366Y-104333873D01*
X44406366Y-99095502D01*
X53544500Y-99095502D01*
X53544500Y-99314497D01*
X53568306Y-99495314D01*
X53573083Y-99531598D01*
X53629759Y-99743117D01*
X53713560Y-99945428D01*
X53713562Y-99945433D01*
X53713565Y-99945438D01*
X53823049Y-100135070D01*
X53956355Y-100308798D01*
X53956361Y-100308805D01*
X54111194Y-100463638D01*
X54111201Y-100463644D01*
X54284929Y-100596950D01*
X54474561Y-100706434D01*
X54474563Y-100706434D01*
X54474572Y-100706440D01*
X54676883Y-100790241D01*
X54888402Y-100846917D01*
X55105510Y-100875500D01*
X55105517Y-100875500D01*
X55324483Y-100875500D01*
X55324490Y-100875500D01*
X55541598Y-100846917D01*
X55753117Y-100790241D01*
X55955428Y-100706440D01*
X56145071Y-100596950D01*
X56318800Y-100463643D01*
X56473643Y-100308800D01*
X56606950Y-100135071D01*
X56716440Y-99945428D01*
X56800241Y-99743117D01*
X56856917Y-99531598D01*
X56885500Y-99314490D01*
X56885500Y-99095510D01*
X56856917Y-98878402D01*
X56800241Y-98666883D01*
X56716440Y-98464572D01*
X56606950Y-98274929D01*
X56473643Y-98101200D01*
X56473638Y-98101194D01*
X56318805Y-97946361D01*
X56318798Y-97946355D01*
X56145070Y-97813049D01*
X55955438Y-97703565D01*
X55955433Y-97703562D01*
X55955428Y-97703560D01*
X55753117Y-97619759D01*
X55753118Y-97619759D01*
X55753115Y-97619758D01*
X55647357Y-97591421D01*
X55541598Y-97563083D01*
X55505314Y-97558306D01*
X55324497Y-97534500D01*
X55324490Y-97534500D01*
X55105510Y-97534500D01*
X55105502Y-97534500D01*
X54898853Y-97561707D01*
X54888402Y-97563083D01*
X54843699Y-97575060D01*
X54676884Y-97619758D01*
X54626402Y-97640669D01*
X54474572Y-97703560D01*
X54474569Y-97703561D01*
X54474561Y-97703565D01*
X54284929Y-97813049D01*
X54111201Y-97946355D01*
X54111194Y-97946361D01*
X53956361Y-98101194D01*
X53956355Y-98101201D01*
X53823049Y-98274929D01*
X53713565Y-98464561D01*
X53713560Y-98464573D01*
X53629758Y-98666884D01*
X53573084Y-98878399D01*
X53573082Y-98878410D01*
X53544500Y-99095502D01*
X44406366Y-99095502D01*
X60985305Y-87050198D01*
X60985308Y-87050197D01*
X61035140Y-87013990D01*
X61042257Y-87009190D01*
X61208681Y-86905196D01*
X61223937Y-86897084D01*
X61399228Y-86819040D01*
X61415460Y-86813132D01*
X61599913Y-86760241D01*
X61616821Y-86756648D01*
X61806812Y-86729947D01*
X61824069Y-86728740D01*
X62015931Y-86728740D01*
X62033188Y-86729947D01*
G37*
%TD.AperFunction*%
%TD*%
M02*
