M48
; DRILL file KiCad 10.0.1 date 2026-07-07T22:52:58
; FORMAT={-:-/ absolute / metric / decimal}
; #@! TF.CreationDate,2026-07-07T22:52:58-04:00
; #@! TF.GenerationSoftware,Kicad,Pcbnew,10.0.1
; #@! TF.FileFunction,Plated,1,2,PTH
FMAT,2
METRIC
; #@! TA.AperFunction,Plated,PTH,ComponentDrill
T1C0.700
; #@! TA.AperFunction,Plated,PTH,ComponentDrill
T2C0.800
; #@! TA.AperFunction,Plated,PTH,ComponentDrill
T3C0.914
; #@! TA.AperFunction,Plated,PTH,ComponentDrill
T4C1.300
; #@! TA.AperFunction,Plated,PTH,ComponentDrill
T5C1.500
%
G90
G05
T1
X49.76Y-108.2
X54.84Y-108.2
X56.86Y-108.2
X61.94Y-108.2
T2
X51.72Y-113.8
X51.72Y-121.42
X54.26Y-113.8
X54.26Y-121.42
X56.8Y-113.8
X56.8Y-121.42
X59.34Y-113.8
X59.34Y-121.42
X60.22Y-90.405
X61.88Y-113.8
X61.88Y-121.42
X63.62Y-90.405
X64.42Y-113.8
X64.42Y-121.42
X66.96Y-113.8
X66.96Y-121.42
X69.5Y-113.8
X69.5Y-121.42
X72.04Y-113.8
X72.04Y-121.42
T3
X50.383Y-131.102
X50.383Y-138.722
X52.922Y-131.102
X52.922Y-138.722
X55.462Y-131.102
X55.462Y-138.722
X58.002Y-131.102
X58.002Y-138.722
X60.542Y-131.102
X60.542Y-138.722
X63.082Y-131.102
X63.082Y-138.722
X65.623Y-131.102
X65.623Y-138.722
X68.162Y-131.102
X68.162Y-138.722
X70.703Y-131.102
X70.703Y-138.722
X73.242Y-131.102
X73.242Y-138.722
T4
X55.215Y-99.205
X57.715Y-104.205
X60.215Y-99.205
T5
X49.52Y-104.465
X49.52Y-124.955
X73.92Y-106.855
X73.92Y-127.345
M30
