%TF.GenerationSoftware,KiCad,Pcbnew,10.0.1*%
%TF.CreationDate,2026-07-07T22:52:56-04:00*%
%TF.ProjectId,outpost-kits,6f757470-6f73-4742-9d6b-6974732e6b69,rev?*%
%TF.SameCoordinates,Original*%
%TF.FileFunction,Soldermask,Top*%
%TF.FilePolarity,Negative*%
%FSLAX46Y46*%
G04 Gerber Fmt 4.6, Leading zero omitted, Abs format (unit mm)*
G04 Created by KiCad (PCBNEW 10.0.1) date 2026-07-07 22:52:56*
%MOMM*%
%LPD*%
G01*
G04 APERTURE LIST*
G04 Aperture macros list*
%AMRoundRect*
0 Rectangle with rounded corners*
0 $1 Rounding radius*
0 $2 $3 $4 $5 $6 $7 $8 $9 X,Y pos of 4 corners*
0 Add a 4 corners polygon primitive as box body*
4,1,4,$2,$3,$4,$5,$6,$7,$8,$9,$2,$3,0*
0 Add four circle primitives for the rounded corners*
1,1,$1+$1,$2,$3*
1,1,$1+$1,$4,$5*
1,1,$1+$1,$6,$7*
1,1,$1+$1,$8,$9*
0 Add four rect primitives between the rounded corners*
20,1,$1+$1,$2,$3,$4,$5,0*
20,1,$1+$1,$4,$5,$6,$7,0*
20,1,$1+$1,$6,$7,$8,$9,0*
20,1,$1+$1,$8,$9,$2,$3,0*%
G04 Aperture macros list end*
%ADD10C,2.032000*%
%ADD11R,2.032000X2.032000*%
%ADD12R,3.000000X3.000000*%
%ADD13C,3.000000*%
%ADD14C,1.500000*%
%ADD15C,2.340000*%
%ADD16RoundRect,0.250000X-0.550000X0.550000X-0.550000X-0.550000X0.550000X-0.550000X0.550000X0.550000X0*%
%ADD17C,1.600000*%
%ADD18C,1.400000*%
G04 APERTURE END LIST*
D10*
%TO.C,BAR1*%
X73242500Y-138722500D03*
X70702500Y-138722500D03*
X68162500Y-138722500D03*
X65622500Y-138722500D03*
X63082500Y-138722500D03*
X60542500Y-138722500D03*
X58002500Y-138722500D03*
X55462500Y-138722500D03*
X52922500Y-138722500D03*
X50382500Y-138722500D03*
X50382500Y-131102500D03*
X52922500Y-131102500D03*
X55462500Y-131102500D03*
X58002500Y-131102500D03*
X60542500Y-131102500D03*
X63082500Y-131102500D03*
X65622500Y-131102500D03*
X68162500Y-131102500D03*
X70702500Y-131102500D03*
D11*
X73242500Y-131102500D03*
%TD*%
D12*
%TO.C,BT4*%
X49520000Y-124955001D03*
D13*
X49520000Y-104465001D03*
%TD*%
D14*
%TO.C,R3*%
X63620000Y-90405000D03*
X60220000Y-90405000D03*
%TD*%
D15*
%TO.C,RV1*%
X60215000Y-99205000D03*
X57715000Y-104205000D03*
X55215000Y-99205000D03*
%TD*%
D16*
%TO.C,U4*%
X72040000Y-113800000D03*
D17*
X69500000Y-113800000D03*
X66960000Y-113800000D03*
X64420000Y-113800000D03*
X61880000Y-113800000D03*
X59340000Y-113800000D03*
X56800000Y-113800000D03*
X54260000Y-113800000D03*
X51720000Y-113800000D03*
X51720000Y-121420000D03*
X54260000Y-121420000D03*
X56800000Y-121420000D03*
X59340000Y-121420000D03*
X61880000Y-121420000D03*
X64420000Y-121420000D03*
X66960000Y-121420000D03*
X69500000Y-121420000D03*
X72040000Y-121420000D03*
%TD*%
D12*
%TO.C,BT1*%
X73919999Y-106855000D03*
D13*
X73919999Y-127345000D03*
%TD*%
D18*
%TO.C,R5*%
X49760000Y-108200000D03*
X54840000Y-108200000D03*
%TD*%
%TO.C,R4*%
X56860000Y-108200000D03*
X61940000Y-108200000D03*
%TD*%
M02*
