%TF.GenerationSoftware,KiCad,Pcbnew,10.0.1*%
%TF.CreationDate,2026-07-07T22:52:56-04:00*%
%TF.ProjectId,outpost-kits,6f757470-6f73-4742-9d6b-6974732e6b69,rev?*%
%TF.SameCoordinates,Original*%
%TF.FileFunction,Legend,Bot*%
%TF.FilePolarity,Positive*%
%FSLAX46Y46*%
G04 Gerber Fmt 4.6, Leading zero omitted, Abs format (unit mm)*
G04 Created by KiCad (PCBNEW 10.0.1) date 2026-07-07 22:52:56*
%MOMM*%
%LPD*%
G01*
G04 APERTURE LIST*
%ADD10C,0.150000*%
%ADD11C,0.120000*%
%ADD12C,0.000000*%
G04 APERTURE END LIST*
D10*
X53751009Y-124169286D02*
X53798628Y-124312143D01*
X53798628Y-124312143D02*
X53846247Y-124359762D01*
X53846247Y-124359762D02*
X53941485Y-124407381D01*
X53941485Y-124407381D02*
X54084342Y-124407381D01*
X54084342Y-124407381D02*
X54179580Y-124359762D01*
X54179580Y-124359762D02*
X54227200Y-124312143D01*
X54227200Y-124312143D02*
X54274819Y-124216905D01*
X54274819Y-124216905D02*
X54274819Y-123835953D01*
X54274819Y-123835953D02*
X53274819Y-123835953D01*
X53274819Y-123835953D02*
X53274819Y-124169286D01*
X53274819Y-124169286D02*
X53322438Y-124264524D01*
X53322438Y-124264524D02*
X53370057Y-124312143D01*
X53370057Y-124312143D02*
X53465295Y-124359762D01*
X53465295Y-124359762D02*
X53560533Y-124359762D01*
X53560533Y-124359762D02*
X53655771Y-124312143D01*
X53655771Y-124312143D02*
X53703390Y-124264524D01*
X53703390Y-124264524D02*
X53751009Y-124169286D01*
X53751009Y-124169286D02*
X53751009Y-123835953D01*
X53274819Y-124693096D02*
X53274819Y-125264524D01*
X54274819Y-124978810D02*
X53274819Y-124978810D01*
X53608152Y-126026429D02*
X54274819Y-126026429D01*
X53227200Y-125788334D02*
X53941485Y-125550239D01*
X53941485Y-125550239D02*
X53941485Y-126169286D01*
X49634700Y-121633572D02*
X49634700Y-122776430D01*
X50206128Y-122205001D02*
X49063271Y-122205001D01*
X69551008Y-106069285D02*
X69598627Y-106212142D01*
X69598627Y-106212142D02*
X69646246Y-106259761D01*
X69646246Y-106259761D02*
X69741484Y-106307380D01*
X69741484Y-106307380D02*
X69884341Y-106307380D01*
X69884341Y-106307380D02*
X69979579Y-106259761D01*
X69979579Y-106259761D02*
X70027199Y-106212142D01*
X70027199Y-106212142D02*
X70074818Y-106116904D01*
X70074818Y-106116904D02*
X70074818Y-105735952D01*
X70074818Y-105735952D02*
X69074818Y-105735952D01*
X69074818Y-105735952D02*
X69074818Y-106069285D01*
X69074818Y-106069285D02*
X69122437Y-106164523D01*
X69122437Y-106164523D02*
X69170056Y-106212142D01*
X69170056Y-106212142D02*
X69265294Y-106259761D01*
X69265294Y-106259761D02*
X69360532Y-106259761D01*
X69360532Y-106259761D02*
X69455770Y-106212142D01*
X69455770Y-106212142D02*
X69503389Y-106164523D01*
X69503389Y-106164523D02*
X69551008Y-106069285D01*
X69551008Y-106069285D02*
X69551008Y-105735952D01*
X69074818Y-106593095D02*
X69074818Y-107164523D01*
X70074818Y-106878809D02*
X69074818Y-106878809D01*
X70074818Y-108021666D02*
X70074818Y-107450238D01*
X70074818Y-107735952D02*
X69074818Y-107735952D01*
X69074818Y-107735952D02*
X69217675Y-107640714D01*
X69217675Y-107640714D02*
X69312913Y-107545476D01*
X69312913Y-107545476D02*
X69360532Y-107450238D01*
X74034699Y-109033571D02*
X74034699Y-110176429D01*
X74606127Y-109605000D02*
X73463270Y-109605000D01*
%TO.C,BT4*%
D11*
X52520000Y-127155001D02*
X52520000Y-121455001D01*
X46520000Y-127155001D02*
X52520000Y-127155001D01*
X46520000Y-127155001D02*
X46520000Y-121455001D01*
X46020000Y-120705001D02*
G75*
G02*
X46520000Y-121455001I-312500J-750000D01*
G01*
X52520000Y-121455001D02*
G75*
G02*
X53020000Y-120705001I812500J0D01*
G01*
X49520000Y-98259330D02*
G75*
G02*
X53020000Y-120705001I11J-11495715D01*
G01*
X46020000Y-120705001D02*
G75*
G02*
X49520000Y-98259330I3499989J10949956D01*
G01*
%TO.C,BT1*%
X70919999Y-104655000D02*
X70919999Y-110355000D01*
X76919999Y-104655000D02*
X70919999Y-104655000D01*
X76919999Y-104655000D02*
X76919999Y-110355000D01*
X77419999Y-111105000D02*
G75*
G02*
X76919999Y-110355000I312500J750000D01*
G01*
X70919999Y-110355000D02*
G75*
G02*
X70419999Y-111105000I-812500J0D01*
G01*
X73919999Y-133550671D02*
G75*
G02*
X70419999Y-111105000I-11J11495715D01*
G01*
X77419999Y-111105000D02*
G75*
G02*
X73919999Y-133550671I-3499989J-10949956D01*
G01*
D12*
%TO.C,G\u002A\u002A\u002A*%
G36*
X47010137Y-133472085D02*
G01*
X47146424Y-133502204D01*
X47290742Y-133547028D01*
X47418451Y-133596413D01*
X47316976Y-133836596D01*
X47273240Y-133933622D01*
X47218045Y-134036748D01*
X47183494Y-134076778D01*
X47149480Y-134058810D01*
X47061166Y-133992115D01*
X46944482Y-133893078D01*
X46834001Y-133791275D01*
X46776688Y-133718605D01*
X46768540Y-133656207D01*
X46797359Y-133577953D01*
X46832563Y-133512137D01*
X46897319Y-133466036D01*
X47010137Y-133472085D01*
G37*
G36*
X59489101Y-133102088D02*
G01*
X59565203Y-133191411D01*
X59670084Y-133331145D01*
X59790988Y-133504953D01*
X59815889Y-133541890D01*
X59935981Y-133719765D01*
X60005851Y-133835252D01*
X60024738Y-133904588D01*
X59991882Y-133944009D01*
X59906524Y-133969755D01*
X59767903Y-133998061D01*
X59751656Y-134001473D01*
X59598402Y-134025820D01*
X59511348Y-134007430D01*
X59467030Y-133930566D01*
X59441983Y-133779494D01*
X59427329Y-133638573D01*
X59414144Y-133420472D01*
X59415045Y-133242241D01*
X59429631Y-133122008D01*
X59457500Y-133077902D01*
X59489101Y-133102088D01*
G37*
G36*
X46879150Y-134347542D02*
G01*
X47011454Y-134397621D01*
X47101365Y-134463940D01*
X47122530Y-134539582D01*
X47121249Y-134544193D01*
X47095109Y-134652298D01*
X47065861Y-134790262D01*
X47062267Y-134808042D01*
X47034635Y-134925188D01*
X47012200Y-134991990D01*
X46997520Y-135002241D01*
X46918233Y-134993985D01*
X46798745Y-134948462D01*
X46665366Y-134878734D01*
X46544405Y-134797864D01*
X46462171Y-134718913D01*
X46455781Y-134709098D01*
X46428355Y-134598743D01*
X46438473Y-134467859D01*
X46482847Y-134371685D01*
X46491424Y-134363923D01*
X46592781Y-134323776D01*
X46730808Y-134320622D01*
X46879150Y-134347542D01*
G37*
G36*
X66518602Y-134325825D02*
G01*
X66801537Y-135199768D01*
X67030534Y-136063484D01*
X67210353Y-136930711D01*
X67248878Y-137155122D01*
X67299430Y-137477387D01*
X67346615Y-137807141D01*
X67387835Y-138124145D01*
X67420494Y-138408156D01*
X67441995Y-138638934D01*
X67449738Y-138796238D01*
X67449738Y-138976029D01*
X67100434Y-138976029D01*
X66751130Y-138976029D01*
X66720166Y-138226872D01*
X66718901Y-138197127D01*
X66700712Y-137867597D01*
X66674948Y-137521080D01*
X66643307Y-137171569D01*
X66607486Y-136833053D01*
X66569184Y-136519524D01*
X66530097Y-136244972D01*
X66491923Y-136023389D01*
X66456360Y-135868765D01*
X66425106Y-135795092D01*
X66405058Y-135784033D01*
X66299516Y-135759432D01*
X66125684Y-135736846D01*
X65902182Y-135717998D01*
X65647627Y-135704612D01*
X65380637Y-135698411D01*
X65279383Y-135698364D01*
X64946275Y-135708380D01*
X64594923Y-135735082D01*
X64218194Y-135780006D01*
X63808957Y-135844691D01*
X63360079Y-135930672D01*
X62864428Y-136039488D01*
X62314871Y-136172675D01*
X61704277Y-136331771D01*
X61381578Y-136420457D01*
X61025513Y-136518313D01*
X60271446Y-136733838D01*
X59434944Y-136979884D01*
X59199607Y-137049519D01*
X58442459Y-137267437D01*
X57755575Y-137454243D01*
X57124881Y-137613003D01*
X56536303Y-137746781D01*
X55975765Y-137858641D01*
X55429193Y-137951650D01*
X54882513Y-138028873D01*
X54321649Y-138093373D01*
X54131621Y-138111856D01*
X53690173Y-138147223D01*
X53235152Y-138174510D01*
X52784570Y-138193230D01*
X52356436Y-138202897D01*
X51968762Y-138203024D01*
X51639559Y-138193123D01*
X51386837Y-138172708D01*
X51346393Y-138167565D01*
X50625350Y-138034693D01*
X49865105Y-137819848D01*
X49070830Y-137524935D01*
X48247692Y-137151862D01*
X47400862Y-136702535D01*
X47332362Y-136663235D01*
X46940131Y-136426663D01*
X46651301Y-136241917D01*
X49422398Y-136241917D01*
X49447661Y-136328680D01*
X49552441Y-136424920D01*
X49742897Y-136510417D01*
X50023679Y-136587845D01*
X50209912Y-136629495D01*
X50492847Y-136687145D01*
X50702142Y-136716194D01*
X50849785Y-136713639D01*
X50947765Y-136676476D01*
X50974883Y-136642851D01*
X51515282Y-136642851D01*
X51515348Y-136648216D01*
X51562698Y-136791936D01*
X51684991Y-136923667D01*
X51863228Y-137022674D01*
X52008055Y-137063507D01*
X52270835Y-137068651D01*
X52516229Y-136988411D01*
X52729224Y-136828988D01*
X52894808Y-136596582D01*
X52989492Y-136347402D01*
X53054583Y-136024332D01*
X53081211Y-135672165D01*
X53068902Y-135319711D01*
X53017181Y-134995780D01*
X52925574Y-134729184D01*
X52862585Y-134619411D01*
X52702579Y-134439329D01*
X52515377Y-134323139D01*
X52454534Y-134307881D01*
X54416780Y-134307881D01*
X54417039Y-134315749D01*
X54453852Y-134437124D01*
X54542865Y-134601828D01*
X54669642Y-134788440D01*
X54819748Y-134975541D01*
X54978746Y-135141711D01*
X55125463Y-135279116D01*
X55033521Y-135459337D01*
X55016703Y-135494745D01*
X54955241Y-135647614D01*
X54946621Y-135672165D01*
X54885222Y-135847030D01*
X54818744Y-136059198D01*
X54814377Y-136074206D01*
X54743441Y-136366148D01*
X54721723Y-136590441D01*
X54749343Y-136760327D01*
X54826426Y-136889045D01*
X54828616Y-136891438D01*
X54955336Y-136967262D01*
X55100808Y-136960171D01*
X55239695Y-136871254D01*
X55255820Y-136853123D01*
X55306176Y-136767701D01*
X55353581Y-136633490D01*
X55402701Y-136435258D01*
X55458201Y-136157771D01*
X55496593Y-135955771D01*
X55535252Y-135770410D01*
X55567402Y-135652191D01*
X55598476Y-135586207D01*
X55633902Y-135557550D01*
X55679113Y-135551310D01*
X55750525Y-135569547D01*
X55809425Y-135639950D01*
X55869975Y-135783094D01*
X55965212Y-135998185D01*
X56102045Y-136215027D01*
X56256769Y-136390604D01*
X56416492Y-136512991D01*
X56568323Y-136570259D01*
X56699373Y-136550483D01*
X56760945Y-136500645D01*
X56787278Y-136420457D01*
X56768445Y-136300559D01*
X56702168Y-136127635D01*
X56586171Y-135888365D01*
X56544849Y-135806266D01*
X56378178Y-135432824D01*
X56260623Y-135074910D01*
X56182075Y-134696264D01*
X56132428Y-134260622D01*
X56122140Y-134142404D01*
X56089015Y-133866977D01*
X56046769Y-133671814D01*
X55991182Y-133545966D01*
X55918031Y-133478487D01*
X55897015Y-133474046D01*
X56610712Y-133474046D01*
X56613313Y-133636755D01*
X56679541Y-133764205D01*
X56698481Y-133782132D01*
X56791358Y-133832215D01*
X56894434Y-133810914D01*
X57030085Y-133715094D01*
X57161670Y-133632099D01*
X57295173Y-133621841D01*
X57423772Y-133700544D01*
X57556396Y-133870852D01*
X57569311Y-133891505D01*
X57750625Y-134260186D01*
X57868281Y-134662099D01*
X57911198Y-135060104D01*
X57909048Y-135177371D01*
X57878184Y-135400796D01*
X57803023Y-135555605D01*
X57673616Y-135657031D01*
X57480013Y-135720308D01*
X57423916Y-135733568D01*
X57285236Y-135787114D01*
X57230992Y-135854875D01*
X57224003Y-135938770D01*
X57273546Y-136103437D01*
X57406898Y-136229599D01*
X57426777Y-136240977D01*
X57580965Y-136299089D01*
X57748358Y-136298853D01*
X57960413Y-136240915D01*
X58096928Y-136176765D01*
X58294800Y-136003599D01*
X58438259Y-135756390D01*
X58525389Y-135438960D01*
X58554279Y-135055130D01*
X58544232Y-134831585D01*
X58484789Y-134446139D01*
X58378388Y-134075392D01*
X58232421Y-133735324D01*
X58054280Y-133441917D01*
X57908920Y-133276614D01*
X58936641Y-133276614D01*
X58939551Y-133477101D01*
X58971899Y-133927008D01*
X59042818Y-134406780D01*
X59155835Y-134943224D01*
X59183310Y-135055130D01*
X59208912Y-135159404D01*
X59257714Y-135324971D01*
X59306278Y-135438704D01*
X59364021Y-135522248D01*
X59440360Y-135597250D01*
X59450956Y-135606409D01*
X59615019Y-135711294D01*
X59761841Y-135738262D01*
X59877304Y-135684494D01*
X59890814Y-135669607D01*
X59924623Y-135599102D01*
X59927618Y-135494821D01*
X59898477Y-135338506D01*
X59835880Y-135111901D01*
X59829866Y-135091548D01*
X59786028Y-134931407D01*
X59759735Y-134813480D01*
X59756494Y-134762033D01*
X59796929Y-134750024D01*
X59908967Y-134731573D01*
X60064022Y-134712773D01*
X60222558Y-134698999D01*
X60317505Y-134703739D01*
X60371256Y-134733895D01*
X60410643Y-134795902D01*
X60437583Y-134840532D01*
X60527453Y-134960319D01*
X60639360Y-135087546D01*
X60753753Y-135189113D01*
X60897942Y-135262205D01*
X61015449Y-135258649D01*
X61094549Y-135179903D01*
X61123521Y-135027421D01*
X61120902Y-135013565D01*
X61084537Y-134922160D01*
X61010686Y-134765963D01*
X60906132Y-134558543D01*
X60777660Y-134313474D01*
X60632056Y-134044326D01*
X60608423Y-134001268D01*
X60448814Y-133709556D01*
X60293781Y-133424795D01*
X60153666Y-133166073D01*
X60038812Y-132952476D01*
X59959559Y-132803093D01*
X59814973Y-132555822D01*
X59658427Y-132362156D01*
X59546089Y-132283995D01*
X60947597Y-132283995D01*
X60978576Y-132497458D01*
X61045467Y-132783919D01*
X61065589Y-132860946D01*
X61142167Y-133140806D01*
X61228828Y-133441374D01*
X61320500Y-133746598D01*
X61412110Y-134040421D01*
X61498584Y-134306791D01*
X61574848Y-134529654D01*
X61635830Y-134692955D01*
X61676456Y-134780641D01*
X61681236Y-134787756D01*
X61775668Y-134889300D01*
X61899046Y-134982617D01*
X61977075Y-135025436D01*
X61984270Y-135027421D01*
X62127439Y-135066922D01*
X62238348Y-135025075D01*
X62316717Y-134898505D01*
X62326624Y-134862873D01*
X62331938Y-134743268D01*
X62310512Y-134562572D01*
X62260965Y-134306109D01*
X62231679Y-134164968D01*
X62198435Y-133989985D01*
X62178952Y-133867022D01*
X62176742Y-133816486D01*
X62233449Y-133783632D01*
X62350779Y-133733065D01*
X62502882Y-133674786D01*
X62665160Y-133617464D01*
X62813020Y-133569769D01*
X62921864Y-133540367D01*
X62967098Y-133537929D01*
X62972909Y-133550526D01*
X63016275Y-133632513D01*
X63090613Y-133767332D01*
X63184017Y-133933285D01*
X63275689Y-134083233D01*
X63462635Y-134317859D01*
X63650558Y-134458212D01*
X63840118Y-134504868D01*
X63881386Y-134502569D01*
X63994763Y-134455796D01*
X64055757Y-134345542D01*
X64064779Y-134167561D01*
X64022240Y-133917603D01*
X63928551Y-133591422D01*
X63914131Y-133546907D01*
X63701583Y-132817338D01*
X63525928Y-132055256D01*
X63468789Y-131828444D01*
X63378161Y-131617021D01*
X63266467Y-131495310D01*
X63131481Y-131461132D01*
X62970976Y-131512307D01*
X62921676Y-131548414D01*
X62821708Y-131685401D01*
X62740881Y-131879399D01*
X62686404Y-132104392D01*
X62665484Y-132334363D01*
X62685331Y-132543296D01*
X62693205Y-132580524D01*
X62706098Y-132715890D01*
X62675928Y-132784810D01*
X62675161Y-132785404D01*
X62606890Y-132821823D01*
X62487334Y-132873271D01*
X62344253Y-132929286D01*
X62205411Y-132979406D01*
X62098568Y-133013171D01*
X62051487Y-133020118D01*
X62051473Y-133020100D01*
X62027806Y-132974208D01*
X61971589Y-132859738D01*
X61891218Y-132693912D01*
X61795084Y-132493955D01*
X61696849Y-132293523D01*
X61607388Y-132128142D01*
X61533182Y-132019035D01*
X61462520Y-131949362D01*
X61383694Y-131902282D01*
X61353312Y-131887934D01*
X61252244Y-131850112D01*
X61179040Y-131859920D01*
X61087457Y-131920145D01*
X61077613Y-131927644D01*
X60996367Y-132014483D01*
X60953278Y-132128135D01*
X60947597Y-132283995D01*
X59546089Y-132283995D01*
X59504808Y-132255273D01*
X59349765Y-132231095D01*
X59204085Y-132280574D01*
X59085881Y-132406868D01*
X59002822Y-132612653D01*
X58953534Y-132901408D01*
X58936641Y-133276614D01*
X57908920Y-133276614D01*
X57851355Y-133211151D01*
X57631039Y-133059009D01*
X57525885Y-133020821D01*
X57303619Y-132987028D01*
X57076469Y-132998315D01*
X56888631Y-133054924D01*
X56764203Y-133152032D01*
X56663691Y-133303373D01*
X56610712Y-133474046D01*
X55897015Y-133474046D01*
X55823095Y-133458426D01*
X55821645Y-133458435D01*
X55704358Y-133500521D01*
X55655057Y-133544838D01*
X55580099Y-133612218D01*
X55556970Y-133639974D01*
X55506525Y-133709323D01*
X55477041Y-133781118D01*
X55464708Y-133878487D01*
X55465715Y-134024559D01*
X55476250Y-134242461D01*
X55484315Y-134371464D01*
X55501467Y-134571035D01*
X55520700Y-134727166D01*
X55539172Y-134814044D01*
X55532132Y-134827143D01*
X55471483Y-134792273D01*
X55364191Y-134707537D01*
X55222594Y-134581983D01*
X55072017Y-134447560D01*
X54838194Y-134264163D01*
X54654985Y-134158233D01*
X54523164Y-134130034D01*
X54443505Y-134179829D01*
X54416780Y-134307881D01*
X52454534Y-134307881D01*
X52317512Y-134273519D01*
X52125516Y-134293150D01*
X51955922Y-134384709D01*
X51876632Y-134485547D01*
X51825263Y-134550877D01*
X51773088Y-134675064D01*
X51756390Y-134816534D01*
X51805426Y-134900213D01*
X51913202Y-134917379D01*
X52072722Y-134859316D01*
X52075746Y-134857689D01*
X52190155Y-134804419D01*
X52271033Y-134800000D01*
X52363796Y-134841680D01*
X52446884Y-134900927D01*
X52551052Y-135044906D01*
X52609414Y-135252199D01*
X52626619Y-135535072D01*
X52626554Y-135544675D01*
X52614345Y-135769249D01*
X52575117Y-135949528D01*
X52498672Y-136133180D01*
X52483283Y-136164067D01*
X52367698Y-136351365D01*
X52242670Y-136457188D01*
X52087648Y-136492735D01*
X51882083Y-136469207D01*
X51729096Y-136445345D01*
X51601122Y-136456535D01*
X51534445Y-136520195D01*
X51515282Y-136642851D01*
X50974883Y-136642851D01*
X51008070Y-136601701D01*
X51042688Y-136486312D01*
X51063609Y-136327305D01*
X51064795Y-136315520D01*
X51084929Y-136135816D01*
X51114469Y-135894677D01*
X51149632Y-135622206D01*
X51186635Y-135348503D01*
X51211953Y-135162493D01*
X51248280Y-134868814D01*
X51268320Y-134647788D01*
X51272059Y-134485547D01*
X51259480Y-134368223D01*
X51230567Y-134281947D01*
X51185303Y-134212853D01*
X51153308Y-134176275D01*
X51081980Y-134129812D01*
X51006932Y-134152174D01*
X50980810Y-134171335D01*
X50939886Y-134226802D01*
X50906619Y-134271892D01*
X50840373Y-134439816D01*
X50780873Y-134680656D01*
X50726925Y-134999961D01*
X50677331Y-135403280D01*
X50630896Y-135896161D01*
X50603964Y-136217228D01*
X50408460Y-136217228D01*
X50325757Y-136213911D01*
X50136871Y-136194012D01*
X49946120Y-136162114D01*
X49758095Y-136134936D01*
X49582263Y-136137522D01*
X49465031Y-136173995D01*
X49422398Y-136241917D01*
X46651301Y-136241917D01*
X46497830Y-136143751D01*
X46024046Y-135827525D01*
X45537367Y-135491010D01*
X45056380Y-135147233D01*
X44599672Y-134809219D01*
X44258956Y-134546398D01*
X46061095Y-134546398D01*
X46066408Y-134725411D01*
X46073624Y-134749461D01*
X46163942Y-134903073D01*
X46319151Y-135060680D01*
X46516718Y-135202583D01*
X46734108Y-135309085D01*
X46928795Y-135370922D01*
X47111984Y-135403803D01*
X47242157Y-135396928D01*
X47303149Y-135349157D01*
X47307172Y-135335877D01*
X47340308Y-135223208D01*
X47372704Y-135111359D01*
X47965949Y-135111359D01*
X47981572Y-135436034D01*
X48044125Y-135701041D01*
X48151861Y-135897766D01*
X48303030Y-136017592D01*
X48452997Y-136063539D01*
X48694014Y-136065835D01*
X48932620Y-135996307D01*
X49143411Y-135863639D01*
X49300979Y-135676512D01*
X49331939Y-135616053D01*
X49405084Y-135438166D01*
X49486565Y-135205874D01*
X49568510Y-134944898D01*
X49643050Y-134680958D01*
X49702312Y-134439777D01*
X49738426Y-134247075D01*
X49741006Y-134226802D01*
X49738341Y-134040223D01*
X49679632Y-133925560D01*
X49566642Y-133886516D01*
X49544013Y-133887838D01*
X49468318Y-133918483D01*
X49400261Y-133998175D01*
X49334191Y-134138139D01*
X49264457Y-134349599D01*
X49185409Y-134643781D01*
X49102777Y-134959417D01*
X49023587Y-135229765D01*
X48955066Y-135422416D01*
X48894175Y-135545807D01*
X48837875Y-135608372D01*
X48731477Y-135643928D01*
X48606435Y-135626834D01*
X48520326Y-135554437D01*
X48491079Y-135463550D01*
X48473539Y-135271154D01*
X48481646Y-135015505D01*
X48514687Y-134712819D01*
X48571950Y-134379312D01*
X48617053Y-134124717D01*
X48637300Y-133903931D01*
X48621824Y-133756563D01*
X48569569Y-133674266D01*
X48479479Y-133648689D01*
X48373191Y-133679566D01*
X48269672Y-133786977D01*
X48177487Y-133975745D01*
X48094468Y-134250421D01*
X48018443Y-134615555D01*
X47999005Y-134735630D01*
X47965949Y-135111359D01*
X47372704Y-135111359D01*
X47392004Y-135044724D01*
X47456178Y-134821690D01*
X47526745Y-134575369D01*
X47597625Y-134327025D01*
X47662733Y-134097922D01*
X47715987Y-133909325D01*
X47751305Y-133782496D01*
X47786755Y-133645510D01*
X47801687Y-133544838D01*
X47787420Y-133480008D01*
X47743296Y-133421330D01*
X47684532Y-133367394D01*
X47514254Y-133257620D01*
X47300789Y-133156574D01*
X47078008Y-133079197D01*
X46879778Y-133040428D01*
X46790956Y-133034223D01*
X46674740Y-133038644D01*
X46598990Y-133073697D01*
X46528490Y-133150404D01*
X46476251Y-133243339D01*
X46430243Y-133431408D01*
X46430457Y-133633039D01*
X46480155Y-133804130D01*
X46486690Y-133816612D01*
X46509678Y-133892469D01*
X46468721Y-133927692D01*
X46340941Y-134006005D01*
X46213284Y-134157107D01*
X46115028Y-134347101D01*
X46061095Y-134546398D01*
X44258956Y-134546398D01*
X44185832Y-134489992D01*
X43833446Y-134202580D01*
X43617017Y-134018416D01*
X43285496Y-133732249D01*
X43006649Y-133486021D01*
X42784762Y-133283676D01*
X42624120Y-133129155D01*
X42529011Y-133026403D01*
X42503719Y-132979361D01*
X42521540Y-132972246D01*
X42621529Y-132960118D01*
X42798297Y-132949897D01*
X43039894Y-132942037D01*
X43334370Y-132936989D01*
X43669774Y-132935205D01*
X43890558Y-132934647D01*
X44186326Y-132931988D01*
X44439023Y-132927439D01*
X44635634Y-132921338D01*
X44763144Y-132914019D01*
X44808540Y-132905819D01*
X44800675Y-132885471D01*
X44756047Y-132791339D01*
X44677295Y-132632318D01*
X44570511Y-132420542D01*
X44441786Y-132168143D01*
X44297210Y-131887256D01*
X44207668Y-131712393D01*
X44075344Y-131447221D01*
X43964927Y-131217447D01*
X43882066Y-131035243D01*
X43832408Y-130912780D01*
X43821601Y-130862228D01*
X43855410Y-130858916D01*
X43952788Y-130890846D01*
X44083211Y-130956663D01*
X44143116Y-130989928D01*
X44303748Y-131074698D01*
X44517640Y-131184213D01*
X44764136Y-131307948D01*
X45022585Y-131435378D01*
X45655243Y-131727763D01*
X46699299Y-132140124D01*
X47750422Y-132470501D01*
X48802838Y-132718304D01*
X49850772Y-132882943D01*
X50888448Y-132963826D01*
X51910093Y-132960362D01*
X52909931Y-132871961D01*
X53882187Y-132698031D01*
X54821087Y-132437983D01*
X54987489Y-132380234D01*
X55284673Y-132268465D01*
X55617611Y-132135483D01*
X55956575Y-131993260D01*
X56271836Y-131853770D01*
X57208806Y-131443239D01*
X58097039Y-131092190D01*
X58932274Y-130804070D01*
X59721962Y-130576973D01*
X60473555Y-130408990D01*
X61194503Y-130298215D01*
X61892258Y-130242741D01*
X62574270Y-130240660D01*
X62973929Y-130260429D01*
X63330112Y-130293271D01*
X63641178Y-130342328D01*
X63932695Y-130411692D01*
X64230234Y-130505448D01*
X64268448Y-130518518D01*
X64423512Y-130563419D01*
X64523943Y-130571490D01*
X64596206Y-130545640D01*
X64601003Y-130542723D01*
X64656583Y-130523013D01*
X64714368Y-130535559D01*
X64779696Y-130588112D01*
X64857901Y-130688423D01*
X64954322Y-130844245D01*
X65074293Y-131063328D01*
X65223152Y-131353424D01*
X65406233Y-131722284D01*
X65771882Y-132492301D01*
X66176970Y-133427916D01*
X66458386Y-134167561D01*
X66518602Y-134325825D01*
G37*
%TD*%
M02*
