M48
; DRILL file KiCad 10.0.1 date 2026-07-09T21:18:10
; FORMAT={-:-/ absolute / metric / decimal}
; #@! TF.CreationDate,2026-07-09T21:18:10-04:00
; #@! TF.GenerationSoftware,Kicad,Pcbnew,10.0.1
; #@! TF.FileFunction,NonPlated,1,2,NPTH
FMAT,2
METRIC
; #@! TA.AperFunction,NonPlated,NPTH,ComponentDrill
T1C0.600
; #@! TA.AperFunction,NonPlated,NPTH,ComponentDrill
T2C1.000
%
G90
G05
T1
X44.437Y-82.249
X44.467Y-26.608
X45.291Y-82.741
X45.322Y-26.117
X46.233Y-82.994
X46.268Y-25.879
X47.183Y-82.772
X47.214Y-26.118
X48.038Y-82.282
X48.068Y-26.61
X90.165Y-35.014
X90.165Y-74.114
X91.065Y-34.789
X91.065Y-74.339
X91.965Y-34.564
X91.965Y-74.564
X92.865Y-34.339
X92.865Y-74.789
X93.765Y-34.114
X93.765Y-75.014
T2
X23.5Y-23.5
X23.5Y-85.341
X108.465Y-23.5
X108.465Y-85.341
M30
