M48
; DRILL file KiCad 10.0.1 date 2026-07-09T21:18:10
; FORMAT={-:-/ absolute / metric / decimal}
; #@! TF.CreationDate,2026-07-09T21:18:10-04:00
; #@! TF.GenerationSoftware,Kicad,Pcbnew,10.0.1
; #@! TF.FileFunction,Plated,1,2,PTH
FMAT,2
METRIC
; #@! TA.AperFunction,Plated,PTH,ViaDrill
T1C0.300
; #@! TA.AperFunction,Plated,PTH,ComponentDrill
T2C0.700
; #@! TA.AperFunction,Plated,PTH,ComponentDrill
T3C0.750
; #@! TA.AperFunction,Plated,PTH,ComponentDrill
T4C0.800
; #@! TA.AperFunction,Plated,PTH,ComponentDrill
T5C0.900
; #@! TA.AperFunction,Plated,PTH,ComponentDrill
T6C1.100
; #@! TA.AperFunction,Plated,PTH,ComponentDrill
T7C1.500
%
G90
G05
T1
X34.776Y-58.287
X42.576Y-65.387
T2
X57.266Y-46.392
X57.266Y-51.472
X57.291Y-53.392
X57.291Y-58.472
X87.665Y-53.664
X87.665Y-55.764
X92.745Y-53.664
X92.745Y-55.764
T3
X84.627Y-53.464
X84.627Y-54.734
X84.627Y-56.004
T4
X24.726Y-49.357
X24.726Y-51.897
X24.726Y-54.437
X24.726Y-56.977
X24.726Y-59.517
X26.046Y-62.317
X26.046Y-69.937
X28.586Y-62.317
X28.586Y-69.937
X31.126Y-62.317
X31.126Y-69.937
X33.666Y-62.317
X33.666Y-69.937
X36.206Y-62.317
X36.206Y-69.937
X38.746Y-62.317
X38.746Y-69.937
X39.966Y-49.357
X39.966Y-51.897
X39.966Y-54.437
X39.966Y-56.977
X39.966Y-59.517
X41.286Y-62.317
X41.286Y-69.937
X43.826Y-62.317
X43.826Y-69.937
X45.166Y-50.597
X45.166Y-53.137
X45.166Y-55.677
X45.166Y-58.217
X52.786Y-50.597
X52.786Y-53.137
X52.786Y-55.677
X52.786Y-58.217
X57.266Y-64.497
X59.266Y-64.497
T5
X75.465Y-53.299
X75.465Y-55.839
T6
X64.046Y-51.187
X64.046Y-57.687
X68.546Y-51.187
X68.546Y-57.687
T7
X49.336Y-41.347
X49.336Y-61.837
X98.965Y-46.124
X98.965Y-66.614
M30
