%TF.GenerationSoftware,KiCad,Pcbnew,10.0.1*%
%TF.CreationDate,2026-07-09T21:18:07-04:00*%
%TF.ProjectId,panelized,70616e65-6c69-47a6-9564-2e6b69636164,rev?*%
%TF.SameCoordinates,Original*%
%TF.FileFunction,Copper,L1,Top*%
%TF.FilePolarity,Positive*%
%FSLAX46Y46*%
G04 Gerber Fmt 4.6, Leading zero omitted, Abs format (unit mm)*
G04 Created by KiCad (PCBNEW 10.0.1) date 2026-07-09 21:18:07*
%MOMM*%
%LPD*%
G01*
G04 APERTURE LIST*
G04 Aperture macros list*
%AMRoundRect*
0 Rectangle with rounded corners*
0 $1 Rounding radius*
0 $2 $3 $4 $5 $6 $7 $8 $9 X,Y pos of 4 corners*
0 Add a 4 corners polygon primitive as box body*
4,1,4,$2,$3,$4,$5,$6,$7,$8,$9,$2,$3,0*
0 Add four circle primitives for the rounded corners*
1,1,$1+$1,$2,$3*
1,1,$1+$1,$4,$5*
1,1,$1+$1,$6,$7*
1,1,$1+$1,$8,$9*
0 Add four rect primitives between the rounded corners*
20,1,$1+$1,$2,$3,$4,$5,0*
20,1,$1+$1,$4,$5,$6,$7,0*
20,1,$1+$1,$6,$7,$8,$9,0*
20,1,$1+$1,$8,$9,$2,$3,0*%
G04 Aperture macros list end*
%TA.AperFunction,Conductor*%
%ADD10C,0.200000*%
%TD*%
%TA.AperFunction,ComponentPad*%
%ADD11RoundRect,0.250000X-0.550000X-0.550000X0.550000X-0.550000X0.550000X0.550000X-0.550000X0.550000X0*%
%TD*%
%TA.AperFunction,ComponentPad*%
%ADD12C,1.600000*%
%TD*%
%TA.AperFunction,SMDPad,CuDef*%
%ADD13C,1.000000*%
%TD*%
%TA.AperFunction,WasherPad*%
%ADD14C,1.300000*%
%TD*%
%TA.AperFunction,ComponentPad*%
%ADD15RoundRect,0.250000X-0.550000X0.550000X-0.550000X-0.550000X0.550000X-0.550000X0.550000X0.550000X0*%
%TD*%
%TA.AperFunction,ComponentPad*%
%ADD16R,2.524000X1.524000*%
%TD*%
%TA.AperFunction,ComponentPad*%
%ADD17O,2.524000X1.524000*%
%TD*%
%TA.AperFunction,ComponentPad*%
%ADD18C,1.400000*%
%TD*%
%TA.AperFunction,ComponentPad*%
%ADD19R,1.500000X1.050000*%
%TD*%
%TA.AperFunction,ComponentPad*%
%ADD20O,1.500000X1.050000*%
%TD*%
%TA.AperFunction,ComponentPad*%
%ADD21C,2.000000*%
%TD*%
%TA.AperFunction,ComponentPad*%
%ADD22R,1.800000X1.800000*%
%TD*%
%TA.AperFunction,ComponentPad*%
%ADD23C,1.800000*%
%TD*%
%TA.AperFunction,ComponentPad*%
%ADD24R,3.000000X3.000000*%
%TD*%
%TA.AperFunction,ComponentPad*%
%ADD25C,3.000000*%
%TD*%
%TA.AperFunction,ViaPad*%
%ADD26C,0.600000*%
%TD*%
%TA.AperFunction,Conductor*%
%ADD27C,0.500000*%
%TD*%
G04 APERTURE END LIST*
D10*
%TO.N,B0-Net-(R7-Pad2)*%
X111964579Y-36463656D02*
X71964579Y-46463656D01*
X71964579Y-39563656D01*
X111964579Y-29563656D01*
X111964579Y-36463656D01*
%TA.AperFunction,Conductor*%
G36*
X111964579Y-36463656D02*
G01*
X71964579Y-46463656D01*
X71964579Y-39563656D01*
X111964579Y-29563656D01*
X111964579Y-36463656D01*
G37*
%TD.AperFunction*%
%TO.N,B0-COND_3V*%
X111964579Y-72663656D02*
X111964579Y-79563656D01*
X71964579Y-69563656D01*
X71964579Y-62663656D01*
X111964579Y-72663656D01*
%TA.AperFunction,Conductor*%
G36*
X111964579Y-72663656D02*
G01*
X111964579Y-79563656D01*
X71964579Y-69563656D01*
X71964579Y-62663656D01*
X111964579Y-72663656D01*
G37*
%TD.AperFunction*%
%TD*%
D11*
%TO.P,B1-U1,1,GND_1*%
%TO.N,B1-Earth*%
X45166062Y-50596985D03*
D12*
%TO.P,B1-U1,2,TRIG_2*%
%TO.N,B1-Net-(U1-THRES)*%
X45166062Y-53136985D03*
%TO.P,B1-U1,3,OUT_3*%
%TO.N,B1-Net-(U1-OUT)*%
X45166062Y-55676985D03*
%TO.P,B1-U1,4,~{RST}_4*%
%TO.N,B1-Net-(U1-VCC)*%
X45166062Y-58216985D03*
%TO.P,B1-U1,5,CONT_5*%
%TO.N,B1-unconnected-(U1-CONT-Pad5)*%
X52786062Y-58216985D03*
%TO.P,B1-U1,6,THRES_6*%
%TO.N,B1-Net-(U1-THRES)*%
X52786062Y-55676985D03*
%TO.P,B1-U1,7,DISCH_7*%
%TO.N,B1-Net-(U1-DISCH)*%
X52786062Y-53136985D03*
%TO.P,B1-U1,8,VCC_8*%
%TO.N,B1-Net-(U1-VCC)*%
X52786062Y-50596985D03*
%TD*%
D13*
%TO.P,REF\u002A\u002A,*%
%TO.N,*%
X103265000Y-23850000D03*
%TD*%
D14*
%TO.P,REF\u002A\u002A,*%
%TO.N,*%
X108465000Y-23500000D03*
%TD*%
D15*
%TO.P,B1-U2,1,CLK_1*%
%TO.N,B1-Net-(U1-OUT)*%
X43826062Y-62316985D03*
D12*
%TO.P,B1-U2,2,CLKN_2*%
%TO.N,B1-Earth*%
X41286062Y-62316985D03*
%TO.P,B1-U2,3,DIS_EI_3*%
%TO.N,B1-DICE_3V3*%
X38746062Y-62316985D03*
%TO.P,B1-U2,4,DIS_EO_4*%
%TO.N,B1-unconnected-(U2-DIS_EO-Pad4)*%
X36206062Y-62316985D03*
%TO.P,B1-U2,5,CARRY_5*%
%TO.N,B1-unconnected-(U2-CARRY-Pad5)*%
X33666062Y-62316985D03*
%TO.P,B1-U2,6,F_6*%
%TO.N,B1-Net-(U2-F)*%
X31126062Y-62316985D03*
%TO.P,B1-U2,7,G_7*%
%TO.N,B1-Net-(U2-G)*%
X28586062Y-62316985D03*
%TO.P,B1-U2,8,VSS_8*%
%TO.N,B1-Earth*%
X26046062Y-62316985D03*
%TO.P,B1-U2,9,D_9*%
%TO.N,B1-Net-(U2-D)*%
X26046062Y-69936985D03*
%TO.P,B1-U2,10,A_10*%
%TO.N,B1-Net-(U2-A)*%
X28586062Y-69936985D03*
%TO.P,B1-U2,11,E_11*%
%TO.N,B1-Net-(U2-E)*%
X31126062Y-69936985D03*
%TO.P,B1-U2,12,B_12*%
%TO.N,B1-Net-(U2-B)*%
X33666062Y-69936985D03*
%TO.P,B1-U2,13,C_13*%
%TO.N,B1-Net-(U2-C)*%
X36206062Y-69936985D03*
%TO.P,B1-U2,14,UCS_14*%
%TO.N,B1-unconnected-(U2-UCS-Pad14)*%
X38746062Y-69936985D03*
%TO.P,B1-U2,15,RST_15*%
%TO.N,B1-unconnected-(U2-RST-Pad15)*%
X41286062Y-69936985D03*
%TO.P,B1-U2,16,VDD_16*%
%TO.N,B1-DICE_3V3*%
X43826062Y-69936985D03*
%TD*%
D13*
%TO.P,REF\u002A\u002A,*%
%TO.N,*%
X28700000Y-84991000D03*
%TD*%
D11*
%TO.P,B1-C1,1*%
%TO.N,B1-Net-(U1-THRES)*%
X57266062Y-64496985D03*
D12*
%TO.P,B1-C1,2*%
%TO.N,B1-Earth*%
X59266062Y-64496985D03*
%TD*%
D16*
%TO.P,B1-U3,1,E_1*%
%TO.N,B1-Net-(U2-E)*%
X39966062Y-59516985D03*
D17*
%TO.P,B1-U3,2,D_2*%
%TO.N,B1-Net-(U2-D)*%
X39966062Y-56976985D03*
%TO.P,B1-U3,3,CC_3*%
%TO.N,B1-Earth*%
X39966062Y-54436985D03*
%TO.P,B1-U3,4,C_4*%
%TO.N,B1-Net-(U2-C)*%
X39966062Y-51896985D03*
%TO.P,B1-U3,5,DP_5*%
%TO.N,B1-unconnected-(U3-DP-Pad5)*%
X39966062Y-49356985D03*
%TO.P,B1-U3,6,B_6*%
%TO.N,B1-Net-(U2-B)*%
X24726062Y-49356985D03*
%TO.P,B1-U3,7,A_7*%
%TO.N,B1-Net-(U2-A)*%
X24726062Y-51896985D03*
%TO.P,B1-U3,8,CC_8*%
%TO.N,B1-Earth*%
X24726062Y-54436985D03*
%TO.P,B1-U3,9,F_9*%
%TO.N,B1-Net-(U2-F)*%
X24726062Y-56976985D03*
%TO.P,B1-U3,10,G_10*%
%TO.N,B1-Net-(U2-G)*%
X24726062Y-59516985D03*
%TD*%
D14*
%TO.P,REF\u002A\u002A,*%
%TO.N,*%
X108465000Y-85341000D03*
%TD*%
D18*
%TO.P,B1-R2,1*%
%TO.N,B1-Net-(U1-THRES)*%
X57291062Y-58471985D03*
%TO.P,B1-R2,2*%
%TO.N,B1-Net-(U1-DISCH)*%
X57291062Y-53391985D03*
%TD*%
D14*
%TO.P,REF\u002A\u002A,*%
%TO.N,*%
X23500000Y-85341000D03*
%TD*%
D13*
%TO.P,REF\u002A\u002A,*%
%TO.N,*%
X28700000Y-23850000D03*
%TD*%
D18*
%TO.P,B0-R7,1*%
%TO.N,B0-Net-(Q1-B)*%
X87664579Y-53663656D03*
%TO.P,B0-R7,2*%
%TO.N,B0-Net-(R7-Pad2)*%
X92744579Y-53663656D03*
%TD*%
%TO.P,B0-R6,1*%
%TO.N,B0-Earth*%
X92744579Y-55763656D03*
%TO.P,B0-R6,2*%
%TO.N,B0-Net-(Q1-B)*%
X87664579Y-55763656D03*
%TD*%
D13*
%TO.P,REF\u002A\u002A,*%
%TO.N,*%
X103265000Y-84991000D03*
%TD*%
D19*
%TO.P,B0-Q1,1,E_1*%
%TO.N,B0-Earth*%
X84627079Y-56003656D03*
D20*
%TO.P,B0-Q1,2,B_2*%
%TO.N,B0-Net-(Q1-B)*%
X84627079Y-54733656D03*
%TO.P,B0-Q1,3,C_3*%
%TO.N,B0-Net-(D1-K)*%
X84627079Y-53463656D03*
%TD*%
D14*
%TO.P,REF\u002A\u002A,*%
%TO.N,*%
X23500000Y-23500000D03*
%TD*%
D21*
%TO.P,B1-SW1,1,1_1*%
%TO.N,B1-Net-(U1-VCC)*%
X64046062Y-57686985D03*
X64046062Y-51186985D03*
%TO.P,B1-SW1,2,2_2*%
%TO.N,B1-DICE_3V3*%
X68546062Y-57686985D03*
X68546062Y-51186985D03*
%TD*%
D18*
%TO.P,B1-R1,1*%
%TO.N,B1-Net-(U1-DISCH)*%
X57266062Y-51471985D03*
%TO.P,B1-R1,2*%
%TO.N,B1-Net-(U1-VCC)*%
X57266062Y-46391985D03*
%TD*%
D22*
%TO.P,B0-D1,1,K_1*%
%TO.N,B0-Net-(D1-K)*%
X75464579Y-53298656D03*
D23*
%TO.P,B0-D1,2,A_2*%
%TO.N,B0-COND_3V*%
X75464579Y-55838656D03*
%TD*%
D24*
%TO.P,B1-BT2,1,+_1*%
%TO.N,B1-DICE_3V3*%
X49336062Y-41346985D03*
D25*
%TO.P,B1-BT2,2,-_2*%
%TO.N,B1-Earth*%
X49336062Y-61836985D03*
%TD*%
D24*
%TO.P,B0-BT5,1,+_1*%
%TO.N,B0-COND_3V*%
X98964580Y-66613656D03*
D25*
%TO.P,B0-BT5,2,-_2*%
%TO.N,B0-Earth*%
X98964580Y-46123656D03*
%TD*%
D26*
%TO.N,B1-Earth*%
X42576062Y-65386985D03*
X34776062Y-58286985D03*
%TD*%
%TO.N,B1-Net-(U1-THRES)*%
D27*
X57266062Y-58396985D02*
X57266062Y-58446985D01*
X57266062Y-58446985D02*
X57291062Y-58471985D01*
X52786062Y-55676985D02*
X54546062Y-55676985D01*
X57266062Y-64496985D02*
X57266062Y-58496985D01*
X54546062Y-55676985D02*
X57266062Y-58396985D01*
X57266062Y-58496985D02*
X57291062Y-58471985D01*
%TO.N,B1-Net-(U1-OUT)*%
X45086062Y-55676985D02*
X43666062Y-57096985D01*
X45166062Y-55676985D02*
X45086062Y-55676985D01*
X43666062Y-62156985D02*
X43826062Y-62316985D01*
X43666062Y-57096985D02*
X43666062Y-62156985D01*
%TO.N,B1-Net-(U1-VCC)*%
X64046062Y-51186985D02*
X59251062Y-46391985D01*
X52786062Y-48876985D02*
X55271062Y-46391985D01*
X64046062Y-57686985D02*
X64046062Y-51186985D01*
X52786062Y-50596985D02*
X52786062Y-48876985D01*
X55271062Y-46391985D02*
X57266062Y-46391985D01*
X52786062Y-50596985D02*
X45166062Y-58216985D01*
X59251062Y-46391985D02*
X57266062Y-46391985D01*
%TO.N,B1-Net-(U1-DISCH)*%
X57266062Y-51471985D02*
X57266062Y-53366985D01*
X53041062Y-53391985D02*
X52786062Y-53136985D01*
X57266062Y-53366985D02*
X57291062Y-53391985D01*
X57291062Y-53391985D02*
X53041062Y-53391985D01*
%TO.N,B1-DICE_3V3*%
X68546062Y-48026985D02*
X60966062Y-40446985D01*
X50236062Y-40446985D02*
X49336062Y-41346985D01*
X68546062Y-51186985D02*
X68546062Y-48026985D01*
X68546062Y-57686985D02*
X68546062Y-51186985D01*
X60966062Y-40446985D02*
X50236062Y-40446985D01*
%TO.N,B1-Net-(U2-F)*%
D10*
X24726062Y-56976985D02*
X26726062Y-56976985D01*
X26726062Y-56976985D02*
X31126062Y-61376985D01*
X31126062Y-61376985D02*
X31126062Y-62316985D01*
%TO.N,B1-Net-(U2-G)*%
X25666062Y-60456985D02*
X26726062Y-60456985D01*
X26726062Y-60456985D02*
X28586062Y-62316985D01*
X24726062Y-59516985D02*
X25666062Y-60456985D01*
%TO.N,B1-Net-(U2-D)*%
X34766062Y-62772620D02*
X28701697Y-68836985D01*
X27146062Y-68836985D02*
X26046062Y-69936985D01*
X34766062Y-61916985D02*
X34766062Y-62772620D01*
X39966062Y-56976985D02*
X39706062Y-56976985D01*
X39706062Y-56976985D02*
X34766062Y-61916985D01*
X28701697Y-68836985D02*
X27146062Y-68836985D01*
%TO.N,B1-Net-(U2-E)*%
X39966062Y-61076985D02*
X40186062Y-61296985D01*
X33781697Y-68836985D02*
X32226062Y-68836985D01*
X40186062Y-62432620D02*
X33781697Y-68836985D01*
X40186062Y-61296985D02*
X40186062Y-62432620D01*
X32226062Y-68836985D02*
X31126062Y-69936985D01*
X39966062Y-59516985D02*
X39966062Y-61076985D01*
%TO.N,B0-Net-(Q1-B)*%
D27*
X87664579Y-55763656D02*
X86634579Y-54733656D01*
X86634579Y-54733656D02*
X84627079Y-54733656D01*
X87664579Y-53663656D02*
X86594579Y-54733656D01*
X86594579Y-54733656D02*
X84627079Y-54733656D01*
%TO.N,B0-Net-(R7-Pad2)*%
X92744579Y-53663656D02*
X92744579Y-38793656D01*
X92744579Y-38793656D02*
X91964579Y-38013656D01*
%TO.N,B0-Net-(D1-K)*%
X84457079Y-53293656D02*
X75469579Y-53293656D01*
X84627079Y-53463656D02*
X84457079Y-53293656D01*
X75469579Y-53293656D02*
X75464579Y-53298656D01*
%TO.N,B0-COND_3V*%
X98314579Y-71113656D02*
X91964579Y-71113656D01*
X75464579Y-55838656D02*
X80289579Y-60663656D01*
X92964579Y-60663656D02*
X98914579Y-66613656D01*
X98914579Y-66613656D02*
X98964580Y-66613656D01*
X80289579Y-60663656D02*
X92964579Y-60663656D01*
X98964580Y-66613656D02*
X98964580Y-70463655D01*
X98964580Y-70463655D02*
X98314579Y-71113656D01*
%TD*%
%TA.AperFunction,Conductor*%
%TO.N,B1-Earth*%
G36*
X45949925Y-26336152D02*
G01*
X45957297Y-26338509D01*
X45981541Y-26349234D01*
X46055449Y-26391905D01*
X46055450Y-26391905D01*
X46055453Y-26391907D01*
X46195463Y-26429423D01*
X46195466Y-26429423D01*
X46340410Y-26429423D01*
X46340413Y-26429423D01*
X46480423Y-26391907D01*
X46549325Y-26352125D01*
X46582081Y-26339011D01*
X46597278Y-26335325D01*
X46667008Y-26338630D01*
X46668728Y-26339226D01*
X46719975Y-26373013D01*
X46725184Y-26378743D01*
X46740810Y-26400145D01*
X46772045Y-26454243D01*
X46773341Y-26456488D01*
X46773343Y-26456490D01*
X46875835Y-26558982D01*
X46876524Y-26559478D01*
X46879028Y-26560826D01*
X46997919Y-26629468D01*
X47000937Y-26631342D01*
X47001364Y-26631456D01*
X47001365Y-26631457D01*
X47141375Y-26668973D01*
X47141378Y-26668973D01*
X47286323Y-26668973D01*
X47286325Y-26668973D01*
X47361951Y-26648708D01*
X47396985Y-26644519D01*
X47398459Y-26644554D01*
X47412613Y-26644890D01*
X47479162Y-26666159D01*
X47479192Y-26666179D01*
X47480691Y-26667194D01*
X47521381Y-26713047D01*
X47524924Y-26719919D01*
X47534484Y-26744646D01*
X47554842Y-26820618D01*
X47554844Y-26820625D01*
X47554842Y-26820625D01*
X47555344Y-26822493D01*
X47555345Y-26822498D01*
X47625960Y-26944805D01*
X47627818Y-26948023D01*
X47730314Y-27050519D01*
X47731003Y-27051015D01*
X47733507Y-27052363D01*
X47852398Y-27121005D01*
X47855416Y-27122879D01*
X47855843Y-27122993D01*
X47855844Y-27122994D01*
X47995854Y-27160510D01*
X47995856Y-27160510D01*
X48003704Y-27162613D01*
X48003664Y-27162759D01*
X48015306Y-27165473D01*
X48037988Y-27173172D01*
X48060132Y-27183205D01*
X70008004Y-39854815D01*
X70009376Y-39855619D01*
X70010740Y-39856430D01*
X70012161Y-39857288D01*
X70078550Y-39897974D01*
X70081253Y-39899678D01*
X70083962Y-39901438D01*
X70086618Y-39903213D01*
X70096813Y-39910220D01*
X70143384Y-39942229D01*
X70145949Y-39944043D01*
X70148598Y-39945967D01*
X70151191Y-39947904D01*
X70173588Y-39965092D01*
X70205762Y-39989781D01*
X70208334Y-39991809D01*
X70210842Y-39993841D01*
X70213303Y-39995887D01*
X70265621Y-40040573D01*
X70267991Y-40042652D01*
X70270426Y-40044844D01*
X70272800Y-40047038D01*
X70322711Y-40094404D01*
X70325053Y-40096686D01*
X70327363Y-40098997D01*
X70329611Y-40101305D01*
X70376900Y-40151139D01*
X70379109Y-40153529D01*
X70381284Y-40155945D01*
X70383387Y-40158343D01*
X70428097Y-40210692D01*
X70430155Y-40213166D01*
X70432207Y-40215700D01*
X70434216Y-40218249D01*
X70476047Y-40272763D01*
X70478011Y-40275393D01*
X70479941Y-40278051D01*
X70481794Y-40280675D01*
X70520725Y-40337321D01*
X70522530Y-40340022D01*
X70524306Y-40342757D01*
X70526037Y-40345500D01*
X70561962Y-40404126D01*
X70563613Y-40406901D01*
X70565251Y-40409738D01*
X70566809Y-40412519D01*
X70599647Y-40472997D01*
X70601144Y-40475845D01*
X70601146Y-40475848D01*
X70602628Y-40478758D01*
X70604052Y-40481646D01*
X70633659Y-40543716D01*
X70635003Y-40546630D01*
X70636345Y-40549645D01*
X70637611Y-40552592D01*
X70663925Y-40616121D01*
X70665123Y-40619123D01*
X70666298Y-40622183D01*
X70667426Y-40625240D01*
X70688123Y-40683685D01*
X70688126Y-40683694D01*
X70690383Y-40690069D01*
X70691431Y-40693157D01*
X70692423Y-40696212D01*
X70693377Y-40699283D01*
X70697857Y-40714404D01*
X70697858Y-40714412D01*
X70697859Y-40714412D01*
X70712913Y-40765233D01*
X70713798Y-40768374D01*
X70714633Y-40771492D01*
X70715427Y-40774619D01*
X70731477Y-40841466D01*
X70732196Y-40844641D01*
X70732869Y-40847808D01*
X70733500Y-40850982D01*
X70746031Y-40918582D01*
X70746577Y-40921760D01*
X70747091Y-40925001D01*
X70747561Y-40928238D01*
X70756537Y-40996416D01*
X70756916Y-40999617D01*
X70757254Y-41002827D01*
X70757548Y-41006016D01*
X70762764Y-41072270D01*
X70762948Y-41074598D01*
X70763158Y-41077803D01*
X70763331Y-41081085D01*
X70763460Y-41084363D01*
X70765495Y-41162012D01*
X70765527Y-41163593D01*
X70765549Y-41165228D01*
X70765560Y-41166896D01*
X70765560Y-67707028D01*
X70765549Y-67708680D01*
X70765527Y-67710331D01*
X70765496Y-67711921D01*
X70763463Y-67789645D01*
X70763334Y-67792906D01*
X70763164Y-67796143D01*
X70762953Y-67799366D01*
X70757560Y-67867914D01*
X70757262Y-67871159D01*
X70756921Y-67874401D01*
X70756540Y-67877613D01*
X70747570Y-67945755D01*
X70747111Y-67948927D01*
X70746602Y-67952148D01*
X70746046Y-67955390D01*
X70733513Y-68023013D01*
X70732876Y-68026210D01*
X70732208Y-68029351D01*
X70731495Y-68032503D01*
X70715447Y-68099350D01*
X70714641Y-68102521D01*
X70713792Y-68105687D01*
X70712918Y-68108785D01*
X70693401Y-68174679D01*
X70692439Y-68177780D01*
X70691437Y-68180864D01*
X70690392Y-68183940D01*
X70667429Y-68248785D01*
X70666300Y-68251847D01*
X70665156Y-68254826D01*
X70663960Y-68257823D01*
X70637638Y-68321372D01*
X70636354Y-68324360D01*
X70635032Y-68327329D01*
X70633675Y-68330273D01*
X70604084Y-68392313D01*
X70602637Y-68395246D01*
X70601149Y-68398165D01*
X70599647Y-68401019D01*
X70566837Y-68461445D01*
X70565249Y-68464281D01*
X70563638Y-68467071D01*
X70561982Y-68469854D01*
X70526055Y-68528483D01*
X70524317Y-68531238D01*
X70522549Y-68533960D01*
X70520751Y-68536650D01*
X70481813Y-68593305D01*
X70479939Y-68595956D01*
X70478050Y-68598556D01*
X70476105Y-68601161D01*
X70434233Y-68655726D01*
X70432216Y-68658284D01*
X70430157Y-68660826D01*
X70428092Y-68663309D01*
X70383453Y-68715575D01*
X70381315Y-68718013D01*
X70379147Y-68720421D01*
X70376939Y-68722810D01*
X70329617Y-68772675D01*
X70327334Y-68775017D01*
X70325023Y-68777327D01*
X70322714Y-68779576D01*
X70272841Y-68826901D01*
X70270465Y-68829098D01*
X70268053Y-68831270D01*
X70265623Y-68833400D01*
X70213298Y-68878088D01*
X70210835Y-68880138D01*
X70208296Y-68882194D01*
X70205744Y-68884205D01*
X70151194Y-68926060D01*
X70148591Y-68928004D01*
X70145999Y-68929887D01*
X70143356Y-68931755D01*
X70086653Y-68970723D01*
X70083967Y-68972518D01*
X70081248Y-68974283D01*
X70078519Y-68976005D01*
X70012206Y-69016638D01*
X70010857Y-69017452D01*
X70009463Y-69018282D01*
X70008026Y-69019125D01*
X48029537Y-81708427D01*
X48007397Y-81718459D01*
X47984620Y-81726191D01*
X47968960Y-81730388D01*
X47965262Y-81731123D01*
X47825237Y-81768643D01*
X47825236Y-81768644D01*
X47699721Y-81841111D01*
X47699713Y-81841116D01*
X47699697Y-81841131D01*
X47597234Y-81943594D01*
X47597219Y-81943610D01*
X47597214Y-81943616D01*
X47524747Y-82069132D01*
X47524745Y-82069137D01*
X47505268Y-82141825D01*
X47505268Y-82141827D01*
X47491373Y-82174271D01*
X47483237Y-82187618D01*
X47431575Y-82234596D01*
X47429948Y-82235387D01*
X47369834Y-82247728D01*
X47362104Y-82247360D01*
X47335908Y-82243275D01*
X47278228Y-82227820D01*
X47278227Y-82227819D01*
X47255504Y-82221731D01*
X47110554Y-82221731D01*
X47007912Y-82249234D01*
X47007911Y-82249233D01*
X46970541Y-82259247D01*
X46970536Y-82259249D01*
X46845021Y-82331716D01*
X46845013Y-82331721D01*
X46844997Y-82331736D01*
X46742526Y-82434207D01*
X46742521Y-82434214D01*
X46742511Y-82434230D01*
X46718840Y-82475227D01*
X46707830Y-82489227D01*
X46697025Y-82502967D01*
X46685714Y-82513752D01*
X46623611Y-82545768D01*
X46623579Y-82545774D01*
X46621802Y-82546116D01*
X46560610Y-82542463D01*
X46553240Y-82540107D01*
X46528998Y-82529382D01*
X46445633Y-82481252D01*
X46445628Y-82481249D01*
X46395480Y-82467812D01*
X46305617Y-82443733D01*
X46305614Y-82443733D01*
X46160667Y-82443733D01*
X46035451Y-82477284D01*
X46035447Y-82477285D01*
X46020657Y-82481249D01*
X46020656Y-82481249D01*
X46020654Y-82481250D01*
X45958307Y-82517245D01*
X45955791Y-82518549D01*
X45952241Y-82519240D01*
X45927990Y-82528948D01*
X45912798Y-82532633D01*
X45889232Y-82531511D01*
X45887210Y-82531905D01*
X45885811Y-82531348D01*
X45843009Y-82529309D01*
X45841970Y-82528949D01*
X45841249Y-82528699D01*
X45790105Y-82494951D01*
X45784901Y-82489227D01*
X45769264Y-82467812D01*
X45755362Y-82443733D01*
X45731723Y-82402789D01*
X45629229Y-82300295D01*
X45629227Y-82300293D01*
X45628535Y-82299794D01*
X45626016Y-82298439D01*
X45575456Y-82269248D01*
X45547022Y-82239428D01*
X45469685Y-82218706D01*
X45469684Y-82218705D01*
X45392090Y-82197914D01*
X45363689Y-82190304D01*
X45363688Y-82190304D01*
X45218737Y-82190304D01*
X45143840Y-82210372D01*
X45143839Y-82210373D01*
X45108794Y-82214563D01*
X45093167Y-82214191D01*
X45026627Y-82192924D01*
X45025124Y-82191907D01*
X44984405Y-82146035D01*
X44980858Y-82139155D01*
X44971301Y-82114437D01*
X44950341Y-82036210D01*
X44877866Y-81910680D01*
X44775372Y-81808186D01*
X44775370Y-81808184D01*
X44774678Y-81807685D01*
X44772159Y-81806330D01*
X44721599Y-81777139D01*
X44693166Y-81747320D01*
X44628853Y-81730087D01*
X44548019Y-81708427D01*
X44509823Y-81698192D01*
X44506124Y-81697457D01*
X44490459Y-81693259D01*
X44467689Y-81685529D01*
X44445554Y-81675499D01*
X36948229Y-77346917D01*
X26575807Y-71358397D01*
X26548066Y-71336582D01*
X26538521Y-71326572D01*
X26532283Y-71314473D01*
X26522233Y-71305295D01*
X26516586Y-71284028D01*
X26506503Y-71264470D01*
X26507796Y-71250919D01*
X26504304Y-71237765D01*
X26511051Y-71216821D01*
X26513143Y-71194917D01*
X26522014Y-71182796D01*
X26525731Y-71171262D01*
X26549532Y-71145201D01*
X26551350Y-71143707D01*
X26555649Y-71140174D01*
X26578075Y-71125494D01*
X26727672Y-71049272D01*
X26748832Y-71033898D01*
X26893275Y-70928956D01*
X26893277Y-70928953D01*
X26893281Y-70928951D01*
X26893283Y-70928948D01*
X26893336Y-70928910D01*
X26894094Y-70928137D01*
X27038028Y-70784204D01*
X27038030Y-70784200D01*
X27038033Y-70784198D01*
X27158346Y-70618599D01*
X27158347Y-70618598D01*
X27158349Y-70618595D01*
X27198030Y-70540715D01*
X27198582Y-70539682D01*
X27199949Y-70538288D01*
X27217814Y-70512945D01*
X27226711Y-70503526D01*
X27243923Y-70493479D01*
X27247520Y-70489814D01*
X27251913Y-70488814D01*
X27287050Y-70468305D01*
X27356855Y-70471297D01*
X27410568Y-70507463D01*
X27416642Y-70514473D01*
X27433412Y-70539377D01*
X27473777Y-70618599D01*
X27594090Y-70784198D01*
X27738848Y-70928956D01*
X27893811Y-71041541D01*
X27904452Y-71049272D01*
X28020669Y-71108488D01*
X28081216Y-71139338D01*
X28082105Y-71139809D01*
X28082311Y-71140010D01*
X28085691Y-71141647D01*
X28087699Y-71142645D01*
X28091465Y-71143707D01*
X28131550Y-71156731D01*
X28191197Y-71176111D01*
X28191198Y-71176112D01*
X28234674Y-71190238D01*
X28281527Y-71205462D01*
X28382619Y-71221473D01*
X28483710Y-71237485D01*
X28483711Y-71237485D01*
X28688413Y-71237485D01*
X28688414Y-71237485D01*
X28890596Y-71205462D01*
X29085281Y-71142205D01*
X29267672Y-71049272D01*
X29360652Y-70981717D01*
X29433275Y-70928956D01*
X29433275Y-70928954D01*
X29433334Y-70928912D01*
X29434093Y-70928138D01*
X29578028Y-70784204D01*
X29578030Y-70784200D01*
X29578033Y-70784198D01*
X29698346Y-70618599D01*
X29698347Y-70618598D01*
X29698349Y-70618595D01*
X29738030Y-70540715D01*
X29738582Y-70539682D01*
X29739949Y-70538288D01*
X29757814Y-70512945D01*
X29766711Y-70503526D01*
X29783923Y-70493479D01*
X29787520Y-70489814D01*
X29791913Y-70488814D01*
X29827050Y-70468305D01*
X29896855Y-70471297D01*
X29950568Y-70507463D01*
X29956642Y-70514473D01*
X29973412Y-70539377D01*
X30013777Y-70618599D01*
X30134090Y-70784198D01*
X30278848Y-70928956D01*
X30433811Y-71041541D01*
X30444452Y-71049272D01*
X30560669Y-71108488D01*
X30621216Y-71139338D01*
X30622105Y-71139809D01*
X30622311Y-71140010D01*
X30625691Y-71141647D01*
X30627699Y-71142645D01*
X30631465Y-71143707D01*
X30671550Y-71156731D01*
X30731197Y-71176111D01*
X30731198Y-71176112D01*
X30774674Y-71190238D01*
X30821527Y-71205462D01*
X30922619Y-71221473D01*
X31023710Y-71237485D01*
X31023711Y-71237485D01*
X31228413Y-71237485D01*
X31228414Y-71237485D01*
X31430596Y-71205462D01*
X31625281Y-71142205D01*
X31807672Y-71049272D01*
X31900652Y-70981717D01*
X31973275Y-70928956D01*
X31973275Y-70928954D01*
X31973334Y-70928912D01*
X31974093Y-70928138D01*
X32118028Y-70784204D01*
X32118030Y-70784200D01*
X32118033Y-70784198D01*
X32238346Y-70618599D01*
X32238347Y-70618598D01*
X32238349Y-70618595D01*
X32278030Y-70540715D01*
X32278582Y-70539682D01*
X32279949Y-70538288D01*
X32297814Y-70512945D01*
X32306711Y-70503526D01*
X32323923Y-70493479D01*
X32327520Y-70489814D01*
X32331913Y-70488814D01*
X32367050Y-70468305D01*
X32436855Y-70471297D01*
X32490568Y-70507463D01*
X32496642Y-70514473D01*
X32513412Y-70539377D01*
X32553777Y-70618599D01*
X32674090Y-70784198D01*
X32818848Y-70928956D01*
X32973811Y-71041541D01*
X32984452Y-71049272D01*
X33100669Y-71108488D01*
X33161216Y-71139338D01*
X33162105Y-71139809D01*
X33162311Y-71140010D01*
X33165691Y-71141647D01*
X33167699Y-71142645D01*
X33171465Y-71143707D01*
X33211550Y-71156731D01*
X33271197Y-71176111D01*
X33271198Y-71176112D01*
X33314674Y-71190238D01*
X33361527Y-71205462D01*
X33462619Y-71221473D01*
X33563710Y-71237485D01*
X33563711Y-71237485D01*
X33768413Y-71237485D01*
X33768414Y-71237485D01*
X33970596Y-71205462D01*
X34165281Y-71142205D01*
X34347672Y-71049272D01*
X34440652Y-70981717D01*
X34513275Y-70928956D01*
X34513275Y-70928954D01*
X34513334Y-70928912D01*
X34514093Y-70928138D01*
X34658028Y-70784204D01*
X34658030Y-70784200D01*
X34658033Y-70784198D01*
X34778346Y-70618599D01*
X34778347Y-70618598D01*
X34778349Y-70618595D01*
X34818030Y-70540715D01*
X34818582Y-70539682D01*
X34819949Y-70538288D01*
X34837814Y-70512945D01*
X34846711Y-70503526D01*
X34863923Y-70493479D01*
X34867520Y-70489814D01*
X34871913Y-70488814D01*
X34907050Y-70468305D01*
X34976855Y-70471297D01*
X35030568Y-70507463D01*
X35036642Y-70514473D01*
X35053412Y-70539377D01*
X35093777Y-70618599D01*
X35214090Y-70784198D01*
X35358848Y-70928956D01*
X35513811Y-71041541D01*
X35524452Y-71049272D01*
X35640669Y-71108488D01*
X35701216Y-71139338D01*
X35702105Y-71139809D01*
X35702311Y-71140010D01*
X35705691Y-71141647D01*
X35707699Y-71142645D01*
X35711465Y-71143707D01*
X35751550Y-71156731D01*
X35811197Y-71176111D01*
X35811198Y-71176112D01*
X35854674Y-71190238D01*
X35901527Y-71205462D01*
X36002619Y-71221473D01*
X36103710Y-71237485D01*
X36103711Y-71237485D01*
X36308413Y-71237485D01*
X36308414Y-71237485D01*
X36510596Y-71205462D01*
X36705281Y-71142205D01*
X36887672Y-71049272D01*
X36980652Y-70981717D01*
X37053275Y-70928956D01*
X37053275Y-70928954D01*
X37053334Y-70928912D01*
X37054093Y-70928138D01*
X37198028Y-70784204D01*
X37198030Y-70784200D01*
X37198033Y-70784198D01*
X37318346Y-70618599D01*
X37318347Y-70618598D01*
X37318349Y-70618595D01*
X37358030Y-70540715D01*
X37358582Y-70539682D01*
X37359949Y-70538288D01*
X37377814Y-70512945D01*
X37386711Y-70503526D01*
X37403923Y-70493479D01*
X37407520Y-70489814D01*
X37411913Y-70488814D01*
X37447050Y-70468305D01*
X37516855Y-70471297D01*
X37570568Y-70507463D01*
X37576642Y-70514473D01*
X37593412Y-70539377D01*
X37633777Y-70618599D01*
X37754090Y-70784198D01*
X37898848Y-70928956D01*
X38053811Y-71041541D01*
X38064452Y-71049272D01*
X38180669Y-71108488D01*
X38241216Y-71139338D01*
X38242105Y-71139809D01*
X38242311Y-71140010D01*
X38245691Y-71141647D01*
X38247699Y-71142645D01*
X38251465Y-71143707D01*
X38291550Y-71156731D01*
X38351197Y-71176111D01*
X38351198Y-71176112D01*
X38394674Y-71190238D01*
X38441527Y-71205462D01*
X38542619Y-71221473D01*
X38643710Y-71237485D01*
X38643711Y-71237485D01*
X38848413Y-71237485D01*
X38848414Y-71237485D01*
X39050596Y-71205462D01*
X39245281Y-71142205D01*
X39427672Y-71049272D01*
X39520652Y-70981717D01*
X39593275Y-70928956D01*
X39593275Y-70928954D01*
X39593334Y-70928912D01*
X39594093Y-70928138D01*
X39738028Y-70784204D01*
X39738030Y-70784200D01*
X39738033Y-70784198D01*
X39858346Y-70618599D01*
X39858347Y-70618598D01*
X39858349Y-70618595D01*
X39898030Y-70540715D01*
X39898582Y-70539682D01*
X39899949Y-70538288D01*
X39917814Y-70512945D01*
X39926711Y-70503526D01*
X39943923Y-70493479D01*
X39947520Y-70489814D01*
X39951913Y-70488814D01*
X39987050Y-70468305D01*
X40056855Y-70471297D01*
X40110568Y-70507463D01*
X40116642Y-70514473D01*
X40133412Y-70539377D01*
X40173777Y-70618599D01*
X40294090Y-70784198D01*
X40438848Y-70928956D01*
X40593811Y-71041541D01*
X40604452Y-71049272D01*
X40720669Y-71108488D01*
X40781216Y-71139338D01*
X40782105Y-71139809D01*
X40782311Y-71140010D01*
X40785691Y-71141647D01*
X40787699Y-71142645D01*
X40791465Y-71143707D01*
X40831550Y-71156731D01*
X40891197Y-71176111D01*
X40891198Y-71176112D01*
X40934674Y-71190238D01*
X40981527Y-71205462D01*
X41082619Y-71221473D01*
X41183710Y-71237485D01*
X41183711Y-71237485D01*
X41388413Y-71237485D01*
X41388414Y-71237485D01*
X41590596Y-71205462D01*
X41785281Y-71142205D01*
X41967672Y-71049272D01*
X42060652Y-70981717D01*
X42133275Y-70928956D01*
X42133275Y-70928954D01*
X42133334Y-70928912D01*
X42134093Y-70928138D01*
X42278028Y-70784204D01*
X42278030Y-70784200D01*
X42278033Y-70784198D01*
X42398346Y-70618599D01*
X42398347Y-70618598D01*
X42398349Y-70618595D01*
X42438030Y-70540715D01*
X42438582Y-70539682D01*
X42439949Y-70538288D01*
X42457814Y-70512945D01*
X42466711Y-70503526D01*
X42483923Y-70493479D01*
X42487520Y-70489814D01*
X42491913Y-70488814D01*
X42527050Y-70468305D01*
X42596855Y-70471297D01*
X42650568Y-70507463D01*
X42656642Y-70514473D01*
X42673412Y-70539377D01*
X42713777Y-70618599D01*
X42834090Y-70784198D01*
X42978848Y-70928956D01*
X43133811Y-71041541D01*
X43144452Y-71049272D01*
X43260669Y-71108488D01*
X43321216Y-71139338D01*
X43322105Y-71139809D01*
X43322311Y-71140010D01*
X43325691Y-71141647D01*
X43327699Y-71142645D01*
X43331465Y-71143707D01*
X43371550Y-71156731D01*
X43431197Y-71176111D01*
X43431198Y-71176112D01*
X43474674Y-71190238D01*
X43521527Y-71205462D01*
X43622619Y-71221473D01*
X43723710Y-71237485D01*
X43723711Y-71237485D01*
X43928413Y-71237485D01*
X43928414Y-71237485D01*
X44130596Y-71205462D01*
X44325281Y-71142205D01*
X44507672Y-71049272D01*
X44600652Y-70981717D01*
X44673275Y-70928956D01*
X44673275Y-70928954D01*
X44673334Y-70928912D01*
X44674093Y-70928138D01*
X44818028Y-70784204D01*
X44818030Y-70784200D01*
X44818033Y-70784198D01*
X44870792Y-70711578D01*
X44870794Y-70711576D01*
X44894234Y-70679312D01*
X44938349Y-70618595D01*
X45031282Y-70436204D01*
X45094539Y-70241519D01*
X45126562Y-70039337D01*
X45126562Y-69834633D01*
X45126562Y-69834628D01*
X45104240Y-69693698D01*
X45104240Y-69693697D01*
X45094539Y-69632450D01*
X45058839Y-69522579D01*
X45031282Y-69437766D01*
X45031280Y-69437763D01*
X45031280Y-69437761D01*
X45029047Y-69433379D01*
X45028736Y-69432581D01*
X45027998Y-69431320D01*
X44987091Y-69351037D01*
X44938349Y-69255375D01*
X44919470Y-69229390D01*
X44818033Y-69089771D01*
X44673275Y-68945013D01*
X44673274Y-68945012D01*
X44673273Y-68945011D01*
X44518264Y-68832393D01*
X44518261Y-68832391D01*
X44507675Y-68824700D01*
X44507674Y-68824699D01*
X44507672Y-68824698D01*
X44501597Y-68821602D01*
X44501593Y-68821600D01*
X44416937Y-68778466D01*
X44416937Y-68778465D01*
X44416935Y-68778465D01*
X44325290Y-68731768D01*
X44325283Y-68731765D01*
X44154860Y-68676391D01*
X44130596Y-68668507D01*
X44130594Y-68668506D01*
X44130592Y-68668506D01*
X44130591Y-68668505D01*
X43956057Y-68640863D01*
X43939471Y-68638236D01*
X43928416Y-68636485D01*
X43928414Y-68636485D01*
X43723710Y-68636485D01*
X43723709Y-68636485D01*
X43699389Y-68640336D01*
X43699388Y-68640335D01*
X43521530Y-68668506D01*
X43326839Y-68731765D01*
X43326826Y-68731771D01*
X43144459Y-68824693D01*
X43144447Y-68824700D01*
X42978849Y-68945012D01*
X42978846Y-68945014D01*
X42834091Y-69089769D01*
X42834089Y-69089772D01*
X42713777Y-69255370D01*
X42713773Y-69255377D01*
X42674639Y-69332181D01*
X42674637Y-69332183D01*
X42674637Y-69332185D01*
X42654300Y-69361031D01*
X42645409Y-69370444D01*
X42585065Y-69405664D01*
X42515260Y-69402668D01*
X42461551Y-69366501D01*
X42455479Y-69359493D01*
X42438711Y-69334590D01*
X42437484Y-69332181D01*
X42398349Y-69255375D01*
X42398345Y-69255370D01*
X42379470Y-69229390D01*
X42379469Y-69229389D01*
X42278033Y-69089771D01*
X42133275Y-68945013D01*
X42133274Y-68945012D01*
X42133273Y-68945011D01*
X41978264Y-68832393D01*
X41978261Y-68832391D01*
X41967675Y-68824700D01*
X41967674Y-68824699D01*
X41967672Y-68824698D01*
X41961597Y-68821602D01*
X41961593Y-68821600D01*
X41876937Y-68778466D01*
X41876937Y-68778465D01*
X41876935Y-68778465D01*
X41785290Y-68731768D01*
X41785283Y-68731765D01*
X41614860Y-68676391D01*
X41590596Y-68668507D01*
X41590594Y-68668506D01*
X41590592Y-68668506D01*
X41590591Y-68668505D01*
X41416057Y-68640863D01*
X41399471Y-68638236D01*
X41388416Y-68636485D01*
X41388414Y-68636485D01*
X41183710Y-68636485D01*
X41183709Y-68636485D01*
X41159389Y-68640336D01*
X41159388Y-68640335D01*
X40981530Y-68668506D01*
X40786839Y-68731765D01*
X40786826Y-68731771D01*
X40604459Y-68824693D01*
X40604447Y-68824700D01*
X40438849Y-68945012D01*
X40438846Y-68945014D01*
X40294091Y-69089769D01*
X40294089Y-69089772D01*
X40173777Y-69255370D01*
X40173773Y-69255377D01*
X40134639Y-69332181D01*
X40134637Y-69332183D01*
X40134637Y-69332185D01*
X40114300Y-69361031D01*
X40105409Y-69370444D01*
X40045065Y-69405664D01*
X39975260Y-69402668D01*
X39921551Y-69366501D01*
X39915479Y-69359493D01*
X39898711Y-69334590D01*
X39897484Y-69332181D01*
X39858349Y-69255375D01*
X39858345Y-69255370D01*
X39839470Y-69229390D01*
X39839469Y-69229389D01*
X39738033Y-69089771D01*
X39593275Y-68945013D01*
X39593274Y-68945012D01*
X39593273Y-68945011D01*
X39438264Y-68832393D01*
X39438261Y-68832391D01*
X39427675Y-68824700D01*
X39427674Y-68824699D01*
X39427672Y-68824698D01*
X39421597Y-68821602D01*
X39421593Y-68821600D01*
X39336937Y-68778466D01*
X39336937Y-68778465D01*
X39336935Y-68778465D01*
X39245290Y-68731768D01*
X39245283Y-68731765D01*
X39074860Y-68676391D01*
X39050596Y-68668507D01*
X39050594Y-68668506D01*
X39050592Y-68668506D01*
X39050591Y-68668505D01*
X38876057Y-68640863D01*
X38859471Y-68638236D01*
X38848416Y-68636485D01*
X38848414Y-68636485D01*
X38643710Y-68636485D01*
X38643709Y-68636485D01*
X38619389Y-68640336D01*
X38619388Y-68640335D01*
X38441530Y-68668506D01*
X38246839Y-68731765D01*
X38246826Y-68731771D01*
X38064459Y-68824693D01*
X38064447Y-68824700D01*
X37898849Y-68945012D01*
X37898846Y-68945014D01*
X37754091Y-69089769D01*
X37754089Y-69089772D01*
X37633777Y-69255370D01*
X37633773Y-69255377D01*
X37594639Y-69332181D01*
X37594637Y-69332183D01*
X37594637Y-69332185D01*
X37574300Y-69361031D01*
X37565409Y-69370444D01*
X37505065Y-69405664D01*
X37435260Y-69402668D01*
X37381551Y-69366501D01*
X37375479Y-69359493D01*
X37358711Y-69334590D01*
X37357484Y-69332181D01*
X37318349Y-69255375D01*
X37318345Y-69255370D01*
X37299470Y-69229390D01*
X37299469Y-69229389D01*
X37198033Y-69089771D01*
X37053275Y-68945013D01*
X37053274Y-68945012D01*
X37053273Y-68945011D01*
X36898264Y-68832393D01*
X36898261Y-68832391D01*
X36887675Y-68824700D01*
X36887674Y-68824699D01*
X36887672Y-68824698D01*
X36881597Y-68821602D01*
X36881593Y-68821600D01*
X36796937Y-68778466D01*
X36796937Y-68778465D01*
X36796935Y-68778465D01*
X36705290Y-68731768D01*
X36705283Y-68731765D01*
X36534860Y-68676391D01*
X36510596Y-68668507D01*
X36510594Y-68668506D01*
X36510592Y-68668506D01*
X36510591Y-68668505D01*
X36336057Y-68640863D01*
X36319471Y-68638236D01*
X36308416Y-68636485D01*
X36308414Y-68636485D01*
X36103710Y-68636485D01*
X36103709Y-68636485D01*
X36079389Y-68640336D01*
X36079388Y-68640335D01*
X35901530Y-68668506D01*
X35706839Y-68731765D01*
X35706826Y-68731771D01*
X35524459Y-68824693D01*
X35524447Y-68824700D01*
X35358849Y-68945012D01*
X35358846Y-68945014D01*
X35214091Y-69089769D01*
X35214089Y-69089772D01*
X35093777Y-69255370D01*
X35093773Y-69255377D01*
X35054639Y-69332181D01*
X35054637Y-69332183D01*
X35054637Y-69332185D01*
X35034300Y-69361031D01*
X35025409Y-69370444D01*
X34965065Y-69405664D01*
X34895260Y-69402668D01*
X34841551Y-69366501D01*
X34835479Y-69359493D01*
X34818711Y-69334590D01*
X34817484Y-69332181D01*
X34778349Y-69255375D01*
X34778345Y-69255370D01*
X34759470Y-69229390D01*
X34759469Y-69229389D01*
X34658033Y-69089771D01*
X34618377Y-69050115D01*
X34597225Y-69021859D01*
X34589733Y-69008138D01*
X34589167Y-69005535D01*
X34574881Y-68939878D01*
X34575010Y-68938069D01*
X34594376Y-68879874D01*
X34598569Y-68873350D01*
X34615190Y-68852725D01*
X35811107Y-67656809D01*
X40537336Y-62930580D01*
X40537339Y-62930578D01*
X40554777Y-62913140D01*
X40554778Y-62913140D01*
X40666582Y-62801336D01*
X40728804Y-62693563D01*
X40731020Y-62689726D01*
X40734408Y-62683854D01*
X40734418Y-62683845D01*
X40734415Y-62683843D01*
X40744409Y-62666535D01*
X40745639Y-62664405D01*
X40758131Y-62617783D01*
X40794496Y-62558123D01*
X40857343Y-62527594D01*
X40926718Y-62535889D01*
X40965587Y-62562196D01*
X40965981Y-62562590D01*
X40965982Y-62562591D01*
X41040456Y-62637065D01*
X41040457Y-62637066D01*
X41040459Y-62637067D01*
X41077435Y-62658415D01*
X41125650Y-62708981D01*
X41138874Y-62777588D01*
X41112906Y-62842453D01*
X41103116Y-62853483D01*
X40560137Y-63396458D01*
X40560138Y-63396458D01*
X40560138Y-63396459D01*
X40604712Y-63428844D01*
X40665264Y-63459697D01*
X40787025Y-63521738D01*
X40787027Y-63521738D01*
X40787030Y-63521740D01*
X40981644Y-63584975D01*
X41183745Y-63616985D01*
X41388378Y-63616985D01*
X41388379Y-63616985D01*
X41590479Y-63584975D01*
X41785093Y-63521740D01*
X41790632Y-63518918D01*
X41967409Y-63428845D01*
X41967408Y-63428845D01*
X41967411Y-63428844D01*
X42011983Y-63396459D01*
X41469007Y-62853483D01*
X41435522Y-62792160D01*
X41440506Y-62722468D01*
X41482378Y-62666535D01*
X41494680Y-62658419D01*
X41531668Y-62637065D01*
X41606142Y-62562591D01*
X41627492Y-62525610D01*
X41678057Y-62477396D01*
X41746664Y-62464172D01*
X41811529Y-62490139D01*
X41822560Y-62499930D01*
X42365534Y-63042905D01*
X42365534Y-63042904D01*
X42365536Y-63042906D01*
X42382707Y-63041555D01*
X42382707Y-63041554D01*
X42394564Y-63036987D01*
X42395832Y-63035914D01*
X42398144Y-63035608D01*
X42399555Y-63035065D01*
X42399685Y-63035404D01*
X42416225Y-63033217D01*
X42435392Y-63025745D01*
X42450160Y-63028730D01*
X42465099Y-63026755D01*
X42483713Y-63035512D01*
X42503877Y-63039588D01*
X42515705Y-63050563D01*
X42528322Y-63056499D01*
X42551130Y-63083433D01*
X42555976Y-63091165D01*
X42568612Y-63118012D01*
X42591244Y-63186310D01*
X42591249Y-63186321D01*
X42602963Y-63205312D01*
X42683350Y-63335641D01*
X42807406Y-63459697D01*
X42956728Y-63551799D01*
X43123265Y-63606984D01*
X43226053Y-63617485D01*
X44426070Y-63617484D01*
X44528859Y-63606984D01*
X44695396Y-63551799D01*
X44844718Y-63459697D01*
X44968774Y-63335641D01*
X45060876Y-63186319D01*
X45116061Y-63019782D01*
X45126562Y-62916994D01*
X45126561Y-61716977D01*
X45125428Y-61705890D01*
X45125428Y-61705889D01*
X47336062Y-61705889D01*
X47336062Y-61968079D01*
X47368526Y-62214661D01*
X47370282Y-62227994D01*
X47370284Y-62228005D01*
X47434173Y-62466444D01*
X47438137Y-62481239D01*
X47438140Y-62481249D01*
X47538468Y-62723462D01*
X47669545Y-62950493D01*
X47669553Y-62950506D01*
X47706261Y-62998344D01*
X47756142Y-63063350D01*
X48546889Y-62272602D01*
X48608210Y-62239119D01*
X48677901Y-62244103D01*
X48733835Y-62285975D01*
X48737669Y-62291392D01*
X48753499Y-62315083D01*
X48857961Y-62419545D01*
X48857969Y-62419551D01*
X48881649Y-62435374D01*
X48926455Y-62488986D01*
X48935162Y-62558311D01*
X48905008Y-62621338D01*
X48900440Y-62626157D01*
X48109695Y-63416901D01*
X48109694Y-63416902D01*
X48109695Y-63416902D01*
X48109695Y-63416903D01*
X48146125Y-63444857D01*
X48222539Y-63503492D01*
X48222542Y-63503494D01*
X48222545Y-63503496D01*
X48449579Y-63634575D01*
X48449590Y-63634580D01*
X48691806Y-63734909D01*
X48945041Y-63802762D01*
X48945052Y-63802764D01*
X49204967Y-63836984D01*
X49204982Y-63836985D01*
X49467130Y-63836985D01*
X49467142Y-63836985D01*
X49467156Y-63836984D01*
X49727071Y-63802764D01*
X49727082Y-63802762D01*
X49980317Y-63734909D01*
X50222533Y-63634580D01*
X50222544Y-63634575D01*
X50449578Y-63503496D01*
X50449596Y-63503484D01*
X50562427Y-63416904D01*
X50562427Y-63416902D01*
X49771681Y-62626157D01*
X49738197Y-62564835D01*
X49743181Y-62495144D01*
X49785053Y-62439210D01*
X49790462Y-62435381D01*
X49814159Y-62419548D01*
X49918625Y-62315082D01*
X49934451Y-62291396D01*
X49988059Y-62246592D01*
X50057384Y-62237882D01*
X50120412Y-62268034D01*
X50125233Y-62272604D01*
X50915979Y-63063350D01*
X50915980Y-63063350D01*
X50915981Y-63063350D01*
X51002561Y-62950519D01*
X51002573Y-62950501D01*
X51133652Y-62723467D01*
X51133657Y-62723456D01*
X51233986Y-62481240D01*
X51301839Y-62228005D01*
X51301841Y-62227994D01*
X51336061Y-61968079D01*
X51336062Y-61968065D01*
X51336062Y-61705904D01*
X51336061Y-61705890D01*
X51301841Y-61445975D01*
X51301839Y-61445964D01*
X51233986Y-61192729D01*
X51226340Y-61174271D01*
X51163427Y-61022385D01*
X51133657Y-60950513D01*
X51133652Y-60950502D01*
X51002573Y-60723468D01*
X51002567Y-60723460D01*
X51002044Y-60722779D01*
X50915980Y-60610618D01*
X50915979Y-60610618D01*
X50915978Y-60610618D01*
X50125233Y-61401363D01*
X50063910Y-61434848D01*
X49994218Y-61429864D01*
X49938285Y-61387992D01*
X49934453Y-61382577D01*
X49918625Y-61358888D01*
X49918624Y-61358886D01*
X49814162Y-61254424D01*
X49814158Y-61254421D01*
X49790470Y-61238593D01*
X49745665Y-61184980D01*
X49736958Y-61115655D01*
X49767113Y-61052628D01*
X49771659Y-61047831D01*
X50562427Y-60257065D01*
X50562426Y-60257064D01*
X50449583Y-60170476D01*
X50449570Y-60170468D01*
X50319446Y-60095341D01*
X50222544Y-60039394D01*
X50222539Y-60039391D01*
X49980326Y-59939063D01*
X49980319Y-59939061D01*
X49980317Y-59939060D01*
X49727082Y-59871207D01*
X49727076Y-59871206D01*
X49727073Y-59871205D01*
X49727050Y-59871202D01*
X49467157Y-59836985D01*
X49467156Y-59836985D01*
X49204967Y-59836985D01*
X49204966Y-59836985D01*
X48945072Y-59871202D01*
X48945049Y-59871205D01*
X48945043Y-59871206D01*
X48945041Y-59871207D01*
X48691806Y-59939060D01*
X48691796Y-59939063D01*
X48449586Y-60039390D01*
X48449578Y-60039394D01*
X48222533Y-60170481D01*
X48222524Y-60170487D01*
X48109695Y-60257063D01*
X48109695Y-60257065D01*
X48900441Y-61047811D01*
X48933926Y-61109134D01*
X48928942Y-61178826D01*
X48887070Y-61234759D01*
X48881654Y-61238592D01*
X48857966Y-61254420D01*
X48857961Y-61254424D01*
X48753501Y-61358884D01*
X48753497Y-61358889D01*
X48737669Y-61382577D01*
X48684056Y-61427380D01*
X48614731Y-61436086D01*
X48551704Y-61405929D01*
X48546888Y-61401364D01*
X47756142Y-60610618D01*
X47756141Y-60610618D01*
X47756140Y-60610618D01*
X47669564Y-60723447D01*
X47669558Y-60723456D01*
X47538471Y-60950501D01*
X47538467Y-60950509D01*
X47438140Y-61192719D01*
X47438137Y-61192729D01*
X47370284Y-61445964D01*
X47370284Y-61445965D01*
X47370282Y-61445972D01*
X47370279Y-61445995D01*
X47336062Y-61705889D01*
X45125428Y-61705889D01*
X45125428Y-61705885D01*
X45125427Y-61705883D01*
X45116062Y-61614196D01*
X45116061Y-61614194D01*
X45116061Y-61614188D01*
X45116060Y-61614185D01*
X45072732Y-61483431D01*
X45060876Y-61447651D01*
X44968774Y-61298329D01*
X44844718Y-61174273D01*
X44721231Y-61098106D01*
X44721231Y-61098105D01*
X44695400Y-61082173D01*
X44695399Y-61082172D01*
X44695398Y-61082172D01*
X44695393Y-61082170D01*
X44693924Y-61081683D01*
X44537327Y-61029792D01*
X44534479Y-61028615D01*
X44532782Y-61028123D01*
X44520487Y-61023844D01*
X44496980Y-61014253D01*
X44483033Y-61003135D01*
X44466519Y-60996395D01*
X44442353Y-60970709D01*
X44442346Y-60970703D01*
X44439374Y-60966470D01*
X44418511Y-60915365D01*
X44418208Y-60913524D01*
X44417176Y-60900909D01*
X44416969Y-60900295D01*
X44417087Y-60899819D01*
X44416562Y-60893386D01*
X44416562Y-59514859D01*
X44421584Y-59479926D01*
X44425495Y-59466607D01*
X44435135Y-59451606D01*
X44440160Y-59434497D01*
X44453631Y-59422825D01*
X44463268Y-59407830D01*
X44479490Y-59400421D01*
X44492967Y-59388745D01*
X44526812Y-59378808D01*
X44526818Y-59378805D01*
X44530138Y-59378328D01*
X44585262Y-59382869D01*
X44587135Y-59383463D01*
X44598642Y-59388181D01*
X44599295Y-59388275D01*
X44599675Y-59388604D01*
X44605937Y-59391172D01*
X44606838Y-59391631D01*
X44606847Y-59391636D01*
X44660381Y-59418914D01*
X44667712Y-59422648D01*
X44671468Y-59423708D01*
X44690806Y-59429991D01*
X44771197Y-59456111D01*
X44771198Y-59456112D01*
X44801308Y-59465895D01*
X44861527Y-59485462D01*
X44902541Y-59491958D01*
X45063710Y-59517485D01*
X45063711Y-59517485D01*
X45268413Y-59517485D01*
X45268414Y-59517485D01*
X45470596Y-59485462D01*
X45665281Y-59422205D01*
X45847672Y-59329272D01*
X45951196Y-59254058D01*
X46013275Y-59208956D01*
X46013277Y-59208953D01*
X46013281Y-59208951D01*
X46013284Y-59208947D01*
X46013337Y-59208909D01*
X46014094Y-59208137D01*
X46158028Y-59064204D01*
X46158030Y-59064200D01*
X46158033Y-59064198D01*
X46226233Y-58970327D01*
X46278349Y-58898595D01*
X46371282Y-58716204D01*
X46434539Y-58521519D01*
X46466562Y-58319337D01*
X46466562Y-58114633D01*
X46460531Y-58076563D01*
X46460480Y-58072971D01*
X46460027Y-58041279D01*
X46461463Y-58030167D01*
X46462882Y-58019186D01*
X46483504Y-57965083D01*
X46486024Y-57961396D01*
X46490820Y-57955616D01*
X46490993Y-57955225D01*
X46491332Y-57954999D01*
X46500691Y-57943720D01*
X51262523Y-53181888D01*
X51290780Y-53160737D01*
X51302145Y-53154532D01*
X51317013Y-53151298D01*
X51330045Y-53143440D01*
X51350460Y-53144023D01*
X51370418Y-53139683D01*
X51384676Y-53145002D01*
X51399886Y-53145437D01*
X51416744Y-53156964D01*
X51435882Y-53164104D01*
X51445890Y-53176894D01*
X51457561Y-53184875D01*
X51475786Y-53215100D01*
X51479394Y-53223638D01*
X51487647Y-53252506D01*
X51517584Y-53441517D01*
X51517585Y-53441519D01*
X51517585Y-53441520D01*
X51577759Y-53626717D01*
X51580844Y-53636210D01*
X51644752Y-53761636D01*
X51651842Y-53775550D01*
X51651842Y-53775551D01*
X51672954Y-53816982D01*
X51673777Y-53818598D01*
X51794090Y-53984198D01*
X51938848Y-54128956D01*
X52024768Y-54191379D01*
X52104452Y-54249272D01*
X52185858Y-54290750D01*
X52190251Y-54293471D01*
X52193356Y-54296936D01*
X52210107Y-54308745D01*
X52219521Y-54317637D01*
X52233741Y-54342002D01*
X52236880Y-54345504D01*
X52237296Y-54348092D01*
X52254741Y-54377981D01*
X52251745Y-54447786D01*
X52215583Y-54501490D01*
X52208581Y-54507558D01*
X52183668Y-54524335D01*
X52104449Y-54564699D01*
X52104447Y-54564700D01*
X51938849Y-54685012D01*
X51938846Y-54685014D01*
X51794091Y-54829769D01*
X51794089Y-54829772D01*
X51673777Y-54995370D01*
X51673770Y-54995382D01*
X51580848Y-55177749D01*
X51580842Y-55177762D01*
X51517583Y-55372453D01*
X51485562Y-55574627D01*
X51485562Y-55779341D01*
X51504229Y-55897198D01*
X51517584Y-55981519D01*
X51573796Y-56154521D01*
X51580844Y-56176210D01*
X51644753Y-56301638D01*
X51672846Y-56356773D01*
X51673776Y-56358597D01*
X51773942Y-56496466D01*
X51794090Y-56524198D01*
X51938848Y-56668956D01*
X52038685Y-56741490D01*
X52104452Y-56789272D01*
X52185482Y-56830559D01*
X52189532Y-56833029D01*
X52192592Y-56836397D01*
X52210107Y-56848745D01*
X52219521Y-56857637D01*
X52233236Y-56881136D01*
X52236514Y-56884744D01*
X52236987Y-56887562D01*
X52254741Y-56917981D01*
X52251745Y-56987786D01*
X52215583Y-57041490D01*
X52208581Y-57047558D01*
X52183668Y-57064335D01*
X52104449Y-57104699D01*
X52104447Y-57104700D01*
X51938849Y-57225012D01*
X51938846Y-57225014D01*
X51794091Y-57369769D01*
X51794089Y-57369772D01*
X51673777Y-57535370D01*
X51673770Y-57535382D01*
X51580848Y-57717749D01*
X51580842Y-57717762D01*
X51517583Y-57912453D01*
X51485562Y-58114627D01*
X51485562Y-58319341D01*
X51516180Y-58512654D01*
X51517584Y-58521519D01*
X51532189Y-58566468D01*
X51580842Y-58716206D01*
X51580845Y-58716213D01*
X51639586Y-58831495D01*
X51639587Y-58831500D01*
X51639588Y-58831500D01*
X51651708Y-58855288D01*
X51651710Y-58855291D01*
X51673777Y-58898598D01*
X51794090Y-59064198D01*
X51938848Y-59208956D01*
X52036561Y-59279947D01*
X52104452Y-59329272D01*
X52192809Y-59374292D01*
X52280383Y-59418914D01*
X52280391Y-59418918D01*
X52281992Y-59419855D01*
X52285682Y-59421643D01*
X52287700Y-59422645D01*
X52291468Y-59423708D01*
X52310806Y-59429991D01*
X52391197Y-59456111D01*
X52391198Y-59456112D01*
X52421308Y-59465895D01*
X52481527Y-59485462D01*
X52522541Y-59491958D01*
X52683710Y-59517485D01*
X52683711Y-59517485D01*
X52888413Y-59517485D01*
X52888414Y-59517485D01*
X53090596Y-59485462D01*
X53285281Y-59422205D01*
X53467672Y-59329272D01*
X53571196Y-59254058D01*
X53633275Y-59208956D01*
X53633277Y-59208953D01*
X53633281Y-59208951D01*
X53633284Y-59208947D01*
X53633337Y-59208909D01*
X53634094Y-59208137D01*
X53778028Y-59064204D01*
X53778030Y-59064200D01*
X53778033Y-59064198D01*
X53846233Y-58970327D01*
X53898349Y-58898595D01*
X53991282Y-58716204D01*
X54054539Y-58521519D01*
X54086562Y-58319337D01*
X54086562Y-58114633D01*
X54054539Y-57912451D01*
X54031903Y-57842786D01*
X53991280Y-57717761D01*
X53949674Y-57636106D01*
X53898349Y-57535375D01*
X53881406Y-57512055D01*
X53778033Y-57369771D01*
X53633275Y-57225013D01*
X53467676Y-57104700D01*
X53463931Y-57102791D01*
X53412029Y-57076346D01*
X53412026Y-57076345D01*
X53390860Y-57065560D01*
X53362019Y-57045228D01*
X53352606Y-57036338D01*
X53343617Y-57020939D01*
X53340068Y-57017587D01*
X53338894Y-57012848D01*
X53317383Y-56975996D01*
X53320375Y-56906191D01*
X53356536Y-56852483D01*
X53363541Y-56846412D01*
X53388448Y-56829637D01*
X53467672Y-56789272D01*
X53533440Y-56741489D01*
X53633275Y-56668956D01*
X53633277Y-56668953D01*
X53633281Y-56668951D01*
X53633283Y-56668948D01*
X53633333Y-56668912D01*
X53634040Y-56668191D01*
X53778028Y-56524204D01*
X53798181Y-56496467D01*
X53799053Y-56495265D01*
X53800671Y-56493038D01*
X53800681Y-56493028D01*
X53800683Y-56493021D01*
X53800689Y-56493012D01*
X53825275Y-56467716D01*
X53842922Y-56454108D01*
X53895750Y-56430438D01*
X53900140Y-56429614D01*
X53907631Y-56428917D01*
X53908028Y-56428763D01*
X53908425Y-56428843D01*
X53923020Y-56427485D01*
X54166002Y-56427485D01*
X54200934Y-56432506D01*
X54226178Y-56439919D01*
X54278924Y-56471215D01*
X56046222Y-58238513D01*
X56067370Y-58266765D01*
X56078045Y-58286315D01*
X56093162Y-58342181D01*
X56093290Y-58346638D01*
X56092805Y-58354169D01*
X56092897Y-58354588D01*
X56092754Y-58354970D01*
X56091814Y-58369598D01*
X56090562Y-58377502D01*
X56090562Y-58566476D01*
X56114278Y-58716213D01*
X56120121Y-58753103D01*
X56178516Y-58932821D01*
X56178517Y-58932822D01*
X56229229Y-59032352D01*
X56229230Y-59032352D01*
X56264302Y-59101184D01*
X56375372Y-59254058D01*
X56375374Y-59254060D01*
X56466636Y-59345322D01*
X56487785Y-59373573D01*
X56500393Y-59396662D01*
X56515562Y-59456091D01*
X56515562Y-63115422D01*
X56510537Y-63150366D01*
X56506132Y-63165364D01*
X56468361Y-63224132D01*
X56460344Y-63231079D01*
X56418151Y-63255071D01*
X56396729Y-63262170D01*
X56396726Y-63262171D01*
X56396725Y-63262172D01*
X56378095Y-63273663D01*
X56247402Y-63354275D01*
X56123352Y-63478325D01*
X56123351Y-63478327D01*
X56031781Y-63626787D01*
X56031247Y-63627652D01*
X56031242Y-63627665D01*
X56003411Y-63711653D01*
X56003411Y-63711656D01*
X55986361Y-63763108D01*
X55977914Y-63776053D01*
X55976426Y-63790620D01*
X55975604Y-63796862D01*
X55975421Y-63800461D01*
X55965562Y-63896958D01*
X55965562Y-63896968D01*
X55965562Y-65096986D01*
X55965563Y-65097003D01*
X55976062Y-65199781D01*
X55976063Y-65199784D01*
X56031247Y-65366316D01*
X56031248Y-65366319D01*
X56123350Y-65515641D01*
X56247406Y-65639697D01*
X56396728Y-65731799D01*
X56563265Y-65786984D01*
X56666053Y-65797485D01*
X57866070Y-65797484D01*
X57968859Y-65786984D01*
X58135396Y-65731799D01*
X58284718Y-65639697D01*
X58341339Y-65583075D01*
X58369586Y-65561930D01*
X58383310Y-65554436D01*
X58451578Y-65539586D01*
X58458152Y-65540056D01*
X58522193Y-65563422D01*
X58540136Y-65576458D01*
X58584708Y-65608842D01*
X58677428Y-65656085D01*
X58767025Y-65701738D01*
X58767027Y-65701738D01*
X58767030Y-65701740D01*
X58961644Y-65764975D01*
X59163745Y-65796985D01*
X59368378Y-65796985D01*
X59368379Y-65796985D01*
X59570479Y-65764975D01*
X59765093Y-65701740D01*
X59947411Y-65608844D01*
X59991983Y-65576459D01*
X59449007Y-65033483D01*
X59415522Y-64972160D01*
X59420506Y-64902468D01*
X59462378Y-64846535D01*
X59474680Y-64838419D01*
X59511668Y-64817065D01*
X59586142Y-64742591D01*
X59607492Y-64705610D01*
X59658057Y-64657396D01*
X59726664Y-64644172D01*
X59791529Y-64670139D01*
X59802560Y-64679930D01*
X60345535Y-65222905D01*
X60345536Y-65222906D01*
X60377921Y-65178334D01*
X60470817Y-64996016D01*
X60534052Y-64801402D01*
X60566062Y-64599302D01*
X60566062Y-64394667D01*
X60534052Y-64192567D01*
X60470817Y-63997953D01*
X60470815Y-63997950D01*
X60470815Y-63997948D01*
X60377921Y-63815635D01*
X60369218Y-63803657D01*
X60359677Y-63776918D01*
X60345535Y-63771060D01*
X59802559Y-64314038D01*
X59741236Y-64347523D01*
X59671545Y-64342539D01*
X59615611Y-64300668D01*
X59607494Y-64288362D01*
X59586142Y-64251379D01*
X59511668Y-64176905D01*
X59474687Y-64155554D01*
X59426472Y-64104988D01*
X59413248Y-64036381D01*
X59439216Y-63971516D01*
X59448998Y-63960494D01*
X59991984Y-63417509D01*
X59991983Y-63417508D01*
X59991981Y-63417506D01*
X59991976Y-63417502D01*
X59947422Y-63385132D01*
X59947419Y-63385129D01*
X59850293Y-63335641D01*
X59765093Y-63292229D01*
X59570479Y-63228994D01*
X59570473Y-63228993D01*
X59368384Y-63196985D01*
X59368379Y-63196985D01*
X59163745Y-63196985D01*
X59163740Y-63196985D01*
X58961649Y-63228993D01*
X58961647Y-63228993D01*
X58961644Y-63228994D01*
X58881389Y-63255071D01*
X58767025Y-63292230D01*
X58584720Y-63385120D01*
X58584716Y-63385122D01*
X58584713Y-63385124D01*
X58584709Y-63385127D01*
X58528927Y-63425654D01*
X58528926Y-63425655D01*
X58497710Y-63442125D01*
X58482989Y-63447377D01*
X58413239Y-63451365D01*
X58413234Y-63451363D01*
X58413233Y-63451364D01*
X58413231Y-63451363D01*
X58406818Y-63449872D01*
X58347220Y-63416775D01*
X58284719Y-63354274D01*
X58284718Y-63354273D01*
X58211296Y-63308986D01*
X58154029Y-63273663D01*
X58154024Y-63273660D01*
X58137311Y-63263352D01*
X58135398Y-63262172D01*
X58135397Y-63262171D01*
X58135396Y-63262171D01*
X58135390Y-63262169D01*
X58113539Y-63254928D01*
X58104417Y-63250707D01*
X58097838Y-63244948D01*
X58089451Y-63242486D01*
X58085934Y-63240140D01*
X58074046Y-63231910D01*
X58052553Y-63205312D01*
X58051842Y-63204689D01*
X58051726Y-63204288D01*
X58030137Y-63177571D01*
X58026060Y-63167762D01*
X58016562Y-63120168D01*
X58016562Y-59509787D01*
X58021585Y-59474851D01*
X58027088Y-59456112D01*
X58027860Y-59453480D01*
X58056670Y-59403293D01*
X58059744Y-59400038D01*
X58065284Y-59395248D01*
X58065635Y-59394703D01*
X58066228Y-59394431D01*
X58069832Y-59391315D01*
X58069428Y-59390841D01*
X58073132Y-59387677D01*
X58073131Y-59387677D01*
X58073135Y-59387675D01*
X58206752Y-59254058D01*
X58317822Y-59101184D01*
X58403609Y-58932817D01*
X58462002Y-58753103D01*
X58469287Y-58707108D01*
X58491562Y-58566471D01*
X58491562Y-58377498D01*
X58462002Y-58190866D01*
X58434908Y-58107482D01*
X58424863Y-58076568D01*
X58405111Y-58015776D01*
X58404048Y-58012009D01*
X58403052Y-58010004D01*
X58401257Y-58006299D01*
X58400324Y-58004705D01*
X58317821Y-57842785D01*
X58290428Y-57805082D01*
X58290428Y-57805081D01*
X58290427Y-57805081D01*
X58286337Y-57799452D01*
X58206752Y-57689912D01*
X58073135Y-57556295D01*
X57920261Y-57445225D01*
X57751898Y-57359439D01*
X57572180Y-57301044D01*
X57572174Y-57301043D01*
X57385553Y-57271485D01*
X57385548Y-57271485D01*
X57385543Y-57271485D01*
X57271122Y-57271485D01*
X57271121Y-57271484D01*
X57271121Y-57271485D01*
X57236186Y-57266462D01*
X57210944Y-57259050D01*
X57158199Y-57227754D01*
X55024491Y-55094045D01*
X55024490Y-55094044D01*
X55024483Y-55094037D01*
X55024476Y-55094031D01*
X54950792Y-55044798D01*
X54901555Y-55011899D01*
X54764994Y-54955333D01*
X54764983Y-54955330D01*
X54764979Y-54955328D01*
X54764969Y-54955325D01*
X54764966Y-54955324D01*
X54764962Y-54955323D01*
X54619984Y-54926485D01*
X54619982Y-54926485D01*
X54619980Y-54926485D01*
X53929310Y-54926485D01*
X53929306Y-54926484D01*
X53929305Y-54926485D01*
X53894371Y-54921461D01*
X53873000Y-54915185D01*
X53822809Y-54886369D01*
X53819565Y-54883306D01*
X53814582Y-54877639D01*
X53814223Y-54877408D01*
X53814053Y-54877037D01*
X53804377Y-54866031D01*
X53778037Y-54829777D01*
X53778032Y-54829770D01*
X53778030Y-54829768D01*
X53778029Y-54829767D01*
X53633275Y-54685013D01*
X53633271Y-54685010D01*
X53633270Y-54685009D01*
X53467678Y-54564701D01*
X53464192Y-54562925D01*
X53461068Y-54561333D01*
X53390861Y-54525560D01*
X53362018Y-54505227D01*
X53352600Y-54496332D01*
X53343615Y-54480938D01*
X53340067Y-54477587D01*
X53338893Y-54472847D01*
X53317382Y-54435990D01*
X53320377Y-54366185D01*
X53356543Y-54312476D01*
X53363548Y-54306406D01*
X53388458Y-54289633D01*
X53467670Y-54249273D01*
X53467669Y-54249273D01*
X53467672Y-54249272D01*
X53567636Y-54176643D01*
X53598851Y-54160174D01*
X53628219Y-54149696D01*
X53669887Y-54142485D01*
X56274607Y-54142485D01*
X56309539Y-54147506D01*
X56334783Y-54154919D01*
X56387529Y-54186215D01*
X56508989Y-54307675D01*
X56537834Y-54328632D01*
X56661858Y-54418742D01*
X56661859Y-54418742D01*
X56661863Y-54418745D01*
X56741409Y-54459275D01*
X56823784Y-54501248D01*
X56825382Y-54502184D01*
X56829099Y-54503984D01*
X56831083Y-54504970D01*
X56834836Y-54506028D01*
X56870049Y-54517470D01*
X57009943Y-54562925D01*
X57196576Y-54592485D01*
X57196581Y-54592485D01*
X57385547Y-54592485D01*
X57385548Y-54592485D01*
X57572180Y-54562925D01*
X57751894Y-54504532D01*
X57920261Y-54418745D01*
X58073135Y-54307675D01*
X58206752Y-54174058D01*
X58317822Y-54021184D01*
X58403609Y-53852817D01*
X58462002Y-53673103D01*
X58471229Y-53614844D01*
X58491562Y-53486471D01*
X58491562Y-53297498D01*
X58462002Y-53110866D01*
X58418432Y-52976773D01*
X58418432Y-52976772D01*
X58418432Y-52976771D01*
X58412363Y-52958097D01*
X58403609Y-52931153D01*
X58403607Y-52931150D01*
X58403607Y-52931148D01*
X58401356Y-52926730D01*
X58401050Y-52925946D01*
X58400327Y-52924711D01*
X58317821Y-52762785D01*
X58206752Y-52609912D01*
X58116613Y-52519773D01*
X58112761Y-52514628D01*
X58095461Y-52491517D01*
X58087969Y-52477796D01*
X58073117Y-52409536D01*
X58073246Y-52407727D01*
X58092612Y-52349532D01*
X58096805Y-52343008D01*
X58113422Y-52322387D01*
X58181752Y-52254058D01*
X58292822Y-52101184D01*
X58378609Y-51932817D01*
X58437002Y-51753103D01*
X58458823Y-51615330D01*
X58466562Y-51566471D01*
X58466562Y-51377498D01*
X58437002Y-51190866D01*
X58378607Y-51011148D01*
X58339300Y-50934004D01*
X58322748Y-50901518D01*
X58322748Y-50901519D01*
X58292822Y-50842786D01*
X58181752Y-50689912D01*
X58048135Y-50556295D01*
X57895261Y-50445225D01*
X57726898Y-50359439D01*
X57547180Y-50301044D01*
X57547174Y-50301043D01*
X57360553Y-50271485D01*
X57360548Y-50271485D01*
X57360543Y-50271485D01*
X57171581Y-50271485D01*
X57171576Y-50271485D01*
X57171571Y-50271485D01*
X56984948Y-50301043D01*
X56984946Y-50301043D01*
X56984943Y-50301044D01*
X56805225Y-50359439D01*
X56773967Y-50375366D01*
X56636862Y-50445224D01*
X56568859Y-50494633D01*
X56568858Y-50494633D01*
X56495859Y-50547670D01*
X56488480Y-50551802D01*
X56345879Y-50694403D01*
X56341747Y-50701782D01*
X56315819Y-50737469D01*
X56315819Y-50737470D01*
X56239301Y-50842785D01*
X56209375Y-50901519D01*
X56153516Y-51011148D01*
X56095121Y-51190866D01*
X56095120Y-51190869D01*
X56095120Y-51190871D01*
X56065562Y-51377492D01*
X56065562Y-51566476D01*
X56088179Y-51709272D01*
X56095121Y-51753103D01*
X56153516Y-51932821D01*
X56203868Y-52031641D01*
X56239302Y-52101184D01*
X56350372Y-52254058D01*
X56350374Y-52254060D01*
X56440509Y-52344195D01*
X56454362Y-52360694D01*
X56459796Y-52368445D01*
X56460805Y-52371431D01*
X56461661Y-52372451D01*
X56463844Y-52376449D01*
X56462960Y-52376931D01*
X56471432Y-52391208D01*
X56472098Y-52390905D01*
X56473363Y-52393675D01*
X56473512Y-52394714D01*
X56474433Y-52396266D01*
X56475474Y-52399055D01*
X56474205Y-52399528D01*
X56476334Y-52414322D01*
X56481204Y-52423243D01*
X56480698Y-52430306D01*
X56482162Y-52434638D01*
X56480317Y-52442004D01*
X56482469Y-52456959D01*
X56483819Y-52457056D01*
X56483719Y-52458452D01*
X56482972Y-52460453D01*
X56483310Y-52462802D01*
X56482878Y-52465812D01*
X56481069Y-52465552D01*
X56477487Y-52475155D01*
X56476214Y-52492935D01*
X56459297Y-52523910D01*
X56458424Y-52525076D01*
X56446844Y-52538439D01*
X56392725Y-52592558D01*
X56364474Y-52613707D01*
X56341386Y-52626315D01*
X56281956Y-52641485D01*
X54086994Y-52641485D01*
X54086991Y-52641484D01*
X54086991Y-52641485D01*
X54052057Y-52636461D01*
X54035677Y-52631651D01*
X53978664Y-52595869D01*
X53969732Y-52585997D01*
X53951199Y-52559100D01*
X53898480Y-52455632D01*
X53898356Y-52455387D01*
X53898340Y-52455360D01*
X53778036Y-52289774D01*
X53633277Y-52145015D01*
X53633275Y-52145013D01*
X53467676Y-52024700D01*
X53460946Y-52021271D01*
X53412029Y-51996346D01*
X53412026Y-51996345D01*
X53390860Y-51985560D01*
X53362019Y-51965228D01*
X53352606Y-51956338D01*
X53343617Y-51940939D01*
X53340068Y-51937587D01*
X53338894Y-51932848D01*
X53317383Y-51895996D01*
X53320375Y-51826191D01*
X53356543Y-51772476D01*
X53363548Y-51766406D01*
X53388458Y-51749633D01*
X53408740Y-51739299D01*
X53467672Y-51709272D01*
X53488832Y-51693898D01*
X53633275Y-51588956D01*
X53633276Y-51588954D01*
X53633336Y-51588911D01*
X53634098Y-51588133D01*
X53778028Y-51444204D01*
X53778030Y-51444200D01*
X53778033Y-51444198D01*
X53879105Y-51305082D01*
X53898349Y-51278595D01*
X53991282Y-51096204D01*
X54054539Y-50901519D01*
X54086562Y-50699337D01*
X54086562Y-50494633D01*
X54065149Y-50359438D01*
X54054539Y-50292450D01*
X53991280Y-50097761D01*
X53950985Y-50018679D01*
X53898349Y-49915375D01*
X53898345Y-49915370D01*
X53883028Y-49894287D01*
X53844762Y-49841617D01*
X53778033Y-49749771D01*
X53633279Y-49605017D01*
X53633277Y-49605015D01*
X53633275Y-49605013D01*
X53633268Y-49605008D01*
X53602098Y-49582362D01*
X53588285Y-49570698D01*
X53583661Y-49566176D01*
X53580887Y-49561227D01*
X53576791Y-49557769D01*
X53575099Y-49555575D01*
X53575635Y-49555161D01*
X53566040Y-49544556D01*
X53563229Y-49540182D01*
X53563228Y-49540180D01*
X53562487Y-49539219D01*
X53562391Y-49538992D01*
X53561699Y-49538010D01*
X53561791Y-49537944D01*
X53561788Y-49537939D01*
X53561913Y-49537858D01*
X53556400Y-49524797D01*
X53547825Y-49514879D01*
X53537919Y-49481009D01*
X53537805Y-49480212D01*
X53536562Y-49462697D01*
X53536562Y-49257044D01*
X53541584Y-49222111D01*
X53548996Y-49196866D01*
X53580290Y-49144124D01*
X55533011Y-47191403D01*
X55561256Y-47170260D01*
X55584348Y-47157652D01*
X55643773Y-47142485D01*
X56249607Y-47142485D01*
X56284539Y-47147506D01*
X56309783Y-47154919D01*
X56362529Y-47186215D01*
X56483989Y-47307675D01*
X56570291Y-47370378D01*
X56636858Y-47418742D01*
X56636859Y-47418742D01*
X56636863Y-47418745D01*
X56716409Y-47459275D01*
X56798784Y-47501248D01*
X56800382Y-47502184D01*
X56804099Y-47503984D01*
X56806083Y-47504970D01*
X56809837Y-47506028D01*
X56901559Y-47535831D01*
X56984943Y-47562925D01*
X57171576Y-47592485D01*
X57171581Y-47592485D01*
X57360547Y-47592485D01*
X57360548Y-47592485D01*
X57547180Y-47562925D01*
X57726894Y-47504532D01*
X57895261Y-47418745D01*
X58048135Y-47307675D01*
X58164406Y-47191403D01*
X58192651Y-47170260D01*
X58215743Y-47157652D01*
X58275168Y-47142485D01*
X58871002Y-47142485D01*
X58905934Y-47147506D01*
X58931178Y-47154919D01*
X58983924Y-47186215D01*
X62532174Y-50734465D01*
X62553323Y-50762716D01*
X62563998Y-50782265D01*
X62579116Y-50838161D01*
X62579243Y-50842591D01*
X62579244Y-50842623D01*
X62578760Y-50850123D01*
X62578851Y-50850538D01*
X62578709Y-50850916D01*
X62577767Y-50865551D01*
X62545562Y-51068887D01*
X62545562Y-51305087D01*
X62571065Y-51466104D01*
X62582508Y-51538353D01*
X62655495Y-51762981D01*
X62741496Y-51931765D01*
X62762719Y-51973418D01*
X62901545Y-52164495D01*
X63068552Y-52331502D01*
X63130006Y-52376151D01*
X63230022Y-52448817D01*
X63255332Y-52473413D01*
X63256675Y-52475155D01*
X63268934Y-52491052D01*
X63292604Y-52543868D01*
X63293428Y-52548252D01*
X63294127Y-52555762D01*
X63294283Y-52556161D01*
X63294202Y-52556560D01*
X63295562Y-52571157D01*
X63295562Y-56296523D01*
X63290538Y-56331462D01*
X63284262Y-56352833D01*
X63277602Y-56364430D01*
X63275769Y-56374191D01*
X63255433Y-56403038D01*
X63252370Y-56406281D01*
X63235109Y-56421454D01*
X63068556Y-56542464D01*
X63068547Y-56542471D01*
X62897052Y-56713966D01*
X62892920Y-56721345D01*
X62843571Y-56789268D01*
X62772156Y-56887562D01*
X62762719Y-56900551D01*
X62655495Y-57110988D01*
X62582508Y-57335616D01*
X62582507Y-57335619D01*
X62582507Y-57335621D01*
X62545562Y-57568881D01*
X62545562Y-57805087D01*
X62581211Y-58030167D01*
X62582508Y-58038353D01*
X62655495Y-58262981D01*
X62724006Y-58397440D01*
X62762719Y-58473418D01*
X62901545Y-58664495D01*
X63068552Y-58831502D01*
X63259629Y-58970328D01*
X63359053Y-59020987D01*
X63470065Y-59077551D01*
X63470938Y-59077996D01*
X63474692Y-59079055D01*
X63501444Y-59087747D01*
X63542797Y-59101183D01*
X63542798Y-59101184D01*
X63593430Y-59117635D01*
X63694693Y-59150538D01*
X63927965Y-59187485D01*
X63927970Y-59187485D01*
X64164158Y-59187485D01*
X64164159Y-59187485D01*
X64397430Y-59150538D01*
X64622054Y-59077553D01*
X64832495Y-58970328D01*
X65023572Y-58831502D01*
X65190579Y-58664495D01*
X65329405Y-58473418D01*
X65436630Y-58262977D01*
X65509615Y-58038353D01*
X65517327Y-57989664D01*
X65546562Y-57805082D01*
X65546562Y-57568887D01*
X65509615Y-57335616D01*
X65436628Y-57110988D01*
X65329404Y-56900551D01*
X65316075Y-56882205D01*
X65190579Y-56709475D01*
X65023572Y-56542468D01*
X64998434Y-56524204D01*
X64954595Y-56492352D01*
X64954595Y-56492353D01*
X64862099Y-56425150D01*
X64862097Y-56425148D01*
X64862096Y-56425148D01*
X64836787Y-56400549D01*
X64823187Y-56382911D01*
X64799515Y-56330078D01*
X64798692Y-56325695D01*
X64797994Y-56318196D01*
X64797840Y-56317801D01*
X64797920Y-56317404D01*
X64796562Y-56302811D01*
X64796562Y-52577445D01*
X64801585Y-52542511D01*
X64807860Y-52521140D01*
X64814520Y-52509540D01*
X64816355Y-52499775D01*
X64836689Y-52470931D01*
X64839757Y-52467683D01*
X64857017Y-52452511D01*
X65023572Y-52331502D01*
X65190579Y-52164495D01*
X65329405Y-51973418D01*
X65436630Y-51762977D01*
X65509615Y-51538353D01*
X65529571Y-51412355D01*
X65529572Y-51412352D01*
X65535093Y-51377492D01*
X65546562Y-51305082D01*
X65546562Y-51068887D01*
X65509615Y-50835616D01*
X65444263Y-50634485D01*
X65436630Y-50610993D01*
X65436628Y-50610990D01*
X65436628Y-50610988D01*
X65434388Y-50606592D01*
X65434078Y-50605797D01*
X65433345Y-50604544D01*
X65329404Y-50400551D01*
X65190579Y-50209475D01*
X65023572Y-50042468D01*
X64832495Y-49903642D01*
X64788827Y-49881392D01*
X64622058Y-49796418D01*
X64397430Y-49723431D01*
X64397424Y-49723430D01*
X64164164Y-49686485D01*
X64164159Y-49686485D01*
X64164154Y-49686485D01*
X63927970Y-49686485D01*
X63927965Y-49686485D01*
X63730842Y-49717705D01*
X63730840Y-49717706D01*
X63695550Y-49718211D01*
X63679583Y-49716148D01*
X63673460Y-49715356D01*
X63619353Y-49694733D01*
X63615671Y-49692215D01*
X63609887Y-49687415D01*
X63609496Y-49687244D01*
X63609271Y-49686904D01*
X63597987Y-49677542D01*
X59729491Y-45809045D01*
X59729484Y-45809038D01*
X59729483Y-45809037D01*
X59729476Y-45809031D01*
X59729473Y-45809029D01*
X59606555Y-45726899D01*
X59469994Y-45670333D01*
X59469983Y-45670330D01*
X59469979Y-45670328D01*
X59469969Y-45670325D01*
X59469966Y-45670324D01*
X59469962Y-45670323D01*
X59324984Y-45641485D01*
X59324982Y-45641485D01*
X59324980Y-45641485D01*
X58282517Y-45641485D01*
X58282516Y-45641484D01*
X58282516Y-45641485D01*
X58247581Y-45636462D01*
X58222339Y-45629050D01*
X58169594Y-45597754D01*
X58048137Y-45476297D01*
X58048135Y-45476295D01*
X57895261Y-45365225D01*
X57726898Y-45279439D01*
X57547180Y-45221044D01*
X57547174Y-45221043D01*
X57360553Y-45191485D01*
X57360548Y-45191485D01*
X57360543Y-45191485D01*
X57171581Y-45191485D01*
X57171576Y-45191485D01*
X57171571Y-45191485D01*
X56984948Y-45221043D01*
X56984946Y-45221043D01*
X56984943Y-45221044D01*
X56805225Y-45279439D01*
X56721043Y-45322332D01*
X56636861Y-45365225D01*
X56549641Y-45428595D01*
X56549640Y-45428595D01*
X56495858Y-45467670D01*
X56488479Y-45471802D01*
X56367722Y-45592560D01*
X56339470Y-45613710D01*
X56316385Y-45626316D01*
X56256956Y-45641485D01*
X55197138Y-45641485D01*
X55168304Y-45647219D01*
X55104360Y-45659935D01*
X55104330Y-45659945D01*
X55052155Y-45670324D01*
X55052145Y-45670327D01*
X54972143Y-45703464D01*
X54972144Y-45703465D01*
X54915564Y-45726902D01*
X54914184Y-45727823D01*
X54914184Y-45727824D01*
X54866331Y-45759798D01*
X54792653Y-45809026D01*
X54792637Y-45809038D01*
X54792636Y-45809039D01*
X52203114Y-48398562D01*
X52203111Y-48398565D01*
X52183781Y-48427495D01*
X52183697Y-48427622D01*
X52183695Y-48427625D01*
X52183694Y-48427624D01*
X52164412Y-48456485D01*
X52164410Y-48456490D01*
X52120976Y-48521490D01*
X52120968Y-48521507D01*
X52064406Y-48658064D01*
X52064400Y-48658083D01*
X52035562Y-48803061D01*
X52035562Y-49453737D01*
X52035561Y-49453741D01*
X52035562Y-49453743D01*
X52030537Y-49488678D01*
X52024261Y-49510048D01*
X51995446Y-49560237D01*
X51992383Y-49563481D01*
X51986715Y-49568464D01*
X51986484Y-49568824D01*
X51986114Y-49568992D01*
X51975108Y-49578670D01*
X51938844Y-49605016D01*
X51794087Y-49749774D01*
X51673777Y-49915370D01*
X51673770Y-49915382D01*
X51580848Y-50097749D01*
X51580842Y-50097762D01*
X51517583Y-50292453D01*
X51485562Y-50494627D01*
X51485562Y-50699342D01*
X51491589Y-50737398D01*
X51491590Y-50737400D01*
X51492095Y-50772690D01*
X51489241Y-50794778D01*
X51468617Y-50848885D01*
X51466099Y-50852567D01*
X51461299Y-50858350D01*
X51461128Y-50858742D01*
X51460788Y-50858966D01*
X51451426Y-50870251D01*
X46689602Y-55632074D01*
X46661346Y-55653226D01*
X46649980Y-55659432D01*
X46635111Y-55662666D01*
X46622079Y-55670525D01*
X46601663Y-55669941D01*
X46581706Y-55674283D01*
X46567447Y-55668964D01*
X46552238Y-55668530D01*
X46535380Y-55657003D01*
X46516243Y-55649865D01*
X46506232Y-55637072D01*
X46494562Y-55629093D01*
X46476339Y-55598873D01*
X46472726Y-55590326D01*
X46464476Y-55561468D01*
X46434539Y-55372451D01*
X46434538Y-55372447D01*
X46434538Y-55372446D01*
X46373895Y-55185808D01*
X46371282Y-55177766D01*
X46371280Y-55177763D01*
X46371280Y-55177761D01*
X46369039Y-55173363D01*
X46368729Y-55172568D01*
X46367994Y-55171312D01*
X46337565Y-55111592D01*
X46286768Y-55011898D01*
X46278349Y-54995375D01*
X46270618Y-54984734D01*
X46158033Y-54829771D01*
X46013275Y-54685013D01*
X46013274Y-54685012D01*
X46013271Y-54685009D01*
X45847678Y-54564701D01*
X45844192Y-54562925D01*
X45841068Y-54561333D01*
X45770861Y-54525560D01*
X45742018Y-54505227D01*
X45732600Y-54496332D01*
X45723615Y-54480938D01*
X45720067Y-54477587D01*
X45718893Y-54472847D01*
X45697382Y-54435990D01*
X45700377Y-54366185D01*
X45736536Y-54312483D01*
X45743541Y-54306412D01*
X45768448Y-54289637D01*
X45847672Y-54249272D01*
X45900794Y-54210676D01*
X45927355Y-54191380D01*
X45951195Y-54174059D01*
X46013275Y-54128956D01*
X46013276Y-54128954D01*
X46013336Y-54128910D01*
X46014094Y-54128137D01*
X46158028Y-53984204D01*
X46158030Y-53984200D01*
X46158033Y-53984198D01*
X46210792Y-53911578D01*
X46210794Y-53911576D01*
X46234234Y-53879312D01*
X46278349Y-53818595D01*
X46371282Y-53636204D01*
X46434539Y-53441519D01*
X46466562Y-53239337D01*
X46466562Y-53034633D01*
X46434539Y-52832451D01*
X46411903Y-52762786D01*
X46411902Y-52762784D01*
X46373897Y-52645816D01*
X46372490Y-52641485D01*
X46371282Y-52637766D01*
X46371280Y-52637763D01*
X46371280Y-52637761D01*
X46369032Y-52633350D01*
X46368725Y-52632562D01*
X46367994Y-52631312D01*
X46337565Y-52571591D01*
X46337565Y-52571592D01*
X46278349Y-52455375D01*
X46251287Y-52418127D01*
X46158033Y-52289771D01*
X46013279Y-52145017D01*
X46013277Y-52145015D01*
X46013275Y-52145013D01*
X46013268Y-52145008D01*
X45933538Y-52087081D01*
X45933537Y-52087080D01*
X45933536Y-52087080D01*
X45908226Y-52062482D01*
X45900256Y-52052146D01*
X45874908Y-51987036D01*
X45888784Y-51918559D01*
X45932600Y-51871358D01*
X45940335Y-51866511D01*
X45967179Y-51853877D01*
X45982941Y-51848653D01*
X46035179Y-51831344D01*
X46035186Y-51831341D01*
X46035189Y-51831339D01*
X46035190Y-51831339D01*
X46109796Y-51785320D01*
X46184407Y-51739300D01*
X46308377Y-51615330D01*
X46400418Y-51466109D01*
X46400420Y-51466104D01*
X46455567Y-51299682D01*
X46455568Y-51299675D01*
X46466061Y-51196971D01*
X46466062Y-51196958D01*
X46466062Y-50846985D01*
X45674785Y-50846985D01*
X45607746Y-50827300D01*
X45561991Y-50774496D01*
X45552047Y-50705338D01*
X45555010Y-50690892D01*
X45555273Y-50689910D01*
X45566062Y-50649646D01*
X45566062Y-50544324D01*
X45555010Y-50503077D01*
X45556673Y-50433228D01*
X45595836Y-50375366D01*
X45660064Y-50347862D01*
X45674785Y-50346985D01*
X46466061Y-50346985D01*
X46466061Y-49997017D01*
X46466061Y-49997013D01*
X46466060Y-49996998D01*
X46455567Y-49894287D01*
X46400420Y-49727865D01*
X46400418Y-49727860D01*
X46308377Y-49578639D01*
X46184407Y-49454669D01*
X46035186Y-49362628D01*
X46035181Y-49362626D01*
X46035172Y-49362623D01*
X45868761Y-49307479D01*
X45868756Y-49307478D01*
X45766053Y-49296985D01*
X45766048Y-49296985D01*
X45416062Y-49296985D01*
X45416062Y-50088262D01*
X45396377Y-50155301D01*
X45343573Y-50201056D01*
X45274415Y-50211000D01*
X45259973Y-50208037D01*
X45218723Y-50196985D01*
X45218722Y-50196985D01*
X45113401Y-50196985D01*
X45072154Y-50208036D01*
X45002305Y-50206374D01*
X44944443Y-50167211D01*
X44916939Y-50102983D01*
X44916062Y-50088262D01*
X44916062Y-49296985D01*
X44566090Y-49296985D01*
X44566074Y-49296986D01*
X44566064Y-49296986D01*
X44566064Y-49296987D01*
X44463366Y-49307478D01*
X44463364Y-49307479D01*
X44296949Y-49362623D01*
X44296941Y-49362626D01*
X44296939Y-49362627D01*
X44296937Y-49362628D01*
X44197456Y-49423988D01*
X44147714Y-49454670D01*
X44023747Y-49578637D01*
X44007481Y-49605008D01*
X43934438Y-49723430D01*
X43931703Y-49727864D01*
X43931700Y-49727873D01*
X43876556Y-49894284D01*
X43876556Y-49894287D01*
X43876555Y-49894294D01*
X43873780Y-49921454D01*
X43866062Y-49996992D01*
X43866062Y-49996995D01*
X43866062Y-49996998D01*
X43866062Y-50346985D01*
X44657339Y-50346985D01*
X44724378Y-50366670D01*
X44770133Y-50419474D01*
X44780077Y-50488632D01*
X44777114Y-50503073D01*
X44766062Y-50544324D01*
X44766062Y-50649646D01*
X44776850Y-50689909D01*
X44777114Y-50690892D01*
X44775451Y-50760742D01*
X44736288Y-50818604D01*
X44672060Y-50846108D01*
X44657339Y-50846985D01*
X43866063Y-50846985D01*
X43866063Y-51196980D01*
X43876555Y-51299679D01*
X43876555Y-51299680D01*
X43876556Y-51299682D01*
X43878347Y-51305087D01*
X43924733Y-51445072D01*
X43931703Y-51466104D01*
X43931705Y-51466109D01*
X44007478Y-51588956D01*
X44023746Y-51615330D01*
X44147715Y-51739299D01*
X44147719Y-51739302D01*
X44296932Y-51831339D01*
X44296936Y-51831340D01*
X44296937Y-51831341D01*
X44296944Y-51831344D01*
X44362211Y-51852971D01*
X44393788Y-51868726D01*
X44404519Y-51876156D01*
X44448431Y-51930502D01*
X44455990Y-51999962D01*
X44428558Y-52058241D01*
X44422662Y-52065203D01*
X44400921Y-52085384D01*
X44318849Y-52145013D01*
X44318844Y-52145017D01*
X44318840Y-52145020D01*
X44174087Y-52289774D01*
X44053777Y-52455370D01*
X44053770Y-52455382D01*
X43960848Y-52637749D01*
X43960842Y-52637762D01*
X43897583Y-52832453D01*
X43865562Y-53034627D01*
X43865562Y-53239341D01*
X43897583Y-53441515D01*
X43897584Y-53441519D01*
X43957759Y-53626718D01*
X43960844Y-53636210D01*
X44024752Y-53761636D01*
X44031842Y-53775550D01*
X44031842Y-53775551D01*
X44052954Y-53816982D01*
X44053777Y-53818598D01*
X44174090Y-53984198D01*
X44318848Y-54128956D01*
X44404768Y-54191379D01*
X44484452Y-54249272D01*
X44565858Y-54290750D01*
X44570251Y-54293471D01*
X44573356Y-54296936D01*
X44590107Y-54308745D01*
X44599521Y-54317637D01*
X44613741Y-54342002D01*
X44616880Y-54345504D01*
X44617296Y-54348092D01*
X44634741Y-54377981D01*
X44631745Y-54447786D01*
X44595583Y-54501490D01*
X44588581Y-54507558D01*
X44563668Y-54524335D01*
X44484449Y-54564699D01*
X44484447Y-54564700D01*
X44318849Y-54685012D01*
X44318846Y-54685014D01*
X44174091Y-54829769D01*
X44174089Y-54829772D01*
X44053777Y-54995370D01*
X44053770Y-54995382D01*
X43960848Y-55177749D01*
X43960842Y-55177762D01*
X43897583Y-55372453D01*
X43865562Y-55574627D01*
X43865562Y-55760636D01*
X43862876Y-55786307D01*
X43856403Y-55816896D01*
X43823265Y-55878408D01*
X43822770Y-55878906D01*
X43083109Y-56618568D01*
X43083109Y-56618569D01*
X43062066Y-56650063D01*
X43041165Y-56681346D01*
X43041163Y-56681349D01*
X43022374Y-56709469D01*
X43022373Y-56709470D01*
X43000974Y-56741494D01*
X43000969Y-56741505D01*
X42944406Y-56878064D01*
X42944400Y-56878083D01*
X42915562Y-57023061D01*
X42915562Y-61020524D01*
X42915561Y-61020528D01*
X42915562Y-61020530D01*
X42910537Y-61055464D01*
X42904963Y-61074444D01*
X42872861Y-61127986D01*
X42866595Y-61134138D01*
X42844820Y-61151194D01*
X42807406Y-61174271D01*
X42683352Y-61298325D01*
X42591249Y-61447647D01*
X42591234Y-61447691D01*
X42585728Y-61464307D01*
X42569520Y-61513218D01*
X42553764Y-61544797D01*
X42546335Y-61555527D01*
X42491990Y-61599440D01*
X42422531Y-61607001D01*
X42398657Y-61595804D01*
X42397114Y-61599553D01*
X42379081Y-61592127D01*
X42365535Y-61591060D01*
X41822559Y-62134038D01*
X41761236Y-62167523D01*
X41691545Y-62162539D01*
X41635611Y-62120668D01*
X41627492Y-62108359D01*
X41606142Y-62071379D01*
X41531668Y-61996905D01*
X41494687Y-61975554D01*
X41446472Y-61924988D01*
X41433248Y-61856381D01*
X41459216Y-61791516D01*
X41468998Y-61780494D01*
X42011984Y-61237509D01*
X42011983Y-61237508D01*
X42011981Y-61237506D01*
X42011976Y-61237502D01*
X41967422Y-61205132D01*
X41967419Y-61205129D01*
X41861565Y-61151194D01*
X41785093Y-61112229D01*
X41590479Y-61048994D01*
X41590473Y-61048993D01*
X41388384Y-61016985D01*
X41388379Y-61016985D01*
X41385141Y-61016985D01*
X41385130Y-61016983D01*
X41385126Y-61016985D01*
X41350192Y-61011958D01*
X41344330Y-61010236D01*
X41285556Y-60972455D01*
X41256539Y-60908895D01*
X41266491Y-60839738D01*
X41312235Y-60786950D01*
X41320235Y-60781809D01*
X41343937Y-60769946D01*
X41470388Y-60722783D01*
X41470388Y-60722782D01*
X41470393Y-60722781D01*
X41585608Y-60636531D01*
X41671858Y-60521316D01*
X41722153Y-60386468D01*
X41728562Y-60326858D01*
X41728561Y-58707113D01*
X41728561Y-58707108D01*
X41722153Y-58647501D01*
X41691940Y-58566498D01*
X41691930Y-58566471D01*
X41671859Y-58512656D01*
X41671855Y-58512649D01*
X41585609Y-58397440D01*
X41585606Y-58397437D01*
X41585604Y-58397435D01*
X41503987Y-58336337D01*
X41470397Y-58311191D01*
X41470394Y-58311189D01*
X41470392Y-58311188D01*
X41470390Y-58311187D01*
X41335544Y-58260893D01*
X41335545Y-58260893D01*
X41275945Y-58254486D01*
X41275943Y-58254485D01*
X41275935Y-58254485D01*
X41275927Y-58254485D01*
X41274903Y-58254485D01*
X41255090Y-58254485D01*
X41220155Y-58249462D01*
X41209301Y-58246275D01*
X41194303Y-58236636D01*
X41177197Y-58231614D01*
X41165521Y-58218139D01*
X41150523Y-58208501D01*
X41143116Y-58192283D01*
X41131442Y-58178810D01*
X41128904Y-58161163D01*
X41121498Y-58144945D01*
X41124035Y-58127297D01*
X41121498Y-58109652D01*
X41131438Y-58075796D01*
X41132730Y-58072966D01*
X41172634Y-58024166D01*
X41220122Y-57989664D01*
X41288526Y-57939966D01*
X41429043Y-57799449D01*
X41545849Y-57638679D01*
X41636067Y-57461617D01*
X41697475Y-57272621D01*
X41728562Y-57076346D01*
X41728562Y-56877624D01*
X41697475Y-56681349D01*
X41646416Y-56524204D01*
X41636068Y-56492355D01*
X41636067Y-56492352D01*
X41577029Y-56376485D01*
X41545849Y-56315291D01*
X41429043Y-56154521D01*
X41288526Y-56014004D01*
X41208141Y-55955601D01*
X41127754Y-55897196D01*
X40986613Y-55825280D01*
X40957768Y-55804946D01*
X40948355Y-55796056D01*
X40913132Y-55735714D01*
X40916124Y-55665909D01*
X40952291Y-55612196D01*
X40959305Y-55606118D01*
X40984200Y-55589355D01*
X41127494Y-55516343D01*
X41276333Y-55408203D01*
X41283710Y-55404072D01*
X41288201Y-55399581D01*
X41288202Y-55399581D01*
X41428658Y-55259125D01*
X41428658Y-55259124D01*
X41433149Y-55254633D01*
X41437280Y-55247256D01*
X41545420Y-55098417D01*
X41635605Y-54921420D01*
X41696987Y-54732502D01*
X41704196Y-54686985D01*
X40474785Y-54686985D01*
X40407746Y-54667300D01*
X40361991Y-54614496D01*
X40352047Y-54545338D01*
X40355010Y-54530892D01*
X40366062Y-54489646D01*
X40366062Y-54384324D01*
X40355010Y-54343077D01*
X40356673Y-54273228D01*
X40395836Y-54215366D01*
X40460064Y-54187862D01*
X40474785Y-54186985D01*
X41704197Y-54186985D01*
X41709775Y-54173516D01*
X41699200Y-54154149D01*
X41697896Y-54147212D01*
X41696987Y-54141467D01*
X41696985Y-54141463D01*
X41696985Y-54141458D01*
X41635607Y-53952554D01*
X41635605Y-53952548D01*
X41567352Y-53818596D01*
X41545420Y-53775552D01*
X41437282Y-53626715D01*
X41433149Y-53619335D01*
X41288203Y-53474389D01*
X41242956Y-53441515D01*
X41127494Y-53357626D01*
X41127493Y-53357625D01*
X41127491Y-53357624D01*
X40986614Y-53285842D01*
X40957774Y-53265512D01*
X40948360Y-53256622D01*
X40913134Y-53196283D01*
X40916122Y-53126477D01*
X40952291Y-53072757D01*
X40959301Y-53066682D01*
X40984206Y-53049914D01*
X41127754Y-52976773D01*
X41127753Y-52976773D01*
X41127756Y-52976772D01*
X41288526Y-52859966D01*
X41429043Y-52719449D01*
X41545849Y-52558679D01*
X41636067Y-52381617D01*
X41697475Y-52192621D01*
X41728562Y-51996346D01*
X41728562Y-51797624D01*
X41697475Y-51601349D01*
X41636067Y-51412353D01*
X41636067Y-51412352D01*
X41567915Y-51278598D01*
X41545849Y-51235291D01*
X41429043Y-51074521D01*
X41288526Y-50934004D01*
X41178618Y-50854151D01*
X41127754Y-50817196D01*
X40987164Y-50745561D01*
X40958319Y-50725227D01*
X40948906Y-50716337D01*
X40913683Y-50655995D01*
X40916675Y-50586190D01*
X40952842Y-50532476D01*
X40959853Y-50526401D01*
X40984757Y-50509633D01*
X40987164Y-50508407D01*
X41127756Y-50436772D01*
X41288526Y-50319966D01*
X41429043Y-50179449D01*
X41545849Y-50018679D01*
X41609410Y-49893933D01*
X41636065Y-49841622D01*
X41636068Y-49841614D01*
X41638281Y-49834800D01*
X41697475Y-49652621D01*
X41728562Y-49456346D01*
X41728562Y-49257624D01*
X41697475Y-49061349D01*
X41637575Y-48876994D01*
X41636511Y-48873222D01*
X41545847Y-48695288D01*
X41429048Y-48534527D01*
X41429044Y-48534522D01*
X41288528Y-48394006D01*
X41288526Y-48394004D01*
X41127756Y-48277198D01*
X40950694Y-48186979D01*
X40950691Y-48186978D01*
X40950690Y-48186977D01*
X40950687Y-48186976D01*
X40950667Y-48186969D01*
X40761701Y-48125572D01*
X40761702Y-48125572D01*
X40663560Y-48110028D01*
X40565428Y-48094485D01*
X40565423Y-48094485D01*
X39366701Y-48094485D01*
X39366698Y-48094485D01*
X39317632Y-48102256D01*
X39301276Y-48104847D01*
X39170420Y-48125572D01*
X38981455Y-48186969D01*
X38981436Y-48186976D01*
X38981435Y-48186976D01*
X38804366Y-48277198D01*
X38770871Y-48301534D01*
X38643595Y-48394006D01*
X38643593Y-48394008D01*
X38643592Y-48394008D01*
X38503085Y-48534515D01*
X38503085Y-48534516D01*
X38503083Y-48534518D01*
X38452918Y-48603563D01*
X38386275Y-48695289D01*
X38296053Y-48872358D01*
X38296053Y-48872359D01*
X38296046Y-48872378D01*
X38234649Y-49061343D01*
X38203562Y-49257618D01*
X38203562Y-49456350D01*
X38234649Y-49652625D01*
X38296046Y-49841590D01*
X38296053Y-49841609D01*
X38296053Y-49841610D01*
X38296054Y-49841613D01*
X38296055Y-49841614D01*
X38296056Y-49841617D01*
X38386275Y-50018679D01*
X38503081Y-50179449D01*
X38643598Y-50319966D01*
X38804368Y-50436772D01*
X38917914Y-50494627D01*
X38917926Y-50494633D01*
X38917928Y-50494634D01*
X38944958Y-50508407D01*
X38973797Y-50528737D01*
X38983211Y-50537627D01*
X38992202Y-50553028D01*
X38995753Y-50556382D01*
X38996926Y-50561119D01*
X39018437Y-50597966D01*
X39015449Y-50667772D01*
X38979279Y-50721493D01*
X38972274Y-50727563D01*
X38947365Y-50744335D01*
X38804371Y-50817194D01*
X38731346Y-50870251D01*
X38643595Y-50934006D01*
X38643593Y-50934008D01*
X38643592Y-50934008D01*
X38503085Y-51074515D01*
X38503085Y-51074516D01*
X38503083Y-51074518D01*
X38452918Y-51143563D01*
X38386275Y-51235289D01*
X38386274Y-51235291D01*
X38296056Y-51412352D01*
X38296055Y-51412355D01*
X38296055Y-51412356D01*
X38296052Y-51412360D01*
X38234649Y-51601343D01*
X38203562Y-51797618D01*
X38203562Y-51996350D01*
X38234649Y-52192625D01*
X38296046Y-52381590D01*
X38296054Y-52381613D01*
X38296056Y-52381617D01*
X38363829Y-52514626D01*
X38363829Y-52514628D01*
X38363830Y-52514628D01*
X38386275Y-52558679D01*
X38503081Y-52719449D01*
X38643598Y-52859966D01*
X38804368Y-52976772D01*
X38945509Y-53048687D01*
X38955854Y-53055980D01*
X38974355Y-53069022D01*
X38983767Y-53077911D01*
X39018990Y-53138252D01*
X39015998Y-53208058D01*
X38979822Y-53261780D01*
X38972817Y-53267849D01*
X38947917Y-53284614D01*
X38804634Y-53357622D01*
X38804626Y-53357626D01*
X38655798Y-53465759D01*
X38648415Y-53469893D01*
X38498970Y-53619338D01*
X38494838Y-53626717D01*
X38396812Y-53761638D01*
X38386705Y-53775550D01*
X38386699Y-53775559D01*
X38296517Y-53952548D01*
X38296515Y-53952554D01*
X38235137Y-54141459D01*
X38235136Y-54141465D01*
X38227927Y-54186979D01*
X38227927Y-54186984D01*
X38227927Y-54186985D01*
X39457339Y-54186985D01*
X39524378Y-54206670D01*
X39570133Y-54259474D01*
X39580077Y-54328632D01*
X39577114Y-54343073D01*
X39566062Y-54384324D01*
X39566062Y-54489646D01*
X39575685Y-54525561D01*
X39577114Y-54530892D01*
X39575451Y-54600742D01*
X39536288Y-54658604D01*
X39472060Y-54686108D01*
X39457339Y-54686985D01*
X38227927Y-54686985D01*
X38235136Y-54732502D01*
X38235137Y-54732509D01*
X38296515Y-54921414D01*
X38296517Y-54921420D01*
X38380311Y-55085873D01*
X38386703Y-55098417D01*
X38494838Y-55247250D01*
X38498972Y-55254632D01*
X38503465Y-55259125D01*
X38643921Y-55399581D01*
X38804629Y-55516343D01*
X38804631Y-55516344D01*
X38945508Y-55588126D01*
X38964494Y-55601510D01*
X38974348Y-55608456D01*
X38983762Y-55617346D01*
X39018988Y-55677685D01*
X39016000Y-55747491D01*
X38979823Y-55801218D01*
X38972817Y-55807288D01*
X38947916Y-55824054D01*
X38804369Y-55897196D01*
X38723981Y-55955602D01*
X38643595Y-56014006D01*
X38643593Y-56014008D01*
X38643592Y-56014008D01*
X38503085Y-56154515D01*
X38503085Y-56154516D01*
X38503083Y-56154518D01*
X38487323Y-56176210D01*
X38386275Y-56315289D01*
X38355094Y-56376485D01*
X38296056Y-56492352D01*
X38296056Y-56492353D01*
X38296052Y-56492360D01*
X38234649Y-56681343D01*
X38203562Y-56877618D01*
X38203562Y-57076350D01*
X38234649Y-57272623D01*
X38285738Y-57429859D01*
X38285738Y-57429861D01*
X38285739Y-57429862D01*
X38291756Y-57464633D01*
X38292244Y-57481700D01*
X38275827Y-57546984D01*
X38269199Y-57558527D01*
X38249347Y-57584462D01*
X34598174Y-61235635D01*
X34569918Y-61256787D01*
X34556197Y-61264279D01*
X34538776Y-61268068D01*
X34523133Y-61276611D01*
X34487929Y-61279130D01*
X34481355Y-61278660D01*
X34417314Y-61255295D01*
X34355563Y-61210431D01*
X34355223Y-61210140D01*
X34347665Y-61204692D01*
X34347301Y-61204509D01*
X34275152Y-61167747D01*
X34275152Y-61167746D01*
X34275150Y-61167746D01*
X34165290Y-61111768D01*
X34165283Y-61111765D01*
X34040120Y-61071097D01*
X33970596Y-61048507D01*
X33970594Y-61048506D01*
X33970592Y-61048506D01*
X33970591Y-61048505D01*
X33791030Y-61020067D01*
X33791029Y-61020066D01*
X33768414Y-61016485D01*
X33563710Y-61016485D01*
X33541093Y-61020067D01*
X33361531Y-61048505D01*
X33361530Y-61048506D01*
X33166839Y-61111765D01*
X33166826Y-61111771D01*
X32984459Y-61204693D01*
X32984447Y-61204700D01*
X32818849Y-61325012D01*
X32818846Y-61325014D01*
X32674091Y-61469769D01*
X32674089Y-61469772D01*
X32553777Y-61635370D01*
X32553773Y-61635377D01*
X32514639Y-61712181D01*
X32514637Y-61712183D01*
X32514637Y-61712185D01*
X32494300Y-61741031D01*
X32485409Y-61750444D01*
X32425065Y-61785664D01*
X32355260Y-61782668D01*
X32301552Y-61746502D01*
X32295479Y-61739493D01*
X32278711Y-61714590D01*
X32274278Y-61705890D01*
X32274277Y-61705889D01*
X32238347Y-61635372D01*
X32214168Y-61602092D01*
X32118034Y-61469772D01*
X31973277Y-61325015D01*
X31973276Y-61325014D01*
X31973275Y-61325013D01*
X31807676Y-61204700D01*
X31774891Y-61187995D01*
X31750842Y-61175741D01*
X31750841Y-61175741D01*
X31750839Y-61175740D01*
X31732053Y-61166168D01*
X31703209Y-61145834D01*
X31678551Y-61122545D01*
X31656307Y-61094397D01*
X31606582Y-61008269D01*
X27220719Y-56622407D01*
X27220717Y-56622404D01*
X27220717Y-56622405D01*
X27213650Y-56615338D01*
X27213650Y-56615337D01*
X27094779Y-56496466D01*
X27094771Y-56496460D01*
X27051045Y-56471215D01*
X26997089Y-56440063D01*
X26997089Y-56440064D01*
X26982950Y-56431900D01*
X26982949Y-56431900D01*
X26957848Y-56417408D01*
X26894929Y-56400549D01*
X26805119Y-56376484D01*
X26805116Y-56376484D01*
X26637505Y-56376484D01*
X26637442Y-56376485D01*
X26430622Y-56376485D01*
X26395686Y-56371462D01*
X26376799Y-56365916D01*
X26323116Y-56333672D01*
X26314288Y-56324652D01*
X26302589Y-56310804D01*
X26189048Y-56154526D01*
X26048528Y-56014006D01*
X26048526Y-56014004D01*
X25968141Y-55955601D01*
X25887754Y-55897196D01*
X25746613Y-55825280D01*
X25717768Y-55804946D01*
X25708355Y-55796056D01*
X25673132Y-55735714D01*
X25676124Y-55665909D01*
X25712291Y-55612196D01*
X25719305Y-55606118D01*
X25744200Y-55589355D01*
X25887494Y-55516343D01*
X26036333Y-55408203D01*
X26043710Y-55404072D01*
X26048201Y-55399581D01*
X26048202Y-55399581D01*
X26188658Y-55259125D01*
X26188658Y-55259124D01*
X26193149Y-55254633D01*
X26197280Y-55247256D01*
X26305420Y-55098417D01*
X26395605Y-54921420D01*
X26456987Y-54732502D01*
X26464196Y-54686985D01*
X25234785Y-54686985D01*
X25167746Y-54667300D01*
X25121991Y-54614496D01*
X25112047Y-54545338D01*
X25115010Y-54530892D01*
X25126062Y-54489646D01*
X25126062Y-54384324D01*
X25115010Y-54343077D01*
X25116673Y-54273228D01*
X25155836Y-54215366D01*
X25220064Y-54187862D01*
X25234785Y-54186985D01*
X26464197Y-54186985D01*
X26469775Y-54173516D01*
X26459200Y-54154149D01*
X26457896Y-54147212D01*
X26456987Y-54141467D01*
X26456985Y-54141463D01*
X26456985Y-54141458D01*
X26395607Y-53952554D01*
X26395605Y-53952548D01*
X26327352Y-53818596D01*
X26305420Y-53775552D01*
X26197282Y-53626715D01*
X26193149Y-53619335D01*
X26048203Y-53474389D01*
X26002956Y-53441515D01*
X25887494Y-53357626D01*
X25887493Y-53357625D01*
X25887491Y-53357624D01*
X25746614Y-53285842D01*
X25717774Y-53265512D01*
X25708360Y-53256622D01*
X25673134Y-53196283D01*
X25676122Y-53126477D01*
X25712291Y-53072757D01*
X25719301Y-53066682D01*
X25744206Y-53049914D01*
X25887754Y-52976773D01*
X25887753Y-52976773D01*
X25887756Y-52976772D01*
X26048526Y-52859966D01*
X26189043Y-52719449D01*
X26305849Y-52558679D01*
X26396067Y-52381617D01*
X26457475Y-52192621D01*
X26488562Y-51996346D01*
X26488562Y-51797624D01*
X26457475Y-51601349D01*
X26396067Y-51412353D01*
X26396067Y-51412352D01*
X26327915Y-51278598D01*
X26305849Y-51235291D01*
X26189043Y-51074521D01*
X26048526Y-50934004D01*
X25938618Y-50854151D01*
X25887754Y-50817196D01*
X25747164Y-50745561D01*
X25718319Y-50725227D01*
X25708906Y-50716337D01*
X25673683Y-50655995D01*
X25676675Y-50586190D01*
X25712842Y-50532476D01*
X25719853Y-50526401D01*
X25744757Y-50509633D01*
X25747164Y-50508407D01*
X25887756Y-50436772D01*
X26048526Y-50319966D01*
X26189043Y-50179449D01*
X26305849Y-50018679D01*
X26396067Y-49841617D01*
X26457475Y-49652621D01*
X26488562Y-49456346D01*
X26488562Y-49257624D01*
X26457475Y-49061349D01*
X26397575Y-48876994D01*
X26396511Y-48873222D01*
X26305847Y-48695288D01*
X26189048Y-48534527D01*
X26189044Y-48534522D01*
X26048528Y-48394006D01*
X26048526Y-48394004D01*
X25887756Y-48277198D01*
X25710694Y-48186979D01*
X25710691Y-48186978D01*
X25710690Y-48186977D01*
X25710687Y-48186976D01*
X25710667Y-48186969D01*
X25521701Y-48125572D01*
X25521702Y-48125572D01*
X25423560Y-48110028D01*
X25325428Y-48094485D01*
X25325423Y-48094485D01*
X24126701Y-48094485D01*
X24126698Y-48094485D01*
X24077632Y-48102256D01*
X24061276Y-48104847D01*
X23930420Y-48125572D01*
X23741455Y-48186969D01*
X23741436Y-48186976D01*
X23741435Y-48186976D01*
X23564366Y-48277198D01*
X23530871Y-48301534D01*
X23403595Y-48394006D01*
X23403593Y-48394008D01*
X23403592Y-48394008D01*
X23263085Y-48534515D01*
X23263085Y-48534516D01*
X23263083Y-48534518D01*
X23212918Y-48603563D01*
X23146275Y-48695289D01*
X23056053Y-48872358D01*
X23056053Y-48872359D01*
X23056046Y-48872378D01*
X22994649Y-49061343D01*
X22963562Y-49257618D01*
X22963562Y-49456350D01*
X22994649Y-49652625D01*
X23056046Y-49841590D01*
X23056053Y-49841609D01*
X23056053Y-49841610D01*
X23056054Y-49841613D01*
X23056055Y-49841614D01*
X23056056Y-49841617D01*
X23146275Y-50018679D01*
X23263081Y-50179449D01*
X23403598Y-50319966D01*
X23564368Y-50436772D01*
X23677914Y-50494627D01*
X23677926Y-50494633D01*
X23677928Y-50494634D01*
X23704958Y-50508407D01*
X23733797Y-50528737D01*
X23743211Y-50537627D01*
X23752202Y-50553028D01*
X23755753Y-50556382D01*
X23756926Y-50561119D01*
X23778437Y-50597966D01*
X23775449Y-50667772D01*
X23739279Y-50721493D01*
X23732274Y-50727563D01*
X23707365Y-50744335D01*
X23564371Y-50817194D01*
X23491346Y-50870251D01*
X23403595Y-50934006D01*
X23403593Y-50934008D01*
X23403592Y-50934008D01*
X23263085Y-51074515D01*
X23263085Y-51074516D01*
X23263083Y-51074518D01*
X23212918Y-51143563D01*
X23146275Y-51235289D01*
X23146274Y-51235291D01*
X23056056Y-51412352D01*
X23056055Y-51412355D01*
X23056055Y-51412356D01*
X23056052Y-51412360D01*
X22994649Y-51601343D01*
X22963562Y-51797618D01*
X22963562Y-51996350D01*
X22994649Y-52192625D01*
X23056046Y-52381590D01*
X23056054Y-52381613D01*
X23056056Y-52381617D01*
X23123829Y-52514626D01*
X23123829Y-52514628D01*
X23123830Y-52514628D01*
X23146275Y-52558679D01*
X23263081Y-52719449D01*
X23403598Y-52859966D01*
X23564368Y-52976772D01*
X23705509Y-53048687D01*
X23715854Y-53055980D01*
X23734355Y-53069022D01*
X23743767Y-53077911D01*
X23778990Y-53138252D01*
X23775998Y-53208058D01*
X23739822Y-53261780D01*
X23732817Y-53267849D01*
X23707917Y-53284614D01*
X23564634Y-53357622D01*
X23564626Y-53357626D01*
X23415798Y-53465759D01*
X23408415Y-53469893D01*
X23258970Y-53619338D01*
X23254838Y-53626717D01*
X23156812Y-53761638D01*
X23146705Y-53775550D01*
X23146699Y-53775559D01*
X23056517Y-53952548D01*
X23056515Y-53952554D01*
X22995137Y-54141459D01*
X22995136Y-54141465D01*
X22987927Y-54186979D01*
X22987927Y-54186984D01*
X22987927Y-54186985D01*
X24217339Y-54186985D01*
X24284378Y-54206670D01*
X24330133Y-54259474D01*
X24340077Y-54328632D01*
X24337114Y-54343073D01*
X24326062Y-54384324D01*
X24326062Y-54489646D01*
X24335685Y-54525561D01*
X24337114Y-54530892D01*
X24335451Y-54600742D01*
X24296288Y-54658604D01*
X24232060Y-54686108D01*
X24217339Y-54686985D01*
X22987927Y-54686985D01*
X22995136Y-54732502D01*
X22995137Y-54732509D01*
X23056515Y-54921414D01*
X23056517Y-54921420D01*
X23140311Y-55085873D01*
X23146703Y-55098417D01*
X23254838Y-55247250D01*
X23258972Y-55254632D01*
X23263465Y-55259125D01*
X23403921Y-55399581D01*
X23564629Y-55516343D01*
X23564631Y-55516344D01*
X23705508Y-55588126D01*
X23724494Y-55601510D01*
X23734348Y-55608456D01*
X23743762Y-55617346D01*
X23778988Y-55677685D01*
X23776000Y-55747491D01*
X23739823Y-55801218D01*
X23732817Y-55807288D01*
X23707916Y-55824054D01*
X23564369Y-55897196D01*
X23483981Y-55955602D01*
X23403595Y-56014006D01*
X23403593Y-56014008D01*
X23403592Y-56014008D01*
X23263085Y-56154515D01*
X23263085Y-56154516D01*
X23263083Y-56154518D01*
X23247323Y-56176210D01*
X23146275Y-56315289D01*
X23115094Y-56376485D01*
X23056056Y-56492352D01*
X23056056Y-56492353D01*
X23056052Y-56492360D01*
X22994649Y-56681343D01*
X22963562Y-56877618D01*
X22963562Y-57076350D01*
X22994649Y-57272625D01*
X23056046Y-57461590D01*
X23056054Y-57461613D01*
X23056056Y-57461617D01*
X23104297Y-57556293D01*
X23104297Y-57556295D01*
X23104298Y-57556295D01*
X23146275Y-57638679D01*
X23263081Y-57799449D01*
X23403598Y-57939966D01*
X23564368Y-58056772D01*
X23601687Y-58075787D01*
X23674403Y-58112838D01*
X23674404Y-58112839D01*
X23704957Y-58128407D01*
X23733797Y-58148737D01*
X23743211Y-58157627D01*
X23752202Y-58173028D01*
X23755753Y-58176382D01*
X23756926Y-58181119D01*
X23778437Y-58217966D01*
X23775449Y-58287772D01*
X23739279Y-58341493D01*
X23732274Y-58347563D01*
X23707365Y-58364335D01*
X23564371Y-58437194D01*
X23460512Y-58512653D01*
X23403595Y-58554006D01*
X23403593Y-58554008D01*
X23403592Y-58554008D01*
X23263085Y-58694515D01*
X23263085Y-58694516D01*
X23263083Y-58694518D01*
X23247321Y-58716213D01*
X23146275Y-58855289D01*
X23124209Y-58898596D01*
X23056056Y-59032352D01*
X23056056Y-59032353D01*
X23056052Y-59032360D01*
X22994650Y-59221339D01*
X22994648Y-59221348D01*
X22973017Y-59357928D01*
X22973017Y-59357929D01*
X22963562Y-59417624D01*
X22963562Y-59616350D01*
X22978884Y-59713088D01*
X22994649Y-59812625D01*
X23056046Y-60001590D01*
X23056053Y-60001609D01*
X23056053Y-60001610D01*
X23056054Y-60001613D01*
X23056055Y-60001614D01*
X23056056Y-60001617D01*
X23103811Y-60095340D01*
X23146275Y-60178679D01*
X23263081Y-60339449D01*
X23403598Y-60479966D01*
X23564368Y-60596772D01*
X23642395Y-60636529D01*
X23741429Y-60686990D01*
X23741432Y-60686991D01*
X23835928Y-60717694D01*
X23930426Y-60748398D01*
X24126701Y-60779485D01*
X25070134Y-60779485D01*
X25100935Y-60783913D01*
X25105066Y-60784506D01*
X25130310Y-60791919D01*
X25183056Y-60823215D01*
X25297398Y-60937557D01*
X25297921Y-60937941D01*
X25300557Y-60939360D01*
X25325851Y-60953962D01*
X25361934Y-60974795D01*
X25389671Y-60996607D01*
X25399219Y-61006620D01*
X25431237Y-61068721D01*
X25424597Y-61138274D01*
X25388203Y-61187995D01*
X25381926Y-61193153D01*
X25368788Y-61202584D01*
X25364625Y-61205178D01*
X25363970Y-61205662D01*
X25320139Y-61237506D01*
X25320138Y-61237508D01*
X25320139Y-61237509D01*
X25638157Y-61555527D01*
X25863117Y-61780486D01*
X25896602Y-61841809D01*
X25891618Y-61911500D01*
X25849747Y-61967434D01*
X25837436Y-61975554D01*
X25800459Y-61996902D01*
X25800454Y-61996906D01*
X25725983Y-62071377D01*
X25725977Y-62071385D01*
X25704630Y-62108359D01*
X25654063Y-62156574D01*
X25585455Y-62169796D01*
X25520591Y-62143828D01*
X25509563Y-62134039D01*
X24966586Y-61591062D01*
X24966585Y-61591062D01*
X24966584Y-61591062D01*
X24934207Y-61635625D01*
X24841307Y-61817948D01*
X24810910Y-61911500D01*
X24778071Y-62012567D01*
X24778070Y-62012570D01*
X24778070Y-62012572D01*
X24746062Y-62214661D01*
X24746062Y-62419307D01*
X24769112Y-62564835D01*
X24778071Y-62621402D01*
X24841306Y-62816016D01*
X24887106Y-62905902D01*
X24934206Y-62998342D01*
X24934209Y-62998345D01*
X24966579Y-63042899D01*
X24966583Y-63042904D01*
X24966585Y-63042906D01*
X24966586Y-63042907D01*
X25509565Y-62499927D01*
X25570886Y-62466444D01*
X25640577Y-62471428D01*
X25696511Y-62513299D01*
X25704629Y-62525607D01*
X25725982Y-62562591D01*
X25800456Y-62637065D01*
X25800457Y-62637066D01*
X25800459Y-62637067D01*
X25837435Y-62658415D01*
X25885650Y-62708981D01*
X25898874Y-62777588D01*
X25872906Y-62842453D01*
X25863116Y-62853483D01*
X25320137Y-63396458D01*
X25320138Y-63396458D01*
X25320138Y-63396459D01*
X25364712Y-63428844D01*
X25425264Y-63459697D01*
X25547025Y-63521738D01*
X25547027Y-63521738D01*
X25547030Y-63521740D01*
X25741644Y-63584975D01*
X25943745Y-63616985D01*
X26148378Y-63616985D01*
X26148379Y-63616985D01*
X26350479Y-63584975D01*
X26545093Y-63521740D01*
X26550632Y-63518918D01*
X26727409Y-63428845D01*
X26727408Y-63428845D01*
X26727411Y-63428844D01*
X26771983Y-63396459D01*
X26229007Y-62853483D01*
X26195522Y-62792160D01*
X26200506Y-62722468D01*
X26242378Y-62666535D01*
X26254680Y-62658419D01*
X26291668Y-62637065D01*
X26366142Y-62562591D01*
X26387492Y-62525610D01*
X26438056Y-62477396D01*
X26506663Y-62464171D01*
X26571528Y-62490138D01*
X26582560Y-62499929D01*
X27125535Y-63042906D01*
X27125535Y-63042905D01*
X27125536Y-63042906D01*
X27157923Y-62998332D01*
X27157923Y-62998331D01*
X27157923Y-62998330D01*
X27159849Y-62995680D01*
X27162349Y-62989643D01*
X27197204Y-62921236D01*
X27217534Y-62892397D01*
X27226429Y-62882979D01*
X27241825Y-62873992D01*
X27245177Y-62870444D01*
X27249914Y-62869270D01*
X27286769Y-62847758D01*
X27356574Y-62850750D01*
X27410282Y-62886911D01*
X27416353Y-62893916D01*
X27433130Y-62918828D01*
X27473775Y-62998596D01*
X27594090Y-63164198D01*
X27738848Y-63308956D01*
X27859288Y-63396459D01*
X27904452Y-63429272D01*
X28000728Y-63478327D01*
X28050132Y-63503500D01*
X28080391Y-63518918D01*
X28081992Y-63519855D01*
X28085682Y-63521643D01*
X28087701Y-63522646D01*
X28091467Y-63523708D01*
X28145176Y-63541158D01*
X28177916Y-63551796D01*
X28177917Y-63551797D01*
X28227784Y-63567999D01*
X28281527Y-63585462D01*
X28382619Y-63601473D01*
X28483710Y-63617485D01*
X28483711Y-63617485D01*
X28688413Y-63617485D01*
X28688414Y-63617485D01*
X28890596Y-63585462D01*
X29085281Y-63522205D01*
X29267672Y-63429272D01*
X29396544Y-63335642D01*
X29433275Y-63308956D01*
X29433276Y-63308954D01*
X29433338Y-63308909D01*
X29434107Y-63308124D01*
X29578028Y-63164204D01*
X29578030Y-63164200D01*
X29578033Y-63164198D01*
X29698346Y-62998599D01*
X29698348Y-62998596D01*
X29698349Y-62998595D01*
X29737839Y-62921090D01*
X29738109Y-62920575D01*
X29738957Y-62919696D01*
X29757820Y-62892939D01*
X29766713Y-62883523D01*
X29783136Y-62873938D01*
X29786640Y-62870310D01*
X29791195Y-62869234D01*
X29827056Y-62848305D01*
X29896862Y-62851300D01*
X29950576Y-62887473D01*
X29956646Y-62894479D01*
X29973412Y-62919380D01*
X29989279Y-62950519D01*
X30013777Y-62998599D01*
X30134090Y-63164198D01*
X30278848Y-63308956D01*
X30399288Y-63396459D01*
X30444452Y-63429272D01*
X30540728Y-63478327D01*
X30590132Y-63503500D01*
X30620391Y-63518918D01*
X30621992Y-63519855D01*
X30625682Y-63521643D01*
X30627701Y-63522646D01*
X30631467Y-63523708D01*
X30685176Y-63541158D01*
X30717916Y-63551796D01*
X30717917Y-63551797D01*
X30767784Y-63567999D01*
X30821527Y-63585462D01*
X30922619Y-63601473D01*
X31023710Y-63617485D01*
X31023711Y-63617485D01*
X31228413Y-63617485D01*
X31228414Y-63617485D01*
X31430596Y-63585462D01*
X31625281Y-63522205D01*
X31807672Y-63429272D01*
X31936544Y-63335642D01*
X31973275Y-63308956D01*
X31973276Y-63308954D01*
X31973338Y-63308909D01*
X31974107Y-63308124D01*
X32118028Y-63164204D01*
X32118030Y-63164200D01*
X32118033Y-63164198D01*
X32238346Y-62998599D01*
X32238348Y-62998596D01*
X32238349Y-62998595D01*
X32277839Y-62921090D01*
X32278109Y-62920575D01*
X32278957Y-62919696D01*
X32297820Y-62892939D01*
X32306713Y-62883523D01*
X32323136Y-62873938D01*
X32326640Y-62870310D01*
X32331195Y-62869234D01*
X32367056Y-62848305D01*
X32436862Y-62851300D01*
X32490576Y-62887473D01*
X32496646Y-62894479D01*
X32513412Y-62919380D01*
X32529279Y-62950519D01*
X32553777Y-62998599D01*
X32674090Y-63164198D01*
X32818848Y-63308956D01*
X32984450Y-63429271D01*
X32991124Y-63432672D01*
X32999156Y-63436765D01*
X33025334Y-63455219D01*
X33027995Y-63457095D01*
X33038084Y-63466623D01*
X33073308Y-63526964D01*
X33070320Y-63596763D01*
X33068066Y-63603379D01*
X33038372Y-63651072D01*
X28501888Y-68187558D01*
X28473637Y-68208707D01*
X28450549Y-68221315D01*
X28391119Y-68236485D01*
X27234682Y-68236485D01*
X27234619Y-68236484D01*
X27232715Y-68236484D01*
X27225119Y-68236484D01*
X27067005Y-68236484D01*
X26959648Y-68265250D01*
X26959647Y-68265249D01*
X26914271Y-68277408D01*
X26900151Y-68285560D01*
X26900135Y-68285571D01*
X26874719Y-68300246D01*
X26874704Y-68300255D01*
X26777351Y-68356460D01*
X26777346Y-68356463D01*
X26665540Y-68468271D01*
X26665539Y-68468272D01*
X26503511Y-68630299D01*
X26475254Y-68651451D01*
X26460269Y-68659633D01*
X26442230Y-68663759D01*
X26442188Y-68663783D01*
X26442143Y-68663779D01*
X26394656Y-68674644D01*
X26381369Y-68673980D01*
X26355435Y-68669209D01*
X26355331Y-68669644D01*
X26350591Y-68668505D01*
X26176057Y-68640863D01*
X26159471Y-68638236D01*
X26148416Y-68636485D01*
X26148414Y-68636485D01*
X25943710Y-68636485D01*
X25943709Y-68636485D01*
X25919389Y-68640336D01*
X25919388Y-68640335D01*
X25741530Y-68668506D01*
X25546839Y-68731765D01*
X25546826Y-68731771D01*
X25364459Y-68824693D01*
X25364447Y-68824700D01*
X25198849Y-68945012D01*
X25198846Y-68945014D01*
X25054091Y-69089769D01*
X25054089Y-69089772D01*
X24933777Y-69255370D01*
X24933770Y-69255382D01*
X24840848Y-69437749D01*
X24840842Y-69437762D01*
X24777583Y-69632453D01*
X24745562Y-69834627D01*
X24745562Y-70039337D01*
X24747841Y-70053732D01*
X24747842Y-70053733D01*
X24748345Y-70089024D01*
X24746810Y-70100901D01*
X24718695Y-70164864D01*
X24660462Y-70203473D01*
X24592599Y-70205008D01*
X24582390Y-70202351D01*
X24551630Y-70189738D01*
X22524042Y-69019109D01*
X22522777Y-69018368D01*
X22521207Y-69017434D01*
X22519940Y-69016669D01*
X22519889Y-69016638D01*
X22453628Y-68976031D01*
X22450875Y-68974294D01*
X22448150Y-68972524D01*
X22445458Y-68970725D01*
X22445426Y-68970703D01*
X22388765Y-68931758D01*
X22386175Y-68929927D01*
X22385770Y-68929633D01*
X22383507Y-68927988D01*
X22380974Y-68926097D01*
X22326399Y-68884218D01*
X22323874Y-68882228D01*
X22321308Y-68880151D01*
X22318789Y-68878056D01*
X22266522Y-68833413D01*
X22264098Y-68831288D01*
X22261705Y-68829134D01*
X22259305Y-68826916D01*
X22209383Y-68779540D01*
X22207060Y-68777276D01*
X22204832Y-68775048D01*
X22202566Y-68772722D01*
X22155207Y-68722815D01*
X22153007Y-68720435D01*
X22150854Y-68718044D01*
X22148711Y-68715601D01*
X22148689Y-68715575D01*
X22104019Y-68663274D01*
X22101998Y-68660844D01*
X22099890Y-68658240D01*
X22097917Y-68655736D01*
X22056048Y-68601169D01*
X22054108Y-68598572D01*
X22052216Y-68595968D01*
X22050341Y-68593315D01*
X22011382Y-68536629D01*
X22009603Y-68533967D01*
X22007800Y-68531191D01*
X22006092Y-68528483D01*
X21970163Y-68469850D01*
X21968506Y-68467065D01*
X21966887Y-68464261D01*
X21965300Y-68461427D01*
X21932483Y-68400988D01*
X21930962Y-68398098D01*
X21929490Y-68395208D01*
X21928063Y-68392313D01*
X21898454Y-68330238D01*
X21897113Y-68327329D01*
X21895765Y-68324302D01*
X21894507Y-68321373D01*
X21868175Y-68257803D01*
X21866987Y-68254826D01*
X21865791Y-68251709D01*
X21864738Y-68248852D01*
X21841728Y-68183875D01*
X21840699Y-68180842D01*
X21839700Y-68177767D01*
X21838740Y-68174675D01*
X21834266Y-68159573D01*
X21834265Y-68159571D01*
X21819191Y-68108683D01*
X21818346Y-68105687D01*
X21817485Y-68102476D01*
X21816695Y-68099363D01*
X21812957Y-68083797D01*
X21806124Y-68055335D01*
X21800619Y-68032408D01*
X21799928Y-68029351D01*
X21799227Y-68026052D01*
X21798618Y-68022980D01*
X21790179Y-67977449D01*
X21790178Y-67977446D01*
X21786081Y-67955338D01*
X21785538Y-67952180D01*
X21785533Y-67952148D01*
X21785023Y-67948927D01*
X21784572Y-67945829D01*
X21775576Y-67877508D01*
X21775209Y-67874401D01*
X21774851Y-67871003D01*
X21774575Y-67867998D01*
X21772917Y-67846931D01*
X21772916Y-67846924D01*
X21772917Y-67846921D01*
X21769168Y-67799302D01*
X21768956Y-67796082D01*
X21768789Y-67792907D01*
X21768789Y-67792906D01*
X21768661Y-67789641D01*
X21766626Y-67711942D01*
X21766593Y-67710283D01*
X21766572Y-67708643D01*
X21766562Y-67707055D01*
X21766562Y-41166949D01*
X21766572Y-41165372D01*
X21766593Y-41163721D01*
X21766625Y-41162055D01*
X21766627Y-41162012D01*
X21768457Y-41092037D01*
X21768659Y-41084273D01*
X21768785Y-41081085D01*
X21768959Y-41077769D01*
X21769166Y-41074617D01*
X21774569Y-41005945D01*
X21774852Y-41002864D01*
X21775209Y-40999477D01*
X21775572Y-40996416D01*
X21784552Y-40928193D01*
X21785008Y-40925044D01*
X21785015Y-40925001D01*
X21785528Y-40921758D01*
X21786057Y-40918672D01*
X21798618Y-40850898D01*
X21799230Y-40847822D01*
X21799926Y-40844551D01*
X21800625Y-40841466D01*
X21816687Y-40774554D01*
X21817452Y-40771541D01*
X21818340Y-40768227D01*
X21819164Y-40765305D01*
X21838753Y-40699172D01*
X21839677Y-40696198D01*
X21840708Y-40693027D01*
X21841691Y-40690132D01*
X21864716Y-40625107D01*
X21865796Y-40622181D01*
X21867006Y-40619031D01*
X21868144Y-40616180D01*
X21894529Y-40552482D01*
X21895724Y-40549701D01*
X21897124Y-40546557D01*
X21898395Y-40543800D01*
X21928072Y-40481578D01*
X21929464Y-40478758D01*
X21930979Y-40475785D01*
X21932447Y-40472997D01*
X21965332Y-40412428D01*
X21966858Y-40409704D01*
X21968493Y-40406874D01*
X21970107Y-40404162D01*
X22006079Y-40345460D01*
X22007786Y-40342757D01*
X22009594Y-40339973D01*
X22011344Y-40337354D01*
X22023420Y-40319784D01*
X22050340Y-40280615D01*
X22052163Y-40278036D01*
X22054102Y-40275367D01*
X22056011Y-40272813D01*
X22097922Y-40218194D01*
X22099912Y-40215669D01*
X22101957Y-40213143D01*
X22103982Y-40210709D01*
X22148689Y-40158365D01*
X22150825Y-40155931D01*
X22152994Y-40153523D01*
X22155183Y-40151156D01*
X22202548Y-40101244D01*
X22204717Y-40099016D01*
X22207088Y-40096645D01*
X22209320Y-40094470D01*
X22259376Y-40046971D01*
X22261623Y-40044894D01*
X22264127Y-40042641D01*
X22266424Y-40040627D01*
X22318812Y-39995886D01*
X22321247Y-39993861D01*
X22321272Y-39993841D01*
X22323856Y-39991747D01*
X22326276Y-39989839D01*
X22380982Y-39947863D01*
X22383473Y-39946003D01*
X22386167Y-39944046D01*
X22388639Y-39942298D01*
X22445535Y-39903197D01*
X22448096Y-39901486D01*
X22450921Y-39899650D01*
X22453480Y-39898036D01*
X22520135Y-39857192D01*
X22521170Y-39856568D01*
X22522775Y-39855613D01*
X22523918Y-39854943D01*
X22620599Y-39799124D01*
X47335562Y-39799124D01*
X47335562Y-42894861D01*
X47335721Y-42896791D01*
X47335947Y-42898439D01*
X47341969Y-42954467D01*
X47369752Y-43028956D01*
X47392264Y-43089313D01*
X47392265Y-43089315D01*
X47392266Y-43089317D01*
X47392267Y-43089318D01*
X47478512Y-43204527D01*
X47478514Y-43204529D01*
X47478517Y-43204532D01*
X47593726Y-43290778D01*
X47593733Y-43290782D01*
X47728579Y-43341076D01*
X47728578Y-43341076D01*
X47735506Y-43341820D01*
X47788189Y-43347485D01*
X50883934Y-43347484D01*
X50943545Y-43341076D01*
X51078393Y-43290781D01*
X51193608Y-43204531D01*
X51279858Y-43089316D01*
X51330153Y-42954468D01*
X51336562Y-42894858D01*
X51336561Y-41339312D01*
X51341584Y-41304377D01*
X51345988Y-41289379D01*
X51383761Y-41230603D01*
X51385141Y-41229408D01*
X51439981Y-41201962D01*
X51447540Y-41200318D01*
X51473893Y-41197485D01*
X60586002Y-41197485D01*
X60614466Y-41201577D01*
X60620934Y-41202506D01*
X60646178Y-41209919D01*
X60698924Y-41241215D01*
X67746635Y-48288926D01*
X67767785Y-48317178D01*
X67780393Y-48340267D01*
X67795562Y-48399696D01*
X67795562Y-49796523D01*
X67795561Y-49796526D01*
X67795562Y-49796528D01*
X67790538Y-49831462D01*
X67784262Y-49852833D01*
X67755433Y-49903038D01*
X67752370Y-49906281D01*
X67746715Y-49911251D01*
X67746485Y-49911610D01*
X67746115Y-49911778D01*
X67735109Y-49921454D01*
X67568556Y-50042464D01*
X67568547Y-50042471D01*
X67397053Y-50213965D01*
X67392917Y-50221351D01*
X67390814Y-50224243D01*
X67390815Y-50224244D01*
X67262719Y-50400551D01*
X67155495Y-50610988D01*
X67082508Y-50835616D01*
X67082507Y-50835619D01*
X67082507Y-50835621D01*
X67045562Y-51068881D01*
X67045562Y-51305087D01*
X67071065Y-51466104D01*
X67082508Y-51538353D01*
X67155495Y-51762981D01*
X67241496Y-51931765D01*
X67262719Y-51973418D01*
X67401545Y-52164495D01*
X67568552Y-52331502D01*
X67630006Y-52376151D01*
X67730022Y-52448817D01*
X67755332Y-52473413D01*
X67756675Y-52475155D01*
X67768934Y-52491052D01*
X67792604Y-52543868D01*
X67793428Y-52548252D01*
X67794127Y-52555762D01*
X67794283Y-52556161D01*
X67794202Y-52556560D01*
X67795562Y-52571157D01*
X67795562Y-56296523D01*
X67790538Y-56331462D01*
X67784262Y-56352833D01*
X67777602Y-56364430D01*
X67775769Y-56374191D01*
X67755433Y-56403038D01*
X67752370Y-56406281D01*
X67735109Y-56421454D01*
X67568556Y-56542464D01*
X67568547Y-56542471D01*
X67397052Y-56713966D01*
X67392920Y-56721345D01*
X67343571Y-56789268D01*
X67272156Y-56887562D01*
X67262719Y-56900551D01*
X67155495Y-57110988D01*
X67082508Y-57335616D01*
X67082507Y-57335619D01*
X67082507Y-57335621D01*
X67045562Y-57568881D01*
X67045562Y-57805087D01*
X67081211Y-58030167D01*
X67082508Y-58038353D01*
X67155495Y-58262981D01*
X67224006Y-58397440D01*
X67262719Y-58473418D01*
X67401545Y-58664495D01*
X67568552Y-58831502D01*
X67759629Y-58970328D01*
X67859053Y-59020987D01*
X67970065Y-59077551D01*
X67970938Y-59077996D01*
X67974692Y-59079055D01*
X68001444Y-59087747D01*
X68042797Y-59101183D01*
X68042798Y-59101184D01*
X68093430Y-59117635D01*
X68194693Y-59150538D01*
X68427965Y-59187485D01*
X68427970Y-59187485D01*
X68664158Y-59187485D01*
X68664159Y-59187485D01*
X68897430Y-59150538D01*
X69122054Y-59077553D01*
X69332495Y-58970328D01*
X69523572Y-58831502D01*
X69690579Y-58664495D01*
X69829405Y-58473418D01*
X69936630Y-58262977D01*
X70009615Y-58038353D01*
X70017327Y-57989664D01*
X70046562Y-57805082D01*
X70046562Y-57568887D01*
X70009615Y-57335616D01*
X69936628Y-57110988D01*
X69829404Y-56900551D01*
X69816075Y-56882205D01*
X69690579Y-56709475D01*
X69523572Y-56542468D01*
X69498434Y-56524204D01*
X69454595Y-56492352D01*
X69454595Y-56492353D01*
X69362099Y-56425150D01*
X69362097Y-56425148D01*
X69362096Y-56425148D01*
X69336787Y-56400549D01*
X69323187Y-56382911D01*
X69299515Y-56330078D01*
X69298692Y-56325695D01*
X69297994Y-56318196D01*
X69297840Y-56317801D01*
X69297920Y-56317404D01*
X69296562Y-56302811D01*
X69296562Y-52577445D01*
X69301585Y-52542511D01*
X69307860Y-52521140D01*
X69314520Y-52509540D01*
X69316355Y-52499775D01*
X69336689Y-52470931D01*
X69339757Y-52467683D01*
X69357017Y-52452511D01*
X69523572Y-52331502D01*
X69690579Y-52164495D01*
X69829405Y-51973418D01*
X69936630Y-51762977D01*
X70009615Y-51538353D01*
X70029571Y-51412355D01*
X70029572Y-51412352D01*
X70035093Y-51377492D01*
X70046562Y-51305082D01*
X70046562Y-51068887D01*
X70009615Y-50835616D01*
X69944263Y-50634485D01*
X69936630Y-50610993D01*
X69936628Y-50610990D01*
X69936628Y-50610988D01*
X69934388Y-50606592D01*
X69934078Y-50605797D01*
X69933345Y-50604544D01*
X69829404Y-50400551D01*
X69690579Y-50209475D01*
X69523572Y-50042468D01*
X69379171Y-49937554D01*
X69362099Y-49925150D01*
X69336788Y-49900551D01*
X69331963Y-49894294D01*
X69323186Y-49882911D01*
X69299515Y-49830078D01*
X69298692Y-49825695D01*
X69296562Y-49802811D01*
X69296562Y-47953061D01*
X69267779Y-47808368D01*
X69267481Y-47806871D01*
X69265404Y-47802480D01*
X69211148Y-47671493D01*
X69168576Y-47607778D01*
X69129017Y-47548573D01*
X69129012Y-47548567D01*
X69129006Y-47548560D01*
X61444491Y-39864045D01*
X61444490Y-39864044D01*
X61444483Y-39864037D01*
X61444476Y-39864031D01*
X61444472Y-39864028D01*
X61444471Y-39864027D01*
X61333571Y-39789928D01*
X61333569Y-39789927D01*
X61321555Y-39781899D01*
X61321540Y-39781892D01*
X61184981Y-39725329D01*
X61184982Y-39725329D01*
X61184979Y-39725328D01*
X61184969Y-39725325D01*
X61184967Y-39725324D01*
X61184962Y-39725323D01*
X61039984Y-39696485D01*
X61039982Y-39696485D01*
X61039980Y-39696485D01*
X51418033Y-39696485D01*
X51418028Y-39696484D01*
X51418026Y-39696485D01*
X51383092Y-39691460D01*
X51368093Y-39687055D01*
X51309323Y-39649285D01*
X51301752Y-39640548D01*
X51285932Y-39612767D01*
X51285159Y-39611735D01*
X51285152Y-39611727D01*
X51279855Y-39604650D01*
X51279855Y-39604649D01*
X51193609Y-39489440D01*
X51193606Y-39489437D01*
X51193604Y-39489435D01*
X51135678Y-39446071D01*
X51078397Y-39403191D01*
X51078394Y-39403189D01*
X51078392Y-39403188D01*
X51078390Y-39403187D01*
X50943544Y-39352893D01*
X50943545Y-39352893D01*
X50883945Y-39346486D01*
X50883943Y-39346485D01*
X50883935Y-39346485D01*
X50883926Y-39346485D01*
X50882903Y-39346485D01*
X47788185Y-39346485D01*
X47786254Y-39346644D01*
X47784607Y-39346870D01*
X47728578Y-39352893D01*
X47593728Y-39403189D01*
X47593727Y-39403190D01*
X47478518Y-39489435D01*
X47478512Y-39489441D01*
X47392269Y-39604648D01*
X47392265Y-39604653D01*
X47341969Y-39739501D01*
X47335563Y-39799101D01*
X47335562Y-39799124D01*
X22620599Y-39799124D01*
X44475243Y-27181327D01*
X44497373Y-27171299D01*
X44520077Y-27163592D01*
X44531709Y-27160882D01*
X44531670Y-27160736D01*
X44539518Y-27158633D01*
X44539521Y-27158633D01*
X44679531Y-27121117D01*
X44805061Y-27048642D01*
X44907555Y-26946148D01*
X44980030Y-26820618D01*
X44999708Y-26747177D01*
X45002674Y-26740253D01*
X45013597Y-26714744D01*
X45021735Y-26701392D01*
X45073429Y-26654398D01*
X45075081Y-26653596D01*
X45135140Y-26641282D01*
X45142869Y-26641650D01*
X45169066Y-26645736D01*
X45180161Y-26648709D01*
X45249097Y-26667181D01*
X45249100Y-26667181D01*
X45394044Y-26667181D01*
X45394047Y-26667181D01*
X45534057Y-26629665D01*
X45659587Y-26557190D01*
X45762081Y-26454696D01*
X45791703Y-26403387D01*
X45813515Y-26375652D01*
X45824832Y-26364862D01*
X45886920Y-26332852D01*
X45888702Y-26332509D01*
X45949925Y-26336152D01*
G37*
%TD.AperFunction*%
%TD*%
%TA.AperFunction,Conductor*%
%TO.N,B0-Earth*%
G36*
X111379765Y-37254284D02*
G01*
X111436960Y-37294414D01*
X111463380Y-37359096D01*
X111464027Y-37371744D01*
X111464071Y-71755577D01*
X111444387Y-71822616D01*
X111391583Y-71868371D01*
X111322424Y-71878315D01*
X111309997Y-71875875D01*
X99809006Y-69000627D01*
X99784123Y-68986028D01*
X99757877Y-68974042D01*
X99754356Y-68968564D01*
X99748742Y-68965270D01*
X99735701Y-68939536D01*
X99720103Y-68915264D01*
X99718796Y-68906174D01*
X99717160Y-68902946D01*
X99715080Y-68880329D01*
X99715080Y-68738155D01*
X99734765Y-68671116D01*
X99787569Y-68625361D01*
X99839080Y-68614155D01*
X100512451Y-68614155D01*
X100512452Y-68614155D01*
X100572063Y-68607747D01*
X100706911Y-68557452D01*
X100822126Y-68471202D01*
X100908376Y-68355987D01*
X100958671Y-68221139D01*
X100965080Y-68161529D01*
X100965079Y-65065784D01*
X100958671Y-65006173D01*
X100908376Y-64871325D01*
X100908375Y-64871324D01*
X100908373Y-64871320D01*
X100822127Y-64756111D01*
X100822124Y-64756108D01*
X100706915Y-64669862D01*
X100706908Y-64669858D01*
X100572062Y-64619564D01*
X100572063Y-64619564D01*
X100512463Y-64613157D01*
X100512461Y-64613156D01*
X100512453Y-64613156D01*
X100512445Y-64613156D01*
X98026809Y-64613156D01*
X97959770Y-64593471D01*
X97939128Y-64576837D01*
X93443000Y-60080708D01*
X93442993Y-60080702D01*
X93369308Y-60031468D01*
X93369308Y-60031469D01*
X93320070Y-59998569D01*
X93183496Y-59941999D01*
X93183486Y-59941996D01*
X93038499Y-59913156D01*
X93038497Y-59913156D01*
X80651808Y-59913156D01*
X80584769Y-59893471D01*
X80564127Y-59876837D01*
X76977266Y-56289975D01*
X76878455Y-56191164D01*
X76844970Y-56129841D01*
X76843663Y-56084090D01*
X76865079Y-55948878D01*
X76865079Y-55728434D01*
X76830594Y-55510705D01*
X76785294Y-55371283D01*
X76762475Y-55301052D01*
X76762474Y-55301049D01*
X76720877Y-55219412D01*
X76662394Y-55104634D01*
X76645839Y-55081848D01*
X76532826Y-54926297D01*
X76532822Y-54926292D01*
X76482650Y-54876120D01*
X76449165Y-54814797D01*
X76454149Y-54745105D01*
X76496021Y-54689172D01*
X76526999Y-54672257D01*
X76606905Y-54642454D01*
X76606905Y-54642453D01*
X76606910Y-54642452D01*
X76722125Y-54556202D01*
X76808375Y-54440987D01*
X76858670Y-54306139D01*
X76865079Y-54246529D01*
X76865079Y-54168156D01*
X76884764Y-54101117D01*
X76937568Y-54055362D01*
X76989079Y-54044156D01*
X83397443Y-54044156D01*
X83464482Y-54063841D01*
X83510237Y-54116645D01*
X83520181Y-54185803D01*
X83500544Y-54237048D01*
X83493292Y-54247899D01*
X83415988Y-54434528D01*
X83415986Y-54434536D01*
X83376579Y-54632648D01*
X83376579Y-54834663D01*
X83415986Y-55032775D01*
X83415989Y-55032787D01*
X83449626Y-55113994D01*
X83457095Y-55183463D01*
X83437484Y-55228520D01*
X83437974Y-55228788D01*
X83434989Y-55234252D01*
X83434339Y-55235748D01*
X83433725Y-55236567D01*
X83433724Y-55236569D01*
X83383482Y-55371276D01*
X83383480Y-55371283D01*
X83377079Y-55430811D01*
X83377079Y-55753656D01*
X84261213Y-55753656D01*
X84285405Y-55756039D01*
X84288202Y-55756595D01*
X84301074Y-55759155D01*
X84301075Y-55759156D01*
X84301076Y-55759156D01*
X84341249Y-55759156D01*
X84327004Y-55773401D01*
X84277635Y-55858911D01*
X84252079Y-55954286D01*
X84252079Y-56053026D01*
X84277635Y-56148401D01*
X84327004Y-56233911D01*
X84346749Y-56253656D01*
X83377079Y-56253656D01*
X83377079Y-56576500D01*
X83383480Y-56636028D01*
X83383482Y-56636035D01*
X83433724Y-56770742D01*
X83433728Y-56770749D01*
X83519888Y-56885843D01*
X83519891Y-56885846D01*
X83634985Y-56972006D01*
X83634992Y-56972010D01*
X83769699Y-57022252D01*
X83769706Y-57022254D01*
X83829234Y-57028655D01*
X83829251Y-57028656D01*
X84377079Y-57028656D01*
X84377079Y-56283986D01*
X84396824Y-56303731D01*
X84482334Y-56353100D01*
X84577709Y-56378656D01*
X84676449Y-56378656D01*
X84771824Y-56353100D01*
X84857334Y-56303731D01*
X84877079Y-56283986D01*
X84877079Y-57028656D01*
X85424907Y-57028656D01*
X85424923Y-57028655D01*
X85484451Y-57022254D01*
X85484458Y-57022252D01*
X85619165Y-56972010D01*
X85619172Y-56972006D01*
X85734266Y-56885846D01*
X85734269Y-56885843D01*
X85820429Y-56770749D01*
X85820433Y-56770742D01*
X85870675Y-56636035D01*
X85870677Y-56636028D01*
X85877078Y-56576500D01*
X85877079Y-56576483D01*
X85877079Y-56253656D01*
X84907409Y-56253656D01*
X84927154Y-56233911D01*
X84976523Y-56148401D01*
X85002079Y-56053026D01*
X85002079Y-55954286D01*
X84976523Y-55858911D01*
X84927154Y-55773401D01*
X84912909Y-55759156D01*
X84953083Y-55759156D01*
X84953083Y-55759155D01*
X84966552Y-55756476D01*
X84968753Y-55756039D01*
X84992945Y-55753656D01*
X85877079Y-55753656D01*
X85877079Y-55608156D01*
X85896764Y-55541117D01*
X85949568Y-55495362D01*
X86001079Y-55484156D01*
X86272349Y-55484156D01*
X86301789Y-55492800D01*
X86331776Y-55499324D01*
X86336791Y-55503078D01*
X86339388Y-55503841D01*
X86360030Y-55520475D01*
X86427760Y-55588205D01*
X86461245Y-55649528D01*
X86464079Y-55675886D01*
X86464079Y-55858142D01*
X86493638Y-56044774D01*
X86552033Y-56224492D01*
X86585399Y-56289975D01*
X86637819Y-56392855D01*
X86748889Y-56545729D01*
X86882506Y-56679346D01*
X87035380Y-56790416D01*
X87114926Y-56830946D01*
X87203742Y-56876201D01*
X87203744Y-56876201D01*
X87203747Y-56876203D01*
X87298216Y-56906898D01*
X87383460Y-56934596D01*
X87570093Y-56964156D01*
X87570098Y-56964156D01*
X87759065Y-56964156D01*
X87945697Y-56934596D01*
X87947202Y-56934107D01*
X88125411Y-56876203D01*
X88293778Y-56790416D01*
X88319761Y-56771538D01*
X92090248Y-56771538D01*
X92090249Y-56771539D01*
X92115638Y-56789985D01*
X92283941Y-56875741D01*
X92463576Y-56934107D01*
X92650132Y-56963656D01*
X92839026Y-56963656D01*
X93025581Y-56934107D01*
X93205216Y-56875741D01*
X93373516Y-56789987D01*
X93398907Y-56771539D01*
X93398907Y-56771538D01*
X92744580Y-56117210D01*
X92744579Y-56117210D01*
X92090248Y-56771538D01*
X88319761Y-56771538D01*
X88446652Y-56679346D01*
X88580269Y-56545729D01*
X88691339Y-56392855D01*
X88777126Y-56224488D01*
X88835519Y-56044774D01*
X88849851Y-55954286D01*
X88865079Y-55858142D01*
X88865079Y-55669208D01*
X91544579Y-55669208D01*
X91544579Y-55858103D01*
X91574127Y-56044658D01*
X91632493Y-56224293D01*
X91718245Y-56392589D01*
X91736695Y-56417984D01*
X92391025Y-55763656D01*
X92391025Y-55763655D01*
X92344948Y-55717578D01*
X92394579Y-55717578D01*
X92394579Y-55809734D01*
X92418431Y-55898751D01*
X92464509Y-55978561D01*
X92529674Y-56043726D01*
X92609484Y-56089804D01*
X92698501Y-56113656D01*
X92790657Y-56113656D01*
X92879674Y-56089804D01*
X92959484Y-56043726D01*
X93024649Y-55978561D01*
X93070727Y-55898751D01*
X93094579Y-55809734D01*
X93094579Y-55763655D01*
X93098133Y-55763655D01*
X93098133Y-55763656D01*
X93752461Y-56417984D01*
X93752462Y-56417984D01*
X93770910Y-56392593D01*
X93856664Y-56224293D01*
X93915030Y-56044658D01*
X93944579Y-55858103D01*
X93944579Y-55669208D01*
X93915030Y-55482653D01*
X93856664Y-55303018D01*
X93770908Y-55134715D01*
X93752462Y-55109326D01*
X93752461Y-55109325D01*
X93098133Y-55763655D01*
X93094579Y-55763655D01*
X93094579Y-55717578D01*
X93070727Y-55628561D01*
X93024649Y-55548751D01*
X92959484Y-55483586D01*
X92879674Y-55437508D01*
X92790657Y-55413656D01*
X92698501Y-55413656D01*
X92609484Y-55437508D01*
X92529674Y-55483586D01*
X92464509Y-55548751D01*
X92418431Y-55628561D01*
X92394579Y-55717578D01*
X92344948Y-55717578D01*
X91736695Y-55109325D01*
X91736695Y-55109326D01*
X91718248Y-55134716D01*
X91632493Y-55303018D01*
X91574127Y-55482653D01*
X91544579Y-55669208D01*
X88865079Y-55669208D01*
X88865079Y-55669169D01*
X88835519Y-55482537D01*
X88799370Y-55371283D01*
X88777126Y-55302824D01*
X88777124Y-55302821D01*
X88777124Y-55302819D01*
X88716309Y-55183463D01*
X88691339Y-55134457D01*
X88580269Y-54981583D01*
X88446652Y-54847966D01*
X88399865Y-54813973D01*
X88357200Y-54758644D01*
X88351221Y-54689031D01*
X88383827Y-54627236D01*
X88399866Y-54613338D01*
X88446652Y-54579346D01*
X88580269Y-54445729D01*
X88691339Y-54292855D01*
X88777126Y-54124488D01*
X88835519Y-53944774D01*
X88840921Y-53910667D01*
X88865079Y-53758142D01*
X88865079Y-53569169D01*
X88835519Y-53382537D01*
X88777124Y-53202819D01*
X88691338Y-53034456D01*
X88580269Y-52881583D01*
X88446652Y-52747966D01*
X88293778Y-52636896D01*
X88125415Y-52551110D01*
X87945697Y-52492715D01*
X87759065Y-52463156D01*
X87759060Y-52463156D01*
X87570098Y-52463156D01*
X87570093Y-52463156D01*
X87383460Y-52492715D01*
X87203742Y-52551110D01*
X87035379Y-52636896D01*
X86948158Y-52700266D01*
X86882506Y-52747966D01*
X86882504Y-52747968D01*
X86882503Y-52747968D01*
X86748891Y-52881580D01*
X86748891Y-52881581D01*
X86748889Y-52881583D01*
X86701189Y-52947235D01*
X86637819Y-53034456D01*
X86552033Y-53202819D01*
X86493638Y-53382537D01*
X86464079Y-53569169D01*
X86464079Y-53751426D01*
X86455434Y-53780866D01*
X86448911Y-53810853D01*
X86445156Y-53815868D01*
X86444394Y-53818465D01*
X86427760Y-53839107D01*
X86320030Y-53946837D01*
X86258707Y-53980322D01*
X86232349Y-53983156D01*
X85932467Y-53983156D01*
X85865428Y-53963471D01*
X85819673Y-53910667D01*
X85809729Y-53841509D01*
X85817904Y-53811708D01*
X85838170Y-53762783D01*
X85877579Y-53564659D01*
X85877579Y-53362653D01*
X85838170Y-53164529D01*
X85760865Y-52977900D01*
X85760863Y-52977897D01*
X85760861Y-52977893D01*
X85648637Y-52809937D01*
X85505797Y-52667097D01*
X85337841Y-52554873D01*
X85337831Y-52554868D01*
X85151206Y-52477565D01*
X85151198Y-52477563D01*
X84953086Y-52438156D01*
X84953082Y-52438156D01*
X84301076Y-52438156D01*
X84301071Y-52438156D01*
X84102959Y-52477563D01*
X84102951Y-52477565D01*
X83967391Y-52533717D01*
X83919938Y-52543156D01*
X76989078Y-52543156D01*
X76922039Y-52523471D01*
X76876284Y-52470667D01*
X76865078Y-52419156D01*
X76865078Y-52350785D01*
X76865077Y-52350779D01*
X76865076Y-52350772D01*
X76858670Y-52291173D01*
X76808375Y-52156325D01*
X76808374Y-52156324D01*
X76808372Y-52156320D01*
X76722126Y-52041111D01*
X76722123Y-52041108D01*
X76606914Y-51954862D01*
X76606907Y-51954858D01*
X76472061Y-51904564D01*
X76472062Y-51904564D01*
X76412462Y-51898157D01*
X76412460Y-51898156D01*
X76412452Y-51898156D01*
X76412443Y-51898156D01*
X74516708Y-51898156D01*
X74516702Y-51898157D01*
X74457095Y-51904564D01*
X74322250Y-51954858D01*
X74322243Y-51954862D01*
X74207034Y-52041108D01*
X74207031Y-52041111D01*
X74120785Y-52156320D01*
X74120781Y-52156327D01*
X74070487Y-52291173D01*
X74064080Y-52350772D01*
X74064080Y-52350779D01*
X74064079Y-52350791D01*
X74064079Y-54246526D01*
X74064080Y-54246532D01*
X74070487Y-54306139D01*
X74120781Y-54440984D01*
X74120785Y-54440991D01*
X74207031Y-54556200D01*
X74207034Y-54556203D01*
X74322243Y-54642449D01*
X74322250Y-54642453D01*
X74402159Y-54672257D01*
X74458093Y-54714128D01*
X74482510Y-54779592D01*
X74467659Y-54847865D01*
X74446508Y-54876119D01*
X74396335Y-54926292D01*
X74396331Y-54926297D01*
X74266766Y-55104630D01*
X74166683Y-55301049D01*
X74166682Y-55301052D01*
X74098564Y-55510703D01*
X74072402Y-55675886D01*
X74064079Y-55728434D01*
X74064079Y-55948878D01*
X74080574Y-56053026D01*
X74098564Y-56166608D01*
X74166682Y-56376259D01*
X74166683Y-56376262D01*
X74266766Y-56572681D01*
X74396331Y-56751014D01*
X74396335Y-56751019D01*
X74552215Y-56906899D01*
X74552220Y-56906903D01*
X74707771Y-57019916D01*
X74730557Y-57036471D01*
X74858954Y-57101893D01*
X74926972Y-57136551D01*
X74926975Y-57136552D01*
X75031800Y-57170611D01*
X75136628Y-57204671D01*
X75354357Y-57239156D01*
X75354358Y-57239156D01*
X75574799Y-57239156D01*
X75574801Y-57239156D01*
X75710010Y-57217740D01*
X75779301Y-57226694D01*
X75817087Y-57252532D01*
X79706627Y-61142071D01*
X79706628Y-61142072D01*
X79811163Y-61246607D01*
X79811164Y-61246608D01*
X79934077Y-61328736D01*
X79934090Y-61328743D01*
X80070661Y-61385312D01*
X80070666Y-61385314D01*
X80070670Y-61385314D01*
X80070671Y-61385315D01*
X80215658Y-61414156D01*
X80215661Y-61414156D01*
X92602349Y-61414156D01*
X92669388Y-61433841D01*
X92690030Y-61450475D01*
X96927761Y-65688206D01*
X96961246Y-65749529D01*
X96964080Y-65775887D01*
X96964080Y-68130579D01*
X96944395Y-68197618D01*
X96891591Y-68243373D01*
X96822433Y-68253317D01*
X96810006Y-68250877D01*
X72558990Y-62188123D01*
X72498726Y-62152766D01*
X72467144Y-62090442D01*
X72465064Y-62067825D01*
X72465074Y-47059478D01*
X72484759Y-46992442D01*
X72537563Y-46946688D01*
X72558992Y-46939186D01*
X91840006Y-42118933D01*
X91909817Y-42121771D01*
X91967012Y-42161901D01*
X91993432Y-42226583D01*
X91994079Y-42239231D01*
X91994079Y-52665030D01*
X91974394Y-52732069D01*
X91957761Y-52752711D01*
X91828888Y-52881584D01*
X91717819Y-53034456D01*
X91632033Y-53202819D01*
X91573638Y-53382537D01*
X91544079Y-53569169D01*
X91544079Y-53758142D01*
X91573638Y-53944774D01*
X91632033Y-54124492D01*
X91663273Y-54185803D01*
X91717819Y-54292855D01*
X91828889Y-54445729D01*
X91962506Y-54579346D01*
X92040292Y-54635861D01*
X92082958Y-54691191D01*
X92091025Y-54745909D01*
X92090248Y-54755772D01*
X92744579Y-55410102D01*
X92744580Y-55410102D01*
X93398907Y-54755772D01*
X93398131Y-54745910D01*
X93412495Y-54677533D01*
X93448862Y-54635863D01*
X93526652Y-54579346D01*
X93660269Y-54445729D01*
X93771339Y-54292855D01*
X93857126Y-54124488D01*
X93915519Y-53944774D01*
X93920921Y-53910667D01*
X93945079Y-53758142D01*
X93945079Y-53569169D01*
X93915519Y-53382537D01*
X93857124Y-53202819D01*
X93771338Y-53034456D01*
X93660269Y-52881583D01*
X93531397Y-52752711D01*
X93497913Y-52691388D01*
X93495079Y-52665030D01*
X93495079Y-45992561D01*
X96964580Y-45992561D01*
X96964580Y-46254750D01*
X96998800Y-46514665D01*
X96998802Y-46514676D01*
X97066655Y-46767911D01*
X97166984Y-47010127D01*
X97166989Y-47010138D01*
X97298068Y-47237172D01*
X97298074Y-47237180D01*
X97384660Y-47350021D01*
X98287001Y-46447680D01*
X98299939Y-46478914D01*
X98382017Y-46601753D01*
X98486483Y-46706219D01*
X98609322Y-46788297D01*
X98640554Y-46801233D01*
X97738213Y-47703573D01*
X97738213Y-47703574D01*
X97851055Y-47790161D01*
X97851063Y-47790167D01*
X98078097Y-47921246D01*
X98078108Y-47921251D01*
X98320324Y-48021580D01*
X98573559Y-48089433D01*
X98573570Y-48089435D01*
X98833485Y-48123655D01*
X98833500Y-48123656D01*
X99095660Y-48123656D01*
X99095674Y-48123655D01*
X99355589Y-48089435D01*
X99355600Y-48089433D01*
X99608835Y-48021580D01*
X99851051Y-47921251D01*
X99851062Y-47921246D01*
X100078096Y-47790167D01*
X100078114Y-47790155D01*
X100190945Y-47703575D01*
X100190945Y-47703573D01*
X99288605Y-46801234D01*
X99319838Y-46788297D01*
X99442677Y-46706219D01*
X99547143Y-46601753D01*
X99629221Y-46478914D01*
X99642157Y-46447681D01*
X100544497Y-47350021D01*
X100544499Y-47350021D01*
X100631079Y-47237190D01*
X100631091Y-47237172D01*
X100762170Y-47010138D01*
X100762175Y-47010127D01*
X100862504Y-46767911D01*
X100930357Y-46514676D01*
X100930359Y-46514665D01*
X100964579Y-46254750D01*
X100964580Y-46254736D01*
X100964580Y-45992575D01*
X100964579Y-45992561D01*
X100930359Y-45732646D01*
X100930357Y-45732635D01*
X100862504Y-45479400D01*
X100762175Y-45237184D01*
X100762170Y-45237173D01*
X100631091Y-45010139D01*
X100631085Y-45010131D01*
X100544498Y-44897289D01*
X100544497Y-44897289D01*
X99642157Y-45799629D01*
X99629221Y-45768398D01*
X99547143Y-45645559D01*
X99442677Y-45541093D01*
X99319838Y-45459015D01*
X99288603Y-45446077D01*
X100190945Y-44543736D01*
X100078104Y-44457150D01*
X100078096Y-44457144D01*
X99851062Y-44326065D01*
X99851051Y-44326060D01*
X99608835Y-44225731D01*
X99355600Y-44157878D01*
X99355589Y-44157876D01*
X99095674Y-44123656D01*
X98833485Y-44123656D01*
X98573570Y-44157876D01*
X98573559Y-44157878D01*
X98320324Y-44225731D01*
X98078108Y-44326060D01*
X98078097Y-44326065D01*
X97851051Y-44457152D01*
X97738213Y-44543735D01*
X97738213Y-44543736D01*
X98640554Y-45446077D01*
X98609322Y-45459015D01*
X98486483Y-45541093D01*
X98382017Y-45645559D01*
X98299939Y-45768398D01*
X98287001Y-45799630D01*
X97384660Y-44897289D01*
X97384659Y-44897289D01*
X97298076Y-45010127D01*
X97166989Y-45237173D01*
X97166984Y-45237184D01*
X97066655Y-45479400D01*
X96998802Y-45732635D01*
X96998800Y-45732646D01*
X96964580Y-45992561D01*
X93495079Y-45992561D01*
X93495079Y-41801981D01*
X93514764Y-41734942D01*
X93567568Y-41689187D01*
X93589000Y-41681684D01*
X111309954Y-37251446D01*
X111379765Y-37254284D01*
G37*
%TD.AperFunction*%
%TD*%
M02*
