%TF.GenerationSoftware,KiCad,Pcbnew,10.0.1*%
%TF.CreationDate,2026-07-09T21:18:08-04:00*%
%TF.ProjectId,panelized,70616e65-6c69-47a6-9564-2e6b69636164,rev?*%
%TF.SameCoordinates,Original*%
%TF.FileFunction,Soldermask,Top*%
%TF.FilePolarity,Negative*%
%FSLAX46Y46*%
G04 Gerber Fmt 4.6, Leading zero omitted, Abs format (unit mm)*
G04 Created by KiCad (PCBNEW 10.0.1) date 2026-07-09 21:18:08*
%MOMM*%
%LPD*%
G01*
G04 APERTURE LIST*
G04 Aperture macros list*
%AMRoundRect*
0 Rectangle with rounded corners*
0 $1 Rounding radius*
0 $2 $3 $4 $5 $6 $7 $8 $9 X,Y pos of 4 corners*
0 Add a 4 corners polygon primitive as box body*
4,1,4,$2,$3,$4,$5,$6,$7,$8,$9,$2,$3,0*
0 Add four circle primitives for the rounded corners*
1,1,$1+$1,$2,$3*
1,1,$1+$1,$4,$5*
1,1,$1+$1,$6,$7*
1,1,$1+$1,$8,$9*
0 Add four rect primitives between the rounded corners*
20,1,$1+$1,$2,$3,$4,$5,0*
20,1,$1+$1,$4,$5,$6,$7,0*
20,1,$1+$1,$6,$7,$8,$9,0*
20,1,$1+$1,$8,$9,$2,$3,0*%
G04 Aperture macros list end*
%ADD10C,0.200000*%
%ADD11RoundRect,0.250000X-0.550000X-0.550000X0.550000X-0.550000X0.550000X0.550000X-0.550000X0.550000X0*%
%ADD12C,1.600000*%
%ADD13C,0.600000*%
%ADD14C,2.000000*%
%ADD15C,1.300000*%
%ADD16RoundRect,0.250000X-0.550000X0.550000X-0.550000X-0.550000X0.550000X-0.550000X0.550000X0.550000X0*%
%ADD17R,2.524000X1.524000*%
%ADD18O,2.524000X1.524000*%
%ADD19C,1.400000*%
%ADD20R,1.500000X1.050000*%
%ADD21O,1.500000X1.050000*%
%ADD22R,1.800000X1.800000*%
%ADD23C,1.800000*%
%ADD24R,3.000000X3.000000*%
%ADD25C,3.000000*%
G04 APERTURE END LIST*
D10*
X111964579Y-36463656D02*
X71964579Y-46463656D01*
X71964579Y-39563656D01*
X111964579Y-29563656D01*
X111964579Y-36463656D01*
G36*
X111964579Y-36463656D02*
G01*
X71964579Y-46463656D01*
X71964579Y-39563656D01*
X111964579Y-29563656D01*
X111964579Y-36463656D01*
G37*
X111964579Y-72663656D02*
X111964579Y-79563656D01*
X71964579Y-69563656D01*
X71964579Y-62663656D01*
X111964579Y-72663656D01*
G36*
X111964579Y-72663656D02*
G01*
X111964579Y-79563656D01*
X71964579Y-69563656D01*
X71964579Y-62663656D01*
X111964579Y-72663656D01*
G37*
D11*
%TO.C,B1-U1*%
X45166062Y-50596985D03*
D12*
X45166062Y-53136985D03*
X45166062Y-55676985D03*
X45166062Y-58216985D03*
X52786062Y-58216985D03*
X52786062Y-55676985D03*
X52786062Y-53136985D03*
X52786062Y-50596985D03*
%TD*%
D13*
%TO.C,KiKit_MB_1_4*%
X45291214Y-82740804D03*
%TD*%
D14*
%TO.C,REF\u002A\u002A*%
X103265000Y-23850000D03*
%TD*%
D13*
%TO.C,KiKit_MB_3_5*%
X93764569Y-34113663D03*
%TD*%
%TO.C,KiKit_MB_3_3*%
X91964569Y-34563664D03*
%TD*%
%TO.C,KiKit_MB_1_2*%
X47183029Y-82772231D03*
%TD*%
D15*
%TO.C,REF\u002A\u002A*%
X108465000Y-23500000D03*
%TD*%
D16*
%TO.C,B1-U2*%
X43826062Y-62316985D03*
D12*
X41286062Y-62316985D03*
X38746062Y-62316985D03*
X36206062Y-62316985D03*
X33666062Y-62316985D03*
X31126062Y-62316985D03*
X28586062Y-62316985D03*
X26046062Y-62316985D03*
X26046062Y-69936985D03*
X28586062Y-69936985D03*
X31126062Y-69936985D03*
X33666062Y-69936985D03*
X36206062Y-69936985D03*
X38746062Y-69936985D03*
X41286062Y-69936985D03*
X43826062Y-69936985D03*
%TD*%
D13*
%TO.C,KiKit_MB_3_1*%
X90164569Y-35013665D03*
%TD*%
D14*
%TO.C,REF\u002A\u002A*%
X28700000Y-84991000D03*
%TD*%
D11*
%TO.C,B1-C1*%
X57266062Y-64496985D03*
D12*
X59266062Y-64496985D03*
%TD*%
D17*
%TO.C,B1-U3*%
X39966062Y-59516985D03*
D18*
X39966062Y-56976985D03*
X39966062Y-54436985D03*
X39966062Y-51896985D03*
X39966062Y-49356985D03*
X24726062Y-49356985D03*
X24726062Y-51896985D03*
X24726062Y-54436985D03*
X24726062Y-56976985D03*
X24726062Y-59516985D03*
%TD*%
D13*
%TO.C,KiKit_MB_2_3*%
X46267938Y-25878923D03*
%TD*%
%TO.C,KiKit_MB_4_2*%
X92864569Y-74788727D03*
%TD*%
%TO.C,KiKit_MB_4_4*%
X91064569Y-74338720D03*
%TD*%
D15*
%TO.C,REF\u002A\u002A*%
X108465000Y-85341000D03*
%TD*%
D19*
%TO.C,B1-R2*%
X57291062Y-58471985D03*
X57291062Y-53391985D03*
%TD*%
D13*
%TO.C,KiKit_MB_3_2*%
X91064569Y-34788664D03*
%TD*%
%TO.C,KiKit_MB_2_5*%
X48068329Y-26610010D03*
%TD*%
D15*
%TO.C,REF\u002A\u002A*%
X23500000Y-85341000D03*
%TD*%
D14*
%TO.C,REF\u002A\u002A*%
X28700000Y-23850000D03*
%TD*%
D19*
%TO.C,B0-R7*%
X87664579Y-53663656D03*
X92744579Y-53663656D03*
%TD*%
%TO.C,B0-R6*%
X92744579Y-55763656D03*
X87664579Y-55763656D03*
%TD*%
D13*
%TO.C,KiKit_MB_3_4*%
X92864569Y-34338664D03*
%TD*%
%TO.C,KiKit_MB_1_3*%
X46233142Y-82994233D03*
%TD*%
D14*
%TO.C,REF\u002A\u002A*%
X103265000Y-84991000D03*
%TD*%
D13*
%TO.C,KiKit_MB_2_4*%
X47213850Y-26118473D03*
%TD*%
D20*
%TO.C,B0-Q1*%
X84627079Y-56003656D03*
D21*
X84627079Y-54733656D03*
X84627079Y-53463656D03*
%TD*%
D13*
%TO.C,KiKit_MB_4_5*%
X90164569Y-74113716D03*
%TD*%
%TO.C,KiKit_MB_1_5*%
X44437357Y-82248695D03*
%TD*%
D15*
%TO.C,REF\u002A\u002A*%
X23500000Y-23500000D03*
%TD*%
D13*
%TO.C,KiKit_MB_2_1*%
X44467046Y-26608133D03*
%TD*%
%TO.C,KiKit_MB_4_3*%
X91964569Y-74563723D03*
%TD*%
D14*
%TO.C,B1-SW1*%
X64046062Y-57686985D03*
X64046062Y-51186985D03*
X68546062Y-57686985D03*
X68546062Y-51186985D03*
%TD*%
D13*
%TO.C,KiKit_MB_4_1*%
X93764569Y-75013730D03*
%TD*%
%TO.C,KiKit_MB_2_2*%
X45321572Y-26116681D03*
%TD*%
D19*
%TO.C,B1-R1*%
X57266062Y-51471985D03*
X57266062Y-46391985D03*
%TD*%
D22*
%TO.C,B0-D1*%
X75464579Y-53298656D03*
D23*
X75464579Y-55838656D03*
%TD*%
D13*
%TO.C,KiKit_MB_1_1*%
X48037729Y-82281626D03*
%TD*%
D24*
%TO.C,B1-BT2*%
X49336062Y-41346985D03*
D25*
X49336062Y-61836985D03*
%TD*%
D24*
%TO.C,B0-BT5*%
X98964580Y-66613656D03*
D25*
X98964580Y-46123656D03*
%TD*%
M02*
