%TF.GenerationSoftware,KiCad,Pcbnew,10.0.1*%
%TF.CreationDate,2026-07-09T21:18:08-04:00*%
%TF.ProjectId,panelized,70616e65-6c69-47a6-9564-2e6b69636164,rev?*%
%TF.SameCoordinates,Original*%
%TF.FileFunction,Copper,L2,Bot*%
%TF.FilePolarity,Positive*%
%FSLAX46Y46*%
G04 Gerber Fmt 4.6, Leading zero omitted, Abs format (unit mm)*
G04 Created by KiCad (PCBNEW 10.0.1) date 2026-07-09 21:18:08*
%MOMM*%
%LPD*%
G01*
G04 APERTURE LIST*
G04 Aperture macros list*
%AMRoundRect*
0 Rectangle with rounded corners*
0 $1 Rounding radius*
0 $2 $3 $4 $5 $6 $7 $8 $9 X,Y pos of 4 corners*
0 Add a 4 corners polygon primitive as box body*
4,1,4,$2,$3,$4,$5,$6,$7,$8,$9,$2,$3,0*
0 Add four circle primitives for the rounded corners*
1,1,$1+$1,$2,$3*
1,1,$1+$1,$4,$5*
1,1,$1+$1,$6,$7*
1,1,$1+$1,$8,$9*
0 Add four rect primitives between the rounded corners*
20,1,$1+$1,$2,$3,$4,$5,0*
20,1,$1+$1,$4,$5,$6,$7,0*
20,1,$1+$1,$6,$7,$8,$9,0*
20,1,$1+$1,$8,$9,$2,$3,0*%
G04 Aperture macros list end*
%TA.AperFunction,ComponentPad*%
%ADD10RoundRect,0.250000X-0.550000X-0.550000X0.550000X-0.550000X0.550000X0.550000X-0.550000X0.550000X0*%
%TD*%
%TA.AperFunction,ComponentPad*%
%ADD11C,1.600000*%
%TD*%
%TA.AperFunction,WasherPad*%
%ADD12C,1.300000*%
%TD*%
%TA.AperFunction,ComponentPad*%
%ADD13RoundRect,0.250000X-0.550000X0.550000X-0.550000X-0.550000X0.550000X-0.550000X0.550000X0.550000X0*%
%TD*%
%TA.AperFunction,ComponentPad*%
%ADD14R,2.524000X1.524000*%
%TD*%
%TA.AperFunction,ComponentPad*%
%ADD15O,2.524000X1.524000*%
%TD*%
%TA.AperFunction,ComponentPad*%
%ADD16C,1.400000*%
%TD*%
%TA.AperFunction,ComponentPad*%
%ADD17R,1.500000X1.050000*%
%TD*%
%TA.AperFunction,ComponentPad*%
%ADD18O,1.500000X1.050000*%
%TD*%
%TA.AperFunction,ComponentPad*%
%ADD19C,2.000000*%
%TD*%
%TA.AperFunction,ComponentPad*%
%ADD20R,1.800000X1.800000*%
%TD*%
%TA.AperFunction,ComponentPad*%
%ADD21C,1.800000*%
%TD*%
%TA.AperFunction,ComponentPad*%
%ADD22R,3.000000X3.000000*%
%TD*%
%TA.AperFunction,ComponentPad*%
%ADD23C,3.000000*%
%TD*%
%TA.AperFunction,ViaPad*%
%ADD24C,0.600000*%
%TD*%
%TA.AperFunction,Conductor*%
%ADD25C,0.500000*%
%TD*%
%TA.AperFunction,Conductor*%
%ADD26C,0.200000*%
%TD*%
G04 APERTURE END LIST*
D10*
%TO.P,B1-U1,1,GND_1*%
%TO.N,B1-Earth*%
X45166062Y-50596985D03*
D11*
%TO.P,B1-U1,2,TRIG_2*%
%TO.N,B1-Net-(U1-THRES)*%
X45166062Y-53136985D03*
%TO.P,B1-U1,3,OUT_3*%
%TO.N,B1-Net-(U1-OUT)*%
X45166062Y-55676985D03*
%TO.P,B1-U1,4,~{RST}_4*%
%TO.N,B1-Net-(U1-VCC)*%
X45166062Y-58216985D03*
%TO.P,B1-U1,5,CONT_5*%
%TO.N,B1-unconnected-(U1-CONT-Pad5)*%
X52786062Y-58216985D03*
%TO.P,B1-U1,6,THRES_6*%
%TO.N,B1-Net-(U1-THRES)*%
X52786062Y-55676985D03*
%TO.P,B1-U1,7,DISCH_7*%
%TO.N,B1-Net-(U1-DISCH)*%
X52786062Y-53136985D03*
%TO.P,B1-U1,8,VCC_8*%
%TO.N,B1-Net-(U1-VCC)*%
X52786062Y-50596985D03*
%TD*%
D12*
%TO.P,REF\u002A\u002A,*%
%TO.N,*%
X108465000Y-23500000D03*
%TD*%
D13*
%TO.P,B1-U2,1,CLK_1*%
%TO.N,B1-Net-(U1-OUT)*%
X43826062Y-62316985D03*
D11*
%TO.P,B1-U2,2,CLKN_2*%
%TO.N,B1-Earth*%
X41286062Y-62316985D03*
%TO.P,B1-U2,3,DIS_EI_3*%
%TO.N,B1-DICE_3V3*%
X38746062Y-62316985D03*
%TO.P,B1-U2,4,DIS_EO_4*%
%TO.N,B1-unconnected-(U2-DIS_EO-Pad4)*%
X36206062Y-62316985D03*
%TO.P,B1-U2,5,CARRY_5*%
%TO.N,B1-unconnected-(U2-CARRY-Pad5)*%
X33666062Y-62316985D03*
%TO.P,B1-U2,6,F_6*%
%TO.N,B1-Net-(U2-F)*%
X31126062Y-62316985D03*
%TO.P,B1-U2,7,G_7*%
%TO.N,B1-Net-(U2-G)*%
X28586062Y-62316985D03*
%TO.P,B1-U2,8,VSS_8*%
%TO.N,B1-Earth*%
X26046062Y-62316985D03*
%TO.P,B1-U2,9,D_9*%
%TO.N,B1-Net-(U2-D)*%
X26046062Y-69936985D03*
%TO.P,B1-U2,10,A_10*%
%TO.N,B1-Net-(U2-A)*%
X28586062Y-69936985D03*
%TO.P,B1-U2,11,E_11*%
%TO.N,B1-Net-(U2-E)*%
X31126062Y-69936985D03*
%TO.P,B1-U2,12,B_12*%
%TO.N,B1-Net-(U2-B)*%
X33666062Y-69936985D03*
%TO.P,B1-U2,13,C_13*%
%TO.N,B1-Net-(U2-C)*%
X36206062Y-69936985D03*
%TO.P,B1-U2,14,UCS_14*%
%TO.N,B1-unconnected-(U2-UCS-Pad14)*%
X38746062Y-69936985D03*
%TO.P,B1-U2,15,RST_15*%
%TO.N,B1-unconnected-(U2-RST-Pad15)*%
X41286062Y-69936985D03*
%TO.P,B1-U2,16,VDD_16*%
%TO.N,B1-DICE_3V3*%
X43826062Y-69936985D03*
%TD*%
D10*
%TO.P,B1-C1,1*%
%TO.N,B1-Net-(U1-THRES)*%
X57266062Y-64496985D03*
D11*
%TO.P,B1-C1,2*%
%TO.N,B1-Earth*%
X59266062Y-64496985D03*
%TD*%
D14*
%TO.P,B1-U3,1,E_1*%
%TO.N,B1-Net-(U2-E)*%
X39966062Y-59516985D03*
D15*
%TO.P,B1-U3,2,D_2*%
%TO.N,B1-Net-(U2-D)*%
X39966062Y-56976985D03*
%TO.P,B1-U3,3,CC_3*%
%TO.N,B1-Earth*%
X39966062Y-54436985D03*
%TO.P,B1-U3,4,C_4*%
%TO.N,B1-Net-(U2-C)*%
X39966062Y-51896985D03*
%TO.P,B1-U3,5,DP_5*%
%TO.N,B1-unconnected-(U3-DP-Pad5)*%
X39966062Y-49356985D03*
%TO.P,B1-U3,6,B_6*%
%TO.N,B1-Net-(U2-B)*%
X24726062Y-49356985D03*
%TO.P,B1-U3,7,A_7*%
%TO.N,B1-Net-(U2-A)*%
X24726062Y-51896985D03*
%TO.P,B1-U3,8,CC_8*%
%TO.N,B1-Earth*%
X24726062Y-54436985D03*
%TO.P,B1-U3,9,F_9*%
%TO.N,B1-Net-(U2-F)*%
X24726062Y-56976985D03*
%TO.P,B1-U3,10,G_10*%
%TO.N,B1-Net-(U2-G)*%
X24726062Y-59516985D03*
%TD*%
D12*
%TO.P,REF\u002A\u002A,*%
%TO.N,*%
X108465000Y-85341000D03*
%TD*%
D16*
%TO.P,B1-R2,1*%
%TO.N,B1-Net-(U1-THRES)*%
X57291062Y-58471985D03*
%TO.P,B1-R2,2*%
%TO.N,B1-Net-(U1-DISCH)*%
X57291062Y-53391985D03*
%TD*%
D12*
%TO.P,REF\u002A\u002A,*%
%TO.N,*%
X23500000Y-85341000D03*
%TD*%
D16*
%TO.P,B0-R7,1*%
%TO.N,B0-Net-(Q1-B)*%
X87664579Y-53663656D03*
%TO.P,B0-R7,2*%
%TO.N,B0-Net-(R7-Pad2)*%
X92744579Y-53663656D03*
%TD*%
%TO.P,B0-R6,1*%
%TO.N,B0-Earth*%
X92744579Y-55763656D03*
%TO.P,B0-R6,2*%
%TO.N,B0-Net-(Q1-B)*%
X87664579Y-55763656D03*
%TD*%
D17*
%TO.P,B0-Q1,1,E_1*%
%TO.N,B0-Earth*%
X84627079Y-56003656D03*
D18*
%TO.P,B0-Q1,2,B_2*%
%TO.N,B0-Net-(Q1-B)*%
X84627079Y-54733656D03*
%TO.P,B0-Q1,3,C_3*%
%TO.N,B0-Net-(D1-K)*%
X84627079Y-53463656D03*
%TD*%
D12*
%TO.P,REF\u002A\u002A,*%
%TO.N,*%
X23500000Y-23500000D03*
%TD*%
D19*
%TO.P,B1-SW1,1,1_1*%
%TO.N,B1-Net-(U1-VCC)*%
X64046062Y-57686985D03*
X64046062Y-51186985D03*
%TO.P,B1-SW1,2,2_2*%
%TO.N,B1-DICE_3V3*%
X68546062Y-57686985D03*
X68546062Y-51186985D03*
%TD*%
D16*
%TO.P,B1-R1,1*%
%TO.N,B1-Net-(U1-DISCH)*%
X57266062Y-51471985D03*
%TO.P,B1-R1,2*%
%TO.N,B1-Net-(U1-VCC)*%
X57266062Y-46391985D03*
%TD*%
D20*
%TO.P,B0-D1,1,K_1*%
%TO.N,B0-Net-(D1-K)*%
X75464579Y-53298656D03*
D21*
%TO.P,B0-D1,2,A_2*%
%TO.N,B0-COND_3V*%
X75464579Y-55838656D03*
%TD*%
D22*
%TO.P,B1-BT2,1,+_1*%
%TO.N,B1-DICE_3V3*%
X49336062Y-41346985D03*
D23*
%TO.P,B1-BT2,2,-_2*%
%TO.N,B1-Earth*%
X49336062Y-61836985D03*
%TD*%
D22*
%TO.P,B0-BT5,1,+_1*%
%TO.N,B0-COND_3V*%
X98964580Y-66613656D03*
D23*
%TO.P,B0-BT5,2,-_2*%
%TO.N,B0-Earth*%
X98964580Y-46123656D03*
%TD*%
D24*
%TO.N,B1-Earth*%
X42576062Y-65386985D03*
X34776062Y-58286985D03*
%TD*%
%TO.N,B1-Net-(U1-THRES)*%
D25*
X47601062Y-53136985D02*
X45166062Y-53136985D01*
X52786062Y-55676985D02*
X50141062Y-55676985D01*
X50141062Y-55676985D02*
X47601062Y-53136985D01*
%TO.N,B1-DICE_3V3*%
X42866062Y-58796985D02*
X45666062Y-61596985D01*
X43826062Y-69936985D02*
X43826062Y-69916985D01*
X45666062Y-68096985D02*
X43826062Y-69936985D01*
X42866062Y-47796985D02*
X42866062Y-58796985D01*
X38746062Y-64836985D02*
X38746062Y-62316985D01*
X43826062Y-69916985D02*
X38746062Y-64836985D01*
X49336062Y-41346985D02*
X49316062Y-41346985D01*
X49316062Y-41346985D02*
X42866062Y-47796985D01*
X45666062Y-61596985D02*
X45666062Y-68096985D01*
%TO.N,B1-Net-(U2-A)*%
D26*
X29866062Y-55036985D02*
X29866062Y-68656985D01*
X26726062Y-51896985D02*
X29866062Y-55036985D01*
X24726062Y-51896985D02*
X26726062Y-51896985D01*
X29866062Y-68656985D02*
X28586062Y-69936985D01*
%TO.N,B1-Net-(U2-B)*%
X32366062Y-68636985D02*
X33666062Y-69936985D01*
X32366062Y-54996985D02*
X32366062Y-68636985D01*
X26726062Y-49356985D02*
X32366062Y-54996985D01*
X24726062Y-49356985D02*
X26726062Y-49356985D01*
%TO.N,B1-Net-(U2-C)*%
X37306062Y-68836985D02*
X37306062Y-54556985D01*
X36206062Y-69936985D02*
X37306062Y-68836985D01*
X37306062Y-54556985D02*
X39966062Y-51896985D01*
%TD*%
%TA.AperFunction,Conductor*%
%TO.N,B1-Earth*%
G36*
X45949925Y-26336152D02*
G01*
X45957297Y-26338509D01*
X45981541Y-26349234D01*
X46055449Y-26391905D01*
X46055450Y-26391905D01*
X46055453Y-26391907D01*
X46195463Y-26429423D01*
X46195466Y-26429423D01*
X46340410Y-26429423D01*
X46340413Y-26429423D01*
X46480423Y-26391907D01*
X46549325Y-26352125D01*
X46582081Y-26339011D01*
X46597278Y-26335325D01*
X46667008Y-26338630D01*
X46668728Y-26339226D01*
X46719975Y-26373013D01*
X46725184Y-26378743D01*
X46740810Y-26400145D01*
X46772045Y-26454243D01*
X46773341Y-26456488D01*
X46773343Y-26456490D01*
X46875835Y-26558982D01*
X46876524Y-26559478D01*
X46879028Y-26560826D01*
X46997919Y-26629468D01*
X47000937Y-26631342D01*
X47001364Y-26631456D01*
X47001365Y-26631457D01*
X47141375Y-26668973D01*
X47141378Y-26668973D01*
X47286323Y-26668973D01*
X47286325Y-26668973D01*
X47361951Y-26648708D01*
X47396985Y-26644519D01*
X47398459Y-26644554D01*
X47412613Y-26644890D01*
X47479162Y-26666159D01*
X47479192Y-26666179D01*
X47480691Y-26667194D01*
X47521381Y-26713047D01*
X47524924Y-26719919D01*
X47534484Y-26744646D01*
X47554842Y-26820618D01*
X47554844Y-26820625D01*
X47554842Y-26820625D01*
X47555344Y-26822493D01*
X47555345Y-26822498D01*
X47625960Y-26944805D01*
X47627818Y-26948023D01*
X47730314Y-27050519D01*
X47731003Y-27051015D01*
X47733507Y-27052363D01*
X47852398Y-27121005D01*
X47855416Y-27122879D01*
X47855843Y-27122993D01*
X47855844Y-27122994D01*
X47995854Y-27160510D01*
X47995856Y-27160510D01*
X48003704Y-27162613D01*
X48003664Y-27162759D01*
X48015306Y-27165473D01*
X48037988Y-27173172D01*
X48060132Y-27183205D01*
X70008004Y-39854815D01*
X70009376Y-39855619D01*
X70010740Y-39856430D01*
X70012161Y-39857288D01*
X70078550Y-39897974D01*
X70081253Y-39899678D01*
X70083962Y-39901438D01*
X70086618Y-39903213D01*
X70096813Y-39910220D01*
X70143384Y-39942229D01*
X70145948Y-39944042D01*
X70148598Y-39945967D01*
X70148609Y-39945975D01*
X70151171Y-39947889D01*
X70168027Y-39960824D01*
X70199827Y-39985226D01*
X70205763Y-39989781D01*
X70208288Y-39991771D01*
X70210847Y-39993844D01*
X70213303Y-39995887D01*
X70265621Y-40040573D01*
X70267991Y-40042652D01*
X70270426Y-40044844D01*
X70272800Y-40047038D01*
X70322711Y-40094404D01*
X70325053Y-40096686D01*
X70327363Y-40098997D01*
X70329611Y-40101305D01*
X70376900Y-40151139D01*
X70379109Y-40153529D01*
X70381284Y-40155945D01*
X70383387Y-40158343D01*
X70428097Y-40210692D01*
X70430155Y-40213166D01*
X70432207Y-40215700D01*
X70434216Y-40218249D01*
X70476047Y-40272763D01*
X70478011Y-40275393D01*
X70479941Y-40278051D01*
X70481794Y-40280675D01*
X70520725Y-40337321D01*
X70522530Y-40340022D01*
X70524306Y-40342757D01*
X70526037Y-40345500D01*
X70561962Y-40404126D01*
X70563613Y-40406901D01*
X70565251Y-40409738D01*
X70566809Y-40412519D01*
X70599647Y-40472997D01*
X70601132Y-40475821D01*
X70601776Y-40477086D01*
X70602620Y-40478741D01*
X70604051Y-40481643D01*
X70627310Y-40530406D01*
X70631094Y-40538339D01*
X70633659Y-40543716D01*
X70635006Y-40546638D01*
X70636318Y-40549583D01*
X70637611Y-40552592D01*
X70663925Y-40616121D01*
X70665115Y-40619103D01*
X70666286Y-40622151D01*
X70667402Y-40625172D01*
X70684555Y-40673610D01*
X70684557Y-40673615D01*
X70690378Y-40690055D01*
X70691419Y-40693121D01*
X70692415Y-40696186D01*
X70693377Y-40699283D01*
X70697857Y-40714404D01*
X70697858Y-40714412D01*
X70697859Y-40714412D01*
X70712913Y-40765233D01*
X70713798Y-40768374D01*
X70714633Y-40771492D01*
X70715427Y-40774619D01*
X70731477Y-40841466D01*
X70732196Y-40844641D01*
X70732869Y-40847808D01*
X70733500Y-40850982D01*
X70746031Y-40918582D01*
X70746577Y-40921760D01*
X70747091Y-40925001D01*
X70747561Y-40928238D01*
X70756537Y-40996416D01*
X70756916Y-40999617D01*
X70757254Y-41002827D01*
X70757548Y-41006016D01*
X70762764Y-41072270D01*
X70762948Y-41074598D01*
X70763158Y-41077803D01*
X70763331Y-41081085D01*
X70763460Y-41084363D01*
X70765495Y-41162012D01*
X70765527Y-41163593D01*
X70765549Y-41165228D01*
X70765560Y-41166896D01*
X70765560Y-67707028D01*
X70765549Y-67708680D01*
X70765527Y-67710331D01*
X70765496Y-67711921D01*
X70763463Y-67789645D01*
X70763334Y-67792906D01*
X70763164Y-67796143D01*
X70762953Y-67799366D01*
X70757560Y-67867914D01*
X70757262Y-67871159D01*
X70756921Y-67874401D01*
X70756540Y-67877613D01*
X70747570Y-67945755D01*
X70747111Y-67948927D01*
X70746602Y-67952148D01*
X70746046Y-67955390D01*
X70733513Y-68023013D01*
X70732876Y-68026210D01*
X70732208Y-68029351D01*
X70731495Y-68032503D01*
X70715447Y-68099350D01*
X70714641Y-68102521D01*
X70713792Y-68105687D01*
X70712918Y-68108785D01*
X70693401Y-68174679D01*
X70692439Y-68177780D01*
X70691437Y-68180864D01*
X70690392Y-68183940D01*
X70667429Y-68248785D01*
X70666300Y-68251847D01*
X70665156Y-68254826D01*
X70663960Y-68257823D01*
X70637638Y-68321372D01*
X70636354Y-68324360D01*
X70635032Y-68327329D01*
X70633679Y-68330264D01*
X70607176Y-68385830D01*
X70604084Y-68392313D01*
X70602637Y-68395246D01*
X70601149Y-68398165D01*
X70599647Y-68401019D01*
X70566837Y-68461445D01*
X70565249Y-68464281D01*
X70563638Y-68467071D01*
X70561982Y-68469854D01*
X70526055Y-68528483D01*
X70524317Y-68531238D01*
X70522549Y-68533960D01*
X70520751Y-68536650D01*
X70481813Y-68593305D01*
X70479939Y-68595956D01*
X70478050Y-68598556D01*
X70476105Y-68601161D01*
X70434233Y-68655726D01*
X70432216Y-68658284D01*
X70430157Y-68660826D01*
X70428092Y-68663309D01*
X70383453Y-68715575D01*
X70381315Y-68718013D01*
X70379147Y-68720421D01*
X70376939Y-68722810D01*
X70329617Y-68772675D01*
X70327334Y-68775017D01*
X70325023Y-68777327D01*
X70322714Y-68779576D01*
X70272841Y-68826901D01*
X70270465Y-68829098D01*
X70268053Y-68831270D01*
X70265623Y-68833400D01*
X70213298Y-68878088D01*
X70210835Y-68880138D01*
X70208296Y-68882194D01*
X70205744Y-68884205D01*
X70151194Y-68926060D01*
X70148591Y-68928004D01*
X70145999Y-68929887D01*
X70143356Y-68931755D01*
X70086653Y-68970723D01*
X70083967Y-68972518D01*
X70081248Y-68974283D01*
X70078519Y-68976005D01*
X70012206Y-69016638D01*
X70010857Y-69017452D01*
X70009463Y-69018282D01*
X70008026Y-69019125D01*
X48029537Y-81708427D01*
X48007397Y-81718459D01*
X47984620Y-81726191D01*
X47968960Y-81730388D01*
X47965262Y-81731123D01*
X47825237Y-81768643D01*
X47825236Y-81768644D01*
X47699721Y-81841111D01*
X47699713Y-81841116D01*
X47699697Y-81841131D01*
X47597234Y-81943594D01*
X47597219Y-81943610D01*
X47597214Y-81943616D01*
X47524747Y-82069132D01*
X47524745Y-82069137D01*
X47505268Y-82141825D01*
X47505268Y-82141827D01*
X47491373Y-82174271D01*
X47483237Y-82187618D01*
X47431575Y-82234596D01*
X47429948Y-82235387D01*
X47369834Y-82247728D01*
X47362104Y-82247360D01*
X47335908Y-82243275D01*
X47278228Y-82227820D01*
X47278227Y-82227819D01*
X47255504Y-82221731D01*
X47110554Y-82221731D01*
X47007912Y-82249234D01*
X47007911Y-82249233D01*
X46970541Y-82259247D01*
X46970536Y-82259249D01*
X46845021Y-82331716D01*
X46845013Y-82331721D01*
X46844997Y-82331736D01*
X46742526Y-82434207D01*
X46742521Y-82434214D01*
X46742511Y-82434230D01*
X46718840Y-82475227D01*
X46707830Y-82489227D01*
X46697025Y-82502967D01*
X46685714Y-82513752D01*
X46623611Y-82545768D01*
X46623579Y-82545774D01*
X46621802Y-82546116D01*
X46560610Y-82542463D01*
X46553240Y-82540107D01*
X46528998Y-82529382D01*
X46445633Y-82481252D01*
X46445628Y-82481249D01*
X46395480Y-82467812D01*
X46305617Y-82443733D01*
X46305614Y-82443733D01*
X46160667Y-82443733D01*
X46035451Y-82477284D01*
X46035447Y-82477285D01*
X46020657Y-82481249D01*
X46020656Y-82481249D01*
X46020654Y-82481250D01*
X45958307Y-82517245D01*
X45955791Y-82518549D01*
X45952241Y-82519240D01*
X45927990Y-82528948D01*
X45912798Y-82532633D01*
X45889232Y-82531511D01*
X45887210Y-82531905D01*
X45885811Y-82531348D01*
X45843009Y-82529309D01*
X45841970Y-82528949D01*
X45841249Y-82528699D01*
X45790105Y-82494951D01*
X45784901Y-82489227D01*
X45769264Y-82467812D01*
X45755362Y-82443733D01*
X45731723Y-82402789D01*
X45629229Y-82300295D01*
X45629227Y-82300293D01*
X45628535Y-82299794D01*
X45626016Y-82298439D01*
X45575456Y-82269248D01*
X45547022Y-82239428D01*
X45469685Y-82218706D01*
X45469684Y-82218705D01*
X45392090Y-82197914D01*
X45363689Y-82190304D01*
X45363688Y-82190304D01*
X45218737Y-82190304D01*
X45143840Y-82210372D01*
X45143839Y-82210373D01*
X45108794Y-82214563D01*
X45093167Y-82214191D01*
X45026627Y-82192924D01*
X45025124Y-82191907D01*
X44984405Y-82146035D01*
X44980858Y-82139155D01*
X44971301Y-82114437D01*
X44950341Y-82036210D01*
X44877866Y-81910680D01*
X44775372Y-81808186D01*
X44775370Y-81808184D01*
X44774678Y-81807685D01*
X44772159Y-81806330D01*
X44721599Y-81777139D01*
X44693166Y-81747320D01*
X44628853Y-81730087D01*
X44548019Y-81708427D01*
X44509823Y-81698192D01*
X44506124Y-81697457D01*
X44490459Y-81693259D01*
X44467689Y-81685529D01*
X44445554Y-81675499D01*
X36948229Y-77346917D01*
X26575807Y-71358397D01*
X26548066Y-71336582D01*
X26538521Y-71326572D01*
X26532283Y-71314473D01*
X26522233Y-71305295D01*
X26516586Y-71284028D01*
X26506503Y-71264470D01*
X26507796Y-71250919D01*
X26504304Y-71237765D01*
X26511051Y-71216821D01*
X26513143Y-71194917D01*
X26522014Y-71182796D01*
X26525731Y-71171262D01*
X26549532Y-71145201D01*
X26551350Y-71143707D01*
X26555649Y-71140174D01*
X26578075Y-71125494D01*
X26727672Y-71049272D01*
X26748832Y-71033898D01*
X26893275Y-70928956D01*
X26893277Y-70928953D01*
X26893281Y-70928951D01*
X26893283Y-70928948D01*
X26893336Y-70928910D01*
X26894094Y-70928137D01*
X27038028Y-70784204D01*
X27038030Y-70784200D01*
X27038033Y-70784198D01*
X27158346Y-70618599D01*
X27158347Y-70618598D01*
X27158349Y-70618595D01*
X27198030Y-70540715D01*
X27198582Y-70539682D01*
X27199949Y-70538288D01*
X27217814Y-70512945D01*
X27226711Y-70503526D01*
X27243923Y-70493479D01*
X27247520Y-70489814D01*
X27251913Y-70488814D01*
X27287050Y-70468305D01*
X27356855Y-70471297D01*
X27410568Y-70507463D01*
X27416642Y-70514473D01*
X27433412Y-70539377D01*
X27473777Y-70618599D01*
X27594090Y-70784198D01*
X27738848Y-70928956D01*
X27893811Y-71041541D01*
X27904452Y-71049272D01*
X28020669Y-71108488D01*
X28081216Y-71139338D01*
X28082105Y-71139809D01*
X28082311Y-71140010D01*
X28085691Y-71141647D01*
X28087699Y-71142645D01*
X28091465Y-71143707D01*
X28131550Y-71156731D01*
X28191197Y-71176111D01*
X28191198Y-71176112D01*
X28234674Y-71190238D01*
X28281527Y-71205462D01*
X28382619Y-71221473D01*
X28483710Y-71237485D01*
X28483711Y-71237485D01*
X28688413Y-71237485D01*
X28688414Y-71237485D01*
X28890596Y-71205462D01*
X29085281Y-71142205D01*
X29267672Y-71049272D01*
X29360652Y-70981717D01*
X29433275Y-70928956D01*
X29433275Y-70928954D01*
X29433334Y-70928912D01*
X29434093Y-70928138D01*
X29578028Y-70784204D01*
X29578030Y-70784200D01*
X29578033Y-70784198D01*
X29698346Y-70618599D01*
X29698347Y-70618598D01*
X29698349Y-70618595D01*
X29738030Y-70540715D01*
X29738582Y-70539682D01*
X29739949Y-70538288D01*
X29757814Y-70512945D01*
X29766711Y-70503526D01*
X29783923Y-70493479D01*
X29787520Y-70489814D01*
X29791913Y-70488814D01*
X29827050Y-70468305D01*
X29896855Y-70471297D01*
X29950568Y-70507463D01*
X29956642Y-70514473D01*
X29973412Y-70539377D01*
X30013777Y-70618599D01*
X30134090Y-70784198D01*
X30278848Y-70928956D01*
X30433811Y-71041541D01*
X30444452Y-71049272D01*
X30560669Y-71108488D01*
X30621216Y-71139338D01*
X30622105Y-71139809D01*
X30622311Y-71140010D01*
X30625691Y-71141647D01*
X30627699Y-71142645D01*
X30631465Y-71143707D01*
X30671550Y-71156731D01*
X30731197Y-71176111D01*
X30731198Y-71176112D01*
X30774674Y-71190238D01*
X30821527Y-71205462D01*
X30922619Y-71221473D01*
X31023710Y-71237485D01*
X31023711Y-71237485D01*
X31228413Y-71237485D01*
X31228414Y-71237485D01*
X31430596Y-71205462D01*
X31625281Y-71142205D01*
X31807672Y-71049272D01*
X31900652Y-70981717D01*
X31973275Y-70928956D01*
X31973275Y-70928954D01*
X31973334Y-70928912D01*
X31974093Y-70928138D01*
X32118028Y-70784204D01*
X32118030Y-70784200D01*
X32118033Y-70784198D01*
X32238346Y-70618599D01*
X32238347Y-70618598D01*
X32238349Y-70618595D01*
X32278030Y-70540715D01*
X32278582Y-70539682D01*
X32279949Y-70538288D01*
X32297814Y-70512945D01*
X32306711Y-70503526D01*
X32323923Y-70493479D01*
X32327520Y-70489814D01*
X32331913Y-70488814D01*
X32367050Y-70468305D01*
X32436855Y-70471297D01*
X32490568Y-70507463D01*
X32496642Y-70514473D01*
X32513412Y-70539377D01*
X32553777Y-70618599D01*
X32674090Y-70784198D01*
X32818848Y-70928956D01*
X32973811Y-71041541D01*
X32984452Y-71049272D01*
X33100669Y-71108488D01*
X33161216Y-71139338D01*
X33162105Y-71139809D01*
X33162311Y-71140010D01*
X33165691Y-71141647D01*
X33167699Y-71142645D01*
X33171465Y-71143707D01*
X33211550Y-71156731D01*
X33271197Y-71176111D01*
X33271198Y-71176112D01*
X33314674Y-71190238D01*
X33361527Y-71205462D01*
X33462619Y-71221473D01*
X33563710Y-71237485D01*
X33563711Y-71237485D01*
X33768413Y-71237485D01*
X33768414Y-71237485D01*
X33970596Y-71205462D01*
X34165281Y-71142205D01*
X34347672Y-71049272D01*
X34440652Y-70981717D01*
X34513275Y-70928956D01*
X34513275Y-70928954D01*
X34513334Y-70928912D01*
X34514093Y-70928138D01*
X34658028Y-70784204D01*
X34658030Y-70784200D01*
X34658033Y-70784198D01*
X34778346Y-70618599D01*
X34778347Y-70618598D01*
X34778349Y-70618595D01*
X34818030Y-70540715D01*
X34818582Y-70539682D01*
X34819949Y-70538288D01*
X34837814Y-70512945D01*
X34846711Y-70503526D01*
X34863923Y-70493479D01*
X34867520Y-70489814D01*
X34871913Y-70488814D01*
X34907050Y-70468305D01*
X34976855Y-70471297D01*
X35030568Y-70507463D01*
X35036642Y-70514473D01*
X35053412Y-70539377D01*
X35093777Y-70618599D01*
X35214090Y-70784198D01*
X35358848Y-70928956D01*
X35513811Y-71041541D01*
X35524452Y-71049272D01*
X35640669Y-71108488D01*
X35701216Y-71139338D01*
X35702105Y-71139809D01*
X35702311Y-71140010D01*
X35705691Y-71141647D01*
X35707699Y-71142645D01*
X35711465Y-71143707D01*
X35751550Y-71156731D01*
X35811197Y-71176111D01*
X35811198Y-71176112D01*
X35854674Y-71190238D01*
X35901527Y-71205462D01*
X36002619Y-71221473D01*
X36103710Y-71237485D01*
X36103711Y-71237485D01*
X36308413Y-71237485D01*
X36308414Y-71237485D01*
X36510596Y-71205462D01*
X36705281Y-71142205D01*
X36887672Y-71049272D01*
X36980652Y-70981717D01*
X37053275Y-70928956D01*
X37053275Y-70928954D01*
X37053334Y-70928912D01*
X37054093Y-70928138D01*
X37198028Y-70784204D01*
X37198030Y-70784200D01*
X37198033Y-70784198D01*
X37318346Y-70618599D01*
X37318347Y-70618598D01*
X37318349Y-70618595D01*
X37358030Y-70540715D01*
X37358582Y-70539682D01*
X37359949Y-70538288D01*
X37377814Y-70512945D01*
X37386711Y-70503526D01*
X37403923Y-70493479D01*
X37407520Y-70489814D01*
X37411913Y-70488814D01*
X37447050Y-70468305D01*
X37516855Y-70471297D01*
X37570568Y-70507463D01*
X37576642Y-70514473D01*
X37593412Y-70539377D01*
X37633777Y-70618599D01*
X37754090Y-70784198D01*
X37898848Y-70928956D01*
X38053811Y-71041541D01*
X38064452Y-71049272D01*
X38180669Y-71108488D01*
X38241216Y-71139338D01*
X38242105Y-71139809D01*
X38242311Y-71140010D01*
X38245691Y-71141647D01*
X38247699Y-71142645D01*
X38251465Y-71143707D01*
X38291550Y-71156731D01*
X38351197Y-71176111D01*
X38351198Y-71176112D01*
X38394674Y-71190238D01*
X38441527Y-71205462D01*
X38542619Y-71221473D01*
X38643710Y-71237485D01*
X38643711Y-71237485D01*
X38848413Y-71237485D01*
X38848414Y-71237485D01*
X39050596Y-71205462D01*
X39245281Y-71142205D01*
X39427672Y-71049272D01*
X39520652Y-70981717D01*
X39593275Y-70928956D01*
X39593275Y-70928954D01*
X39593334Y-70928912D01*
X39594093Y-70928138D01*
X39738028Y-70784204D01*
X39738030Y-70784200D01*
X39738033Y-70784198D01*
X39858346Y-70618599D01*
X39858347Y-70618598D01*
X39858349Y-70618595D01*
X39898030Y-70540715D01*
X39898582Y-70539682D01*
X39899949Y-70538288D01*
X39917814Y-70512945D01*
X39926711Y-70503526D01*
X39943923Y-70493479D01*
X39947520Y-70489814D01*
X39951913Y-70488814D01*
X39987050Y-70468305D01*
X40056855Y-70471297D01*
X40110568Y-70507463D01*
X40116642Y-70514473D01*
X40133412Y-70539377D01*
X40173777Y-70618599D01*
X40294090Y-70784198D01*
X40438848Y-70928956D01*
X40593811Y-71041541D01*
X40604452Y-71049272D01*
X40720669Y-71108488D01*
X40781216Y-71139338D01*
X40782105Y-71139809D01*
X40782311Y-71140010D01*
X40785691Y-71141647D01*
X40787699Y-71142645D01*
X40791465Y-71143707D01*
X40831550Y-71156731D01*
X40891197Y-71176111D01*
X40891198Y-71176112D01*
X40934674Y-71190238D01*
X40981527Y-71205462D01*
X41082619Y-71221473D01*
X41183710Y-71237485D01*
X41183711Y-71237485D01*
X41388413Y-71237485D01*
X41388414Y-71237485D01*
X41590596Y-71205462D01*
X41785281Y-71142205D01*
X41967672Y-71049272D01*
X42060652Y-70981717D01*
X42133275Y-70928956D01*
X42133275Y-70928954D01*
X42133334Y-70928912D01*
X42134093Y-70928138D01*
X42278028Y-70784204D01*
X42278030Y-70784200D01*
X42278033Y-70784198D01*
X42398346Y-70618599D01*
X42398347Y-70618598D01*
X42398349Y-70618595D01*
X42438030Y-70540715D01*
X42438582Y-70539682D01*
X42439949Y-70538288D01*
X42457814Y-70512945D01*
X42466711Y-70503526D01*
X42483923Y-70493479D01*
X42487520Y-70489814D01*
X42491913Y-70488814D01*
X42527050Y-70468305D01*
X42596855Y-70471297D01*
X42650568Y-70507463D01*
X42656642Y-70514473D01*
X42673412Y-70539377D01*
X42713777Y-70618599D01*
X42834090Y-70784198D01*
X42978848Y-70928956D01*
X43133811Y-71041541D01*
X43144452Y-71049272D01*
X43260669Y-71108488D01*
X43321216Y-71139338D01*
X43322105Y-71139809D01*
X43322311Y-71140010D01*
X43325691Y-71141647D01*
X43327699Y-71142645D01*
X43331465Y-71143707D01*
X43371550Y-71156731D01*
X43431197Y-71176111D01*
X43431198Y-71176112D01*
X43474674Y-71190238D01*
X43521527Y-71205462D01*
X43622619Y-71221473D01*
X43723710Y-71237485D01*
X43723711Y-71237485D01*
X43928413Y-71237485D01*
X43928414Y-71237485D01*
X44130596Y-71205462D01*
X44325281Y-71142205D01*
X44507672Y-71049272D01*
X44600652Y-70981717D01*
X44673275Y-70928956D01*
X44673275Y-70928954D01*
X44673334Y-70928912D01*
X44674093Y-70928138D01*
X44818028Y-70784204D01*
X44818030Y-70784200D01*
X44818033Y-70784198D01*
X44870792Y-70711578D01*
X44870794Y-70711576D01*
X44894234Y-70679312D01*
X44938349Y-70618595D01*
X45031282Y-70436204D01*
X45094539Y-70241519D01*
X45126562Y-70039337D01*
X45126562Y-69834633D01*
X45120531Y-69796563D01*
X45120027Y-69761278D01*
X45122881Y-69739189D01*
X45143498Y-69685092D01*
X45146021Y-69681403D01*
X45150821Y-69675618D01*
X45150992Y-69675229D01*
X45151329Y-69675005D01*
X45160691Y-69663721D01*
X46249014Y-68575401D01*
X46249016Y-68575399D01*
X46303027Y-68494563D01*
X46303028Y-68494561D01*
X46308663Y-68486127D01*
X46331146Y-68452480D01*
X46387720Y-68315898D01*
X46399570Y-68256326D01*
X46400162Y-68253351D01*
X46400162Y-68253349D01*
X46416562Y-68170906D01*
X46416562Y-63896958D01*
X55965562Y-63896958D01*
X55965562Y-63896968D01*
X55965562Y-65096986D01*
X55965563Y-65097003D01*
X55965564Y-65097011D01*
X55976062Y-65199781D01*
X55976065Y-65199789D01*
X55976132Y-65199992D01*
X56014374Y-65315400D01*
X56031246Y-65366316D01*
X56031248Y-65366319D01*
X56123350Y-65515641D01*
X56247406Y-65639697D01*
X56396728Y-65731799D01*
X56563265Y-65786984D01*
X56666053Y-65797485D01*
X57866070Y-65797484D01*
X57968859Y-65786984D01*
X58135396Y-65731799D01*
X58284718Y-65639697D01*
X58341339Y-65583075D01*
X58369586Y-65561930D01*
X58383310Y-65554436D01*
X58451578Y-65539586D01*
X58458152Y-65540056D01*
X58522193Y-65563422D01*
X58540136Y-65576458D01*
X58584708Y-65608842D01*
X58677428Y-65656085D01*
X58767025Y-65701738D01*
X58767027Y-65701738D01*
X58767030Y-65701740D01*
X58961644Y-65764975D01*
X59163745Y-65796985D01*
X59368378Y-65796985D01*
X59368379Y-65796985D01*
X59570479Y-65764975D01*
X59765093Y-65701740D01*
X59947411Y-65608844D01*
X59991983Y-65576459D01*
X59449007Y-65033483D01*
X59415522Y-64972160D01*
X59420506Y-64902468D01*
X59462378Y-64846535D01*
X59474680Y-64838419D01*
X59511668Y-64817065D01*
X59586142Y-64742591D01*
X59607492Y-64705610D01*
X59658057Y-64657396D01*
X59726664Y-64644172D01*
X59791529Y-64670139D01*
X59802560Y-64679930D01*
X60345535Y-65222905D01*
X60345536Y-65222906D01*
X60377921Y-65178334D01*
X60470817Y-64996016D01*
X60534052Y-64801402D01*
X60566062Y-64599302D01*
X60566062Y-64394667D01*
X60534052Y-64192567D01*
X60470817Y-63997953D01*
X60470815Y-63997950D01*
X60470815Y-63997948D01*
X60377921Y-63815635D01*
X60369218Y-63803657D01*
X60359677Y-63776918D01*
X60345535Y-63771060D01*
X59802559Y-64314038D01*
X59741236Y-64347523D01*
X59671545Y-64342539D01*
X59615611Y-64300668D01*
X59607494Y-64288362D01*
X59586142Y-64251379D01*
X59511668Y-64176905D01*
X59474687Y-64155554D01*
X59426472Y-64104988D01*
X59413248Y-64036381D01*
X59439216Y-63971516D01*
X59448998Y-63960494D01*
X59991984Y-63417509D01*
X59991983Y-63417508D01*
X59991981Y-63417506D01*
X59991976Y-63417502D01*
X59947422Y-63385132D01*
X59947419Y-63385129D01*
X59866292Y-63343793D01*
X59765093Y-63292229D01*
X59570479Y-63228994D01*
X59570473Y-63228993D01*
X59368384Y-63196985D01*
X59368379Y-63196985D01*
X59163745Y-63196985D01*
X59163740Y-63196985D01*
X58961649Y-63228993D01*
X58961647Y-63228993D01*
X58961644Y-63228994D01*
X58864337Y-63260611D01*
X58767025Y-63292230D01*
X58584720Y-63385120D01*
X58584716Y-63385122D01*
X58584713Y-63385124D01*
X58584709Y-63385127D01*
X58528927Y-63425654D01*
X58528926Y-63425655D01*
X58497710Y-63442125D01*
X58482989Y-63447377D01*
X58413239Y-63451365D01*
X58413234Y-63451363D01*
X58413233Y-63451364D01*
X58413231Y-63451363D01*
X58406818Y-63449872D01*
X58347220Y-63416775D01*
X58284719Y-63354274D01*
X58284718Y-63354273D01*
X58135396Y-63262171D01*
X57977327Y-63209792D01*
X57974507Y-63208626D01*
X57968854Y-63206984D01*
X57866081Y-63196485D01*
X57866072Y-63196485D01*
X56666060Y-63196485D01*
X56666043Y-63196486D01*
X56652021Y-63197918D01*
X56563260Y-63206985D01*
X56563255Y-63206986D01*
X56563094Y-63207041D01*
X56396729Y-63262170D01*
X56396727Y-63262171D01*
X56396725Y-63262172D01*
X56320876Y-63308956D01*
X56247402Y-63354275D01*
X56123352Y-63478325D01*
X56031247Y-63627651D01*
X56029576Y-63632697D01*
X56028952Y-63634580D01*
X56024024Y-63649452D01*
X55986361Y-63763108D01*
X55977914Y-63776052D01*
X55976427Y-63790615D01*
X55975604Y-63796866D01*
X55975421Y-63800461D01*
X55965562Y-63896958D01*
X46416562Y-63896958D01*
X46416562Y-61705889D01*
X47336062Y-61705889D01*
X47336062Y-61968079D01*
X47368526Y-62214661D01*
X47370282Y-62227994D01*
X47370284Y-62228005D01*
X47434173Y-62466444D01*
X47438137Y-62481239D01*
X47438140Y-62481249D01*
X47538468Y-62723462D01*
X47669545Y-62950493D01*
X47669553Y-62950506D01*
X47706261Y-62998344D01*
X47756142Y-63063350D01*
X48546889Y-62272602D01*
X48608210Y-62239119D01*
X48677901Y-62244103D01*
X48733835Y-62285975D01*
X48737669Y-62291392D01*
X48753499Y-62315083D01*
X48857961Y-62419545D01*
X48857969Y-62419551D01*
X48881649Y-62435374D01*
X48926455Y-62488986D01*
X48935162Y-62558311D01*
X48905008Y-62621338D01*
X48900440Y-62626157D01*
X48109695Y-63416901D01*
X48109694Y-63416902D01*
X48109695Y-63416902D01*
X48109695Y-63416903D01*
X48147309Y-63445765D01*
X48222539Y-63503492D01*
X48222542Y-63503494D01*
X48222545Y-63503496D01*
X48449579Y-63634575D01*
X48449590Y-63634580D01*
X48458267Y-63638174D01*
X48590109Y-63692785D01*
X48691806Y-63734909D01*
X48945041Y-63802762D01*
X48945052Y-63802764D01*
X49204967Y-63836984D01*
X49204982Y-63836985D01*
X49467130Y-63836985D01*
X49467142Y-63836985D01*
X49467156Y-63836984D01*
X49727071Y-63802764D01*
X49727082Y-63802762D01*
X49834263Y-63774044D01*
X49980317Y-63734909D01*
X50222533Y-63634580D01*
X50222544Y-63634575D01*
X50449578Y-63503496D01*
X50449596Y-63503484D01*
X50562427Y-63416904D01*
X50562427Y-63416902D01*
X49771681Y-62626157D01*
X49738197Y-62564835D01*
X49743181Y-62495144D01*
X49785053Y-62439210D01*
X49790462Y-62435381D01*
X49814159Y-62419548D01*
X49918625Y-62315082D01*
X49934451Y-62291396D01*
X49988059Y-62246592D01*
X50057384Y-62237882D01*
X50120412Y-62268034D01*
X50125233Y-62272604D01*
X50915979Y-63063350D01*
X50915980Y-63063350D01*
X50915981Y-63063350D01*
X51002561Y-62950519D01*
X51002573Y-62950501D01*
X51133652Y-62723467D01*
X51133657Y-62723456D01*
X51233986Y-62481240D01*
X51301839Y-62228005D01*
X51301841Y-62227994D01*
X51336061Y-61968079D01*
X51336062Y-61968065D01*
X51336062Y-61705904D01*
X51336061Y-61705890D01*
X51301841Y-61445975D01*
X51301839Y-61445964D01*
X51233986Y-61192729D01*
X51205018Y-61122795D01*
X51156634Y-61005984D01*
X51133657Y-60950513D01*
X51133652Y-60950502D01*
X51002573Y-60723468D01*
X51002567Y-60723460D01*
X51002044Y-60722779D01*
X50915980Y-60610618D01*
X50915979Y-60610618D01*
X50915978Y-60610618D01*
X50125233Y-61401363D01*
X50063910Y-61434848D01*
X49994218Y-61429864D01*
X49938285Y-61387992D01*
X49934453Y-61382577D01*
X49918625Y-61358888D01*
X49918624Y-61358886D01*
X49814162Y-61254424D01*
X49814158Y-61254421D01*
X49790470Y-61238593D01*
X49745665Y-61184980D01*
X49736958Y-61115655D01*
X49767113Y-61052628D01*
X49771659Y-61047831D01*
X50562427Y-60257065D01*
X50562426Y-60257064D01*
X50449583Y-60170476D01*
X50449570Y-60170468D01*
X50222539Y-60039391D01*
X49980326Y-59939063D01*
X49980319Y-59939061D01*
X49980317Y-59939060D01*
X49727082Y-59871207D01*
X49727076Y-59871206D01*
X49727073Y-59871205D01*
X49727050Y-59871202D01*
X49467157Y-59836985D01*
X49467156Y-59836985D01*
X49204967Y-59836985D01*
X49204966Y-59836985D01*
X48945072Y-59871202D01*
X48945049Y-59871205D01*
X48945043Y-59871206D01*
X48945041Y-59871207D01*
X48691806Y-59939060D01*
X48691796Y-59939063D01*
X48449586Y-60039390D01*
X48449578Y-60039394D01*
X48222533Y-60170481D01*
X48222524Y-60170487D01*
X48109695Y-60257063D01*
X48109695Y-60257065D01*
X48900441Y-61047811D01*
X48933926Y-61109134D01*
X48928942Y-61178826D01*
X48887070Y-61234759D01*
X48881654Y-61238592D01*
X48857966Y-61254420D01*
X48857961Y-61254424D01*
X48753501Y-61358884D01*
X48753497Y-61358889D01*
X48737669Y-61382577D01*
X48684056Y-61427380D01*
X48614731Y-61436086D01*
X48551704Y-61405929D01*
X48546888Y-61401364D01*
X47756142Y-60610618D01*
X47756141Y-60610618D01*
X47756140Y-60610618D01*
X47669564Y-60723447D01*
X47669558Y-60723456D01*
X47538471Y-60950501D01*
X47538467Y-60950509D01*
X47438140Y-61192719D01*
X47438137Y-61192729D01*
X47370284Y-61445964D01*
X47370284Y-61445965D01*
X47370282Y-61445972D01*
X47370279Y-61445995D01*
X47336062Y-61705889D01*
X46416562Y-61705889D01*
X46416562Y-61523061D01*
X46387481Y-61376870D01*
X46385394Y-61372457D01*
X46365745Y-61325020D01*
X46365745Y-61325019D01*
X46331149Y-61241496D01*
X46331147Y-61241492D01*
X46331146Y-61241490D01*
X46286233Y-61174273D01*
X46249014Y-61118569D01*
X44852145Y-59721700D01*
X44843682Y-59706397D01*
X44831633Y-59694602D01*
X44830996Y-59693450D01*
X44825574Y-59683520D01*
X44822034Y-59667250D01*
X44818947Y-59661667D01*
X44816429Y-59650658D01*
X44816865Y-59643489D01*
X44810721Y-59615250D01*
X44820114Y-59590060D01*
X44820671Y-59580917D01*
X44826488Y-59572970D01*
X44835135Y-59549785D01*
X44853561Y-59535990D01*
X44861944Y-59524540D01*
X44876180Y-59519056D01*
X44891065Y-59507913D01*
X44894002Y-59506817D01*
X44912860Y-59504928D01*
X44927145Y-59499427D01*
X44940424Y-59502167D01*
X44956706Y-59500537D01*
X45063710Y-59517485D01*
X45063711Y-59517485D01*
X45268413Y-59517485D01*
X45268414Y-59517485D01*
X45470596Y-59485462D01*
X45665281Y-59422205D01*
X45847672Y-59329272D01*
X45951196Y-59254058D01*
X46013275Y-59208956D01*
X46013277Y-59208953D01*
X46013281Y-59208951D01*
X46013284Y-59208947D01*
X46013337Y-59208909D01*
X46014094Y-59208137D01*
X46158028Y-59064204D01*
X46158030Y-59064200D01*
X46158033Y-59064198D01*
X46226233Y-58970327D01*
X46278349Y-58898595D01*
X46371282Y-58716204D01*
X46434539Y-58521519D01*
X46466562Y-58319337D01*
X46466562Y-58114633D01*
X46434539Y-57912451D01*
X46411903Y-57842786D01*
X46371280Y-57717761D01*
X46289008Y-57556295D01*
X46278349Y-57535375D01*
X46270618Y-57524734D01*
X46158033Y-57369771D01*
X46013275Y-57225013D01*
X45847676Y-57104700D01*
X45843931Y-57102791D01*
X45792029Y-57076346D01*
X45792026Y-57076345D01*
X45770860Y-57065560D01*
X45742019Y-57045228D01*
X45732606Y-57036338D01*
X45723617Y-57020939D01*
X45720068Y-57017587D01*
X45718894Y-57012848D01*
X45697383Y-56975996D01*
X45700375Y-56906191D01*
X45736543Y-56852476D01*
X45743548Y-56846406D01*
X45768458Y-56829633D01*
X45847672Y-56789272D01*
X45868832Y-56773898D01*
X46013275Y-56668956D01*
X46013276Y-56668954D01*
X46013336Y-56668911D01*
X46014098Y-56668133D01*
X46158028Y-56524204D01*
X46158030Y-56524200D01*
X46158033Y-56524198D01*
X46181152Y-56492378D01*
X46228291Y-56427495D01*
X46228292Y-56427493D01*
X46228298Y-56427485D01*
X46278349Y-56358595D01*
X46371282Y-56176204D01*
X46434539Y-55981519D01*
X46466562Y-55779337D01*
X46466562Y-55574633D01*
X46434539Y-55372451D01*
X46434538Y-55372447D01*
X46434538Y-55372446D01*
X46373895Y-55185808D01*
X46371282Y-55177766D01*
X46371280Y-55177763D01*
X46371280Y-55177761D01*
X46369039Y-55173363D01*
X46368729Y-55172568D01*
X46367994Y-55171312D01*
X46337565Y-55111592D01*
X46330848Y-55098409D01*
X46278349Y-54995375D01*
X46278347Y-54995372D01*
X46278346Y-54995370D01*
X46251144Y-54957930D01*
X46251142Y-54957928D01*
X46227309Y-54925124D01*
X46158033Y-54829771D01*
X46013275Y-54685013D01*
X46013274Y-54685012D01*
X46013271Y-54685009D01*
X45847678Y-54564701D01*
X45844192Y-54562925D01*
X45841068Y-54561333D01*
X45770861Y-54525560D01*
X45742018Y-54505227D01*
X45732600Y-54496332D01*
X45723615Y-54480938D01*
X45720067Y-54477587D01*
X45718893Y-54472847D01*
X45697382Y-54435990D01*
X45700377Y-54366185D01*
X45736536Y-54312483D01*
X45743541Y-54306412D01*
X45768448Y-54289637D01*
X45847672Y-54249272D01*
X45931639Y-54188267D01*
X46013275Y-54128956D01*
X46013276Y-54128953D01*
X46013278Y-54128952D01*
X46013281Y-54128951D01*
X46013283Y-54128949D01*
X46013335Y-54128911D01*
X46014047Y-54128184D01*
X46158028Y-53984204D01*
X46180687Y-53953016D01*
X46205275Y-53927716D01*
X46222920Y-53914109D01*
X46275750Y-53890438D01*
X46280140Y-53889614D01*
X46287630Y-53888917D01*
X46288027Y-53888763D01*
X46288424Y-53888843D01*
X46303020Y-53887485D01*
X47221002Y-53887485D01*
X47255934Y-53892506D01*
X47281178Y-53899919D01*
X47333924Y-53931215D01*
X49558110Y-56155400D01*
X49626142Y-56223432D01*
X49662643Y-56259934D01*
X49662649Y-56259939D01*
X49785543Y-56342054D01*
X49785547Y-56342056D01*
X49785560Y-56342065D01*
X49785573Y-56342072D01*
X49922144Y-56398641D01*
X49922149Y-56398643D01*
X49922153Y-56398643D01*
X49922154Y-56398644D01*
X49922419Y-56398696D01*
X49922420Y-56398697D01*
X49922444Y-56398702D01*
X50067139Y-56427485D01*
X50067141Y-56427485D01*
X50067144Y-56427485D01*
X51642815Y-56427485D01*
X51677750Y-56432508D01*
X51699120Y-56438783D01*
X51749329Y-56467614D01*
X51752574Y-56470679D01*
X51757539Y-56476327D01*
X51757898Y-56476558D01*
X51758066Y-56476926D01*
X51767747Y-56487939D01*
X51770958Y-56492358D01*
X51794090Y-56524197D01*
X51794094Y-56524202D01*
X51938848Y-56668956D01*
X52093811Y-56781541D01*
X52104452Y-56789272D01*
X52182940Y-56829263D01*
X52184568Y-56830156D01*
X52186525Y-56832119D01*
X52210107Y-56848745D01*
X52219521Y-56857637D01*
X52230208Y-56875948D01*
X52233891Y-56879643D01*
X52234786Y-56883791D01*
X52254741Y-56917981D01*
X52251745Y-56987786D01*
X52215583Y-57041490D01*
X52208581Y-57047558D01*
X52183668Y-57064335D01*
X52104449Y-57104699D01*
X52104447Y-57104700D01*
X51938849Y-57225012D01*
X51938846Y-57225014D01*
X51794091Y-57369769D01*
X51794089Y-57369772D01*
X51673777Y-57535370D01*
X51673770Y-57535382D01*
X51580848Y-57717749D01*
X51580843Y-57717761D01*
X51517583Y-57912453D01*
X51485562Y-58114627D01*
X51485562Y-58319341D01*
X51516180Y-58512654D01*
X51517584Y-58521519D01*
X51546756Y-58611301D01*
X51580842Y-58716206D01*
X51580845Y-58716213D01*
X51639586Y-58831495D01*
X51639587Y-58831500D01*
X51639588Y-58831500D01*
X51651708Y-58855288D01*
X51651710Y-58855291D01*
X51673777Y-58898598D01*
X51794090Y-59064198D01*
X51938848Y-59208956D01*
X52030304Y-59275401D01*
X52104452Y-59329272D01*
X52219068Y-59387672D01*
X52222735Y-59389540D01*
X52222736Y-59389541D01*
X52280391Y-59418918D01*
X52281993Y-59419856D01*
X52285680Y-59421642D01*
X52287700Y-59422645D01*
X52291468Y-59423708D01*
X52334018Y-59437532D01*
X52391197Y-59456111D01*
X52391198Y-59456112D01*
X52421308Y-59465895D01*
X52481527Y-59485462D01*
X52558971Y-59497728D01*
X52683710Y-59517485D01*
X52683711Y-59517485D01*
X52888413Y-59517485D01*
X52888414Y-59517485D01*
X53090596Y-59485462D01*
X53285281Y-59422205D01*
X53467672Y-59329272D01*
X53571196Y-59254058D01*
X53633275Y-59208956D01*
X53633277Y-59208953D01*
X53633281Y-59208951D01*
X53633284Y-59208947D01*
X53633337Y-59208909D01*
X53634094Y-59208137D01*
X53778028Y-59064204D01*
X53778030Y-59064200D01*
X53778033Y-59064198D01*
X53846233Y-58970327D01*
X53898349Y-58898595D01*
X53991282Y-58716204D01*
X54054539Y-58521519D01*
X54077351Y-58377492D01*
X56090562Y-58377492D01*
X56090562Y-58566476D01*
X56114278Y-58716213D01*
X56120121Y-58753103D01*
X56178516Y-58932821D01*
X56178517Y-58932822D01*
X56229229Y-59032352D01*
X56229230Y-59032352D01*
X56264302Y-59101184D01*
X56375372Y-59254058D01*
X56508989Y-59387675D01*
X56557121Y-59422645D01*
X56661858Y-59498742D01*
X56661859Y-59498742D01*
X56661863Y-59498745D01*
X56741409Y-59539275D01*
X56823784Y-59581248D01*
X56825382Y-59582184D01*
X56829099Y-59583984D01*
X56831083Y-59584970D01*
X56834837Y-59586028D01*
X56926559Y-59615831D01*
X57009943Y-59642925D01*
X57196576Y-59672485D01*
X57196581Y-59672485D01*
X57385547Y-59672485D01*
X57385548Y-59672485D01*
X57572180Y-59642925D01*
X57751894Y-59584532D01*
X57920261Y-59498745D01*
X58073135Y-59387675D01*
X58206752Y-59254058D01*
X58317822Y-59101184D01*
X58403609Y-58932817D01*
X58462002Y-58753103D01*
X58469288Y-58707101D01*
X58491562Y-58566471D01*
X58491562Y-58377498D01*
X58462002Y-58190866D01*
X58427765Y-58085497D01*
X58403609Y-58011153D01*
X58403607Y-58011150D01*
X58403607Y-58011148D01*
X58401374Y-58006766D01*
X58401061Y-58005963D01*
X58400324Y-58004704D01*
X58317821Y-57842785D01*
X58308789Y-57830354D01*
X58292117Y-57807406D01*
X58292111Y-57807399D01*
X58290428Y-57805082D01*
X58206752Y-57689912D01*
X58085721Y-57568881D01*
X62545562Y-57568881D01*
X62545562Y-57805087D01*
X62578200Y-58011153D01*
X62582508Y-58038353D01*
X62655495Y-58262981D01*
X62744264Y-58437198D01*
X62762719Y-58473418D01*
X62901545Y-58664495D01*
X63068552Y-58831502D01*
X63259629Y-58970328D01*
X63349065Y-59015898D01*
X63349064Y-59015898D01*
X63381363Y-59032355D01*
X63470065Y-59077551D01*
X63470938Y-59077996D01*
X63474692Y-59079055D01*
X63501444Y-59087747D01*
X63542797Y-59101183D01*
X63542798Y-59101184D01*
X63593430Y-59117635D01*
X63694693Y-59150538D01*
X63927965Y-59187485D01*
X63927970Y-59187485D01*
X64164158Y-59187485D01*
X64164159Y-59187485D01*
X64397430Y-59150538D01*
X64622054Y-59077553D01*
X64832495Y-58970328D01*
X65023572Y-58831502D01*
X65190579Y-58664495D01*
X65329405Y-58473418D01*
X65436630Y-58262977D01*
X65509615Y-58038353D01*
X65525198Y-57939966D01*
X65546562Y-57805082D01*
X65546562Y-57568887D01*
X65546561Y-57568881D01*
X67045562Y-57568881D01*
X67045562Y-57805087D01*
X67078200Y-58011153D01*
X67082508Y-58038353D01*
X67155495Y-58262981D01*
X67244264Y-58437198D01*
X67262719Y-58473418D01*
X67401545Y-58664495D01*
X67568552Y-58831502D01*
X67759629Y-58970328D01*
X67849065Y-59015898D01*
X67849064Y-59015898D01*
X67881363Y-59032355D01*
X67970065Y-59077551D01*
X67970938Y-59077996D01*
X67974692Y-59079055D01*
X68001444Y-59087747D01*
X68042797Y-59101183D01*
X68042798Y-59101184D01*
X68093430Y-59117635D01*
X68194693Y-59150538D01*
X68427965Y-59187485D01*
X68427970Y-59187485D01*
X68664158Y-59187485D01*
X68664159Y-59187485D01*
X68897430Y-59150538D01*
X69122054Y-59077553D01*
X69332495Y-58970328D01*
X69523572Y-58831502D01*
X69690579Y-58664495D01*
X69829405Y-58473418D01*
X69936630Y-58262977D01*
X70009615Y-58038353D01*
X70025198Y-57939966D01*
X70046562Y-57805082D01*
X70046562Y-57568887D01*
X70009615Y-57335616D01*
X69936628Y-57110988D01*
X69829404Y-56900551D01*
X69816075Y-56882205D01*
X69690579Y-56709475D01*
X69523572Y-56542468D01*
X69332495Y-56403642D01*
X69332494Y-56403641D01*
X69332492Y-56403640D01*
X69322680Y-56398640D01*
X69322680Y-56398641D01*
X69122058Y-56296418D01*
X68897430Y-56223431D01*
X68897424Y-56223430D01*
X68664164Y-56186485D01*
X68664159Y-56186485D01*
X68664154Y-56186485D01*
X68427970Y-56186485D01*
X68427965Y-56186485D01*
X68427960Y-56186485D01*
X68194698Y-56223430D01*
X68194696Y-56223430D01*
X68194693Y-56223431D01*
X67970065Y-56296418D01*
X67933029Y-56315289D01*
X67759628Y-56403641D01*
X67699718Y-56447170D01*
X67699717Y-56447170D01*
X67580422Y-56533843D01*
X67573043Y-56537975D01*
X67397052Y-56713966D01*
X67392920Y-56721345D01*
X67343571Y-56789268D01*
X67274896Y-56883791D01*
X67262719Y-56900551D01*
X67155495Y-57110988D01*
X67082508Y-57335616D01*
X67082507Y-57335619D01*
X67082507Y-57335621D01*
X67045562Y-57568881D01*
X65546561Y-57568881D01*
X65509615Y-57335616D01*
X65436628Y-57110988D01*
X65329404Y-56900551D01*
X65316075Y-56882205D01*
X65190579Y-56709475D01*
X65023572Y-56542468D01*
X64832495Y-56403642D01*
X64832494Y-56403641D01*
X64832492Y-56403640D01*
X64822680Y-56398640D01*
X64822680Y-56398641D01*
X64622058Y-56296418D01*
X64397430Y-56223431D01*
X64397424Y-56223430D01*
X64164164Y-56186485D01*
X64164159Y-56186485D01*
X64164154Y-56186485D01*
X63927970Y-56186485D01*
X63927965Y-56186485D01*
X63927960Y-56186485D01*
X63694698Y-56223430D01*
X63694696Y-56223430D01*
X63694693Y-56223431D01*
X63470065Y-56296418D01*
X63433029Y-56315289D01*
X63259628Y-56403641D01*
X63199718Y-56447170D01*
X63199717Y-56447170D01*
X63080422Y-56533843D01*
X63073043Y-56537975D01*
X62897052Y-56713966D01*
X62892920Y-56721345D01*
X62843571Y-56789268D01*
X62774896Y-56883791D01*
X62762719Y-56900551D01*
X62655495Y-57110988D01*
X62582508Y-57335616D01*
X62582507Y-57335619D01*
X62582507Y-57335621D01*
X62545562Y-57568881D01*
X58085721Y-57568881D01*
X58073135Y-57556295D01*
X57920261Y-57445225D01*
X57751898Y-57359439D01*
X57572180Y-57301044D01*
X57572174Y-57301043D01*
X57385553Y-57271485D01*
X57385548Y-57271485D01*
X57385543Y-57271485D01*
X57196581Y-57271485D01*
X57196576Y-57271485D01*
X57196571Y-57271485D01*
X57009948Y-57301043D01*
X57009946Y-57301043D01*
X57009943Y-57301044D01*
X56830225Y-57359439D01*
X56809946Y-57369772D01*
X56661862Y-57445224D01*
X56639301Y-57461617D01*
X56520860Y-57547670D01*
X56513479Y-57551803D01*
X56370879Y-57694403D01*
X56366750Y-57701777D01*
X56355138Y-57717761D01*
X56355135Y-57717766D01*
X56264301Y-57842785D01*
X56214787Y-57939963D01*
X56178516Y-58011148D01*
X56120121Y-58190866D01*
X56120121Y-58190868D01*
X56120120Y-58190871D01*
X56090562Y-58377492D01*
X54077351Y-58377492D01*
X54086562Y-58319337D01*
X54086562Y-58114633D01*
X54054539Y-57912451D01*
X54031903Y-57842786D01*
X53991280Y-57717761D01*
X53909008Y-57556295D01*
X53898349Y-57535375D01*
X53890618Y-57524734D01*
X53778033Y-57369771D01*
X53633275Y-57225013D01*
X53467676Y-57104700D01*
X53463931Y-57102791D01*
X53412029Y-57076346D01*
X53412026Y-57076345D01*
X53390860Y-57065560D01*
X53362019Y-57045228D01*
X53352606Y-57036338D01*
X53343617Y-57020939D01*
X53340068Y-57017587D01*
X53338894Y-57012848D01*
X53317383Y-56975996D01*
X53320375Y-56906191D01*
X53356543Y-56852476D01*
X53363548Y-56846406D01*
X53388458Y-56829633D01*
X53467672Y-56789272D01*
X53488832Y-56773898D01*
X53633275Y-56668956D01*
X53633276Y-56668954D01*
X53633336Y-56668911D01*
X53634098Y-56668133D01*
X53778028Y-56524204D01*
X53778030Y-56524200D01*
X53778033Y-56524198D01*
X53801152Y-56492378D01*
X53848291Y-56427495D01*
X53848292Y-56427493D01*
X53848298Y-56427485D01*
X53898349Y-56358595D01*
X53991282Y-56176204D01*
X54054539Y-55981519D01*
X54086562Y-55779337D01*
X54086562Y-55574633D01*
X54054539Y-55372451D01*
X54054538Y-55372447D01*
X54054538Y-55372446D01*
X53993895Y-55185808D01*
X53991282Y-55177766D01*
X53991280Y-55177763D01*
X53991280Y-55177761D01*
X53989039Y-55173363D01*
X53988729Y-55172568D01*
X53987994Y-55171312D01*
X53957565Y-55111592D01*
X53950848Y-55098409D01*
X53898349Y-54995375D01*
X53898347Y-54995372D01*
X53898346Y-54995370D01*
X53871144Y-54957930D01*
X53871142Y-54957928D01*
X53847309Y-54925124D01*
X53778033Y-54829771D01*
X53633275Y-54685013D01*
X53633274Y-54685012D01*
X53633271Y-54685009D01*
X53467678Y-54564701D01*
X53464192Y-54562925D01*
X53461068Y-54561333D01*
X53390861Y-54525560D01*
X53362018Y-54505227D01*
X53352600Y-54496332D01*
X53343615Y-54480938D01*
X53340067Y-54477587D01*
X53338893Y-54472847D01*
X53317382Y-54435990D01*
X53320377Y-54366185D01*
X53356536Y-54312483D01*
X53363541Y-54306412D01*
X53388448Y-54289637D01*
X53467672Y-54249272D01*
X53551639Y-54188267D01*
X53633275Y-54128956D01*
X53633277Y-54128953D01*
X53633281Y-54128951D01*
X53633283Y-54128948D01*
X53633337Y-54128909D01*
X53634094Y-54128137D01*
X53778028Y-53984204D01*
X53778030Y-53984200D01*
X53778033Y-53984198D01*
X53800684Y-53953022D01*
X53848291Y-53887495D01*
X53848292Y-53887493D01*
X53848298Y-53887485D01*
X53898349Y-53818595D01*
X53991282Y-53636204D01*
X54054539Y-53441519D01*
X54086562Y-53239337D01*
X54086562Y-53034633D01*
X54054539Y-52832451D01*
X54031903Y-52762786D01*
X54017822Y-52719449D01*
X53992784Y-52642390D01*
X53991722Y-52638624D01*
X53990717Y-52636600D01*
X53988931Y-52632912D01*
X53987995Y-52631314D01*
X53949674Y-52556106D01*
X53949673Y-52556105D01*
X53948619Y-52554037D01*
X53898349Y-52455375D01*
X53898346Y-52455371D01*
X53871287Y-52418128D01*
X53871285Y-52418125D01*
X53869250Y-52415323D01*
X53778033Y-52289771D01*
X53633275Y-52145013D01*
X53467676Y-52024700D01*
X53460946Y-52021271D01*
X53412029Y-51996346D01*
X53412026Y-51996345D01*
X53390860Y-51985560D01*
X53362019Y-51965228D01*
X53352606Y-51956338D01*
X53343617Y-51940939D01*
X53340068Y-51937587D01*
X53338894Y-51932848D01*
X53317383Y-51895996D01*
X53320375Y-51826191D01*
X53356543Y-51772476D01*
X53363548Y-51766406D01*
X53388458Y-51749633D01*
X53408740Y-51739299D01*
X53467672Y-51709272D01*
X53488832Y-51693898D01*
X53633275Y-51588956D01*
X53633276Y-51588954D01*
X53633336Y-51588911D01*
X53634098Y-51588133D01*
X53778028Y-51444204D01*
X53778030Y-51444200D01*
X53778033Y-51444198D01*
X53826497Y-51377492D01*
X56065562Y-51377492D01*
X56065562Y-51566476D01*
X56088179Y-51709272D01*
X56095121Y-51753103D01*
X56153516Y-51932821D01*
X56203868Y-52031641D01*
X56239302Y-52101184D01*
X56350372Y-52254058D01*
X56350374Y-52254060D01*
X56440510Y-52344196D01*
X56461661Y-52372451D01*
X56469153Y-52386172D01*
X56484005Y-52454432D01*
X56483876Y-52456238D01*
X56464505Y-52514444D01*
X56460325Y-52520948D01*
X56443693Y-52541587D01*
X56375370Y-52609911D01*
X56375266Y-52610056D01*
X56356362Y-52636077D01*
X56340847Y-52657432D01*
X56326542Y-52677121D01*
X56264302Y-52762784D01*
X56221409Y-52846966D01*
X56178516Y-52931148D01*
X56120121Y-53110866D01*
X56120121Y-53110868D01*
X56120120Y-53110871D01*
X56090562Y-53297492D01*
X56090562Y-53486476D01*
X56114278Y-53636210D01*
X56120121Y-53673103D01*
X56178516Y-53852821D01*
X56209745Y-53914111D01*
X56245455Y-53984196D01*
X56264300Y-54021181D01*
X56264302Y-54021184D01*
X56375372Y-54174058D01*
X56508989Y-54307675D01*
X56547342Y-54335540D01*
X56661858Y-54418742D01*
X56661859Y-54418742D01*
X56661863Y-54418745D01*
X56741409Y-54459275D01*
X56823784Y-54501248D01*
X56825382Y-54502184D01*
X56829099Y-54503984D01*
X56831084Y-54504970D01*
X56834843Y-54506031D01*
X56866948Y-54516462D01*
X56866949Y-54516463D01*
X56891177Y-54524335D01*
X57009943Y-54562925D01*
X57196576Y-54592485D01*
X57196581Y-54592485D01*
X57385547Y-54592485D01*
X57385548Y-54592485D01*
X57572180Y-54562925D01*
X57751894Y-54504532D01*
X57920261Y-54418745D01*
X58073135Y-54307675D01*
X58206752Y-54174058D01*
X58317822Y-54021184D01*
X58403609Y-53852817D01*
X58462002Y-53673103D01*
X58471229Y-53614844D01*
X58491562Y-53486471D01*
X58491562Y-53297498D01*
X58462002Y-53110866D01*
X58418432Y-52976773D01*
X58418432Y-52976772D01*
X58418432Y-52976771D01*
X58412363Y-52958097D01*
X58403609Y-52931153D01*
X58403607Y-52931150D01*
X58403607Y-52931148D01*
X58401356Y-52926730D01*
X58401050Y-52925946D01*
X58400327Y-52924711D01*
X58317821Y-52762785D01*
X58206752Y-52609912D01*
X58116613Y-52519773D01*
X58111361Y-52512758D01*
X58095461Y-52491517D01*
X58087969Y-52477796D01*
X58073117Y-52409536D01*
X58073246Y-52407727D01*
X58092612Y-52349532D01*
X58096805Y-52343008D01*
X58113422Y-52322387D01*
X58181752Y-52254058D01*
X58292822Y-52101184D01*
X58378609Y-51932817D01*
X58437002Y-51753103D01*
X58458823Y-51615330D01*
X58466562Y-51566471D01*
X58466562Y-51377498D01*
X58437002Y-51190866D01*
X58427375Y-51161241D01*
X58406246Y-51096213D01*
X58397366Y-51068881D01*
X62545562Y-51068881D01*
X62545562Y-51305087D01*
X62571065Y-51466104D01*
X62582508Y-51538353D01*
X62655495Y-51762981D01*
X62741496Y-51931765D01*
X62762719Y-51973418D01*
X62901545Y-52164495D01*
X63068552Y-52331502D01*
X63259629Y-52470328D01*
X63351562Y-52517170D01*
X63448429Y-52566527D01*
X63463618Y-52574266D01*
X63465220Y-52575204D01*
X63468905Y-52576989D01*
X63470927Y-52577993D01*
X63474695Y-52579056D01*
X63516661Y-52592691D01*
X63590472Y-52616673D01*
X63590473Y-52616674D01*
X63590474Y-52616674D01*
X63694693Y-52650538D01*
X63927965Y-52687485D01*
X63927970Y-52687485D01*
X64164158Y-52687485D01*
X64164159Y-52687485D01*
X64397430Y-52650538D01*
X64436753Y-52637761D01*
X64622054Y-52577553D01*
X64832495Y-52470328D01*
X65023572Y-52331502D01*
X65190579Y-52164495D01*
X65329405Y-51973418D01*
X65436630Y-51762977D01*
X65509615Y-51538353D01*
X65528920Y-51416465D01*
X65528921Y-51416462D01*
X65535093Y-51377492D01*
X65546562Y-51305082D01*
X65546562Y-51068887D01*
X65546561Y-51068881D01*
X67045562Y-51068881D01*
X67045562Y-51305087D01*
X67071065Y-51466104D01*
X67082508Y-51538353D01*
X67155495Y-51762981D01*
X67241496Y-51931765D01*
X67262719Y-51973418D01*
X67401545Y-52164495D01*
X67568552Y-52331502D01*
X67759629Y-52470328D01*
X67851562Y-52517170D01*
X67948429Y-52566527D01*
X67963618Y-52574266D01*
X67965220Y-52575204D01*
X67968905Y-52576989D01*
X67970927Y-52577993D01*
X67974695Y-52579056D01*
X68016661Y-52592691D01*
X68090472Y-52616673D01*
X68090473Y-52616674D01*
X68090474Y-52616674D01*
X68194693Y-52650538D01*
X68427965Y-52687485D01*
X68427970Y-52687485D01*
X68664158Y-52687485D01*
X68664159Y-52687485D01*
X68897430Y-52650538D01*
X68936753Y-52637761D01*
X69122054Y-52577553D01*
X69332495Y-52470328D01*
X69523572Y-52331502D01*
X69690579Y-52164495D01*
X69829405Y-51973418D01*
X69936630Y-51762977D01*
X70009615Y-51538353D01*
X70028920Y-51416465D01*
X70028921Y-51416462D01*
X70035093Y-51377492D01*
X70046562Y-51305082D01*
X70046562Y-51068887D01*
X70009615Y-50835616D01*
X69944263Y-50634485D01*
X69936630Y-50610993D01*
X69936628Y-50610990D01*
X69936628Y-50610988D01*
X69934388Y-50606592D01*
X69934078Y-50605797D01*
X69933345Y-50604544D01*
X69829404Y-50400551D01*
X69690579Y-50209475D01*
X69523572Y-50042468D01*
X69332495Y-49903642D01*
X69332494Y-49903641D01*
X69332492Y-49903640D01*
X69314135Y-49894286D01*
X69314135Y-49894287D01*
X69122058Y-49796418D01*
X68897430Y-49723431D01*
X68897424Y-49723430D01*
X68664164Y-49686485D01*
X68664159Y-49686485D01*
X68664154Y-49686485D01*
X68427970Y-49686485D01*
X68427965Y-49686485D01*
X68427960Y-49686485D01*
X68194698Y-49723430D01*
X68194696Y-49723430D01*
X68194693Y-49723431D01*
X67970065Y-49796418D01*
X67881372Y-49841610D01*
X67759635Y-49903638D01*
X67759622Y-49903646D01*
X67678606Y-49962508D01*
X67580422Y-50033843D01*
X67573043Y-50037975D01*
X67397053Y-50213965D01*
X67392917Y-50221351D01*
X67390814Y-50224243D01*
X67390815Y-50224244D01*
X67262719Y-50400551D01*
X67155495Y-50610988D01*
X67082508Y-50835616D01*
X67082507Y-50835619D01*
X67082507Y-50835621D01*
X67045562Y-51068881D01*
X65546561Y-51068881D01*
X65509615Y-50835616D01*
X65444263Y-50634485D01*
X65436630Y-50610993D01*
X65436628Y-50610990D01*
X65436628Y-50610988D01*
X65434388Y-50606592D01*
X65434078Y-50605797D01*
X65433345Y-50604544D01*
X65329404Y-50400551D01*
X65190579Y-50209475D01*
X65023572Y-50042468D01*
X64832495Y-49903642D01*
X64832494Y-49903641D01*
X64832492Y-49903640D01*
X64814135Y-49894286D01*
X64814135Y-49894287D01*
X64622058Y-49796418D01*
X64397430Y-49723431D01*
X64397424Y-49723430D01*
X64164164Y-49686485D01*
X64164159Y-49686485D01*
X64164154Y-49686485D01*
X63927970Y-49686485D01*
X63927965Y-49686485D01*
X63927960Y-49686485D01*
X63694698Y-49723430D01*
X63694696Y-49723430D01*
X63694693Y-49723431D01*
X63470065Y-49796418D01*
X63381372Y-49841610D01*
X63259635Y-49903638D01*
X63259622Y-49903646D01*
X63178606Y-49962508D01*
X63080422Y-50033843D01*
X63073043Y-50037975D01*
X62897053Y-50213965D01*
X62892917Y-50221351D01*
X62890814Y-50224243D01*
X62890815Y-50224244D01*
X62762719Y-50400551D01*
X62655495Y-50610988D01*
X62582508Y-50835616D01*
X62582507Y-50835619D01*
X62582507Y-50835621D01*
X62545562Y-51068881D01*
X58397366Y-51068881D01*
X58378610Y-51011155D01*
X58378608Y-51011152D01*
X58378607Y-51011149D01*
X58292822Y-50842786D01*
X58181752Y-50689912D01*
X58048135Y-50556295D01*
X57895261Y-50445225D01*
X57726898Y-50359439D01*
X57547180Y-50301044D01*
X57547174Y-50301043D01*
X57360553Y-50271485D01*
X57360548Y-50271485D01*
X57360543Y-50271485D01*
X57171581Y-50271485D01*
X57171576Y-50271485D01*
X57171571Y-50271485D01*
X56984948Y-50301043D01*
X56984946Y-50301043D01*
X56984943Y-50301044D01*
X56805225Y-50359439D01*
X56773967Y-50375366D01*
X56636862Y-50445224D01*
X56568859Y-50494633D01*
X56568858Y-50494633D01*
X56495859Y-50547670D01*
X56488480Y-50551802D01*
X56345879Y-50694403D01*
X56341747Y-50701782D01*
X56315819Y-50737469D01*
X56315819Y-50737470D01*
X56239301Y-50842785D01*
X56209377Y-50901515D01*
X56153516Y-51011148D01*
X56095121Y-51190866D01*
X56095121Y-51190868D01*
X56065562Y-51377492D01*
X53826497Y-51377492D01*
X53882982Y-51299747D01*
X53890067Y-51289993D01*
X53890068Y-51289991D01*
X53890070Y-51289992D01*
X53890077Y-51289978D01*
X53898349Y-51278595D01*
X53991282Y-51096204D01*
X54054539Y-50901519D01*
X54086562Y-50699337D01*
X54086562Y-50494633D01*
X54065149Y-50359438D01*
X54054539Y-50292450D01*
X53991280Y-50097761D01*
X53949674Y-50016106D01*
X53898349Y-49915375D01*
X53898345Y-49915370D01*
X53883028Y-49894287D01*
X53778034Y-49749772D01*
X53633273Y-49605011D01*
X53478264Y-49492393D01*
X53478261Y-49492391D01*
X53467675Y-49484700D01*
X53467674Y-49484699D01*
X53467672Y-49484698D01*
X53461597Y-49481602D01*
X53461593Y-49481600D01*
X53408737Y-49454669D01*
X53408737Y-49454668D01*
X53408735Y-49454668D01*
X53285291Y-49391768D01*
X53285283Y-49391765D01*
X53180378Y-49357679D01*
X53090596Y-49328507D01*
X53090594Y-49328506D01*
X53090592Y-49328506D01*
X53090591Y-49328505D01*
X52916057Y-49300863D01*
X52899471Y-49298236D01*
X52888416Y-49296485D01*
X52888414Y-49296485D01*
X52683710Y-49296485D01*
X52683709Y-49296485D01*
X52659389Y-49300336D01*
X52659388Y-49300335D01*
X52481530Y-49328506D01*
X52286839Y-49391765D01*
X52286826Y-49391771D01*
X52104459Y-49484693D01*
X52104447Y-49484700D01*
X51938849Y-49605012D01*
X51938846Y-49605014D01*
X51794091Y-49749769D01*
X51794089Y-49749772D01*
X51673777Y-49915370D01*
X51673770Y-49915382D01*
X51580848Y-50097749D01*
X51580842Y-50097762D01*
X51517583Y-50292453D01*
X51485562Y-50494627D01*
X51485562Y-50699341D01*
X51517583Y-50901515D01*
X51517584Y-50901519D01*
X51546756Y-50991301D01*
X51580842Y-51096206D01*
X51580845Y-51096213D01*
X51629075Y-51190866D01*
X51629076Y-51190868D01*
X51632180Y-51196961D01*
X51672860Y-51276800D01*
X51673776Y-51278596D01*
X51673779Y-51278601D01*
X51794088Y-51444196D01*
X51794090Y-51444198D01*
X51938848Y-51588956D01*
X52093811Y-51701541D01*
X52104452Y-51709272D01*
X52182933Y-51749260D01*
X52184569Y-51750157D01*
X52186526Y-51752120D01*
X52210108Y-51768746D01*
X52219521Y-51777637D01*
X52230208Y-51795948D01*
X52233893Y-51799645D01*
X52234788Y-51803795D01*
X52254741Y-51837981D01*
X52251745Y-51907786D01*
X52215583Y-51961490D01*
X52208581Y-51967558D01*
X52183668Y-51984335D01*
X52104449Y-52024699D01*
X52104447Y-52024700D01*
X51938849Y-52145012D01*
X51938846Y-52145014D01*
X51794091Y-52289769D01*
X51794089Y-52289772D01*
X51673777Y-52455370D01*
X51673770Y-52455382D01*
X51580848Y-52637749D01*
X51580845Y-52637756D01*
X51580843Y-52637761D01*
X51519862Y-52825438D01*
X51517583Y-52832453D01*
X51485562Y-53034627D01*
X51485562Y-53239341D01*
X51517583Y-53441515D01*
X51517584Y-53441519D01*
X51577759Y-53626718D01*
X51580844Y-53636210D01*
X51644752Y-53761636D01*
X51651842Y-53775550D01*
X51651842Y-53775551D01*
X51672954Y-53816982D01*
X51673777Y-53818598D01*
X51794090Y-53984198D01*
X51938848Y-54128956D01*
X52024768Y-54191379D01*
X52104452Y-54249272D01*
X52185858Y-54290750D01*
X52190251Y-54293471D01*
X52193356Y-54296936D01*
X52210107Y-54308745D01*
X52219521Y-54317637D01*
X52233741Y-54342002D01*
X52236880Y-54345504D01*
X52237296Y-54348092D01*
X52254741Y-54377981D01*
X52251745Y-54447786D01*
X52215583Y-54501490D01*
X52208581Y-54507558D01*
X52183668Y-54524335D01*
X52104449Y-54564699D01*
X52104447Y-54564700D01*
X51938851Y-54685010D01*
X51794093Y-54829767D01*
X51794090Y-54829771D01*
X51771439Y-54860948D01*
X51757869Y-54874911D01*
X51746843Y-54886257D01*
X51729208Y-54899856D01*
X51676402Y-54923525D01*
X51673805Y-54924013D01*
X51672015Y-54924349D01*
X51664499Y-54925049D01*
X51664099Y-54925206D01*
X51663697Y-54925124D01*
X51649104Y-54926485D01*
X50521121Y-54926485D01*
X50486185Y-54921462D01*
X50460943Y-54914050D01*
X50408198Y-54882754D01*
X48079483Y-52554037D01*
X48079481Y-52554035D01*
X48072620Y-52549451D01*
X48058897Y-52540282D01*
X47994846Y-52497485D01*
X47994845Y-52497484D01*
X47956562Y-52471904D01*
X47956550Y-52471897D01*
X47956546Y-52471895D01*
X47956538Y-52471891D01*
X47826734Y-52418126D01*
X47819979Y-52415328D01*
X47819969Y-52415325D01*
X47819967Y-52415324D01*
X47819962Y-52415323D01*
X47674984Y-52386485D01*
X47674982Y-52386485D01*
X47674980Y-52386485D01*
X46309310Y-52386485D01*
X46309306Y-52386484D01*
X46309305Y-52386485D01*
X46274371Y-52381461D01*
X46253000Y-52375185D01*
X46202809Y-52346369D01*
X46199565Y-52343306D01*
X46194582Y-52337639D01*
X46194223Y-52337408D01*
X46194053Y-52337037D01*
X46184377Y-52326031D01*
X46158037Y-52289777D01*
X46158032Y-52289770D01*
X46158030Y-52289768D01*
X46158021Y-52289758D01*
X46013287Y-52145024D01*
X46013277Y-52145015D01*
X46013275Y-52145013D01*
X46013268Y-52145008D01*
X45933538Y-52087081D01*
X45933537Y-52087080D01*
X45933536Y-52087080D01*
X45908226Y-52062482D01*
X45900256Y-52052146D01*
X45874908Y-51987036D01*
X45888784Y-51918559D01*
X45932600Y-51871358D01*
X45940335Y-51866511D01*
X45967179Y-51853877D01*
X45982941Y-51848653D01*
X46035179Y-51831344D01*
X46035186Y-51831341D01*
X46035189Y-51831339D01*
X46035190Y-51831339D01*
X46122253Y-51777637D01*
X46184407Y-51739300D01*
X46308377Y-51615330D01*
X46400418Y-51466109D01*
X46400420Y-51466104D01*
X46455567Y-51299682D01*
X46455568Y-51299675D01*
X46466061Y-51196971D01*
X46466062Y-51196958D01*
X46466062Y-50846985D01*
X45674785Y-50846985D01*
X45607746Y-50827300D01*
X45561991Y-50774496D01*
X45552047Y-50705338D01*
X45555010Y-50690892D01*
X45555273Y-50689910D01*
X45566062Y-50649646D01*
X45566062Y-50544324D01*
X45555010Y-50503077D01*
X45556673Y-50433228D01*
X45595836Y-50375366D01*
X45660064Y-50347862D01*
X45674785Y-50346985D01*
X46466061Y-50346985D01*
X46466061Y-49997017D01*
X46466061Y-49997013D01*
X46466060Y-49996998D01*
X46455567Y-49894287D01*
X46400420Y-49727865D01*
X46400418Y-49727860D01*
X46308377Y-49578639D01*
X46184407Y-49454669D01*
X46035186Y-49362628D01*
X46035181Y-49362626D01*
X46035172Y-49362623D01*
X45868761Y-49307479D01*
X45868756Y-49307478D01*
X45766053Y-49296985D01*
X45766048Y-49296985D01*
X45416062Y-49296985D01*
X45416062Y-50088262D01*
X45396377Y-50155301D01*
X45343573Y-50201056D01*
X45274415Y-50211000D01*
X45259973Y-50208037D01*
X45218723Y-50196985D01*
X45218722Y-50196985D01*
X45113401Y-50196985D01*
X45072154Y-50208036D01*
X45002305Y-50206374D01*
X44944443Y-50167211D01*
X44916939Y-50102983D01*
X44916062Y-50088262D01*
X44916062Y-49296985D01*
X44566090Y-49296985D01*
X44566074Y-49296986D01*
X44566064Y-49296986D01*
X44566064Y-49296987D01*
X44463366Y-49307478D01*
X44463364Y-49307479D01*
X44296949Y-49362623D01*
X44296941Y-49362626D01*
X44296939Y-49362627D01*
X44296937Y-49362628D01*
X44249694Y-49391768D01*
X44147714Y-49454670D01*
X44023747Y-49578637D01*
X44023746Y-49578639D01*
X43934438Y-49723430D01*
X43931703Y-49727864D01*
X43931700Y-49727873D01*
X43876556Y-49894284D01*
X43876556Y-49894286D01*
X43876556Y-49894287D01*
X43876555Y-49894294D01*
X43874146Y-49917864D01*
X43866062Y-49996992D01*
X43866062Y-49996995D01*
X43866062Y-49996998D01*
X43866062Y-50346985D01*
X44657339Y-50346985D01*
X44724378Y-50366670D01*
X44770133Y-50419474D01*
X44780077Y-50488632D01*
X44777114Y-50503073D01*
X44766062Y-50544324D01*
X44766062Y-50649646D01*
X44776850Y-50689909D01*
X44777114Y-50690892D01*
X44775451Y-50760742D01*
X44736288Y-50818604D01*
X44672060Y-50846108D01*
X44657339Y-50846985D01*
X43866063Y-50846985D01*
X43866063Y-51196971D01*
X43876555Y-51299679D01*
X43876555Y-51299680D01*
X43876556Y-51299682D01*
X43898645Y-51366343D01*
X43924733Y-51445072D01*
X43931703Y-51466104D01*
X43931705Y-51466109D01*
X44007477Y-51588954D01*
X44023746Y-51615330D01*
X44147715Y-51739299D01*
X44147719Y-51739302D01*
X44296932Y-51831339D01*
X44296936Y-51831340D01*
X44296937Y-51831341D01*
X44296944Y-51831344D01*
X44362211Y-51852971D01*
X44393788Y-51868726D01*
X44404519Y-51876156D01*
X44448431Y-51930502D01*
X44455990Y-51999962D01*
X44428558Y-52058241D01*
X44422662Y-52065203D01*
X44400921Y-52085384D01*
X44318849Y-52145013D01*
X44318844Y-52145017D01*
X44318840Y-52145020D01*
X44174087Y-52289774D01*
X44053777Y-52455370D01*
X44053770Y-52455382D01*
X43960848Y-52637749D01*
X43960845Y-52637756D01*
X43960843Y-52637761D01*
X43899862Y-52825438D01*
X43897583Y-52832453D01*
X43865562Y-53034627D01*
X43865562Y-53239341D01*
X43897583Y-53441515D01*
X43897584Y-53441519D01*
X43957759Y-53626718D01*
X43960844Y-53636210D01*
X44024752Y-53761636D01*
X44031842Y-53775550D01*
X44031842Y-53775551D01*
X44052954Y-53816982D01*
X44053777Y-53818598D01*
X44174090Y-53984198D01*
X44318848Y-54128956D01*
X44404768Y-54191379D01*
X44484452Y-54249272D01*
X44565858Y-54290750D01*
X44570251Y-54293471D01*
X44573356Y-54296936D01*
X44590107Y-54308745D01*
X44599521Y-54317637D01*
X44613741Y-54342002D01*
X44616880Y-54345504D01*
X44617296Y-54348092D01*
X44634741Y-54377981D01*
X44631745Y-54447786D01*
X44595583Y-54501490D01*
X44588581Y-54507558D01*
X44563668Y-54524335D01*
X44484449Y-54564699D01*
X44484447Y-54564700D01*
X44318849Y-54685012D01*
X44318846Y-54685014D01*
X44174091Y-54829769D01*
X44174089Y-54829772D01*
X44053777Y-54995370D01*
X44053770Y-54995382D01*
X43960848Y-55177749D01*
X43960842Y-55177762D01*
X43897583Y-55372453D01*
X43865562Y-55574627D01*
X43865562Y-55779341D01*
X43884229Y-55897198D01*
X43897584Y-55981519D01*
X43926756Y-56071301D01*
X43960842Y-56176206D01*
X43960845Y-56176213D01*
X44003506Y-56259937D01*
X44003507Y-56259939D01*
X44031708Y-56315289D01*
X44031710Y-56315291D01*
X44053777Y-56358598D01*
X44174090Y-56524198D01*
X44318848Y-56668956D01*
X44473811Y-56781541D01*
X44484452Y-56789272D01*
X44562940Y-56829263D01*
X44564568Y-56830156D01*
X44566525Y-56832119D01*
X44590107Y-56848745D01*
X44599521Y-56857637D01*
X44610208Y-56875948D01*
X44613891Y-56879643D01*
X44614786Y-56883791D01*
X44634741Y-56917981D01*
X44631745Y-56987786D01*
X44595583Y-57041490D01*
X44588581Y-57047558D01*
X44563668Y-57064335D01*
X44484449Y-57104699D01*
X44484447Y-57104700D01*
X44318849Y-57225012D01*
X44318846Y-57225014D01*
X44174091Y-57369769D01*
X44174089Y-57369772D01*
X44053777Y-57535370D01*
X44053770Y-57535382D01*
X43960848Y-57717749D01*
X43960843Y-57717761D01*
X43897583Y-57912453D01*
X43865562Y-58114627D01*
X43865562Y-58273589D01*
X43858238Y-58298530D01*
X43854724Y-58324287D01*
X43847167Y-58336233D01*
X43845877Y-58340628D01*
X43835857Y-58354115D01*
X43834857Y-58355286D01*
X43776353Y-58393482D01*
X43706485Y-58393986D01*
X43647436Y-58356636D01*
X43617954Y-58293291D01*
X43616562Y-58274760D01*
X43616562Y-48177042D01*
X43621584Y-48142109D01*
X43628996Y-48116864D01*
X43660290Y-48064122D01*
X45426920Y-46297492D01*
X56065562Y-46297492D01*
X56065562Y-46486476D01*
X56095120Y-46673097D01*
X56095121Y-46673103D01*
X56153516Y-46852821D01*
X56239302Y-47021184D01*
X56350372Y-47174058D01*
X56483989Y-47307675D01*
X56636863Y-47418745D01*
X56681461Y-47441469D01*
X56681485Y-47441481D01*
X56798776Y-47501244D01*
X56798775Y-47501244D01*
X56806099Y-47504975D01*
X56809852Y-47506034D01*
X56846231Y-47517854D01*
X56901557Y-47535830D01*
X56901558Y-47535831D01*
X56922405Y-47542604D01*
X56984943Y-47562925D01*
X57171576Y-47592485D01*
X57171581Y-47592485D01*
X57360547Y-47592485D01*
X57360548Y-47592485D01*
X57547180Y-47562925D01*
X57726894Y-47504532D01*
X57895261Y-47418745D01*
X58048135Y-47307675D01*
X58181752Y-47174058D01*
X58292822Y-47021184D01*
X58378609Y-46852817D01*
X58437002Y-46673103D01*
X58466562Y-46486471D01*
X58466562Y-46297498D01*
X58437002Y-46110866D01*
X58378607Y-45931148D01*
X58292821Y-45762785D01*
X58181752Y-45609912D01*
X58048135Y-45476295D01*
X57895261Y-45365225D01*
X57726898Y-45279439D01*
X57547180Y-45221044D01*
X57547174Y-45221043D01*
X57360553Y-45191485D01*
X57360548Y-45191485D01*
X57360543Y-45191485D01*
X57171581Y-45191485D01*
X57171576Y-45191485D01*
X57171571Y-45191485D01*
X56984948Y-45221043D01*
X56984946Y-45221043D01*
X56984943Y-45221044D01*
X56805225Y-45279439D01*
X56721043Y-45322332D01*
X56636861Y-45365225D01*
X56549641Y-45428595D01*
X56549640Y-45428595D01*
X56495856Y-45467671D01*
X56488481Y-45471801D01*
X56345878Y-45614404D01*
X56341748Y-45621779D01*
X56302672Y-45675563D01*
X56302672Y-45675564D01*
X56239302Y-45762784D01*
X56196409Y-45846966D01*
X56153516Y-45931148D01*
X56095121Y-46110866D01*
X56095120Y-46110869D01*
X56095120Y-46110871D01*
X56065562Y-46297492D01*
X45426920Y-46297492D01*
X48328007Y-43396404D01*
X48356259Y-43375257D01*
X48379349Y-43362650D01*
X48438772Y-43347484D01*
X50883933Y-43347484D01*
X50883934Y-43347484D01*
X50943545Y-43341076D01*
X51078393Y-43290781D01*
X51193608Y-43204531D01*
X51279858Y-43089316D01*
X51330153Y-42954468D01*
X51336562Y-42894858D01*
X51336561Y-39799113D01*
X51330421Y-39741997D01*
X51330425Y-39741996D01*
X51330418Y-39741971D01*
X51330153Y-39739504D01*
X51330153Y-39739502D01*
X51330153Y-39739501D01*
X51279859Y-39604656D01*
X51279855Y-39604649D01*
X51193609Y-39489440D01*
X51193606Y-39489437D01*
X51193604Y-39489435D01*
X51135678Y-39446071D01*
X51078397Y-39403191D01*
X51078394Y-39403189D01*
X51078392Y-39403188D01*
X51078390Y-39403187D01*
X50943544Y-39352893D01*
X50943545Y-39352893D01*
X50883945Y-39346486D01*
X50883943Y-39346485D01*
X50883935Y-39346485D01*
X50883926Y-39346485D01*
X50882903Y-39346485D01*
X47788185Y-39346485D01*
X47786254Y-39346644D01*
X47784607Y-39346870D01*
X47728578Y-39352893D01*
X47593728Y-39403189D01*
X47593727Y-39403190D01*
X47478518Y-39489435D01*
X47478512Y-39489441D01*
X47392267Y-39604650D01*
X47392265Y-39604653D01*
X47341969Y-39739501D01*
X47338203Y-39774543D01*
X47336010Y-39794945D01*
X47335772Y-39797157D01*
X47335562Y-39799112D01*
X47335562Y-42196924D01*
X47335561Y-42196926D01*
X47335562Y-42196927D01*
X47330538Y-42231861D01*
X47323126Y-42257102D01*
X47291831Y-42309846D01*
X42283116Y-47318559D01*
X42283112Y-47318563D01*
X42209293Y-47429039D01*
X42209228Y-47429140D01*
X42200990Y-47441469D01*
X42200983Y-47441481D01*
X42200979Y-47441486D01*
X42200970Y-47441504D01*
X42144407Y-47578061D01*
X42144400Y-47578081D01*
X42144398Y-47578089D01*
X42115562Y-47723059D01*
X42115562Y-58826536D01*
X42110299Y-58844456D01*
X42144400Y-59015884D01*
X42144402Y-59015892D01*
X42144405Y-59015902D01*
X42156662Y-59045493D01*
X42200971Y-59152467D01*
X42200977Y-59152478D01*
X42224369Y-59187487D01*
X42283102Y-59275391D01*
X42283108Y-59275399D01*
X42283109Y-59275400D01*
X42283116Y-59275408D01*
X43799905Y-60792196D01*
X43809917Y-60805570D01*
X43821054Y-60820446D01*
X43825901Y-60829323D01*
X43826475Y-60830373D01*
X43841329Y-60898646D01*
X43816915Y-60964111D01*
X43760983Y-61005984D01*
X43760979Y-61005986D01*
X43753791Y-61008667D01*
X43710457Y-61016485D01*
X43226060Y-61016485D01*
X43226042Y-61016486D01*
X43226034Y-61016486D01*
X43226015Y-61016488D01*
X43123259Y-61026985D01*
X43123255Y-61026986D01*
X43123094Y-61027041D01*
X42956729Y-61082170D01*
X42956727Y-61082171D01*
X42956725Y-61082172D01*
X42882750Y-61127800D01*
X42807402Y-61174275D01*
X42683352Y-61298325D01*
X42591249Y-61447647D01*
X42591214Y-61447755D01*
X42569520Y-61513218D01*
X42553764Y-61544797D01*
X42546335Y-61555527D01*
X42491990Y-61599440D01*
X42422531Y-61607001D01*
X42398657Y-61595804D01*
X42397114Y-61599553D01*
X42379081Y-61592127D01*
X42365535Y-61591060D01*
X41822559Y-62134038D01*
X41761236Y-62167523D01*
X41691545Y-62162539D01*
X41635611Y-62120668D01*
X41627492Y-62108359D01*
X41606142Y-62071379D01*
X41531668Y-61996905D01*
X41494687Y-61975554D01*
X41446472Y-61924988D01*
X41433248Y-61856381D01*
X41459216Y-61791516D01*
X41468998Y-61780494D01*
X42011984Y-61237509D01*
X42011983Y-61237508D01*
X42011982Y-61237507D01*
X42011981Y-61237506D01*
X42011976Y-61237502D01*
X41967422Y-61205132D01*
X41967419Y-61205129D01*
X41856684Y-61148707D01*
X41785093Y-61112229D01*
X41590479Y-61048994D01*
X41587417Y-61048509D01*
X41388384Y-61016985D01*
X41388379Y-61016985D01*
X41385141Y-61016985D01*
X41385130Y-61016983D01*
X41385126Y-61016985D01*
X41350192Y-61011958D01*
X41344330Y-61010236D01*
X41285556Y-60972455D01*
X41256539Y-60908895D01*
X41266491Y-60839738D01*
X41312235Y-60786950D01*
X41320235Y-60781809D01*
X41343937Y-60769946D01*
X41470388Y-60722783D01*
X41470388Y-60722782D01*
X41470393Y-60722781D01*
X41585608Y-60636531D01*
X41671858Y-60521316D01*
X41722153Y-60386468D01*
X41728562Y-60326858D01*
X41728561Y-58707113D01*
X41728560Y-58707110D01*
X41728560Y-58707101D01*
X41722153Y-58647501D01*
X41691940Y-58566498D01*
X41691930Y-58566471D01*
X41671859Y-58512656D01*
X41671855Y-58512649D01*
X41585609Y-58397440D01*
X41585606Y-58397437D01*
X41585604Y-58397435D01*
X41503987Y-58336337D01*
X41470397Y-58311191D01*
X41470394Y-58311189D01*
X41470392Y-58311188D01*
X41470390Y-58311187D01*
X41335544Y-58260893D01*
X41335545Y-58260893D01*
X41275945Y-58254486D01*
X41275943Y-58254485D01*
X41275935Y-58254485D01*
X41275927Y-58254485D01*
X41274903Y-58254485D01*
X41255090Y-58254485D01*
X41220155Y-58249462D01*
X41209301Y-58246275D01*
X41194303Y-58236636D01*
X41177197Y-58231614D01*
X41165521Y-58218139D01*
X41150523Y-58208501D01*
X41143116Y-58192283D01*
X41131442Y-58178810D01*
X41128904Y-58161163D01*
X41121498Y-58144945D01*
X41124035Y-58127297D01*
X41121498Y-58109652D01*
X41131438Y-58075796D01*
X41132730Y-58072966D01*
X41172637Y-58024163D01*
X41190552Y-58011148D01*
X41286500Y-57941438D01*
X41288522Y-57939969D01*
X41288526Y-57939966D01*
X41316042Y-57912450D01*
X41429043Y-57799449D01*
X41545849Y-57638679D01*
X41636067Y-57461617D01*
X41697475Y-57272621D01*
X41728562Y-57076346D01*
X41728562Y-56877624D01*
X41697475Y-56681349D01*
X41646416Y-56524204D01*
X41636068Y-56492355D01*
X41636067Y-56492352D01*
X41567915Y-56358598D01*
X41545849Y-56315291D01*
X41429043Y-56154521D01*
X41288526Y-56014004D01*
X41208141Y-55955601D01*
X41127754Y-55897196D01*
X40986613Y-55825280D01*
X40957768Y-55804946D01*
X40948355Y-55796056D01*
X40913132Y-55735714D01*
X40916124Y-55665909D01*
X40952291Y-55612196D01*
X40959305Y-55606118D01*
X40984200Y-55589355D01*
X41127494Y-55516343D01*
X41276333Y-55408203D01*
X41283710Y-55404072D01*
X41288201Y-55399581D01*
X41288202Y-55399581D01*
X41428658Y-55259125D01*
X41428658Y-55259124D01*
X41433149Y-55254633D01*
X41437280Y-55247256D01*
X41545420Y-55098417D01*
X41635605Y-54921420D01*
X41640355Y-54906800D01*
X41696987Y-54732503D01*
X41696986Y-54732502D01*
X41696987Y-54732502D01*
X41704196Y-54686985D01*
X40474785Y-54686985D01*
X40407746Y-54667300D01*
X40361991Y-54614496D01*
X40352047Y-54545338D01*
X40355010Y-54530892D01*
X40366062Y-54489646D01*
X40366062Y-54384324D01*
X40355010Y-54343077D01*
X40356673Y-54273228D01*
X40395836Y-54215366D01*
X40460064Y-54187862D01*
X40474785Y-54186985D01*
X41704197Y-54186985D01*
X41709775Y-54173516D01*
X41699200Y-54154149D01*
X41697896Y-54147212D01*
X41696987Y-54141467D01*
X41696985Y-54141463D01*
X41696985Y-54141458D01*
X41635607Y-53952554D01*
X41635605Y-53952548D01*
X41567352Y-53818596D01*
X41545420Y-53775552D01*
X41437282Y-53626715D01*
X41433149Y-53619335D01*
X41288203Y-53474389D01*
X41242956Y-53441515D01*
X41127494Y-53357626D01*
X41127493Y-53357625D01*
X41127491Y-53357624D01*
X40986614Y-53285842D01*
X40957774Y-53265512D01*
X40948360Y-53256622D01*
X40913134Y-53196283D01*
X40916122Y-53126477D01*
X40952291Y-53072757D01*
X40959301Y-53066682D01*
X40984206Y-53049914D01*
X41127754Y-52976773D01*
X41127753Y-52976773D01*
X41127756Y-52976772D01*
X41288526Y-52859966D01*
X41429043Y-52719449D01*
X41545849Y-52558679D01*
X41636067Y-52381617D01*
X41697475Y-52192621D01*
X41728562Y-51996346D01*
X41728562Y-51797624D01*
X41697475Y-51601349D01*
X41646414Y-51444198D01*
X41636068Y-51412355D01*
X41636067Y-51412352D01*
X41577029Y-51296485D01*
X41545849Y-51235291D01*
X41429043Y-51074521D01*
X41288526Y-50934004D01*
X41208141Y-50875601D01*
X41127754Y-50817196D01*
X40987164Y-50745561D01*
X40958319Y-50725227D01*
X40948906Y-50716337D01*
X40913683Y-50655995D01*
X40916675Y-50586190D01*
X40952842Y-50532476D01*
X40959853Y-50526401D01*
X40984757Y-50509633D01*
X40987164Y-50508407D01*
X41127756Y-50436772D01*
X41288526Y-50319966D01*
X41429043Y-50179449D01*
X41545849Y-50018679D01*
X41636067Y-49841617D01*
X41697475Y-49652621D01*
X41728562Y-49456346D01*
X41728562Y-49257624D01*
X41697475Y-49061349D01*
X41666771Y-48966851D01*
X41636068Y-48872355D01*
X41636067Y-48872352D01*
X41577029Y-48756485D01*
X41545849Y-48695291D01*
X41429043Y-48534521D01*
X41288526Y-48394004D01*
X41127756Y-48277198D01*
X40950694Y-48186979D01*
X40950691Y-48186978D01*
X40950690Y-48186977D01*
X40950687Y-48186976D01*
X40950667Y-48186969D01*
X40761701Y-48125572D01*
X40761702Y-48125572D01*
X40649819Y-48107852D01*
X40630846Y-48104847D01*
X40565427Y-48094485D01*
X40565423Y-48094485D01*
X39366701Y-48094485D01*
X39366698Y-48094485D01*
X39317632Y-48102256D01*
X39301276Y-48104847D01*
X39170420Y-48125572D01*
X38981455Y-48186969D01*
X38981436Y-48186976D01*
X38981435Y-48186976D01*
X38804366Y-48277198D01*
X38712640Y-48343841D01*
X38643595Y-48394006D01*
X38643593Y-48394008D01*
X38643592Y-48394008D01*
X38503085Y-48534515D01*
X38503085Y-48534516D01*
X38503083Y-48534518D01*
X38452918Y-48603563D01*
X38386275Y-48695289D01*
X38296053Y-48872358D01*
X38296053Y-48872359D01*
X38296046Y-48872378D01*
X38234649Y-49061343D01*
X38203562Y-49257618D01*
X38203562Y-49456350D01*
X38234649Y-49652625D01*
X38296046Y-49841590D01*
X38296053Y-49841609D01*
X38296053Y-49841610D01*
X38296054Y-49841613D01*
X38296055Y-49841614D01*
X38296056Y-49841617D01*
X38376901Y-50000282D01*
X38386275Y-50018679D01*
X38503081Y-50179449D01*
X38643598Y-50319966D01*
X38804368Y-50436772D01*
X38917914Y-50494627D01*
X38917926Y-50494633D01*
X38917928Y-50494634D01*
X38944958Y-50508407D01*
X38973797Y-50528737D01*
X38983211Y-50537627D01*
X38992202Y-50553028D01*
X38995753Y-50556382D01*
X38996926Y-50561119D01*
X39018437Y-50597966D01*
X39015449Y-50667772D01*
X38979279Y-50721493D01*
X38972274Y-50727563D01*
X38947365Y-50744335D01*
X38804371Y-50817194D01*
X38697185Y-50895070D01*
X38643595Y-50934006D01*
X38643593Y-50934008D01*
X38643592Y-50934008D01*
X38503085Y-51074515D01*
X38503085Y-51074516D01*
X38503083Y-51074518D01*
X38487321Y-51096213D01*
X38386275Y-51235289D01*
X38296053Y-51412358D01*
X38296053Y-51412359D01*
X38296046Y-51412378D01*
X38234649Y-51601343D01*
X38203562Y-51797618D01*
X38203562Y-51996350D01*
X38234649Y-52192625D01*
X38296046Y-52381590D01*
X38296053Y-52381609D01*
X38296055Y-52381614D01*
X38296056Y-52381617D01*
X38360522Y-52508138D01*
X38371905Y-52541540D01*
X38374791Y-52556907D01*
X38367819Y-52626428D01*
X38367817Y-52626432D01*
X38363902Y-52636077D01*
X38336688Y-52677121D01*
X36937348Y-54076462D01*
X36825543Y-54188266D01*
X36779486Y-54268041D01*
X36779484Y-54268045D01*
X36754647Y-54311060D01*
X36752676Y-54313629D01*
X36746249Y-54325637D01*
X36745452Y-54329051D01*
X36705561Y-54477928D01*
X36705561Y-54648385D01*
X36705562Y-54648436D01*
X36705562Y-60923354D01*
X36705561Y-60923358D01*
X36705562Y-60923361D01*
X36700537Y-60958295D01*
X36696626Y-60971612D01*
X36658849Y-61030388D01*
X36595292Y-61059410D01*
X36588376Y-61060404D01*
X36532418Y-61055597D01*
X36526617Y-61053712D01*
X36510604Y-61048509D01*
X36510602Y-61048508D01*
X36510597Y-61048507D01*
X36510503Y-61048485D01*
X36509645Y-61048356D01*
X36409506Y-61032496D01*
X36409505Y-61032496D01*
X36385828Y-61028746D01*
X36308418Y-61016485D01*
X36308414Y-61016485D01*
X36103710Y-61016485D01*
X36081093Y-61020067D01*
X35901531Y-61048505D01*
X35901530Y-61048506D01*
X35706839Y-61111765D01*
X35706826Y-61111771D01*
X35524459Y-61204693D01*
X35524447Y-61204700D01*
X35358849Y-61325012D01*
X35358846Y-61325014D01*
X35214091Y-61469769D01*
X35214089Y-61469772D01*
X35093777Y-61635370D01*
X35093773Y-61635377D01*
X35054639Y-61712181D01*
X35054637Y-61712183D01*
X35054637Y-61712185D01*
X35034300Y-61741031D01*
X35025409Y-61750444D01*
X34965065Y-61785664D01*
X34895260Y-61782668D01*
X34841551Y-61746501D01*
X34835479Y-61739493D01*
X34818711Y-61714590D01*
X34778482Y-61635637D01*
X34778401Y-61635476D01*
X34778353Y-61635381D01*
X34778352Y-61635380D01*
X34778350Y-61635377D01*
X34778349Y-61635375D01*
X34754168Y-61602092D01*
X34696750Y-61523061D01*
X34658034Y-61469772D01*
X34513273Y-61325011D01*
X34358264Y-61212393D01*
X34358261Y-61212391D01*
X34347675Y-61204700D01*
X34347674Y-61204699D01*
X34347672Y-61204698D01*
X34341597Y-61201602D01*
X34341593Y-61201600D01*
X34284174Y-61172344D01*
X34284174Y-61172343D01*
X34284172Y-61172343D01*
X34165291Y-61111768D01*
X34165283Y-61111765D01*
X34054831Y-61075877D01*
X33970596Y-61048507D01*
X33970594Y-61048506D01*
X33970592Y-61048506D01*
X33970591Y-61048505D01*
X33791030Y-61020067D01*
X33791029Y-61020066D01*
X33768414Y-61016485D01*
X33563710Y-61016485D01*
X33541093Y-61020067D01*
X33361531Y-61048505D01*
X33361530Y-61048506D01*
X33166834Y-61111767D01*
X33162741Y-61113853D01*
X33162737Y-61113854D01*
X33162738Y-61113854D01*
X33129331Y-61125239D01*
X33115694Y-61127800D01*
X33046173Y-61120827D01*
X32991458Y-61077375D01*
X32991457Y-61077373D01*
X32989534Y-61074645D01*
X32968547Y-61023447D01*
X32968224Y-61021497D01*
X32966562Y-61001256D01*
X32966562Y-54917930D01*
X32966562Y-54917928D01*
X32925639Y-54765201D01*
X32920942Y-54757065D01*
X32846586Y-54628275D01*
X32846583Y-54628271D01*
X32846582Y-54628269D01*
X32734778Y-54516465D01*
X32734777Y-54516464D01*
X32730447Y-54512134D01*
X32729425Y-54511112D01*
X32729382Y-54511070D01*
X27217990Y-48999678D01*
X27213652Y-48995340D01*
X27213650Y-48995337D01*
X27094779Y-48876466D01*
X27094778Y-48876465D01*
X27094777Y-48876464D01*
X27094774Y-48876462D01*
X27028860Y-48838406D01*
X27028860Y-48838407D01*
X26992905Y-48817649D01*
X26992904Y-48817648D01*
X26957848Y-48797408D01*
X26919665Y-48787177D01*
X26805119Y-48756484D01*
X26805116Y-48756484D01*
X26637505Y-48756484D01*
X26637442Y-48756485D01*
X26430622Y-48756485D01*
X26395686Y-48751462D01*
X26376799Y-48745916D01*
X26323116Y-48713672D01*
X26314288Y-48704652D01*
X26302589Y-48690804D01*
X26189048Y-48534526D01*
X26048528Y-48394006D01*
X26048526Y-48394004D01*
X25887756Y-48277198D01*
X25710694Y-48186979D01*
X25710691Y-48186978D01*
X25710690Y-48186977D01*
X25710687Y-48186976D01*
X25710667Y-48186969D01*
X25521701Y-48125572D01*
X25521702Y-48125572D01*
X25409819Y-48107852D01*
X25390846Y-48104847D01*
X25325427Y-48094485D01*
X25325423Y-48094485D01*
X24126701Y-48094485D01*
X24126698Y-48094485D01*
X24077632Y-48102256D01*
X24061276Y-48104847D01*
X23930420Y-48125572D01*
X23741455Y-48186969D01*
X23741436Y-48186976D01*
X23741435Y-48186976D01*
X23564366Y-48277198D01*
X23472640Y-48343841D01*
X23403595Y-48394006D01*
X23403593Y-48394008D01*
X23403592Y-48394008D01*
X23263085Y-48534515D01*
X23263085Y-48534516D01*
X23263083Y-48534518D01*
X23212918Y-48603563D01*
X23146275Y-48695289D01*
X23056053Y-48872358D01*
X23056053Y-48872359D01*
X23056046Y-48872378D01*
X22994649Y-49061343D01*
X22963562Y-49257618D01*
X22963562Y-49456350D01*
X22994649Y-49652625D01*
X23056046Y-49841590D01*
X23056053Y-49841609D01*
X23056053Y-49841610D01*
X23056054Y-49841613D01*
X23056055Y-49841614D01*
X23056056Y-49841617D01*
X23136901Y-50000282D01*
X23146275Y-50018679D01*
X23263081Y-50179449D01*
X23403598Y-50319966D01*
X23564368Y-50436772D01*
X23677914Y-50494627D01*
X23677926Y-50494633D01*
X23677928Y-50494634D01*
X23704958Y-50508407D01*
X23733797Y-50528737D01*
X23743211Y-50537627D01*
X23752202Y-50553028D01*
X23755753Y-50556382D01*
X23756926Y-50561119D01*
X23778437Y-50597966D01*
X23775449Y-50667772D01*
X23739279Y-50721493D01*
X23732274Y-50727563D01*
X23707365Y-50744335D01*
X23564371Y-50817194D01*
X23457185Y-50895070D01*
X23403595Y-50934006D01*
X23403593Y-50934008D01*
X23403592Y-50934008D01*
X23263085Y-51074515D01*
X23263085Y-51074516D01*
X23263083Y-51074518D01*
X23247321Y-51096213D01*
X23146275Y-51235289D01*
X23056053Y-51412358D01*
X23056053Y-51412359D01*
X23056046Y-51412378D01*
X22994649Y-51601343D01*
X22963562Y-51797618D01*
X22963562Y-51996350D01*
X22994649Y-52192625D01*
X23056046Y-52381590D01*
X23056054Y-52381613D01*
X23056056Y-52381617D01*
X23121380Y-52509820D01*
X23121380Y-52509822D01*
X23121381Y-52509822D01*
X23146275Y-52558679D01*
X23263081Y-52719449D01*
X23403598Y-52859966D01*
X23564368Y-52976772D01*
X23705509Y-53048687D01*
X23715854Y-53055980D01*
X23734355Y-53069022D01*
X23743767Y-53077911D01*
X23778990Y-53138252D01*
X23775998Y-53208058D01*
X23739822Y-53261780D01*
X23732817Y-53267849D01*
X23707917Y-53284614D01*
X23564634Y-53357622D01*
X23564626Y-53357626D01*
X23415798Y-53465759D01*
X23408415Y-53469893D01*
X23258970Y-53619338D01*
X23254838Y-53626717D01*
X23156812Y-53761638D01*
X23146705Y-53775550D01*
X23146699Y-53775559D01*
X23056517Y-53952548D01*
X23056515Y-53952554D01*
X22995137Y-54141459D01*
X22995136Y-54141465D01*
X22987927Y-54186979D01*
X22987927Y-54186984D01*
X22987927Y-54186985D01*
X24217339Y-54186985D01*
X24284378Y-54206670D01*
X24330133Y-54259474D01*
X24340077Y-54328632D01*
X24337114Y-54343073D01*
X24326062Y-54384324D01*
X24326062Y-54489646D01*
X24335685Y-54525561D01*
X24337114Y-54530892D01*
X24335451Y-54600742D01*
X24296288Y-54658604D01*
X24232060Y-54686108D01*
X24217339Y-54686985D01*
X22987927Y-54686985D01*
X22995136Y-54732502D01*
X22995136Y-54732503D01*
X23056515Y-54921414D01*
X23056517Y-54921420D01*
X23140311Y-55085873D01*
X23146703Y-55098417D01*
X23247239Y-55236791D01*
X23254838Y-55247250D01*
X23258972Y-55254632D01*
X23263465Y-55259125D01*
X23403921Y-55399581D01*
X23564629Y-55516343D01*
X23564631Y-55516344D01*
X23705508Y-55588126D01*
X23724494Y-55601510D01*
X23734348Y-55608456D01*
X23743762Y-55617346D01*
X23778988Y-55677685D01*
X23776000Y-55747491D01*
X23739823Y-55801218D01*
X23732817Y-55807288D01*
X23707916Y-55824054D01*
X23564369Y-55897196D01*
X23483981Y-55955602D01*
X23403595Y-56014006D01*
X23403593Y-56014008D01*
X23403592Y-56014008D01*
X23263085Y-56154515D01*
X23263085Y-56154516D01*
X23263083Y-56154518D01*
X23247321Y-56176213D01*
X23146275Y-56315289D01*
X23056053Y-56492358D01*
X23056053Y-56492359D01*
X23056046Y-56492378D01*
X22994649Y-56681343D01*
X22963562Y-56877618D01*
X22963562Y-57076350D01*
X22994649Y-57272625D01*
X23056046Y-57461590D01*
X23056054Y-57461613D01*
X23056056Y-57461617D01*
X23104297Y-57556293D01*
X23104297Y-57556295D01*
X23104298Y-57556295D01*
X23146275Y-57638679D01*
X23263081Y-57799449D01*
X23403598Y-57939966D01*
X23564368Y-58056772D01*
X23601687Y-58075787D01*
X23620744Y-58085497D01*
X23620745Y-58085498D01*
X23704957Y-58128407D01*
X23733797Y-58148737D01*
X23743211Y-58157627D01*
X23752202Y-58173028D01*
X23755752Y-58176381D01*
X23756925Y-58181117D01*
X23778437Y-58217966D01*
X23775449Y-58287772D01*
X23739279Y-58341493D01*
X23732274Y-58347563D01*
X23707365Y-58364335D01*
X23564371Y-58437194D01*
X23460512Y-58512653D01*
X23403595Y-58554006D01*
X23403593Y-58554008D01*
X23403592Y-58554008D01*
X23263085Y-58694515D01*
X23263085Y-58694516D01*
X23263083Y-58694518D01*
X23247321Y-58716213D01*
X23146275Y-58855289D01*
X23124209Y-58898596D01*
X23056056Y-59032352D01*
X23056056Y-59032353D01*
X23056052Y-59032360D01*
X22994649Y-59221343D01*
X22963562Y-59417618D01*
X22963562Y-59616350D01*
X22994649Y-59812625D01*
X23056030Y-60001540D01*
X23056055Y-60001614D01*
X23056056Y-60001617D01*
X23075305Y-60039394D01*
X23146275Y-60178679D01*
X23263081Y-60339449D01*
X23403598Y-60479966D01*
X23564368Y-60596772D01*
X23642395Y-60636529D01*
X23741429Y-60686990D01*
X23741432Y-60686991D01*
X23835928Y-60717694D01*
X23930426Y-60748398D01*
X24126701Y-60779485D01*
X24126702Y-60779485D01*
X25325422Y-60779485D01*
X25325423Y-60779485D01*
X25521698Y-60748398D01*
X25710694Y-60686990D01*
X25887756Y-60596772D01*
X26048526Y-60479966D01*
X26189043Y-60339449D01*
X26305849Y-60178679D01*
X26396067Y-60001617D01*
X26457475Y-59812621D01*
X26488562Y-59616346D01*
X26488562Y-59417624D01*
X26457475Y-59221349D01*
X26396067Y-59032353D01*
X26396067Y-59032352D01*
X26327915Y-58898598D01*
X26305849Y-58855291D01*
X26189043Y-58694521D01*
X26048526Y-58554004D01*
X25937609Y-58473418D01*
X25887754Y-58437196D01*
X25747164Y-58365561D01*
X25718319Y-58345227D01*
X25708906Y-58336337D01*
X25673683Y-58275995D01*
X25676675Y-58206190D01*
X25712842Y-58152476D01*
X25719853Y-58146401D01*
X25744757Y-58129633D01*
X25747164Y-58128407D01*
X25887756Y-58056772D01*
X26048526Y-57939966D01*
X26189043Y-57799449D01*
X26305849Y-57638679D01*
X26396067Y-57461617D01*
X26457475Y-57272621D01*
X26488562Y-57076346D01*
X26488562Y-56877624D01*
X26457475Y-56681349D01*
X26406416Y-56524204D01*
X26396068Y-56492355D01*
X26396067Y-56492352D01*
X26327915Y-56358598D01*
X26305849Y-56315291D01*
X26189043Y-56154521D01*
X26048526Y-56014004D01*
X25968141Y-55955601D01*
X25887754Y-55897196D01*
X25746613Y-55825280D01*
X25717768Y-55804946D01*
X25708355Y-55796056D01*
X25673132Y-55735714D01*
X25676124Y-55665909D01*
X25712291Y-55612196D01*
X25719305Y-55606118D01*
X25744200Y-55589355D01*
X25887494Y-55516343D01*
X26036333Y-55408203D01*
X26043710Y-55404072D01*
X26048201Y-55399581D01*
X26048202Y-55399581D01*
X26188658Y-55259125D01*
X26188658Y-55259124D01*
X26193149Y-55254633D01*
X26197280Y-55247256D01*
X26305420Y-55098417D01*
X26395605Y-54921420D01*
X26400355Y-54906800D01*
X26456987Y-54732503D01*
X26456986Y-54732502D01*
X26456987Y-54732502D01*
X26464196Y-54686985D01*
X25234785Y-54686985D01*
X25167746Y-54667300D01*
X25121991Y-54614496D01*
X25112047Y-54545338D01*
X25115010Y-54530892D01*
X25126062Y-54489646D01*
X25126062Y-54384324D01*
X25115010Y-54343077D01*
X25116673Y-54273228D01*
X25155836Y-54215366D01*
X25220064Y-54187862D01*
X25234785Y-54186985D01*
X26464197Y-54186985D01*
X26469775Y-54173516D01*
X26459200Y-54154149D01*
X26457896Y-54147212D01*
X26456987Y-54141467D01*
X26456985Y-54141463D01*
X26456985Y-54141458D01*
X26395607Y-53952554D01*
X26395605Y-53952548D01*
X26327352Y-53818596D01*
X26305420Y-53775552D01*
X26197282Y-53626715D01*
X26193149Y-53619335D01*
X26048203Y-53474389D01*
X26002956Y-53441515D01*
X25887494Y-53357626D01*
X25887493Y-53357625D01*
X25887491Y-53357624D01*
X25746614Y-53285842D01*
X25717774Y-53265512D01*
X25708360Y-53256622D01*
X25673134Y-53196283D01*
X25676122Y-53126477D01*
X25712291Y-53072757D01*
X25719301Y-53066682D01*
X25744206Y-53049914D01*
X25887754Y-52976773D01*
X25887753Y-52976773D01*
X25887756Y-52976772D01*
X26048526Y-52859966D01*
X26189043Y-52719449D01*
X26300161Y-52566507D01*
X26310766Y-52553795D01*
X26313898Y-52550512D01*
X26314763Y-52549731D01*
X26314871Y-52549494D01*
X26320730Y-52543356D01*
X26323706Y-52541639D01*
X26324155Y-52541234D01*
X26324242Y-52541330D01*
X26327953Y-52539190D01*
X26336915Y-52530758D01*
X26336175Y-52529792D01*
X26340224Y-52526691D01*
X26340230Y-52526688D01*
X26340234Y-52526683D01*
X26341611Y-52525630D01*
X26342890Y-52525136D01*
X26343425Y-52524634D01*
X26344554Y-52523909D01*
X26344856Y-52524379D01*
X26371332Y-52514176D01*
X26381257Y-52508453D01*
X26385635Y-52508663D01*
X26406807Y-52500505D01*
X26451925Y-52505108D01*
X26458082Y-52506915D01*
X26468309Y-52509918D01*
X26521057Y-52541215D01*
X29216636Y-55236794D01*
X29237785Y-55265045D01*
X29250393Y-55288134D01*
X29265562Y-55347563D01*
X29265562Y-60983442D01*
X29260537Y-61018383D01*
X29256626Y-61031700D01*
X29218849Y-61090476D01*
X29155291Y-61119498D01*
X29155276Y-61119500D01*
X29151968Y-61119975D01*
X29096874Y-61115438D01*
X29085517Y-61111838D01*
X29084668Y-61111565D01*
X28890602Y-61048508D01*
X28890599Y-61048508D01*
X28726144Y-61022461D01*
X28720070Y-61021499D01*
X28688414Y-61016485D01*
X28688413Y-61016485D01*
X28483710Y-61016485D01*
X28461093Y-61020067D01*
X28281531Y-61048505D01*
X28281530Y-61048506D01*
X28086839Y-61111765D01*
X28086826Y-61111771D01*
X27904459Y-61204693D01*
X27904447Y-61204700D01*
X27738849Y-61325012D01*
X27738846Y-61325014D01*
X27594092Y-61469768D01*
X27473772Y-61635377D01*
X27434358Y-61712730D01*
X27414407Y-61741031D01*
X27414028Y-61741569D01*
X27405138Y-61750983D01*
X27344799Y-61786209D01*
X27274993Y-61783221D01*
X27221267Y-61747045D01*
X27215196Y-61740038D01*
X27198428Y-61715134D01*
X27196925Y-61712185D01*
X27157923Y-61635637D01*
X27157921Y-61635633D01*
X27149218Y-61623655D01*
X27139678Y-61596919D01*
X27125535Y-61591060D01*
X26582559Y-62134038D01*
X26521236Y-62167523D01*
X26451545Y-62162539D01*
X26395611Y-62120668D01*
X26387492Y-62108359D01*
X26366142Y-62071379D01*
X26291668Y-61996905D01*
X26254687Y-61975554D01*
X26206472Y-61924988D01*
X26193248Y-61856381D01*
X26219216Y-61791516D01*
X26228998Y-61780494D01*
X26771984Y-61237509D01*
X26771983Y-61237508D01*
X26771982Y-61237507D01*
X26771981Y-61237506D01*
X26771976Y-61237502D01*
X26727422Y-61205132D01*
X26727419Y-61205129D01*
X26616684Y-61148707D01*
X26545093Y-61112229D01*
X26350479Y-61048994D01*
X26347417Y-61048509D01*
X26148384Y-61016985D01*
X26148379Y-61016985D01*
X25943745Y-61016985D01*
X25943740Y-61016985D01*
X25741649Y-61048993D01*
X25741647Y-61048993D01*
X25741644Y-61048994D01*
X25654304Y-61077373D01*
X25547025Y-61112230D01*
X25364702Y-61205130D01*
X25320139Y-61237507D01*
X25320139Y-61237508D01*
X25320139Y-61237509D01*
X25638157Y-61555527D01*
X25863117Y-61780486D01*
X25896602Y-61841809D01*
X25891618Y-61911500D01*
X25849747Y-61967434D01*
X25837436Y-61975554D01*
X25800459Y-61996902D01*
X25800454Y-61996906D01*
X25725983Y-62071377D01*
X25725977Y-62071385D01*
X25704630Y-62108359D01*
X25654063Y-62156574D01*
X25585455Y-62169796D01*
X25520591Y-62143828D01*
X25509563Y-62134039D01*
X24966586Y-61591062D01*
X24966585Y-61591062D01*
X24966584Y-61591062D01*
X24934207Y-61635625D01*
X24841307Y-61817948D01*
X24810910Y-61911500D01*
X24778071Y-62012567D01*
X24778070Y-62012570D01*
X24778070Y-62012572D01*
X24746062Y-62214661D01*
X24746062Y-62419307D01*
X24769112Y-62564835D01*
X24778071Y-62621402D01*
X24841306Y-62816016D01*
X24887106Y-62905902D01*
X24934206Y-62998342D01*
X24934209Y-62998345D01*
X24966579Y-63042899D01*
X24966583Y-63042904D01*
X24966585Y-63042906D01*
X24966586Y-63042907D01*
X25509565Y-62499927D01*
X25570886Y-62466444D01*
X25640577Y-62471428D01*
X25696511Y-62513299D01*
X25704629Y-62525607D01*
X25725982Y-62562591D01*
X25800456Y-62637065D01*
X25800457Y-62637066D01*
X25800459Y-62637067D01*
X25837435Y-62658415D01*
X25885650Y-62708981D01*
X25898874Y-62777588D01*
X25872906Y-62842453D01*
X25863116Y-62853483D01*
X25320137Y-63396458D01*
X25320138Y-63396458D01*
X25320138Y-63396459D01*
X25364712Y-63428844D01*
X25426014Y-63460079D01*
X25547025Y-63521738D01*
X25547027Y-63521738D01*
X25547030Y-63521740D01*
X25741644Y-63584975D01*
X25943745Y-63616985D01*
X26148378Y-63616985D01*
X26148379Y-63616985D01*
X26350479Y-63584975D01*
X26545093Y-63521740D01*
X26550632Y-63518918D01*
X26727409Y-63428845D01*
X26727408Y-63428845D01*
X26727411Y-63428844D01*
X26771983Y-63396459D01*
X26229007Y-62853483D01*
X26195522Y-62792160D01*
X26200506Y-62722468D01*
X26242378Y-62666535D01*
X26254680Y-62658419D01*
X26291668Y-62637065D01*
X26366142Y-62562591D01*
X26387492Y-62525610D01*
X26438057Y-62477396D01*
X26506664Y-62464172D01*
X26571529Y-62490139D01*
X26582560Y-62499930D01*
X27125536Y-63042906D01*
X27157923Y-62998332D01*
X27157923Y-62998331D01*
X27159848Y-62995682D01*
X27162349Y-62989643D01*
X27197204Y-62921236D01*
X27217534Y-62892397D01*
X27226429Y-62882979D01*
X27241825Y-62873992D01*
X27245177Y-62870444D01*
X27249914Y-62869270D01*
X27286769Y-62847758D01*
X27356574Y-62850750D01*
X27410282Y-62886911D01*
X27416353Y-62893916D01*
X27433130Y-62918828D01*
X27473775Y-62998596D01*
X27594090Y-63164198D01*
X27738848Y-63308956D01*
X27859288Y-63396459D01*
X27904452Y-63429272D01*
X28000728Y-63478327D01*
X28078705Y-63518059D01*
X28080391Y-63518918D01*
X28081992Y-63519855D01*
X28085682Y-63521643D01*
X28087699Y-63522645D01*
X28091467Y-63523707D01*
X28128032Y-63535588D01*
X28281527Y-63585462D01*
X28382619Y-63601473D01*
X28483710Y-63617485D01*
X28483711Y-63617485D01*
X28688413Y-63617485D01*
X28688414Y-63617485D01*
X28890596Y-63585462D01*
X29077667Y-63524678D01*
X29093057Y-63520750D01*
X29116425Y-63516360D01*
X29185943Y-63523328D01*
X29240658Y-63566774D01*
X29242594Y-63569519D01*
X29263563Y-63620640D01*
X29263887Y-63622594D01*
X29265562Y-63642900D01*
X29265562Y-68339057D01*
X29265561Y-68339059D01*
X29265562Y-68339060D01*
X29260538Y-68373994D01*
X29253126Y-68399235D01*
X29221831Y-68451979D01*
X29043511Y-68630299D01*
X29015255Y-68651451D01*
X29000272Y-68659632D01*
X28934661Y-68674645D01*
X28929441Y-68674384D01*
X28921363Y-68673980D01*
X28895442Y-68669208D01*
X28895338Y-68669646D01*
X28890598Y-68668508D01*
X28849923Y-68662066D01*
X28814718Y-68656490D01*
X28688414Y-68636485D01*
X28688413Y-68636485D01*
X28483709Y-68636485D01*
X28459389Y-68640336D01*
X28459388Y-68640335D01*
X28281530Y-68668506D01*
X28086839Y-68731765D01*
X28086826Y-68731771D01*
X27904459Y-68824693D01*
X27904447Y-68824700D01*
X27738849Y-68945012D01*
X27738846Y-68945014D01*
X27594091Y-69089769D01*
X27594089Y-69089772D01*
X27473777Y-69255370D01*
X27473773Y-69255377D01*
X27434639Y-69332181D01*
X27434637Y-69332183D01*
X27434637Y-69332185D01*
X27414300Y-69361031D01*
X27405409Y-69370444D01*
X27345065Y-69405664D01*
X27275260Y-69402668D01*
X27221558Y-69366508D01*
X27220097Y-69364823D01*
X27215485Y-69359499D01*
X27198694Y-69334557D01*
X27197595Y-69332400D01*
X27197594Y-69332398D01*
X27197594Y-69332399D01*
X27158349Y-69255375D01*
X27134632Y-69222731D01*
X27038033Y-69089771D01*
X26893275Y-68945013D01*
X26893274Y-68945012D01*
X26893273Y-68945011D01*
X26738264Y-68832393D01*
X26738261Y-68832391D01*
X26727675Y-68824700D01*
X26727674Y-68824699D01*
X26727672Y-68824698D01*
X26664005Y-68792258D01*
X26664005Y-68792257D01*
X26664003Y-68792257D01*
X26545290Y-68731768D01*
X26545283Y-68731765D01*
X26417615Y-68690283D01*
X26350596Y-68668507D01*
X26350594Y-68668506D01*
X26350592Y-68668506D01*
X26350591Y-68668505D01*
X26176057Y-68640863D01*
X26159471Y-68638236D01*
X26148416Y-68636485D01*
X26148414Y-68636485D01*
X25943710Y-68636485D01*
X25943709Y-68636485D01*
X25919389Y-68640336D01*
X25919388Y-68640335D01*
X25741530Y-68668506D01*
X25546839Y-68731765D01*
X25546826Y-68731771D01*
X25364459Y-68824693D01*
X25364447Y-68824700D01*
X25198849Y-68945012D01*
X25198846Y-68945014D01*
X25054091Y-69089769D01*
X25054089Y-69089772D01*
X24933777Y-69255370D01*
X24933770Y-69255382D01*
X24840848Y-69437749D01*
X24840842Y-69437762D01*
X24777583Y-69632453D01*
X24745562Y-69834627D01*
X24745562Y-70039337D01*
X24747841Y-70053732D01*
X24747842Y-70053733D01*
X24748345Y-70089024D01*
X24746810Y-70100901D01*
X24718695Y-70164864D01*
X24660462Y-70203473D01*
X24592599Y-70205008D01*
X24582390Y-70202351D01*
X24551630Y-70189738D01*
X22524042Y-69019109D01*
X22522777Y-69018368D01*
X22521207Y-69017434D01*
X22519940Y-69016669D01*
X22519889Y-69016638D01*
X22453628Y-68976031D01*
X22450875Y-68974294D01*
X22448150Y-68972524D01*
X22445458Y-68970725D01*
X22445426Y-68970703D01*
X22388765Y-68931758D01*
X22386175Y-68929927D01*
X22385770Y-68929633D01*
X22383507Y-68927988D01*
X22380974Y-68926097D01*
X22326399Y-68884218D01*
X22323874Y-68882228D01*
X22321308Y-68880151D01*
X22318789Y-68878056D01*
X22266522Y-68833413D01*
X22264098Y-68831288D01*
X22261705Y-68829134D01*
X22259305Y-68826916D01*
X22209383Y-68779540D01*
X22207060Y-68777276D01*
X22204832Y-68775048D01*
X22202566Y-68772722D01*
X22155207Y-68722815D01*
X22153007Y-68720435D01*
X22150854Y-68718044D01*
X22148711Y-68715601D01*
X22148689Y-68715575D01*
X22104019Y-68663274D01*
X22101998Y-68660844D01*
X22099890Y-68658240D01*
X22097917Y-68655736D01*
X22056048Y-68601169D01*
X22054108Y-68598572D01*
X22052216Y-68595968D01*
X22050341Y-68593315D01*
X22020924Y-68550513D01*
X22020924Y-68550512D01*
X22011395Y-68536648D01*
X22009595Y-68533954D01*
X22007818Y-68531218D01*
X22006081Y-68528465D01*
X21970163Y-68469850D01*
X21968504Y-68467063D01*
X21966877Y-68464245D01*
X21965292Y-68461415D01*
X21945285Y-68424568D01*
X21945283Y-68424564D01*
X21932473Y-68400970D01*
X21930967Y-68398109D01*
X21929484Y-68395199D01*
X21928071Y-68392332D01*
X21911164Y-68356884D01*
X21911164Y-68356883D01*
X21898471Y-68330273D01*
X21897113Y-68327329D01*
X21895778Y-68324331D01*
X21894489Y-68321330D01*
X21892239Y-68315897D01*
X21892236Y-68315890D01*
X21868153Y-68257751D01*
X21867015Y-68254898D01*
X21865784Y-68251689D01*
X21864738Y-68248853D01*
X21841728Y-68183875D01*
X21840703Y-68180855D01*
X21839704Y-68177780D01*
X21839688Y-68177732D01*
X21838759Y-68174740D01*
X21837623Y-68170905D01*
X21819191Y-68108683D01*
X21818346Y-68105687D01*
X21817481Y-68102459D01*
X21816695Y-68099363D01*
X21812957Y-68083797D01*
X21806124Y-68055335D01*
X21800619Y-68032408D01*
X21799928Y-68029351D01*
X21799227Y-68026052D01*
X21798618Y-68022980D01*
X21790179Y-67977449D01*
X21790178Y-67977446D01*
X21786081Y-67955338D01*
X21785538Y-67952180D01*
X21785533Y-67952148D01*
X21785023Y-67948927D01*
X21784572Y-67945829D01*
X21775576Y-67877508D01*
X21775209Y-67874401D01*
X21774851Y-67871003D01*
X21774575Y-67867998D01*
X21772917Y-67846931D01*
X21772916Y-67846924D01*
X21772917Y-67846921D01*
X21769168Y-67799302D01*
X21768956Y-67796082D01*
X21768789Y-67792907D01*
X21768789Y-67792906D01*
X21768661Y-67789641D01*
X21767672Y-67751861D01*
X21766625Y-67711913D01*
X21766593Y-67710283D01*
X21766572Y-67708643D01*
X21766562Y-67707055D01*
X21766562Y-41166949D01*
X21766572Y-41165372D01*
X21766593Y-41163721D01*
X21766625Y-41162055D01*
X21766627Y-41162012D01*
X21768457Y-41092037D01*
X21768659Y-41084273D01*
X21768785Y-41081085D01*
X21768959Y-41077769D01*
X21769166Y-41074617D01*
X21774569Y-41005945D01*
X21774852Y-41002864D01*
X21775209Y-40999477D01*
X21775572Y-40996416D01*
X21784552Y-40928193D01*
X21785008Y-40925044D01*
X21785015Y-40925001D01*
X21785528Y-40921758D01*
X21786057Y-40918672D01*
X21798618Y-40850898D01*
X21799230Y-40847822D01*
X21799926Y-40844551D01*
X21800625Y-40841466D01*
X21816687Y-40774554D01*
X21817452Y-40771541D01*
X21818340Y-40768227D01*
X21819164Y-40765305D01*
X21838753Y-40699172D01*
X21839682Y-40696186D01*
X21840708Y-40693027D01*
X21841691Y-40690132D01*
X21864716Y-40625107D01*
X21865808Y-40622151D01*
X21867006Y-40619031D01*
X21868144Y-40616180D01*
X21894529Y-40552482D01*
X21895724Y-40549701D01*
X21897124Y-40546557D01*
X21898395Y-40543800D01*
X21928072Y-40481578D01*
X21929453Y-40478778D01*
X21930979Y-40475785D01*
X21932447Y-40472997D01*
X21965332Y-40412428D01*
X21966858Y-40409704D01*
X21968493Y-40406874D01*
X21970107Y-40404162D01*
X22006079Y-40345460D01*
X22007786Y-40342757D01*
X22009594Y-40339973D01*
X22011344Y-40337354D01*
X22023420Y-40319784D01*
X22050340Y-40280615D01*
X22052163Y-40278036D01*
X22054102Y-40275367D01*
X22056011Y-40272813D01*
X22097922Y-40218194D01*
X22099912Y-40215669D01*
X22101957Y-40213143D01*
X22103982Y-40210709D01*
X22148689Y-40158365D01*
X22150825Y-40155931D01*
X22152994Y-40153523D01*
X22155183Y-40151156D01*
X22202548Y-40101244D01*
X22204717Y-40099016D01*
X22207088Y-40096645D01*
X22209320Y-40094470D01*
X22259376Y-40046971D01*
X22261623Y-40044894D01*
X22264127Y-40042641D01*
X22266424Y-40040627D01*
X22318812Y-39995886D01*
X22321247Y-39993861D01*
X22321268Y-39993844D01*
X22323856Y-39991747D01*
X22326276Y-39989839D01*
X22380982Y-39947863D01*
X22383473Y-39946003D01*
X22386167Y-39944046D01*
X22388639Y-39942298D01*
X22445535Y-39903197D01*
X22448096Y-39901486D01*
X22450921Y-39899650D01*
X22453480Y-39898036D01*
X22520135Y-39857192D01*
X22521170Y-39856568D01*
X22522775Y-39855613D01*
X22523918Y-39854943D01*
X44475243Y-27181327D01*
X44497373Y-27171299D01*
X44520077Y-27163592D01*
X44531709Y-27160882D01*
X44531670Y-27160736D01*
X44539518Y-27158633D01*
X44539521Y-27158633D01*
X44679531Y-27121117D01*
X44805061Y-27048642D01*
X44907555Y-26946148D01*
X44980030Y-26820618D01*
X44999708Y-26747177D01*
X45002674Y-26740253D01*
X45013597Y-26714744D01*
X45021735Y-26701392D01*
X45073429Y-26654398D01*
X45075081Y-26653596D01*
X45135140Y-26641282D01*
X45142869Y-26641650D01*
X45169066Y-26645736D01*
X45180161Y-26648709D01*
X45249097Y-26667181D01*
X45249100Y-26667181D01*
X45394044Y-26667181D01*
X45394047Y-26667181D01*
X45534057Y-26629665D01*
X45659587Y-26557190D01*
X45762081Y-26454696D01*
X45791703Y-26403387D01*
X45813515Y-26375652D01*
X45824832Y-26364862D01*
X45886920Y-26332852D01*
X45888702Y-26332509D01*
X45949925Y-26336152D01*
G37*
%TD.AperFunction*%
%TA.AperFunction,Conductor*%
G36*
X41811529Y-62490139D02*
G01*
X41822560Y-62499930D01*
X42365534Y-63042905D01*
X42365534Y-63042904D01*
X42365536Y-63042906D01*
X42382707Y-63041555D01*
X42382707Y-63041554D01*
X42394564Y-63036987D01*
X42395832Y-63035914D01*
X42398144Y-63035608D01*
X42399555Y-63035065D01*
X42399685Y-63035404D01*
X42416225Y-63033217D01*
X42435392Y-63025745D01*
X42450160Y-63028730D01*
X42465099Y-63026755D01*
X42483713Y-63035512D01*
X42503877Y-63039588D01*
X42515705Y-63050563D01*
X42528322Y-63056499D01*
X42551130Y-63083433D01*
X42555976Y-63091165D01*
X42568612Y-63118012D01*
X42591244Y-63186310D01*
X42591249Y-63186321D01*
X42597827Y-63196985D01*
X42683350Y-63335641D01*
X42807406Y-63459697D01*
X42956728Y-63551799D01*
X43123265Y-63606984D01*
X43226053Y-63617485D01*
X44426070Y-63617484D01*
X44528859Y-63606984D01*
X44695396Y-63551799D01*
X44711302Y-63541987D01*
X44743663Y-63527928D01*
X44757050Y-63524266D01*
X44826908Y-63525561D01*
X44884972Y-63564414D01*
X44885401Y-63564928D01*
X44911605Y-63619138D01*
X44912965Y-63625678D01*
X44915562Y-63650924D01*
X44915562Y-67716924D01*
X44915561Y-67716926D01*
X44915562Y-67716927D01*
X44910538Y-67751861D01*
X44903126Y-67777102D01*
X44871831Y-67829846D01*
X44103773Y-68597903D01*
X44075521Y-68619053D01*
X44055972Y-68629728D01*
X44000075Y-68644846D01*
X43995611Y-68644973D01*
X43972686Y-68643497D01*
X43934361Y-68637427D01*
X43928414Y-68636485D01*
X43928413Y-68636485D01*
X43723706Y-68636485D01*
X43702905Y-68639778D01*
X43702905Y-68639779D01*
X43667615Y-68640282D01*
X43645527Y-68637427D01*
X43591426Y-68616805D01*
X43587741Y-68614285D01*
X43581951Y-68609481D01*
X43581564Y-68609311D01*
X43581340Y-68608974D01*
X43570056Y-68599611D01*
X39545488Y-64575043D01*
X39524336Y-64546787D01*
X39511729Y-64523698D01*
X39496562Y-64464273D01*
X39496562Y-63460153D01*
X39496572Y-63460079D01*
X39496562Y-63460043D01*
X39500285Y-63434343D01*
X39501616Y-63425112D01*
X39506444Y-63408745D01*
X39508270Y-63402523D01*
X39527310Y-63372956D01*
X39546010Y-63343856D01*
X39546089Y-63343793D01*
X39546097Y-63343781D01*
X39546114Y-63343773D01*
X39554318Y-63337257D01*
X39593281Y-63308951D01*
X39738028Y-63164204D01*
X39738030Y-63164200D01*
X39738033Y-63164198D01*
X39826157Y-63042904D01*
X39833593Y-63032669D01*
X39833593Y-63032668D01*
X39837506Y-63027283D01*
X39858349Y-62998595D01*
X39899179Y-62918460D01*
X39900716Y-62915784D01*
X39903462Y-62913153D01*
X39918089Y-62892401D01*
X39926988Y-62882979D01*
X39947399Y-62871064D01*
X39951171Y-62867451D01*
X39954802Y-62866742D01*
X39987324Y-62847757D01*
X40057130Y-62850745D01*
X40110849Y-62886914D01*
X40116922Y-62893923D01*
X40133692Y-62918828D01*
X40174206Y-62998342D01*
X40174209Y-62998345D01*
X40206579Y-63042899D01*
X40206583Y-63042904D01*
X40206585Y-63042906D01*
X40206586Y-63042907D01*
X40749565Y-62499927D01*
X40810886Y-62466444D01*
X40880577Y-62471428D01*
X40936511Y-62513299D01*
X40944629Y-62525607D01*
X40965982Y-62562591D01*
X41040456Y-62637065D01*
X41040457Y-62637066D01*
X41040459Y-62637067D01*
X41077435Y-62658415D01*
X41125650Y-62708981D01*
X41138874Y-62777588D01*
X41112906Y-62842453D01*
X41103116Y-62853483D01*
X40560137Y-63396458D01*
X40560138Y-63396458D01*
X40560138Y-63396459D01*
X40604712Y-63428844D01*
X40666014Y-63460079D01*
X40787025Y-63521738D01*
X40787027Y-63521738D01*
X40787030Y-63521740D01*
X40981644Y-63584975D01*
X41183745Y-63616985D01*
X41388378Y-63616985D01*
X41388379Y-63616985D01*
X41590479Y-63584975D01*
X41785093Y-63521740D01*
X41790632Y-63518918D01*
X41967409Y-63428845D01*
X41967408Y-63428845D01*
X41967411Y-63428844D01*
X42011983Y-63396459D01*
X41469007Y-62853483D01*
X41435522Y-62792160D01*
X41440506Y-62722468D01*
X41482378Y-62666535D01*
X41494680Y-62658419D01*
X41531668Y-62637065D01*
X41606142Y-62562591D01*
X41627492Y-62525610D01*
X41678057Y-62477396D01*
X41746664Y-62464172D01*
X41811529Y-62490139D01*
G37*
%TD.AperFunction*%
%TA.AperFunction,Conductor*%
G36*
X41124786Y-60784502D02*
G01*
X41128661Y-60785639D01*
X41130647Y-60786222D01*
X41145654Y-60795863D01*
X41162770Y-60800889D01*
X41174438Y-60814355D01*
X41189431Y-60823987D01*
X41196844Y-60840213D01*
X41208524Y-60853693D01*
X41211060Y-60871330D01*
X41218465Y-60887539D01*
X41215929Y-60905194D01*
X41218468Y-60922851D01*
X41211065Y-60939060D01*
X41208532Y-60956699D01*
X41196853Y-60970180D01*
X41189443Y-60986407D01*
X41162794Y-61009497D01*
X41162785Y-61009509D01*
X41162769Y-61009520D01*
X41162408Y-61009752D01*
X41114767Y-61027909D01*
X40981649Y-61048993D01*
X40981647Y-61048993D01*
X40981644Y-61048994D01*
X40894304Y-61077373D01*
X40787025Y-61112230D01*
X40604702Y-61205130D01*
X40560139Y-61237507D01*
X40560139Y-61237508D01*
X40560139Y-61237509D01*
X40878157Y-61555527D01*
X41103117Y-61780486D01*
X41136602Y-61841809D01*
X41131618Y-61911500D01*
X41089747Y-61967434D01*
X41077436Y-61975554D01*
X41040459Y-61996902D01*
X41040454Y-61996906D01*
X40965983Y-62071377D01*
X40965977Y-62071385D01*
X40944630Y-62108359D01*
X40894063Y-62156574D01*
X40825455Y-62169796D01*
X40760591Y-62143828D01*
X40749563Y-62134039D01*
X40206586Y-61591062D01*
X40206585Y-61591062D01*
X40206584Y-61591062D01*
X40174212Y-61635618D01*
X40174206Y-61635627D01*
X40134921Y-61712729D01*
X40115669Y-61740039D01*
X40114586Y-61741575D01*
X40105695Y-61750989D01*
X40045353Y-61786212D01*
X39975547Y-61783220D01*
X39921827Y-61747045D01*
X39915757Y-61740039D01*
X39898991Y-61715138D01*
X39858349Y-61635376D01*
X39858346Y-61635370D01*
X39738033Y-61469771D01*
X39593275Y-61325013D01*
X39593274Y-61325012D01*
X39593273Y-61325011D01*
X39438264Y-61212393D01*
X39438261Y-61212391D01*
X39427675Y-61204700D01*
X39427674Y-61204699D01*
X39427672Y-61204698D01*
X39421597Y-61201602D01*
X39421593Y-61201600D01*
X39364174Y-61172344D01*
X39245285Y-61111766D01*
X39243245Y-61111103D01*
X39050594Y-61048507D01*
X39050595Y-61048507D01*
X38925831Y-61028746D01*
X38921564Y-61027295D01*
X38919054Y-61027479D01*
X38892102Y-61018315D01*
X38886583Y-61015698D01*
X38886051Y-61015223D01*
X38885967Y-61015195D01*
X38880841Y-61012406D01*
X38863415Y-60995032D01*
X38834442Y-60969189D01*
X38833271Y-60964979D01*
X38831361Y-60963075D01*
X38826229Y-60939652D01*
X38815724Y-60901873D01*
X38817027Y-60897657D01*
X38816407Y-60894824D01*
X38825378Y-60870658D01*
X38836370Y-60835123D01*
X38839572Y-60832427D01*
X38840725Y-60829323D01*
X38864265Y-60811645D01*
X38889827Y-60790133D01*
X38890387Y-60789887D01*
X38894344Y-60789058D01*
X38896596Y-60787368D01*
X38905551Y-60786713D01*
X38940104Y-60779484D01*
X41089869Y-60779484D01*
X41124786Y-60784502D01*
G37*
%TD.AperFunction*%
%TD*%
%TA.AperFunction,Conductor*%
%TO.N,B0-Earth*%
G36*
X109989367Y-30626166D02*
G01*
X110060711Y-30629047D01*
X110067054Y-30629468D01*
X110138162Y-30636046D01*
X110144518Y-30636801D01*
X110215136Y-30647050D01*
X110221451Y-30648135D01*
X110291436Y-30662032D01*
X110297708Y-30663447D01*
X110366886Y-30680955D01*
X110373039Y-30682682D01*
X110441256Y-30703767D01*
X110447262Y-30705795D01*
X110514333Y-30730402D01*
X110520213Y-30732735D01*
X110585905Y-30760782D01*
X110591727Y-30763449D01*
X110655792Y-30794824D01*
X110661494Y-30797802D01*
X110723858Y-30832464D01*
X110729393Y-30835731D01*
X110734140Y-30838702D01*
X110789856Y-30873567D01*
X110795219Y-30877120D01*
X110853654Y-30918052D01*
X110858827Y-30921879D01*
X110915064Y-30965790D01*
X110920027Y-30969877D01*
X110973888Y-31016623D01*
X110978630Y-31020959D01*
X111017260Y-31058168D01*
X111030031Y-31070469D01*
X111034547Y-31075051D01*
X111083286Y-31127135D01*
X111087557Y-31131943D01*
X111133538Y-31186493D01*
X111137556Y-31191519D01*
X111180641Y-31248375D01*
X111184391Y-31253600D01*
X111224475Y-31312620D01*
X111227935Y-31318010D01*
X111252975Y-31359338D01*
X111264916Y-31379047D01*
X111268103Y-31384629D01*
X111301867Y-31447500D01*
X111304738Y-31453196D01*
X111335200Y-31517739D01*
X111337793Y-31523624D01*
X111364853Y-31589627D01*
X111367138Y-31595640D01*
X111390739Y-31662958D01*
X111392708Y-31669080D01*
X111412795Y-31737558D01*
X111414445Y-31743776D01*
X111430943Y-31813159D01*
X111432269Y-31819453D01*
X111445152Y-31889626D01*
X111446149Y-31895983D01*
X111455375Y-31966734D01*
X111456041Y-31973129D01*
X111461586Y-32044246D01*
X111461919Y-32050669D01*
X111463979Y-32130082D01*
X111464021Y-32133298D01*
X111464077Y-76994009D01*
X111464035Y-76997225D01*
X111461975Y-77076619D01*
X111461642Y-77083045D01*
X111456092Y-77154206D01*
X111455426Y-77160601D01*
X111446205Y-77231298D01*
X111445207Y-77237653D01*
X111432315Y-77307870D01*
X111430990Y-77314165D01*
X111414489Y-77383555D01*
X111412840Y-77389771D01*
X111392756Y-77458239D01*
X111390785Y-77464363D01*
X111367185Y-77531674D01*
X111364901Y-77537686D01*
X111337826Y-77603724D01*
X111335233Y-77609608D01*
X111304801Y-77674090D01*
X111301905Y-77679836D01*
X111268133Y-77742720D01*
X111264944Y-77748305D01*
X111227984Y-77809309D01*
X111224509Y-77814723D01*
X111184417Y-77873754D01*
X111180667Y-77878978D01*
X111137574Y-77935844D01*
X111133558Y-77940868D01*
X111087600Y-77995393D01*
X111083327Y-78000203D01*
X111034561Y-78052315D01*
X111030047Y-78056895D01*
X110978659Y-78106396D01*
X110973912Y-78110737D01*
X110920033Y-78157500D01*
X110915068Y-78161588D01*
X110858852Y-78205483D01*
X110853679Y-78209310D01*
X110795231Y-78250251D01*
X110789872Y-78253802D01*
X110729393Y-78291651D01*
X110723853Y-78294921D01*
X110661493Y-78329582D01*
X110655791Y-78332561D01*
X110591724Y-78363938D01*
X110585879Y-78366615D01*
X110520266Y-78394632D01*
X110514282Y-78397005D01*
X110447288Y-78421585D01*
X110441197Y-78423642D01*
X110373059Y-78444704D01*
X110366868Y-78446444D01*
X110297683Y-78463957D01*
X110291408Y-78465373D01*
X110221447Y-78479267D01*
X110215106Y-78480356D01*
X110144475Y-78490609D01*
X110138090Y-78491367D01*
X110067082Y-78497939D01*
X110060664Y-78498366D01*
X109989361Y-78501249D01*
X109982926Y-78501342D01*
X109911584Y-78500522D01*
X109905162Y-78500281D01*
X109833977Y-78495767D01*
X109827569Y-78495194D01*
X109756679Y-78486990D01*
X109750322Y-78486086D01*
X109721610Y-78481244D01*
X109679971Y-78474220D01*
X109673659Y-78472986D01*
X109596114Y-78455728D01*
X109592977Y-78454987D01*
X95380192Y-74901738D01*
X94145173Y-74592978D01*
X94110286Y-74576134D01*
X94109623Y-74577285D01*
X93977057Y-74500747D01*
X93977058Y-74500747D01*
X93965575Y-74497670D01*
X93837044Y-74463230D01*
X93692094Y-74463230D01*
X93600376Y-74487806D01*
X93552079Y-74500747D01*
X93552078Y-74500748D01*
X93495879Y-74533194D01*
X93427979Y-74549665D01*
X93361952Y-74526812D01*
X93326494Y-74487806D01*
X93312305Y-74463230D01*
X93305078Y-74450712D01*
X93202584Y-74348218D01*
X93202582Y-74348217D01*
X93202580Y-74348215D01*
X93077057Y-74275744D01*
X93077058Y-74275744D01*
X93065575Y-74272667D01*
X92937044Y-74238227D01*
X92792094Y-74238227D01*
X92652084Y-74275743D01*
X92652083Y-74275743D01*
X92652081Y-74275744D01*
X92595881Y-74308191D01*
X92527981Y-74324663D01*
X92461954Y-74301810D01*
X92426495Y-74262803D01*
X92423338Y-74257336D01*
X92405078Y-74225708D01*
X92302584Y-74123214D01*
X92302582Y-74123213D01*
X92302580Y-74123211D01*
X92177057Y-74050740D01*
X92177058Y-74050740D01*
X92165575Y-74047663D01*
X92037044Y-74013223D01*
X91892094Y-74013223D01*
X91800376Y-74037799D01*
X91752079Y-74050740D01*
X91752078Y-74050741D01*
X91695879Y-74083187D01*
X91627979Y-74099658D01*
X91561952Y-74076805D01*
X91526494Y-74037799D01*
X91512305Y-74013223D01*
X91505078Y-74000705D01*
X91402584Y-73898211D01*
X91402582Y-73898210D01*
X91402580Y-73898208D01*
X91277057Y-73825737D01*
X91277058Y-73825737D01*
X91265575Y-73822660D01*
X91137044Y-73788220D01*
X90992094Y-73788220D01*
X90852084Y-73825736D01*
X90852083Y-73825736D01*
X90852081Y-73825737D01*
X90795881Y-73858184D01*
X90727981Y-73874656D01*
X90661954Y-73851803D01*
X90626495Y-73812796D01*
X90623338Y-73807329D01*
X90605078Y-73775701D01*
X90502584Y-73673207D01*
X90502582Y-73673206D01*
X90502580Y-73673204D01*
X90377057Y-73600733D01*
X90377058Y-73600733D01*
X90365575Y-73597656D01*
X90237044Y-73563216D01*
X90092094Y-73563216D01*
X90092092Y-73563216D01*
X90092086Y-73563217D01*
X90091296Y-73563429D01*
X90090421Y-73563436D01*
X90084035Y-73564277D01*
X90083931Y-73563490D01*
X90029133Y-73563951D01*
X73608596Y-69458756D01*
X73605563Y-69457956D01*
X73530272Y-69437084D01*
X73524256Y-69435250D01*
X73457700Y-69413089D01*
X73451755Y-69410939D01*
X73413259Y-69395901D01*
X73386438Y-69385423D01*
X73380620Y-69382978D01*
X73316690Y-69354165D01*
X73310997Y-69351423D01*
X73291496Y-69341409D01*
X73248604Y-69319383D01*
X73243066Y-69316358D01*
X73182406Y-69281189D01*
X73177018Y-69277879D01*
X73118216Y-69239654D01*
X73113007Y-69236076D01*
X73056257Y-69194925D01*
X73051234Y-69191084D01*
X72996617Y-69147063D01*
X72991814Y-69142985D01*
X72939520Y-69096241D01*
X72934931Y-69091924D01*
X72885078Y-69042570D01*
X72880707Y-69038016D01*
X72853271Y-69007934D01*
X72833455Y-68986205D01*
X72829315Y-68981427D01*
X72816935Y-68966378D01*
X72784749Y-68927254D01*
X72780878Y-68922295D01*
X72763604Y-68898969D01*
X72739147Y-68865942D01*
X72735515Y-68860767D01*
X72696699Y-68802343D01*
X72693335Y-68796988D01*
X72690533Y-68792264D01*
X72657556Y-68736674D01*
X72654485Y-68731181D01*
X72621821Y-68669110D01*
X72619030Y-68663464D01*
X72589548Y-68599758D01*
X72587064Y-68594009D01*
X72572359Y-68557452D01*
X72560892Y-68528942D01*
X72558700Y-68523066D01*
X72535866Y-68456715D01*
X72533972Y-68450714D01*
X72514554Y-68383301D01*
X72512964Y-68377203D01*
X72497012Y-68308901D01*
X72495735Y-68302727D01*
X72483285Y-68233700D01*
X72482322Y-68227453D01*
X72481513Y-68221138D01*
X72473405Y-68157875D01*
X72472769Y-68151655D01*
X72467409Y-68081683D01*
X72467088Y-68075383D01*
X72465101Y-67997307D01*
X72465061Y-67994152D01*
X72465063Y-65065791D01*
X96964080Y-65065791D01*
X96964080Y-68161526D01*
X96964081Y-68161532D01*
X96970488Y-68221139D01*
X97020782Y-68355984D01*
X97020786Y-68355991D01*
X97107032Y-68471200D01*
X97107035Y-68471203D01*
X97222244Y-68557449D01*
X97222251Y-68557453D01*
X97357097Y-68607747D01*
X97357096Y-68607747D01*
X97364024Y-68608491D01*
X97416707Y-68614156D01*
X100512452Y-68614155D01*
X100572063Y-68607747D01*
X100706911Y-68557452D01*
X100822126Y-68471202D01*
X100908376Y-68355987D01*
X100958671Y-68221139D01*
X100965080Y-68161529D01*
X100965079Y-65065784D01*
X100958671Y-65006173D01*
X100908376Y-64871325D01*
X100908375Y-64871324D01*
X100908373Y-64871320D01*
X100822127Y-64756111D01*
X100822124Y-64756108D01*
X100706915Y-64669862D01*
X100706908Y-64669858D01*
X100572062Y-64619564D01*
X100572063Y-64619564D01*
X100512463Y-64613157D01*
X100512461Y-64613156D01*
X100512453Y-64613156D01*
X100512444Y-64613156D01*
X97416709Y-64613156D01*
X97416703Y-64613157D01*
X97357096Y-64619564D01*
X97222251Y-64669858D01*
X97222244Y-64669862D01*
X97107035Y-64756108D01*
X97107032Y-64756111D01*
X97020786Y-64871320D01*
X97020782Y-64871327D01*
X96970488Y-65006173D01*
X96964437Y-65062462D01*
X96964081Y-65065779D01*
X96964080Y-65065791D01*
X72465063Y-65065791D01*
X72465063Y-65062462D01*
X72465063Y-63315042D01*
X72465070Y-52350791D01*
X74064079Y-52350791D01*
X74064079Y-54246526D01*
X74064080Y-54246532D01*
X74070487Y-54306139D01*
X74120781Y-54440984D01*
X74120785Y-54440991D01*
X74207031Y-54556200D01*
X74207034Y-54556203D01*
X74322243Y-54642449D01*
X74322250Y-54642453D01*
X74402159Y-54672257D01*
X74458093Y-54714128D01*
X74482510Y-54779592D01*
X74467659Y-54847865D01*
X74446508Y-54876119D01*
X74396335Y-54926292D01*
X74396331Y-54926297D01*
X74266766Y-55104630D01*
X74166683Y-55301049D01*
X74166682Y-55301052D01*
X74098564Y-55510703D01*
X74068015Y-55703581D01*
X74064079Y-55728434D01*
X74064079Y-55948878D01*
X74080574Y-56053026D01*
X74098564Y-56166608D01*
X74166682Y-56376259D01*
X74166683Y-56376262D01*
X74266766Y-56572681D01*
X74396331Y-56751014D01*
X74396335Y-56751019D01*
X74552215Y-56906899D01*
X74552220Y-56906903D01*
X74707771Y-57019916D01*
X74730557Y-57036471D01*
X74858954Y-57101893D01*
X74926972Y-57136551D01*
X74926975Y-57136552D01*
X75031800Y-57170611D01*
X75136628Y-57204671D01*
X75354357Y-57239156D01*
X75354358Y-57239156D01*
X75574800Y-57239156D01*
X75574801Y-57239156D01*
X75792530Y-57204671D01*
X76002185Y-57136551D01*
X76198601Y-57036471D01*
X76376944Y-56906898D01*
X76532821Y-56751021D01*
X76662394Y-56572678D01*
X76762474Y-56376262D01*
X76830594Y-56166607D01*
X76865079Y-55948878D01*
X76865079Y-55728434D01*
X76830594Y-55510705D01*
X76785294Y-55371283D01*
X76762475Y-55301052D01*
X76762474Y-55301049D01*
X76720877Y-55219412D01*
X76662394Y-55104634D01*
X76645839Y-55081848D01*
X76532826Y-54926297D01*
X76532822Y-54926292D01*
X76482650Y-54876120D01*
X76449165Y-54814797D01*
X76454149Y-54745105D01*
X76496021Y-54689172D01*
X76526999Y-54672257D01*
X76606905Y-54642454D01*
X76606905Y-54642453D01*
X76606910Y-54642452D01*
X76722125Y-54556202D01*
X76808375Y-54440987D01*
X76858670Y-54306139D01*
X76865079Y-54246529D01*
X76865078Y-53362648D01*
X83376579Y-53362648D01*
X83376579Y-53564663D01*
X83415986Y-53762775D01*
X83415988Y-53762783D01*
X83493292Y-53949411D01*
X83546983Y-54029765D01*
X83567861Y-54096443D01*
X83549376Y-54163823D01*
X83546983Y-54167547D01*
X83493292Y-54247900D01*
X83415988Y-54434528D01*
X83415986Y-54434536D01*
X83376579Y-54632648D01*
X83376579Y-54834663D01*
X83415986Y-55032775D01*
X83415989Y-55032787D01*
X83449626Y-55113994D01*
X83457095Y-55183463D01*
X83437484Y-55228520D01*
X83437974Y-55228788D01*
X83434989Y-55234252D01*
X83434339Y-55235748D01*
X83433725Y-55236567D01*
X83433724Y-55236569D01*
X83383482Y-55371276D01*
X83383480Y-55371283D01*
X83377079Y-55430811D01*
X83377079Y-55753656D01*
X84261213Y-55753656D01*
X84285405Y-55756039D01*
X84288202Y-55756595D01*
X84301074Y-55759155D01*
X84301075Y-55759156D01*
X84301076Y-55759156D01*
X84341249Y-55759156D01*
X84327004Y-55773401D01*
X84277635Y-55858911D01*
X84252079Y-55954286D01*
X84252079Y-56053026D01*
X84277635Y-56148401D01*
X84327004Y-56233911D01*
X84346749Y-56253656D01*
X83377079Y-56253656D01*
X83377079Y-56576500D01*
X83383480Y-56636028D01*
X83383482Y-56636035D01*
X83433724Y-56770742D01*
X83433728Y-56770749D01*
X83519888Y-56885843D01*
X83519891Y-56885846D01*
X83634985Y-56972006D01*
X83634992Y-56972010D01*
X83769699Y-57022252D01*
X83769706Y-57022254D01*
X83829234Y-57028655D01*
X83829251Y-57028656D01*
X84377079Y-57028656D01*
X84377079Y-56283986D01*
X84396824Y-56303731D01*
X84482334Y-56353100D01*
X84577709Y-56378656D01*
X84676449Y-56378656D01*
X84771824Y-56353100D01*
X84857334Y-56303731D01*
X84877079Y-56283986D01*
X84877079Y-57028656D01*
X85424907Y-57028656D01*
X85424923Y-57028655D01*
X85484451Y-57022254D01*
X85484458Y-57022252D01*
X85619165Y-56972010D01*
X85619172Y-56972006D01*
X85734266Y-56885846D01*
X85734269Y-56885843D01*
X85820429Y-56770749D01*
X85820433Y-56770742D01*
X85870675Y-56636035D01*
X85870677Y-56636028D01*
X85877078Y-56576500D01*
X85877079Y-56576483D01*
X85877079Y-56253656D01*
X84907409Y-56253656D01*
X84927154Y-56233911D01*
X84976523Y-56148401D01*
X85002079Y-56053026D01*
X85002079Y-55954286D01*
X84976523Y-55858911D01*
X84927154Y-55773401D01*
X84912909Y-55759156D01*
X84953083Y-55759156D01*
X84953083Y-55759155D01*
X84966552Y-55756476D01*
X84968753Y-55756039D01*
X84992945Y-55753656D01*
X85877079Y-55753656D01*
X85877079Y-55430828D01*
X85877078Y-55430811D01*
X85870677Y-55371283D01*
X85870675Y-55371276D01*
X85820433Y-55236569D01*
X85820432Y-55236567D01*
X85819824Y-55235755D01*
X85819469Y-55234804D01*
X85816182Y-55228784D01*
X85817047Y-55228311D01*
X85795408Y-55170290D01*
X85804531Y-55113994D01*
X85838170Y-55032783D01*
X85877579Y-54834659D01*
X85877579Y-54632653D01*
X85838170Y-54434529D01*
X85760865Y-54247900D01*
X85707173Y-54167545D01*
X85686296Y-54100870D01*
X85704780Y-54033490D01*
X85707157Y-54029790D01*
X85760865Y-53949412D01*
X85838170Y-53762783D01*
X85876682Y-53569169D01*
X86464079Y-53569169D01*
X86464079Y-53758142D01*
X86493638Y-53944774D01*
X86552033Y-54124492D01*
X86614210Y-54246520D01*
X86637819Y-54292855D01*
X86748889Y-54445729D01*
X86882506Y-54579346D01*
X86882509Y-54579348D01*
X86882512Y-54579350D01*
X86929292Y-54613339D01*
X86971958Y-54668669D01*
X86977936Y-54738282D01*
X86945330Y-54800077D01*
X86929292Y-54813973D01*
X86882512Y-54847961D01*
X86882503Y-54847968D01*
X86748891Y-54981580D01*
X86748891Y-54981581D01*
X86748889Y-54981583D01*
X86711696Y-55032775D01*
X86637819Y-55134456D01*
X86552033Y-55302819D01*
X86493638Y-55482537D01*
X86464079Y-55669169D01*
X86464079Y-55858142D01*
X86493638Y-56044774D01*
X86552033Y-56224492D01*
X86592408Y-56303731D01*
X86637819Y-56392855D01*
X86748889Y-56545729D01*
X86882506Y-56679346D01*
X87035380Y-56790416D01*
X87114926Y-56830946D01*
X87203742Y-56876201D01*
X87203744Y-56876201D01*
X87203747Y-56876203D01*
X87298216Y-56906898D01*
X87383460Y-56934596D01*
X87570093Y-56964156D01*
X87570098Y-56964156D01*
X87759065Y-56964156D01*
X87945697Y-56934596D01*
X87947202Y-56934107D01*
X88125411Y-56876203D01*
X88293778Y-56790416D01*
X88319761Y-56771538D01*
X92090248Y-56771538D01*
X92090249Y-56771539D01*
X92115638Y-56789985D01*
X92283941Y-56875741D01*
X92463576Y-56934107D01*
X92650132Y-56963656D01*
X92839026Y-56963656D01*
X93025581Y-56934107D01*
X93205216Y-56875741D01*
X93373516Y-56789987D01*
X93398907Y-56771539D01*
X93398907Y-56771538D01*
X92744580Y-56117210D01*
X92744579Y-56117210D01*
X92090248Y-56771538D01*
X88319761Y-56771538D01*
X88446652Y-56679346D01*
X88580269Y-56545729D01*
X88691339Y-56392855D01*
X88777126Y-56224488D01*
X88835519Y-56044774D01*
X88849851Y-55954286D01*
X88865079Y-55858142D01*
X88865079Y-55669208D01*
X91544579Y-55669208D01*
X91544579Y-55858103D01*
X91574127Y-56044658D01*
X91632493Y-56224293D01*
X91718245Y-56392589D01*
X91736695Y-56417984D01*
X92391025Y-55763656D01*
X92391025Y-55763655D01*
X92344948Y-55717578D01*
X92394579Y-55717578D01*
X92394579Y-55809734D01*
X92418431Y-55898751D01*
X92464509Y-55978561D01*
X92529674Y-56043726D01*
X92609484Y-56089804D01*
X92698501Y-56113656D01*
X92790657Y-56113656D01*
X92879674Y-56089804D01*
X92959484Y-56043726D01*
X93024649Y-55978561D01*
X93070727Y-55898751D01*
X93094579Y-55809734D01*
X93094579Y-55763655D01*
X93098133Y-55763655D01*
X93098133Y-55763656D01*
X93752461Y-56417984D01*
X93752462Y-56417984D01*
X93770910Y-56392593D01*
X93856664Y-56224293D01*
X93915030Y-56044658D01*
X93944579Y-55858103D01*
X93944579Y-55669208D01*
X93915030Y-55482653D01*
X93856664Y-55303018D01*
X93770908Y-55134715D01*
X93752462Y-55109326D01*
X93752461Y-55109325D01*
X93098133Y-55763655D01*
X93094579Y-55763655D01*
X93094579Y-55717578D01*
X93070727Y-55628561D01*
X93024649Y-55548751D01*
X92959484Y-55483586D01*
X92879674Y-55437508D01*
X92790657Y-55413656D01*
X92698501Y-55413656D01*
X92609484Y-55437508D01*
X92529674Y-55483586D01*
X92464509Y-55548751D01*
X92418431Y-55628561D01*
X92394579Y-55717578D01*
X92344948Y-55717578D01*
X91736695Y-55109325D01*
X91736695Y-55109326D01*
X91718248Y-55134716D01*
X91632493Y-55303018D01*
X91574127Y-55482653D01*
X91544579Y-55669208D01*
X88865079Y-55669208D01*
X88865079Y-55669169D01*
X88835519Y-55482537D01*
X88799370Y-55371283D01*
X88777126Y-55302824D01*
X88777124Y-55302821D01*
X88777124Y-55302819D01*
X88716309Y-55183463D01*
X88691339Y-55134457D01*
X88580269Y-54981583D01*
X88446652Y-54847966D01*
X88399865Y-54813973D01*
X88357200Y-54758644D01*
X88351221Y-54689031D01*
X88383827Y-54627236D01*
X88399866Y-54613338D01*
X88446652Y-54579346D01*
X88580269Y-54445729D01*
X88691339Y-54292855D01*
X88777126Y-54124488D01*
X88835519Y-53944774D01*
X88865079Y-53758142D01*
X88865079Y-53569169D01*
X91544079Y-53569169D01*
X91544079Y-53758142D01*
X91573638Y-53944774D01*
X91632033Y-54124492D01*
X91694210Y-54246520D01*
X91717819Y-54292855D01*
X91828889Y-54445729D01*
X91962506Y-54579346D01*
X92040292Y-54635861D01*
X92082958Y-54691191D01*
X92091025Y-54745909D01*
X92090248Y-54755772D01*
X92744579Y-55410102D01*
X92744580Y-55410102D01*
X93398907Y-54755772D01*
X93398131Y-54745910D01*
X93412495Y-54677533D01*
X93448862Y-54635863D01*
X93526652Y-54579346D01*
X93660269Y-54445729D01*
X93771339Y-54292855D01*
X93857126Y-54124488D01*
X93915519Y-53944774D01*
X93945079Y-53758142D01*
X93945079Y-53569169D01*
X93915519Y-53382537D01*
X93857124Y-53202819D01*
X93771338Y-53034456D01*
X93660269Y-52881583D01*
X93526652Y-52747966D01*
X93373778Y-52636896D01*
X93205415Y-52551110D01*
X93025697Y-52492715D01*
X92839065Y-52463156D01*
X92839060Y-52463156D01*
X92650098Y-52463156D01*
X92650093Y-52463156D01*
X92463460Y-52492715D01*
X92283742Y-52551110D01*
X92115379Y-52636896D01*
X92028158Y-52700266D01*
X91962506Y-52747966D01*
X91962504Y-52747968D01*
X91962503Y-52747968D01*
X91828891Y-52881580D01*
X91828891Y-52881581D01*
X91828889Y-52881583D01*
X91781189Y-52947235D01*
X91717819Y-53034456D01*
X91632033Y-53202819D01*
X91573638Y-53382537D01*
X91544079Y-53569169D01*
X88865079Y-53569169D01*
X88835519Y-53382537D01*
X88777124Y-53202819D01*
X88691338Y-53034456D01*
X88580269Y-52881583D01*
X88446652Y-52747966D01*
X88293778Y-52636896D01*
X88125415Y-52551110D01*
X87945697Y-52492715D01*
X87759065Y-52463156D01*
X87759060Y-52463156D01*
X87570098Y-52463156D01*
X87570093Y-52463156D01*
X87383460Y-52492715D01*
X87203742Y-52551110D01*
X87035379Y-52636896D01*
X86948158Y-52700266D01*
X86882506Y-52747966D01*
X86882504Y-52747968D01*
X86882503Y-52747968D01*
X86748891Y-52881580D01*
X86748891Y-52881581D01*
X86748889Y-52881583D01*
X86701189Y-52947235D01*
X86637819Y-53034456D01*
X86552033Y-53202819D01*
X86493638Y-53382537D01*
X86464079Y-53569169D01*
X85876682Y-53569169D01*
X85877579Y-53564659D01*
X85877579Y-53362653D01*
X85838170Y-53164529D01*
X85760865Y-52977900D01*
X85760863Y-52977897D01*
X85760861Y-52977893D01*
X85648637Y-52809937D01*
X85505797Y-52667097D01*
X85337841Y-52554873D01*
X85337831Y-52554868D01*
X85151206Y-52477565D01*
X85151198Y-52477563D01*
X84953086Y-52438156D01*
X84953082Y-52438156D01*
X84301076Y-52438156D01*
X84301071Y-52438156D01*
X84102959Y-52477563D01*
X84102951Y-52477565D01*
X83916326Y-52554868D01*
X83916316Y-52554873D01*
X83748360Y-52667097D01*
X83605520Y-52809937D01*
X83493296Y-52977893D01*
X83493291Y-52977903D01*
X83415988Y-53164528D01*
X83415986Y-53164536D01*
X83376579Y-53362648D01*
X76865078Y-53362648D01*
X76865078Y-53202824D01*
X76865078Y-52350785D01*
X76865077Y-52350779D01*
X76865076Y-52350772D01*
X76858670Y-52291173D01*
X76808375Y-52156325D01*
X76808374Y-52156324D01*
X76808372Y-52156320D01*
X76722126Y-52041111D01*
X76722123Y-52041108D01*
X76606914Y-51954862D01*
X76606907Y-51954858D01*
X76472061Y-51904564D01*
X76472062Y-51904564D01*
X76412462Y-51898157D01*
X76412460Y-51898156D01*
X76412452Y-51898156D01*
X76412443Y-51898156D01*
X74516708Y-51898156D01*
X74516702Y-51898157D01*
X74457095Y-51904564D01*
X74322250Y-51954858D01*
X74322243Y-51954862D01*
X74207034Y-52041108D01*
X74207031Y-52041111D01*
X74120785Y-52156320D01*
X74120781Y-52156327D01*
X74070487Y-52291173D01*
X74064436Y-52347462D01*
X74064080Y-52350779D01*
X74064079Y-52350791D01*
X72465070Y-52350791D01*
X72465074Y-45992561D01*
X96964580Y-45992561D01*
X96964580Y-46254750D01*
X96998800Y-46514665D01*
X96998802Y-46514676D01*
X97066655Y-46767911D01*
X97166984Y-47010127D01*
X97166989Y-47010138D01*
X97298068Y-47237172D01*
X97298074Y-47237180D01*
X97384660Y-47350021D01*
X98287001Y-46447680D01*
X98299939Y-46478914D01*
X98382017Y-46601753D01*
X98486483Y-46706219D01*
X98609322Y-46788297D01*
X98640554Y-46801233D01*
X97738213Y-47703573D01*
X97738213Y-47703574D01*
X97851055Y-47790161D01*
X97851063Y-47790167D01*
X98078097Y-47921246D01*
X98078108Y-47921251D01*
X98320324Y-48021580D01*
X98573559Y-48089433D01*
X98573570Y-48089435D01*
X98833485Y-48123655D01*
X98833500Y-48123656D01*
X99095660Y-48123656D01*
X99095674Y-48123655D01*
X99355589Y-48089435D01*
X99355600Y-48089433D01*
X99608835Y-48021580D01*
X99851051Y-47921251D01*
X99851062Y-47921246D01*
X100078096Y-47790167D01*
X100078114Y-47790155D01*
X100190945Y-47703575D01*
X100190945Y-47703573D01*
X99288605Y-46801234D01*
X99319838Y-46788297D01*
X99442677Y-46706219D01*
X99547143Y-46601753D01*
X99629221Y-46478914D01*
X99642157Y-46447681D01*
X100544497Y-47350021D01*
X100544499Y-47350021D01*
X100631079Y-47237190D01*
X100631091Y-47237172D01*
X100762170Y-47010138D01*
X100762175Y-47010127D01*
X100862504Y-46767911D01*
X100930357Y-46514676D01*
X100930359Y-46514665D01*
X100964579Y-46254750D01*
X100964580Y-46254736D01*
X100964580Y-45992575D01*
X100964579Y-45992561D01*
X100930359Y-45732646D01*
X100930357Y-45732635D01*
X100862504Y-45479400D01*
X100762175Y-45237184D01*
X100762170Y-45237173D01*
X100631091Y-45010139D01*
X100631085Y-45010131D01*
X100544498Y-44897289D01*
X100544497Y-44897289D01*
X99642157Y-45799629D01*
X99629221Y-45768398D01*
X99547143Y-45645559D01*
X99442677Y-45541093D01*
X99319838Y-45459015D01*
X99288603Y-45446077D01*
X100190945Y-44543736D01*
X100078104Y-44457150D01*
X100078096Y-44457144D01*
X99851062Y-44326065D01*
X99851051Y-44326060D01*
X99608835Y-44225731D01*
X99355600Y-44157878D01*
X99355589Y-44157876D01*
X99095674Y-44123656D01*
X98833485Y-44123656D01*
X98573570Y-44157876D01*
X98573559Y-44157878D01*
X98320324Y-44225731D01*
X98078108Y-44326060D01*
X98078097Y-44326065D01*
X97851051Y-44457152D01*
X97738213Y-44543735D01*
X97738213Y-44543736D01*
X98640554Y-45446077D01*
X98609322Y-45459015D01*
X98486483Y-45541093D01*
X98382017Y-45645559D01*
X98299939Y-45768398D01*
X98287001Y-45799630D01*
X97384660Y-44897289D01*
X97384659Y-44897289D01*
X97298076Y-45010127D01*
X97166989Y-45237173D01*
X97166984Y-45237184D01*
X97066655Y-45479400D01*
X96998802Y-45732635D01*
X96998800Y-45732646D01*
X96964580Y-45992561D01*
X72465074Y-45992561D01*
X72465077Y-41133122D01*
X72465115Y-41130114D01*
X72467113Y-41051920D01*
X72467433Y-41045661D01*
X72472795Y-40975719D01*
X72473438Y-40969444D01*
X72479342Y-40923395D01*
X72482357Y-40899876D01*
X72483313Y-40893678D01*
X72495775Y-40824607D01*
X72497047Y-40818455D01*
X72513010Y-40750127D01*
X72514588Y-40744072D01*
X72534025Y-40676599D01*
X72535901Y-40670663D01*
X72558744Y-40604291D01*
X72560922Y-40598451D01*
X72587130Y-40533300D01*
X72589605Y-40527574D01*
X72619096Y-40463853D01*
X72621872Y-40458238D01*
X72654551Y-40396142D01*
X72657604Y-40390683D01*
X72693414Y-40330319D01*
X72696741Y-40325023D01*
X72735589Y-40266553D01*
X72739177Y-40261441D01*
X72780931Y-40205056D01*
X72784821Y-40200075D01*
X72829379Y-40145913D01*
X72833503Y-40141151D01*
X72880767Y-40089326D01*
X72885139Y-40084772D01*
X72934996Y-40035410D01*
X72939555Y-40031122D01*
X72970041Y-40003871D01*
X72991867Y-39984363D01*
X72996683Y-39980274D01*
X73020812Y-39960824D01*
X73051298Y-39936249D01*
X73056245Y-39932465D01*
X73113082Y-39891247D01*
X73118278Y-39887679D01*
X73158991Y-39861211D01*
X73177081Y-39849450D01*
X73182385Y-39846190D01*
X73243149Y-39810958D01*
X73248653Y-39807953D01*
X73311051Y-39775906D01*
X73316727Y-39773171D01*
X73380712Y-39744329D01*
X73386464Y-39741911D01*
X73451828Y-39716373D01*
X73457678Y-39714257D01*
X73524331Y-39692057D01*
X73530299Y-39690238D01*
X73605648Y-39669343D01*
X73608579Y-39668571D01*
X90029131Y-35563427D01*
X90083933Y-35563890D01*
X90084037Y-35563104D01*
X90090428Y-35563945D01*
X90091302Y-35563952D01*
X90092094Y-35564165D01*
X90092097Y-35564165D01*
X90237041Y-35564165D01*
X90237044Y-35564165D01*
X90377054Y-35526649D01*
X90502584Y-35454174D01*
X90605078Y-35351680D01*
X90626494Y-35314585D01*
X90677061Y-35266371D01*
X90745668Y-35253147D01*
X90795879Y-35269198D01*
X90852084Y-35301648D01*
X90992094Y-35339164D01*
X90992097Y-35339164D01*
X91137041Y-35339164D01*
X91137044Y-35339164D01*
X91277054Y-35301648D01*
X91402584Y-35229173D01*
X91505078Y-35126679D01*
X91526494Y-35089584D01*
X91577059Y-35041371D01*
X91645666Y-35028147D01*
X91695880Y-35044199D01*
X91752080Y-35076646D01*
X91752081Y-35076646D01*
X91752084Y-35076648D01*
X91892094Y-35114164D01*
X91892097Y-35114164D01*
X92037041Y-35114164D01*
X92037044Y-35114164D01*
X92177054Y-35076648D01*
X92302584Y-35004173D01*
X92405078Y-34901679D01*
X92426494Y-34864584D01*
X92477059Y-34816371D01*
X92545666Y-34803147D01*
X92595880Y-34819199D01*
X92652080Y-34851646D01*
X92652081Y-34851646D01*
X92652084Y-34851648D01*
X92792094Y-34889164D01*
X92792097Y-34889164D01*
X92937041Y-34889164D01*
X92937044Y-34889164D01*
X93077054Y-34851648D01*
X93202584Y-34779173D01*
X93305078Y-34676679D01*
X93326494Y-34639584D01*
X93377061Y-34591370D01*
X93445668Y-34578146D01*
X93495879Y-34594197D01*
X93552084Y-34626647D01*
X93692094Y-34664163D01*
X93692097Y-34664163D01*
X93837041Y-34664163D01*
X93837044Y-34664163D01*
X93977054Y-34626647D01*
X94033257Y-34594198D01*
X94109624Y-34550108D01*
X94110288Y-34551258D01*
X94145175Y-34534413D01*
X109593114Y-30672424D01*
X109596120Y-30671714D01*
X109673727Y-30654439D01*
X109679970Y-30653217D01*
X109750396Y-30641335D01*
X109756726Y-30640435D01*
X109827607Y-30632228D01*
X109833987Y-30631657D01*
X109905202Y-30627137D01*
X109911625Y-30626896D01*
X109983010Y-30626074D01*
X109989367Y-30626166D01*
G37*
%TD.AperFunction*%
%TD*%
M02*
